<svg enable-background="new 0 0 512 512" viewBox="0 0 512 512" xmlns="http://www.w3.org/2000/svg"><path d="m503.963 290.004c0-6.471-5.295-11.766-11.766-11.766h-82.369c-6.471 0-11.766 5.295-11.766 11.766v108.23c0 6.471 5.295 11.766 11.766 11.766h82.368c6.471 0 11.766-5.295 11.766-11.766v-108.23z" fill="#ffc843"/><path d="m409.828 278.238c-6.471 0-11.766 5.295-11.766 11.766v108.23c0 6.471 5.295 11.766 11.766 11.766h54.382v-131.762z" opacity=".2"/><path d="m503.963 102.922c0-6.471-5.295-11.766-11.766-11.766h-82.369c-6.471 0-11.766 5.295-11.766 11.766v108.228c0 6.471 5.295 11.768 11.766 11.768h82.368c6.471 0 11.766-5.297 11.766-11.768v-108.228z" fill="#0055b8"/><path d="m409.828 91.156c-6.471 0-11.766 5.295-11.766 11.766v108.228c0 6.471 5.295 11.768 11.766 11.768h54.382v-131.762z" opacity=".2"/><path d="m442.776 70.234c0-19.414-15.884-35.299-35.3-35.299h-318.251c-19.415 0-35.3 15.885-35.3 35.299v371.533c0 19.414 15.885 35.297 35.3 35.297h318.251c19.416 0 35.3-15.883 35.3-35.297z" fill="#0082ca"/><path d="m369.835 141.656c0-11.926-9.757-21.682-21.681-21.682h-174.902c-11.925 0-21.681 9.757-21.681 21.682v40.532c0 11.924 9.757 21.68 21.681 21.68h174.901c11.925 0 21.681-9.757 21.681-21.68v-40.532z" fill="#fff"/><g fill="#333e48"><path d="m73.515 68.861c14.524 0 26.296 11.775 26.296 26.298s-11.772 26.296-26.296 26.296h-39.182c-14.522 0-26.296-11.772-26.296-26.296s11.773-26.298 26.296-26.298z"/><path d="m73.515 176.09c14.524 0 26.296 11.775 26.296 26.298 0 14.521-11.772 26.294-26.296 26.294h-39.182c-14.522 0-26.296-11.772-26.296-26.294 0-14.523 11.774-26.298 26.296-26.298z"/><path d="m73.515 283.317c14.524 0 26.296 11.772 26.296 26.296s-11.772 26.296-26.296 26.296h-39.182c-14.522 0-26.296-11.772-26.296-26.296s11.774-26.296 26.296-26.296z"/><path d="m73.515 390.543c14.524 0 26.296 11.775 26.296 26.298 0 14.521-11.772 26.296-26.296 26.296h-39.182c-14.522 0-26.296-11.775-26.296-26.296 0-14.523 11.774-26.298 26.296-26.298z"/></g><path d="m99.811 95.159c0 14.523-11.772 26.296-26.296 26.296h-39.182c-14.522 0-26.296-11.772-26.296-26.296z" opacity=".2"/><path d="m99.811 202.387c0 14.521-11.772 26.294-26.296 26.294h-39.182c-14.522 0-26.296-11.772-26.296-26.294z" opacity=".2"/><path d="m99.811 309.613c0 14.523-11.772 26.296-26.296 26.296h-39.182c-14.522 0-26.296-11.772-26.296-26.296z" opacity=".2"/><path d="m99.811 416.841c0 14.521-11.772 26.296-26.296 26.296h-39.182c-14.522 0-26.296-11.775-26.296-26.296z" opacity=".2"/><path d="m331.863 247.959h-142.322c-4.439 0-8.037 3.597-8.037 8.037s3.598 8.037 8.037 8.037h142.322c4.439 0 8.037-3.597 8.037-8.037s-3.598-8.037-8.037-8.037zm160.333-17.005c10.919 0 19.803-8.883 19.803-19.803v-108.229c0-10.919-8.883-19.803-19.803-19.803h-41.385v-12.885c0-23.896-19.441-43.336-43.337-43.336h-318.249c-20.728 0-38.019 14.387-42.306 33.926h-12.586c-18.931 0-34.333 15.403-34.333 34.335 0 18.931 15.402 34.333 34.333 34.333h11.555v38.56h-11.555c-18.931.001-34.333 15.403-34.333 34.335 0 18.93 15.402 34.33 34.333 34.33h11.555v38.562h-11.555c-18.931.001-34.333 15.403-34.333 34.334s15.402 34.333 34.333 34.333h11.555v38.56h-11.555c-18.931 0-34.333 15.403-34.333 34.335 0 18.931 15.402 34.333 34.333 34.333h12.585c4.286 19.541 21.577 33.929 42.307 33.929h318.251c23.896 0 43.337-19.44 43.337-43.334v-23.73h41.385c10.919 0 19.803-8.883 19.803-19.803v-108.23c0-10.919-8.883-19.803-19.803-19.803h-41.385v-39.247h41.384v-.002zm-41.384-131.761h41.385c2.022 0 3.729 1.708 3.729 3.729v108.228c0 2.022-1.708 3.729-3.729 3.729h-41.385zm-416.479 14.225c-10.069 0-18.259-8.19-18.259-18.259s8.19-18.261 18.259-18.261h39.182c10.069 0 18.259 8.192 18.259 18.261s-8.191 18.259-18.259 18.259zm0 107.226c-10.069 0-18.259-8.19-18.259-18.257 0-10.069 8.19-18.261 18.259-18.261h39.182c10.069 0 18.259 8.192 18.259 18.261 0 10.068-8.191 18.257-18.259 18.257zm0 107.227c-10.069 0-18.259-8.19-18.259-18.259s8.19-18.259 18.259-18.259h39.182c10.069 0 18.259 8.19 18.259 18.259s-8.191 18.259-18.259 18.259zm0 107.229c-10.069 0-18.259-8.191-18.259-18.259 0-10.069 8.19-18.261 18.259-18.261h39.182c10.069 0 18.259 8.192 18.259 18.261s-8.191 18.259-18.259 18.259zm400.406 6.667c0 15.031-12.23 27.26-27.263 27.26h-318.251c-11.542 0-21.648-7.488-25.547-17.855h9.837c18.931 0 34.333-15.402 34.333-34.333 0-18.932-15.402-34.335-34.333-34.335h-11.554v-38.56h11.554c18.931 0 34.333-15.402 34.333-34.333s-15.402-34.331-34.333-34.331h-11.554v-38.562h11.554c18.931 0 34.333-15.401 34.333-34.33 0-18.933-15.402-34.335-34.333-34.335h-11.554v-38.56h11.554c18.931 0 34.333-15.402 34.333-34.333 0-18.932-15.402-34.335-34.333-34.335h-9.836c3.9-10.364 14.006-17.853 25.546-17.853h318.251c15.033 0 27.263 12.23 27.263 27.262zm57.457-155.492c2.022 0 3.729 1.708 3.729 3.729v108.23c0 2.022-1.708 3.729-3.729 3.729h-41.385v-115.688z" fill="#1e252b"/></svg>