<svg fill="none" height="48" viewBox="0 0 48 48" width="48" xmlns="http://www.w3.org/2000/svg"><path clip-rule="evenodd" d="m21.1123 16.9711c-.6154.5668-1.1123 1.5019-1.1123 3.0289 0 .9287.0632 1.4601.1319 1.7673.0567.2531.1089.3194.1196.333l.0014.0018c.0503.0677.0723.0889.1341.1487.0601.0581.1577.1526.3555.3613.333.3515.7035.8078 1.0464 1.4935.3653.7306.6214 1.3622.8007 1.8944h2.8208c.1793-.5322.4354-1.1638.8007-1.8944.3429-.6857.7134-1.142 1.0464-1.4935.1977-.2087.2954-.3032.3555-.3613.0618-.0598.0838-.081.1341-.1487l.0014-.0018c.0107-.0136.0629-.0799.1196-.333.0687-.3072.1319-.8386.1319-1.7673 0-1.527-.4969-2.4621-1.1123-3.0289-.6423-.5915-1.6219-.9711-2.8877-.9711s-2.2454.3796-2.8877.9711zm-3.1123 3.0289c0-4 2.6863-6 6-6s6 2 6 6c0 2.6936-.4804 3.1738-1.0815 3.7746-.2915.2913-.6113.6111-.9185 1.2254-.4286.8571-.6735 1.5306-.8134 2.0204-.1517.531-.6343.9796-1.1866.9796h-4c-.5523 0-1.0349-.4486-1.1866-.9796-.1399-.4898-.3848-1.1633-.8134-2.0204-.3072-.6143-.627-.9341-.9185-1.2254-.6011-.6008-1.0815-1.081-1.0815-3.7746zm3 9.5c0-.2761.2239-.5.5-.5h5c.2761 0 .5.2239.5.5v2.241c0 .1624-.0783.3144-.2145.4029-.362.235-1.1149.6903-1.7323.8436-.0354.0088-.072.0125-.1084.0125h-1.8899c-.0365 0-.0727-.0037-.1081-.0125-.6174-.1533-1.3703-.6086-1.7323-.8436-.1362-.0885-.2145-.2405-.2145-.4029zm2-9.9915v-.0001c-.0045.5484-.4505.9916-1 .9916-.5523 0-1-.4477-1-1 0-.5133.2267-1.1029.5941-1.5622.3928-.491 1.0342-.9378 1.9059-.9378.5523 0 1 .4477 1 1s-.4477 1-1 1c-.1283 0-.237.0532-.3441.1872-.0558.0697-.0995.1496-.1277.2235-.0202.0532-.0261.0861-.0277.0952-.0003.0017-.0004.0026-.0005.0026z" fill="#222" fill-rule="evenodd"/></svg>