<svg width="50" height="50" version="1.1" viewBox="0 0 13.229 13.229" xmlns="http://www.w3.org/2000/svg">
 <path d="m12.921 6.5949a6.3321 6.3321 0 0 1-6.3321 6.3321 6.3321 6.3321 0 0 1-6.3321-6.3321 6.3321 6.3321 0 0 1 6.3321-6.3321 6.3321 6.3321 0 0 1 6.3321 6.3321" fill="none" stroke="#fff" stroke-linejoin="round" stroke-width=".33126"/>
 <path d="m11.908 6.5641a5.2452 5.1408 0 0 1-5.2452 5.1408 5.2452 5.1408 0 0 1-5.2452-5.1408 5.2452 5.1408 0 0 1 5.2452-5.1408 5.2452 5.1408 0 0 1 5.2452 5.1408" fill="none"/>
 <path d="m2.6058 9.5282-0.65852 2.2637 2.4283-1.0289z" fill="#fff"/>
 <g transform="matrix(.12591 0 0 .13394 -4.1361 -13.187)" fill="#fff" aria-label="A">
  <path d="m92.12 120.04 21.081 43.568q1.3274 2.6547 1.3274 3.9821 0 2.8109-4.5286 5.0752-2.6547 1.3274-4.2163 1.3274-1.4835 0-2.4986-0.70272-0.93696-0.70271-1.4054-1.4835-0.3904-0.7808-1.1712-2.3424l-4.0601-8.4326h-21.628l-4.0601 8.4326q-0.7808 1.5616-1.2493 2.2643-0.3904 0.70272-1.4054 1.4835-0.93696 0.70272-2.4985 0.70272-1.4835 0-4.1382-1.3274-4.5286-2.1862-4.5286-4.9971 0-1.3274 1.3274-3.9821l21.081-43.646q0.85888-1.7958 2.5766-2.889 1.7958-1.0931 3.7478-1.0931 4.2163 0 6.2464 4.0601zm-6.3244 18.739-5.1533 10.697h10.385z" fill="#fff"/>
 </g>
</svg>
