<?xml version="1.0" encoding="UTF-8" standalone="no"?>
<svg
   xmlns:dc="http://purl.org/dc/elements/1.1/"
   xmlns:cc="http://creativecommons.org/ns#"
   xmlns:rdf="http://www.w3.org/1999/02/22-rdf-syntax-ns#"
   xmlns:svg="http://www.w3.org/2000/svg"
   xmlns="http://www.w3.org/2000/svg"
   xmlns:sodipodi="http://sodipodi.sourceforge.net/DTD/sodipodi-0.dtd"
   xmlns:inkscape="http://www.inkscape.org/namespaces/inkscape"
   sodipodi:docname="AffiChanGe.svg"
   inkscape:version="1.0 (4035a4fb49, 2020-05-01)"
   id="svg8"
   version="1.1"
   viewBox="0 0 39.687499 39.687501"
   height="150"
   width="150">
  <defs
     id="defs2" />
  <sodipodi:namedview
     inkscape:window-maximized="0"
     inkscape:window-y="1"
     inkscape:window-x="1570"
     inkscape:window-height="900"
     inkscape:window-width="1649"
     units="px"
     showgrid="false"
     inkscape:document-rotation="0"
     inkscape:current-layer="layer1"
     inkscape:document-units="px"
     inkscape:cy="82.434288"
     inkscape:cx="107.76403"
     inkscape:zoom="3.959798"
     inkscape:pageshadow="2"
     inkscape:pageopacity="0.0"
     borderopacity="1.0"
     bordercolor="#666666"
     pagecolor="#ffffff"
     id="base" />
  <metadata
     id="metadata5">
    <rdf:RDF>
      <cc:Work
         rdf:about="">
        <dc:format>image/svg+xml</dc:format>
        <dc:type
           rdf:resource="http://purl.org/dc/dcmitype/StillImage" />
        <dc:title></dc:title>
      </cc:Work>
    </rdf:RDF>
  </metadata>
  <g
     id="layer1"
     inkscape:groupmode="layer"
     inkscape:label="Calque 1">
    <g
       transform="matrix(0.38540218,0,0,0.38540218,-12.169192,-38.772989)"
       id="g850">
      <path
         d="m 131.34673,152.32442 a 48.75893,48.75893 0 0 1 -48.758931,48.75893 48.75893,48.75893 0 0 1 -48.75893,-48.75893 48.75893,48.75893 0 0 1 48.75893,-48.75893 48.75893,48.75893 0 0 1 48.758931,48.75893"
         style="opacity:1;fill:#000080;stroke:#483737;stroke-width:0.105833;stroke-linejoin:round"
         id="path833" />
      <path
         d="M 123.54452,152.0873 A 40.389759,39.585663 0 0 1 83.154762,191.67296 40.389759,39.585663 0 0 1 42.765003,152.0873 40.389759,39.585663 0 0 1 83.154762,112.50163 40.389759,39.585663 0 0 1 123.54452,152.0873"
         style="opacity:1;fill:#ffffff;stroke:#483737;stroke-width:0.21322;stroke-linejoin:round"
         id="path835" />
      <path
         style="fill:#ffffff;stroke:none;stroke-width:0.443691px;stroke-linecap:butt;stroke-linejoin:miter;stroke-opacity:1"
         d="m 51.914578,174.91139 -5.070766,17.43073 18.698435,-7.92306 z"
         id="path837" />
      <g
         style="font-style:normal;font-weight:normal;font-size:78.0796px;line-height:1.25;font-family:sans-serif;fill:#000080;fill-opacity:1;stroke:none;stroke-width:1.95199"
         id="text843"
         transform="scale(0.96955016,1.0314062)"
         aria-label="A">
        <path
           id="path854"
           style="font-style:normal;font-variant:normal;font-weight:normal;font-stretch:normal;font-family:'Fredoka One';-inkscape-font-specification:'Fredoka One';fill:#000080;stroke-width:1.95199"
           d="m 92.119817,120.03811 21.081493,43.56841 q 1.32735,2.65471 1.32735,3.98206 0,2.81087 -4.52861,5.07517 -2.65471,1.32736 -4.2163,1.32736 -1.48352,0 -2.49855,-0.70272 -0.93696,-0.70271 -1.40543,-1.48351 -0.3904,-0.7808 -1.1712,-2.34239 l -4.060136,-8.4326 H 75.020385 l -4.060139,8.4326 q -0.780796,1.56159 -1.249273,2.26431 -0.390398,0.70272 -1.405433,1.48351 -0.936955,0.70272 -2.498547,0.70272 -1.483512,0 -4.138219,-1.32735 -4.528616,-2.18623 -4.528616,-4.9971 0,-1.32735 1.327353,-3.98206 l 21.081491,-43.64649 q 0.858876,-1.79583 2.576627,-2.88895 1.795831,-1.09311 3.74782,-1.09311 4.216299,0 6.246368,4.06014 z m -6.324447,18.7391 -5.153254,10.6969 h 10.384587 z" />
      </g>
    </g>
  </g>
</svg>
