<?xml version="1.0" encoding="UTF-8" standalone="no"?>
<svg
   role="img"
   aria-label="Logo Mairie de La Montagne"
   width="160"
   height="160"
   viewBox="0 0 160 160"
   fill="none"
   version="1.1"
   id="svg28"
   sodipodi:docname="logmontagne.svg"
   inkscape:export-filename="logmontagne.png"
   inkscape:export-xdpi="240"
   inkscape:export-ydpi="240"
   inkscape:version="1.3 (0e150ed6c4, 2023-07-21)"
   xmlns:inkscape="http://www.inkscape.org/namespaces/inkscape"
   xmlns:sodipodi="http://sodipodi.sourceforge.net/DTD/sodipodi-0.dtd"
   xmlns="http://www.w3.org/2000/svg"
   xmlns:svg="http://www.w3.org/2000/svg">
  <defs
     id="defs28" />
  <sodipodi:namedview
     id="namedview28"
     pagecolor="#ffffff"
     bordercolor="#000000"
     borderopacity="0.25"
     inkscape:showpageshadow="2"
     inkscape:pageopacity="0.0"
     inkscape:pagecheckerboard="0"
     inkscape:deskcolor="#d1d1d1"
     inkscape:zoom="5.23125"
     inkscape:cx="79.904421"
     inkscape:cy="80"
     inkscape:window-width="1920"
     inkscape:window-height="1051"
     inkscape:window-x="1691"
     inkscape:window-y="-9"
     inkscape:window-maximized="1"
     inkscape:current-layer="svg28" />
  <path
     d="M148.55 116.594H10.5627V127.533H148.55V116.594Z"
     fill="#0C8CC9"
     id="path1" />
  <path
     d="M11.3153 139.304H13.1967V140.191H10.5627V131.617H11.3153V139.304Z"
     fill="#0F0E0F"
     id="path2" />
  <path
     d="M20.6685 135.919C20.6685 138.392 19.0559 140.354 17.1476 140.354C15.2125 140.354 13.6267 138.392 13.6267 135.919C13.6267 133.473 15.2393 131.484 17.1476 131.484C19.0559 131.484 20.6685 133.473 20.6685 135.919ZM14.3524 135.919C14.3524 137.854 15.5887 139.467 17.1207 139.467C18.6527 139.467 19.8891 137.854 19.8891 135.919C19.8891 133.984 18.6527 132.371 17.1207 132.371C15.5887 132.371 14.3524 133.957 14.3524 135.919Z"
     fill="#0F0E0F"
     id="path3" />
  <path
     d="M22.4694 131.617H21.7168V140.191H22.4694V131.617Z"
     fill="#0F0E0F"
     id="path4" />
  <path
     d="M24.5927 140.191H23.8401V131.617H24.8077C26.0978 131.617 27.2804 132.047 27.2804 133.982C27.2804 135.299 26.6353 136.24 25.5871 136.348L27.7373 140.191H26.8235L24.7808 136.428H24.5927V140.191ZM24.5927 135.595H24.8345C25.6946 135.595 26.5547 135.38 26.5547 134.063C26.5547 132.639 25.7484 132.504 24.8345 132.504H24.6195V135.595H24.5927Z"
     fill="#0F0E0F"
     id="path5" />
  <path
     d="M28.7048 131.617H32.2257V132.504H29.4574V135.057H32.1451V135.944H29.4574V139.304H32.2257V140.191H28.7048V131.617Z"
     fill="#0F0E0F"
     id="path6" />
  <path
     d="M34.6985 137.047H32.844V137.88H34.6985V137.047Z"
     fill="#0F0E0F"
     id="path7" />
  <path
     d="M36.3917 137.773L35.5854 140.219H34.7522L37.87 131.242L40.9071 140.219H40.0739L39.2676 137.773H36.3917ZM37.8431 133.446L36.6874 136.886H38.9719L37.8431 133.446Z"
     fill="#0F0E0F"
     id="path8" />
  <path
     d="M43.4336 140.191H42.681V132.504H41.0684V131.617H45.0999V132.504H43.4336V140.191Z"
     fill="#0F0E0F"
     id="path9" />
  <path
     d="M46.632 139.304H48.4865V140.191H45.8794V131.617H46.632V139.304Z"
     fill="#0F0E0F"
     id="path10" />
  <path
     d="M50.2604 137.773L49.454 140.219H48.6208L51.7386 131.242L54.7757 140.219H53.9425L53.1362 137.773H50.2604ZM51.7117 133.446L50.556 136.886H52.8406L51.7117 133.446Z"
     fill="#0F0E0F"
     id="path11" />
  <path
     d="M55.582 131.266L60.85 138.254V131.615H61.6025V140.592L56.3346 133.577V140.189H55.582V131.266Z"
     fill="#0F0E0F"
     id="path12" />
  <path
     d="M64.8279 140.191H64.0484V132.504H62.4358V131.617H66.4674V132.504H64.8279V140.191Z"
     fill="#0F0E0F"
     id="path13" />
  <path
     d="M67.9994 131.617H67.2468V140.191H67.9994V131.617Z"
     fill="#0F0E0F"
     id="path14" />
  <path
     d="M74.6111 139.521C74.0466 140.058 73.2403 140.354 72.5684 140.354C70.6332 140.354 69.0475 138.392 69.0475 135.919C69.0475 133.473 70.6332 131.484 72.5684 131.484C74.5304 131.484 76.0893 133.5 76.0893 135.946C76.0893 137.129 75.7399 138.096 75.1217 138.983L76.1431 140.3H75.1755L74.6111 139.521ZM74.6111 138.284C75.1217 137.612 75.3636 136.833 75.3636 135.919C75.3636 133.957 74.1273 132.371 72.5953 132.371C71.0364 132.371 69.8269 133.984 69.8269 135.919C69.8269 137.854 71.0633 139.467 72.5953 139.467C73.1059 139.467 73.6972 139.225 74.1004 138.822L72.4609 136.752H73.4553L74.6111 138.284Z"
     fill="#0F0E0F"
     id="path15" />
  <path
     d="M77.8633 136.723C77.8633 137.368 77.8364 138.094 78.159 138.632C78.4546 139.142 79.019 139.438 79.5297 139.438C80.0135 139.438 80.551 139.142 80.8467 138.685C81.1961 138.148 81.1692 137.395 81.1692 136.723V131.617H81.9218V136.992C81.9218 137.933 81.868 138.659 81.3305 139.357C80.8736 140.002 80.2016 140.325 79.5028 140.325C78.8578 140.325 78.2127 140.029 77.7558 139.438C77.1645 138.712 77.0839 137.933 77.0839 136.965V131.59H77.8364V136.723H77.8633Z"
     fill="#0F0E0F"
     id="path16" />
  <path
     d="M83.2925 131.617H86.8134V132.504H84.045V135.057H86.7328V135.944H84.045V139.304H86.8134V140.191H83.2925V131.617Z"
     fill="#0F0E0F"
     id="path17" />
  <path
     d="M86.948 11.6102L80.8468 4.00391C80.8468 4.00391 43.6219 52.356 38.0852 110.653L50.2875 124.226C50.2875 124.226 71.2248 89.4465 78.7773 84.1517L72.703 113.959L77.0572 120.248C77.0572 120.248 90.1464 98.0473 97.4301 92.7524C97.4301 92.7524 88.1306 133.498 88.4262 144.41L97.1613 155.995C97.1613 155.995 99.7684 96.0315 121.001 57.3014L113.422 48.3513C113.422 48.3513 91.5977 83.1304 88.695 84.7968C88.695 84.7968 92.7803 59.2903 97.1344 54.99L90.442 46.0399C90.442 46.0399 53.2171 104.337 48.5673 108.637C48.5673 108.637 55.851 51.3347 86.948 11.6102Z"
     fill="#8FC03F"
     id="path18" />
  <path
     d="M12.2022 109.443H16.1801V111.163H10.5896V94.6602H12.2022V109.443Z"
     fill="#0F0E0F"
     id="path19" />
  <path
     d="M19.9429 106.488L18.1959 111.165H16.422L23.1144 93.8828L29.6187 111.165H27.8448L26.1247 106.488H19.9429V106.488ZM23.0875 98.1563L20.6148 104.768H25.5065L23.0875 98.1563Z"
     fill="#0F0E0F"
     id="path20" />
  <path
     d="M38.9989 93.7188L44.2399 107.561L49.5347 93.7188L52.4643 111.162H50.8248L48.9434 100.008H48.9165L44.2399 111.834L39.5901 100.008H39.5633L37.7087 111.162H36.0424L38.9989 93.7188Z"
     fill="#0F0E0F"
     id="path21" />
  <path
     d="M68.6713 102.938C68.6713 107.668 65.2579 111.431 61.1188 111.431C56.9797 111.431 53.5663 107.668 53.5663 102.938C53.5663 98.2072 56.9797 94.3906 61.1188 94.3906C65.2579 94.3906 68.6713 98.2072 68.6713 102.938ZM55.1789 102.911C55.1789 106.62 57.8398 109.738 61.1188 109.738C64.3978 109.738 67.0586 106.62 67.0586 102.911C67.0586 99.1748 64.4515 96.0839 61.1188 96.0839C57.8129 96.0839 55.1789 99.1748 55.1789 102.911Z"
     fill="#0F0E0F"
     id="path22" />
  <path
     d="M70.9558 93.9609L82.2442 107.426V94.6597H83.8569V111.888L72.5684 98.4494V111.162H70.9558V93.9609Z"
     fill="#0F0E0F"
     id="path23" />
  <path
     d="M90.6837 111.163H89.071V96.3803H85.6039V94.6602H94.2315V96.3803H90.6837V111.163Z"
     fill="#0F0E0F"
     id="path24" />
  <path
     d="M98.048 106.488L96.301 111.165H94.5271L101.22 93.8828L107.724 111.165H105.95L104.23 106.488H98.048ZM101.166 98.1563L98.6931 104.768H103.585L101.166 98.1563Z"
     fill="#0F0E0F"
     id="path25" />
  <path
     d="M122.748 102.856C122.775 105.087 122.587 106.915 121.243 108.662C119.926 110.409 117.91 111.43 115.895 111.43C111.836 111.43 108.45 107.587 108.45 102.937C108.45 98.2067 111.836 94.3633 116.002 94.3633C118.529 94.3633 120.598 95.6534 122.13 97.9379L120.947 99.1743C119.738 97.2391 118.099 96.0565 115.975 96.0565C112.669 96.0565 110.062 99.2281 110.062 102.937C110.062 104.684 110.68 106.351 111.755 107.587C112.804 108.796 114.336 109.683 115.868 109.683C118.394 109.683 121.028 107.587 121.028 104.523H116.728V102.83H122.748V102.856Z"
     fill="#0F0E0F"
     id="path26" />
  <path
     d="M125.14 93.9609L136.402 107.426V94.6597H138.014V111.888L126.753 98.4494V111.162H125.14V93.9609Z"
     fill="#0F0E0F"
     id="path27" />
  <path
     d="M141.052 94.6602H148.55V96.3803H142.664V101.272H148.362V102.965H142.664V109.443H148.55V111.163H141.052V94.6602Z"
     fill="#0F0E0F"
     id="path28" />
</svg>
