<svg width="40" height="40" version="1.1" viewBox="0 0 10.583 10.583" xmlns="http://www.w3.org/2000/svg">
 <path d="m10.567 5.2917a5.275 5.275 0 0 1-5.275 5.275 5.275 5.275 0 0 1-5.275-5.275 5.275 5.275 0 0 1 5.275-5.275 5.275 5.275 0 0 1 5.275 5.275z" fill="#000080" stroke="#fff" stroke-width=".033347" style="paint-order:stroke markers fill"/>
 <path d="m8.5782 5.2191a3.2363 3.1719 0 0 1-3.2363 3.1719 3.2363 3.1719 0 0 1-3.2363-3.1719 3.2363 3.1719 0 0 1 3.2363-3.1719 3.2363 3.1719 0 0 1 3.2363 3.1719" fill="none"/>
 <g transform="matrix(.617 0 0 .617 1.2309 1.169)" shape-rendering="auto" stroke="#fff" stroke-linejoin="round" stroke-width=".047625">
  <path d="m12.921 6.5949c0 3.4971-2.835 6.3321-6.3321 6.3321-3.4971 0-6.3321-2.835-6.3321-6.3321-1e-8 -3.4971 2.835-6.3321 6.3321-6.3321 3.4971 6e-8 6.3321 2.835 6.3321 6.3321" color="#000000" color-rendering="auto" dominant-baseline="auto" fill="#000080" image-rendering="auto" solid-color="#000000" stop-color="#000000" style="font-feature-settings:normal;font-variant-alternates:normal;font-variant-caps:normal;font-variant-east-asian:normal;font-variant-ligatures:normal;font-variant-numeric:normal;font-variant-position:normal;font-variation-settings:normal;inline-size:0;isolation:auto;mix-blend-mode:normal;shape-margin:0;shape-padding:0;text-decoration-color:#000000;text-decoration-line:none;text-decoration-style:solid;text-indent:0;text-orientation:mixed;text-transform:none;white-space:normal"/>
  <path d="m6.5898 0.097656c-3.5866-2e-8 -6.498 2.9114-6.498 6.498-1.1e-7 3.5866 2.9114 6.4961 6.498 6.4961 3.5866 0 6.498-2.9095 6.498-6.4961 0-3.5866-2.9114-6.498-6.498-6.498zm0 0.33008c3.4076 5e-8 6.166 2.7604 6.166 6.168 0 3.4076-2.7584 6.166-6.166 6.166-3.4076 0-6.168-2.7584-6.168-6.166-1e-8 -3.4076 2.7604-6.168 6.168-6.168z" color="#000000" color-rendering="auto" dominant-baseline="auto" fill="#fff" image-rendering="auto" solid-color="#000000" stop-color="#000000" style="font-feature-settings:normal;font-variant-alternates:normal;font-variant-caps:normal;font-variant-east-asian:normal;font-variant-ligatures:normal;font-variant-numeric:normal;font-variant-position:normal;font-variation-settings:normal;inline-size:0;isolation:auto;mix-blend-mode:normal;shape-margin:0;shape-padding:0;text-decoration-color:#000000;text-decoration-line:none;text-decoration-style:solid;text-indent:0;text-orientation:mixed;text-transform:none;white-space:normal"/>
 </g>
 <path d="m2.3588 7.9237-0.49479 1.3678 1.5358-0.53775z" fill="#fff"/>
 <g transform="matrix(.077687 0 0 .082644 -1.3211 -6.9672)" fill="#fff" aria-label="A">
  <path d="m92.12 120.04 21.081 43.568q1.3274 2.6547 1.3274 3.9821 0 2.8109-4.5286 5.0752-2.6547 1.3274-4.2163 1.3274-1.4835 0-2.4986-0.70272-0.93696-0.70271-1.4054-1.4835-0.3904-0.7808-1.1712-2.3424l-4.0601-8.4326h-21.628l-4.0601 8.4326q-0.7808 1.5616-1.2493 2.2643-0.3904 0.70272-1.4054 1.4835-0.93696 0.70272-2.4985 0.70272-1.4835 0-4.1382-1.3274-4.5286-2.1862-4.5286-4.9971 0-1.3274 1.3274-3.9821l21.081-43.646q0.85888-1.7958 2.5766-2.889 1.7958-1.0931 3.7478-1.0931 4.2163 0 6.2464 4.0601zm-6.3244 18.739-5.1533 10.697h10.385z" fill="#fff"/>
 </g>
</svg>
