<?xml version="1.0" encoding="UTF-8" standalone="no"?>
<svg
   xmlns:dc="http://purl.org/dc/elements/1.1/"
   xmlns:cc="http://creativecommons.org/ns#"
   xmlns:rdf="http://www.w3.org/1999/02/22-rdf-syntax-ns#"
   xmlns:svg="http://www.w3.org/2000/svg"
   xmlns="http://www.w3.org/2000/svg"
   xmlns:sodipodi="http://sodipodi.sourceforge.net/DTD/sodipodi-0.dtd"
   xmlns:inkscape="http://www.inkscape.org/namespaces/inkscape"
   width="40"
   height="40"
   viewBox="0 0 10.583333 10.583334"
   version="1.1"
   id="svg850"
   inkscape:version="1.0 (4035a4fb49, 2020-05-01)"
   sodipodi:docname="40x40_AFG_rb.svg">
  <defs
     id="defs844" />
  <sodipodi:namedview
     fit-margin-bottom="0"
     fit-margin-right="0"
     fit-margin-left="0"
     fit-margin-top="0"
     inkscape:guide-bbox="true"
     showguides="true"
     id="base"
     pagecolor="#ffffff"
     bordercolor="#666666"
     borderopacity="1.0"
     inkscape:pageopacity="0.0"
     inkscape:pageshadow="2"
     inkscape:zoom="11.2"
     inkscape:cx="19.809397"
     inkscape:cy="21.060104"
     inkscape:document-units="px"
     inkscape:current-layer="layer1"
     inkscape:document-rotation="0"
     showgrid="false"
     units="px"
     inkscape:window-width="1439"
     inkscape:window-height="900"
     inkscape:window-x="1544"
     inkscape:window-y="1"
     inkscape:window-maximized="0">
    <sodipodi:guide
       id="guide935"
       orientation="1,0"
       position="10.582203,17.724441" />
    <sodipodi:guide
       id="guide937"
       orientation="0,-1"
       position="4.0090425,-0.0072214357" />
  </sodipodi:namedview>
  <metadata
     id="metadata847">
    <rdf:RDF>
      <cc:Work
         rdf:about="">
        <dc:format>image/svg+xml</dc:format>
        <dc:type
           rdf:resource="http://purl.org/dc/dcmitype/StillImage" />
        <dc:title></dc:title>
      </cc:Work>
    </rdf:RDF>
  </metadata>
  <g
     inkscape:label="Calque 1"
     inkscape:groupmode="layer"
     id="layer1">
    <path
       d="M 10.56666,5.291667 A 5.2749934,5.2749934 0 0 1 5.291667,10.56666 5.2749934,5.2749934 0 0 1 0.01667356,5.291667 5.2749934,5.2749934 0 0 1 5.291667,0.01667356 5.2749934,5.2749934 0 0 1 10.56666,5.291667 Z"
       style="opacity:1;fill:#000080;fill-opacity:1;stroke:#ffffff;stroke-width:0.0333466;stroke-miterlimit:4;stroke-dasharray:none;stroke-opacity:1;paint-order:stroke markers fill"
       id="path933" />
    <path
       d="M 8.5781616,5.2191135 A 3.2363158,3.1718859 0 0 1 5.3418458,8.3909991 3.2363158,3.1718859 0 0 1 2.10553,5.2191135 3.2363158,3.1718859 0 0 1 5.3418458,2.047227 3.2363158,3.1718859 0 0 1 8.5781616,5.2191135"
       style="fill:none;stroke:none;stroke-width:0.0170848;stroke-linejoin:round"
       id="path835" />
    <g
       transform="matrix(0.61700062,0,0,0.61700064,1.2308695,1.1690301)"
       style="stroke:#ffffff;stroke-width:0.047625;stroke-miterlimit:4;stroke-dasharray:none;stroke-opacity:1"
       id="g845">
      <path
         id="path847"
         d="m 12.921317,6.5949416 c 0,3.4971254 -2.83498,6.3321064 -6.3321061,6.3321064 -3.4971258,0 -6.33210635,-2.834981 -6.33210624,-6.3321064 -10e-9,-3.4971257 2.83498054,-6.33210623 6.33210624,-6.33210621 3.4971261,6e-8 6.3321061,2.83498051 6.3321061,6.33210621"
         style="color:#000000;font-style:normal;font-variant:normal;font-weight:normal;font-stretch:normal;font-size:medium;line-height:normal;font-family:sans-serif;font-variant-ligatures:normal;font-variant-position:normal;font-variant-caps:normal;font-variant-numeric:normal;font-variant-alternates:normal;font-variant-east-asian:normal;font-feature-settings:normal;font-variation-settings:normal;text-indent:0;text-align:start;text-decoration:none;text-decoration-line:none;text-decoration-style:solid;text-decoration-color:#000000;letter-spacing:normal;word-spacing:normal;text-transform:none;writing-mode:lr-tb;direction:ltr;text-orientation:mixed;dominant-baseline:auto;baseline-shift:baseline;text-anchor:start;white-space:normal;shape-padding:0;shape-margin:0;inline-size:0;clip-rule:nonzero;display:inline;overflow:visible;visibility:visible;isolation:auto;mix-blend-mode:normal;color-interpolation:sRGB;color-interpolation-filters:linearRGB;solid-color:#000000;solid-opacity:1;vector-effect:none;fill:#000080;fill-opacity:1;fill-rule:nonzero;stroke:#ffffff;stroke-width:0.047625;stroke-linecap:butt;stroke-linejoin:round;stroke-miterlimit:4;stroke-dasharray:none;stroke-dashoffset:0;stroke-opacity:1;color-rendering:auto;image-rendering:auto;shape-rendering:auto;text-rendering:auto;enable-background:accumulate;stop-color:#000000;stop-opacity:1" />
      <path
         id="path849"
         d="m 6.5898438,0.09765625 c -3.5866384,-2e-8 -6.49804693,2.91140855 -6.49804693,6.49804685 -1.1e-7,3.5866389 2.91140843,6.4960939 6.49804693,6.4960939 3.5866382,0 6.4980472,-2.909456 6.4980472,-6.4960939 0,-3.5866383 -2.911409,-6.49804679 -6.4980472,-6.49804685 z m 0,0.33007813 c 3.407613,5e-8 6.1660152,2.76035572 6.1660152,6.16796872 0,3.4076129 -2.7584022,6.1660159 -6.1660152,6.1660159 -3.4076132,0 -6.16796891,-2.758403 -6.1679688,-6.1660159 -10e-9,-3.407613 2.7603557,-6.16796875 6.1679688,-6.16796872 z"
         style="color:#000000;font-style:normal;font-variant:normal;font-weight:normal;font-stretch:normal;font-size:medium;line-height:normal;font-family:sans-serif;font-variant-ligatures:normal;font-variant-position:normal;font-variant-caps:normal;font-variant-numeric:normal;font-variant-alternates:normal;font-variant-east-asian:normal;font-feature-settings:normal;font-variation-settings:normal;text-indent:0;text-align:start;text-decoration:none;text-decoration-line:none;text-decoration-style:solid;text-decoration-color:#000000;letter-spacing:normal;word-spacing:normal;text-transform:none;writing-mode:lr-tb;direction:ltr;text-orientation:mixed;dominant-baseline:auto;baseline-shift:baseline;text-anchor:start;white-space:normal;shape-padding:0;shape-margin:0;inline-size:0;clip-rule:nonzero;display:inline;overflow:visible;visibility:visible;isolation:auto;mix-blend-mode:normal;color-interpolation:sRGB;color-interpolation-filters:linearRGB;solid-color:#000000;solid-opacity:1;vector-effect:none;fill:#ffffff;fill-opacity:1;fill-rule:nonzero;stroke:#ffffff;stroke-width:0.047625;stroke-linecap:butt;stroke-linejoin:round;stroke-miterlimit:4;stroke-dasharray:none;stroke-dashoffset:0;stroke-opacity:1;color-rendering:auto;image-rendering:auto;shape-rendering:auto;text-rendering:auto;enable-background:accumulate;stop-color:#000000;stop-opacity:1" />
    </g>
    <path
       inkscape:transform-center-y="0.12367934"
       inkscape:transform-center-x="-0.51532952"
       style="fill:#ffffff;stroke:none;stroke-width:0.0355518px;stroke-linecap:butt;stroke-linejoin:miter;stroke-opacity:1"
       d="M 2.3587596,7.9236822 1.863974,9.2915168 3.3997555,8.7537703 Z"
       id="path837" />
    <g
       style="font-style:normal;font-weight:normal;font-size:78.0796px;line-height:1.25;font-family:sans-serif;fill:#ffffff;fill-opacity:1;stroke:none;stroke-width:1.95199"
       id="text843"
       transform="matrix(0.07768729,0,0,0.08264362,-1.3211073,-6.9672066)"
       aria-label="A">
      <path
         id="path854"
         style="font-style:normal;font-variant:normal;font-weight:normal;font-stretch:normal;font-family:'Fredoka One';-inkscape-font-specification:'Fredoka One';fill:#ffffff;stroke:none;stroke-width:1.95199"
         d="m 92.119817,120.03811 21.081493,43.56841 q 1.32735,2.65471 1.32735,3.98206 0,2.81087 -4.52861,5.07517 -2.65471,1.32736 -4.2163,1.32736 -1.48352,0 -2.49855,-0.70272 -0.93696,-0.70271 -1.40543,-1.48351 -0.3904,-0.7808 -1.1712,-2.34239 l -4.060136,-8.4326 H 75.020385 l -4.060139,8.4326 q -0.780796,1.56159 -1.249273,2.26431 -0.390398,0.70272 -1.405433,1.48351 -0.936955,0.70272 -2.498547,0.70272 -1.483512,0 -4.138219,-1.32735 -4.528616,-2.18623 -4.528616,-4.9971 0,-1.32735 1.327353,-3.98206 l 21.081491,-43.64649 q 0.858876,-1.79583 2.576627,-2.88895 1.795831,-1.09311 3.74782,-1.09311 4.216299,0 6.246368,4.06014 z m -6.324447,18.7391 -5.153254,10.6969 h 10.384587 z" />
    </g>
  </g>
</svg>
