<svg width="150" height="150" version="1.1" viewBox="0 0 39.687 39.688" xmlns="http://www.w3.org/2000/svg">
 <g transform="matrix(.3854 0 0 .3854 -12.169 -38.773)">
  <path d="m131.35 152.32a48.759 48.759 0 0 1-48.759 48.759 48.759 48.759 0 0 1-48.759-48.759 48.759 48.759 0 0 1 48.759-48.759 48.759 48.759 0 0 1 48.759 48.759" fill="#000080" stroke="#483737" stroke-linejoin="round" stroke-width=".10583"/>
  <path d="m123.54 152.09a40.39 39.586 0 0 1-40.39 39.586 40.39 39.586 0 0 1-40.39-39.586 40.39 39.586 0 0 1 40.39-39.586 40.39 39.586 0 0 1 40.39 39.586" fill="#fff" stroke="#483737" stroke-linejoin="round" stroke-width=".21322"/>
  <path d="m51.915 174.91-5.0708 17.431 18.698-7.9231z" fill="#fff"/>
  <g transform="scale(.96955 1.0314)" fill="#000080" aria-label="A">
   <path d="m92.12 120.04 21.081 43.568q1.3274 2.6547 1.3274 3.9821 0 2.8109-4.5286 5.0752-2.6547 1.3274-4.2163 1.3274-1.4835 0-2.4986-0.70272-0.93696-0.70271-1.4054-1.4835-0.3904-0.7808-1.1712-2.3424l-4.0601-8.4326h-21.628l-4.0601 8.4326q-0.7808 1.5616-1.2493 2.2643-0.3904 0.70272-1.4054 1.4835-0.93696 0.70272-2.4985 0.70272-1.4835 0-4.1382-1.3274-4.5286-2.1862-4.5286-4.9971 0-1.3274 1.3274-3.9821l21.081-43.646q0.85888-1.7958 2.5766-2.889 1.7958-1.0931 3.7478-1.0931 4.2163 0 6.2464 4.0601zm-6.3244 18.739-5.1533 10.697h10.385z" fill="#000080" stroke-width="1.952"/>
  </g>
 </g>
</svg>
