<?xml version="1.0" encoding="UTF-8" standalone="no"?>
<svg
   xmlns:dc="http://purl.org/dc/elements/1.1/"
   xmlns:cc="http://creativecommons.org/ns#"
   xmlns:rdf="http://www.w3.org/1999/02/22-rdf-syntax-ns#"
   xmlns:svg="http://www.w3.org/2000/svg"
   xmlns="http://www.w3.org/2000/svg"
   xmlns:sodipodi="http://sodipodi.sourceforge.net/DTD/sodipodi-0.dtd"
   xmlns:inkscape="http://www.inkscape.org/namespaces/inkscape"
   sodipodi:docname="guidetexte.svg"
   inkscape:version="1.0 (4035a4fb49, 2020-05-01)"
   id="svg3849"
   version="1.1"
   viewBox="0 0 147.78012 82.232109"
   height="82.232109mm"
   width="147.78012mm">
  <defs
     id="defs3843" />
  <sodipodi:namedview
     inkscape:window-maximized="0"
     inkscape:window-y="59"
     inkscape:window-x="1620"
     inkscape:window-height="900"
     inkscape:window-width="1439"
     fit-margin-bottom="0"
     fit-margin-right="0"
     fit-margin-left="0"
     fit-margin-top="0"
     inkscape:guide-bbox="true"
     showguides="true"
     showgrid="false"
     inkscape:document-rotation="0"
     inkscape:current-layer="layer1"
     inkscape:document-units="mm"
     inkscape:cy="406.84991"
     inkscape:cx="306.49924"
     inkscape:zoom="0.35"
     inkscape:pageshadow="2"
     inkscape:pageopacity="0.0"
     borderopacity="1.0"
     bordercolor="#666666"
     pagecolor="#ffffff"
     id="base">
    <sodipodi:guide
       id="guide4423"
       orientation="0,-1"
       position="128.71958,-26.9255" />
  </sodipodi:namedview>
  <metadata
     id="metadata3846">
    <rdf:RDF>
      <cc:Work
         rdf:about="">
        <dc:format>image/svg+xml</dc:format>
        <dc:type
           rdf:resource="http://purl.org/dc/dcmitype/StillImage" />
        <dc:title></dc:title>
      </cc:Work>
    </rdf:RDF>
  </metadata>
  <g
     transform="translate(-24.738743,-40.52096)"
     id="layer1"
     inkscape:groupmode="layer"
     inkscape:label="Calque 1">
    <g
       transform="rotate(-2.5209673,-2494.9141,155.8897)"
       style="font-style:normal;font-weight:normal;font-size:22.5778px;line-height:1.25;font-family:sans-serif;fill:#000000;fill-opacity:1;stroke:none;stroke-width:0.264583"
       id="text4416"
       aria-label="Votre guide de la crusine">
      <path
         id="path4428"
         style="font-style:normal;font-variant:normal;font-weight:normal;font-stretch:normal;font-size:22.5778px;font-family:'Dancing Script';-inkscape-font-specification:'Dancing Script';fill:#ff6600;stroke-width:0.264583"
         d="m 43.660882,228.26849 q -0.02834,0.31482 -0.228267,0.77287 -0.175413,0.43759 -0.590082,0.76296 -0.412645,0.30288 -1.154711,0.23607 -0.652118,-0.0587 -1.684705,-0.42371 -1.030563,-0.38748 -2.296333,-0.93215 -1.288257,-0.5467 -2.688949,-1.10352 -1.423178,-0.55885 -2.860529,-0.96029 -1.435325,-0.42392 -2.784536,-0.5454 -0.832014,-0.0749 -1.557666,-0.0722 -0.723629,-0.0198 -1.177198,0.23405 -0.474031,0.22935 -0.534768,0.90396 -0.05669,0.62963 0.285097,1.11378 0.321323,0.45964 0.879662,0.80461 0.560363,0.32248 1.200335,0.51612 0.641995,0.17114 1.204166,0.22176 0.35979,0.0324 0.678655,0.0158 0.298403,-0.0411 0.553856,-0.10882 -0.07896,0.87699 -0.583574,1.19426 -0.527104,0.31525 -1.179222,0.25654 -0.697093,-0.0628 -1.365841,-0.44034 -0.666724,-0.40006 -1.200768,-1.01487 -0.554506,-0.63932 -0.847485,-1.41378 -0.292979,-0.77446 -0.218071,-1.60648 0.125523,-1.39418 1.288115,-1.96958 1.14213,-0.59992 2.963564,-0.43593 1.304237,0.11743 2.717076,0.53933 1.390352,0.41988 2.768557,0.97467 1.378205,0.5548 2.641951,1.12196 1.26577,0.54468 2.341306,0.93621 1.075537,0.39153 1.840089,0.46037 0.382277,0.0344 0.639755,-0.0557 0.259503,-0.11265 0.29392,-0.49493 0.05669,-0.62963 -0.520522,-1.52036 -0.554723,-0.8887 -1.577621,-1.86489 -1.04336,-1.0007 -2.362636,-1.95824 -1.317251,-0.98002 -2.763133,-1.79027 -1.468369,-0.81227 -2.893572,-1.34863 -1.425203,-0.53636 -2.661979,-0.64771 -1.124343,-0.10123 -1.671908,0.18951 -0.570053,0.28871 -0.778075,0.83671 -0.51134,-0.36341 -0.728327,-0.72298 -0.214963,-0.38206 -0.188644,-0.67439 0.04252,-0.47222 0.690152,-0.8673 0.647636,-0.39507 1.929386,-0.27967 1.236777,0.11135 2.768341,0.72529 1.533588,0.59146 3.171728,1.53237 1.615654,0.93888 3.121115,2.09453 1.505461,1.15565 2.688008,2.37291 1.182547,1.21725 1.849921,2.36546 0.667374,1.1482 0.584367,2.07016 z" />
      <path
         id="path4430"
         style="font-style:normal;font-variant:normal;font-weight:normal;font-stretch:normal;font-size:22.5778px;font-family:'Dancing Script';-inkscape-font-specification:'Dancing Script';fill:#ff6600;stroke-width:0.264583"
         d="m 43.743466,217.95499 q -0.232242,0.94266 -0.921362,1.19144 -0.667197,0.25417 -1.500244,0.0489 -0.67959,-0.16743 -1.349016,-0.56488 -0.669425,-0.39746 -1.218755,-0.90484 -0.54393,-0.52931 -0.830511,-1.06497 -0.28118,-0.55759 -0.167759,-1.01796 0.027,-0.10961 0.09785,-0.20842 0.05433,-0.12613 0.125178,-0.22494 0.126769,0.24051 0.538847,0.64432 0.395556,0.37649 0.949969,0.76886 0.53249,0.38697 1.081184,0.70818 0.554094,0.29928 0.970618,0.4019 0.657668,0.16203 1.01859,0.0184 0.339,-0.14901 0.425415,-0.49977 0.113421,-0.46036 -0.21224,-1.21493 -0.347584,-0.75997 -0.963636,-1.56283 -0.65544,0.4896 -1.55298,0.64052 -0.914062,0.1236 -1.769031,-0.087 -0.723435,-0.17823 -1.29977,-0.57601 -0.570935,-0.41969 -0.824792,-0.9938 -0.275779,-0.57951 -0.108348,-1.2591 0.221441,-0.89881 0.779345,-1.0869 0.557904,-0.18809 1.281339,-0.01 0.854969,0.21064 1.804619,0.88641 0.927729,0.67037 1.73568,1.54376 0.316441,-0.34059 0.424461,-0.77904 0.08642,-0.35075 0.0629,-0.82161 -0.04544,-0.47625 -0.293574,-0.97919 -0.242737,-0.52486 -0.769826,-0.93375 l 0.284034,-0.20906 q 0.922328,0.69229 1.160937,1.61144 0.222087,0.89182 0.04386,1.61525 -0.07021,0.28499 -0.17887,0.53726 -0.130578,0.24686 -0.299601,0.461 0.802869,0.9884 1.239097,2.04925 0.441629,1.03892 0.236391,1.87196 z m -2.428629,-4.01652 q -0.6761,-0.74789 -1.466575,-1.31469 -0.806997,-0.59412 -1.596199,-0.78855 -0.635746,-0.15663 -0.969345,-0.0295 -0.35012,0.0998 -0.420333,0.38475 -0.108019,0.43845 0.414306,1.05544 0.522325,0.617 1.486906,0.85464 0.635746,0.15663 1.336622,0.14328 0.684355,-0.0407 1.214618,-0.30533 z" />
      <path
         id="path4432"
         style="font-style:normal;font-variant:normal;font-weight:normal;font-stretch:normal;font-size:22.5778px;font-family:'Dancing Script';-inkscape-font-specification:'Dancing Script';fill:#ff6600;stroke-width:0.264583"
         d="m 46.328387,209.85689 q -0.338595,0.90989 -1.048708,1.19972 -0.710114,0.28982 -1.746961,-0.096 -0.931047,-0.34647 -2.159308,-1.18899 -1.241547,-0.87155 -2.483579,-1.93601 -0.121064,0.19585 -0.213093,0.37842 -0.113189,0.17469 -0.239664,0.32035 l -0.380883,-0.14174 q 0.08416,-0.1614 0.191932,-0.38629 0.107778,-0.22489 0.239179,-0.51325 -0.977288,-0.86958 -1.846312,-1.77114 -0.890185,-0.90943 -1.534321,-1.70322 -0.657423,-0.82281 -0.978746,-1.44829 -0.334609,-0.6545 -0.216494,-0.97191 0.063,-0.16928 0.237201,-0.24899 0.160921,-0.10875 0.393683,-0.0221 0.359723,0.13386 1.019608,0.88532 0.638726,0.74359 1.51611,1.81689 0.877384,1.07331 1.960959,2.17516 0.07087,-0.19044 0.141738,-0.38088 0.07874,-0.21161 0.149612,-0.40205 0.259852,-0.69828 0.522167,-1.46792 0.27019,-0.7908 0.476899,-1.60523 l 0.380883,0.14174 q -0.306127,1.21106 -0.589116,2.16573 -0.275115,0.93351 -0.542842,1.65295 -0.0315,0.0846 -0.063,0.16928 -0.02362,0.0635 -0.05512,0.14812 0.940379,0.90403 1.999359,1.68355 1.058979,0.77952 2.180468,1.19686 0.909886,0.3386 1.414295,0.21313 0.483249,-0.13335 0.719479,-0.76815 0.409464,-1.10033 -0.170187,-2.52055 -0.579651,-1.42023 -1.952079,-2.84639 l 0.313967,-0.19634 q 0.995985,0.94881 1.656843,2.08608 0.668731,1.11611 0.872425,2.25189 0.203694,1.13578 -0.166399,2.1303 z" />
      <path
         id="path4434"
         style="font-style:normal;font-variant:normal;font-weight:normal;font-stretch:normal;font-size:22.5778px;font-family:'Dancing Script';-inkscape-font-specification:'Dancing Script';fill:#ff6600;stroke-width:0.264583"
         d="m 49.201885,202.02921 q -0.3517,0.68234 -0.91982,0.89752 -0.557777,0.19511 -1.139772,-0.10487 -0.602063,-0.31032 -1.119515,-0.93264 -0.517453,-0.62232 -1.02518,-1.21422 -0.517453,-0.62232 -1.039241,-0.89127 -0.642201,-0.33101 -1.139771,-0.10487 -0.507295,0.19573 -0.964728,0.44257 0.946144,1.07188 1.751187,2.12184 0.805042,1.04996 1.181394,1.65035 l -0.434267,0.005 q -0.376971,-0.54991 -1.152839,-1.50863 -0.765525,-0.97879 -1.822357,-2.08232 -0.304129,0.0972 -0.585092,-0.0476 -0.602063,-0.31032 -0.80752,-0.84803 -0.205457,-0.5377 -0.122704,-0.69826 0.113785,-0.22075 0.324817,-0.13738 0.201307,0.053 0.301651,0.10468 0.100344,0.0517 0.339311,0.3273 0.229243,0.24516 0.289449,0.27619 0.280963,0.14482 0.67695,-0.0321 0.386263,-0.20732 0.894177,-0.45353 0.487846,-0.25656 1.064452,-0.34037 0.566882,-0.11422 1.209083,0.2168 0.602064,0.31032 1.089722,0.89188 0.498003,0.5615 0.925456,1.11203 0.437796,0.53046 0.859241,0.74768 0.361238,0.1862 0.574748,0.0676 0.21351,-0.11855 0.337639,-0.35938 0.248259,-0.48165 0.20583,-1.13853 -0.03208,-0.67695 -0.245407,-1.39652 -0.213324,-0.71956 -0.518505,-1.35947 -0.32525,-0.65026 -0.673666,-1.05845 l 0.335161,-0.15745 q 0.646351,0.81576 1.127815,1.90214 0.461396,1.07604 0.559075,2.1678 0.108024,1.0717 -0.336774,1.93466 z" />
      <path
         id="path4436"
         style="font-style:normal;font-variant:normal;font-weight:normal;font-stretch:normal;font-size:22.5778px;font-family:'Dancing Script';-inkscape-font-specification:'Dancing Script';fill:#ff6600;stroke-width:0.264583"
         d="m 52.709877,196.82005 q -0.789613,1.12841 -1.819843,1.26175 -0.998788,0.12779 -1.905218,-0.50649 -0.832437,-0.5825 -1.472587,-1.63669 -0.627207,-1.07269 -0.962199,-2.3267 -0.322047,-1.2725 -0.239008,-2.45444 0.06454,-1.19488 0.634098,-2.00881 0.297723,-0.42547 0.765651,-0.62161 0.480873,-0.21464 1.16532,0.26431 0.702947,0.49189 1.034176,1.35747 0.325674,0.83413 0.327692,1.85514 0.01496,1.0025 -0.240119,2.0365 -0.260635,1.00255 -0.743253,1.84976 0.159097,0.16645 0.312639,0.30144 0.153543,0.135 0.301532,0.23856 0.277479,0.19417 0.593791,0.33284 0.329256,0.12017 0.686238,0.12196 0.338484,-0.0112 0.662141,-0.19802 0.336602,-0.20537 0.634324,-0.63083 0.556613,-0.79544 0.656315,-1.88305 0.0812,-1.10055 -0.192739,-2.28428 -0.273942,-1.18373 -0.838262,-2.26753 l 0.321821,-0.10548 q 0.760414,1.27613 1.030684,2.62263 0.283214,1.328 0.0929,2.54509 -0.158871,1.21155 -0.806094,2.13648 z m -3.742041,-1.26824 q 0.183014,-0.61597 0.30865,-1.46497 0.107137,-0.86196 0.06445,-1.74608 -0.02974,-0.90262 -0.307312,-1.64798 -0.264625,-0.76386 -0.85658,-1.17809 -0.203484,-0.14239 -0.366253,-0.14606 -0.16277,-0.004 -0.331048,0.23681 -0.310667,0.44397 -0.308695,1.18937 -0.01653,0.73246 0.214819,1.58326 0.231346,0.8508 0.638405,1.68678 0.40706,0.83597 0.943564,1.48696 z" />
      <path
         id="path4438"
         style="font-style:normal;font-variant:normal;font-weight:normal;font-stretch:normal;font-size:22.5778px;font-family:'Dancing Script';-inkscape-font-specification:'Dancing Script';fill:#ff6600;stroke-width:0.264583"
         d="m 63.492533,191.88359 q -0.376516,0.32398 -0.890739,0.34945 -0.499496,0.0426 -0.956004,-0.48797 -0.441781,-0.51343 -0.499486,-1.23819 -0.06009,-0.69293 0.11225,-1.4965 0.187069,-0.78646 0.503888,-1.5952 0.333933,-0.82347 0.628861,-1.55381 -0.275811,-0.80517 -0.659481,-1.66645 -0.381281,-0.89313 -0.897485,-1.90844 0.159587,1.50087 -0.01435,2.7526 -0.171551,1.21988 -0.890353,1.83838 -0.616116,0.53013 -1.356006,0.36257 -0.722776,-0.18229 -1.355996,-0.91821 -0.765754,-0.88995 -1.03002,-2.06247 -0.247151,-1.18725 -0.0756,-2.40714 0.17155,-1.21988 0.664289,-2.23957 0.478013,-1.0368 1.162587,-1.62584 0.496315,-0.42705 0.848948,-0.43262 0.355021,-0.0374 0.546459,0.18508 0.132535,0.15402 0.120593,0.31323 -0.01194,0.1592 -0.03144,0.20576 -0.20338,-0.0633 -0.418701,0.0326 -0.230048,0.0788 -0.486763,0.29969 -0.667459,0.57432 -0.961991,1.51281 -0.277417,0.92377 -0.226481,1.95221 0.05094,1.02845 0.334308,1.94625 0.28576,0.88596 0.756994,1.43362 0.353425,0.41075 0.698892,0.5007 0.347856,0.0581 0.621686,-0.17751 0.496316,-0.42705 0.6213,-1.66644 0.127372,-1.27123 -0.03222,-2.7721 -0.154821,-0.28378 -0.282579,-0.50149 -0.110644,-0.23244 -0.292529,-0.58229 -0.154822,-0.28378 -0.231633,-0.75382 -0.07442,-0.50189 0.353436,-0.87004 0.08557,-0.0736 0.18587,-0.13014 0.08557,-0.0736 0.217709,-0.12776 0.235617,0.27383 0.697694,1.15701 0.464464,0.85133 0.995791,2.09192 0.533715,1.20874 1.023648,2.5743 0.329156,-0.75978 0.491549,-1.64415 0.179508,-0.89909 0.153248,-1.82963 -0.04099,-0.94765 -0.343862,-1.81888 l 0.369747,-0.0203 q 0.405957,0.99104 0.386048,2.11023 -0.01991,1.11919 -0.272652,2.14086 -0.235627,1.00695 -0.545281,1.72018 0.507444,1.55899 0.786831,2.95678 0.294114,1.41491 0.198186,2.48037 -0.07881,1.05073 -0.729158,1.61032 z m -0.522577,-0.50348 q 0.342287,-0.29452 0.335133,-1.47978 0.02469,-1.18287 -0.704441,-3.41489 -0.390053,0.93133 -0.679808,1.80615 -0.257914,0.8772 -0.281005,1.61191 -0.02309,0.73472 0.403965,1.23104 0.235617,0.27383 0.487952,0.32477 0.267061,0.0681 0.438204,-0.0792 z" />
      <path
         id="path4440"
         style="font-style:normal;font-variant:normal;font-weight:normal;font-stretch:normal;font-size:22.5778px;font-family:'Dancing Script';-inkscape-font-specification:'Dancing Script';fill:#ff6600;stroke-width:0.264583"
         d="m 67.163105,181.57975 q -0.654863,0.40055 -1.412756,0.0701 -0.750414,-0.36147 -1.22164,-1.13189 -0.341639,-0.55856 -0.615958,-1.3965 -0.255058,-0.84971 -0.421293,-1.72728 -0.166235,-0.87757 -0.160061,-1.51654 0.0062,-0.63897 0.218042,-0.76855 0.0963,-0.0589 0.398115,-0.0847 0.290031,-0.0451 0.550143,0.034 -0.0116,0.45701 0.09256,1.31963 0.104152,0.86261 0.34425,1.77441 0.240098,0.91179 0.64064,1.56665 0.09425,0.15409 0.333038,0.45796 0.227012,0.28461 0.534246,0.44075 0.307234,0.15615 0.615404,-0.0324 0.365953,-0.22383 0.527334,-0.82539 0.1496,-0.62083 0.169613,-1.45352 0.03927,-0.84448 -0.01888,-1.76169 -0.05815,-0.91722 -0.138742,-1.74131 -0.06133,-0.83588 -0.108637,-1.3892 0.127344,-0.0514 0.374554,-0.12323 0.26647,-0.0836 0.498719,-0.0933 0.25151,-0.0215 0.357536,0.15185 0.04712,0.077 0.125471,0.63784 0.06657,0.54154 0.18568,1.34207 0.126592,0.76949 0.322747,1.5229 0.196155,0.75341 0.490671,1.23493 0.212052,0.34669 0.476464,0.47609 0.283672,0.11762 0.630364,-0.0944 0.404474,-0.24739 0.758462,-0.96676 0.353988,-0.71938 0.526965,-1.77796 0.161196,-1.07784 0.02264,-2.34287 l 0.356414,0.0202 q 0.231682,1.28747 0.07161,2.49696 -0.171855,1.19023 -0.632806,2.08089 -0.46095,0.89066 -1.154334,1.31477 -0.500777,0.30629 -0.926754,0.30218 -0.406717,-0.0159 -0.741813,-0.26087 -0.315835,-0.25674 -0.551448,-0.64196 -0.141368,-0.23112 -0.244214,-0.48581 -0.114628,-0.27395 -0.209994,-0.55968 0.04207,0.84765 -0.02077,1.6536 -0.07462,0.78669 -0.31734,1.38508 -0.242725,0.59839 -0.724241,0.8929 z" />
      <path
         id="path4442"
         style="font-style:normal;font-variant:normal;font-weight:normal;font-stretch:normal;font-size:22.5778px;font-family:'Dancing Script';-inkscape-font-specification:'Dancing Script';fill:#ff6600;stroke-width:0.264583"
         d="m 75.592965,176.72775 q -0.803586,0.35998 -1.425837,0.0202 -0.61302,-0.31913 -0.936084,-1.0403 -0.212299,-0.47391 -0.370525,-1.26892 -0.137621,-0.80424 -0.199909,-1.71645 -0.07152,-0.93281 -0.01447,-1.79952 0.07766,-0.87594 0.31652,-1.50248 0.229631,-0.64714 0.641727,-0.83175 0.185443,-0.0831 0.364454,-0.0148 0.190385,0.0384 0.29192,0.26506 0.110764,0.24726 0.03031,0.95128 -0.05985,0.69478 -0.169488,1.60979 -0.109637,0.915 -0.07933,1.86628 0.04168,0.92143 0.364748,1.6426 0.332294,0.74177 0.690316,0.87827 0.358022,0.13649 0.873141,-0.0943 0.700563,-0.31384 1.169711,-1.36515 0.489753,-1.06055 0.591175,-3.20886 l 0.277747,0.12297 q 0.196275,2.03969 -0.512389,3.49518 -0.68806,1.44627 -1.903742,1.99086 z m -1.754948,-10.54464 q -0.329676,0.14769 -0.671381,0.10285 -0.321101,-0.0541 -0.478018,-0.40436 -0.193838,-0.4327 0.162221,-0.9633 0.367433,-0.56044 0.861948,-0.78197 0.309071,-0.13845 0.559127,-0.0773 0.250056,0.0612 0.406972,0.41144 0.175378,0.39149 -0.09118,0.95621 -0.255179,0.53489 -0.749694,0.75642 z" />
      <path
         id="path4444"
         style="font-style:normal;font-variant:normal;font-weight:normal;font-stretch:normal;font-size:22.5778px;font-family:'Dancing Script';-inkscape-font-specification:'Dancing Script';fill:#ff6600;stroke-width:0.264583"
         d="m 80.243379,174.74636 q -0.367536,0.11062 -0.815256,0.0332 -0.419593,-0.0623 -0.781047,-0.40153 -0.383073,-0.33269 -0.571782,-0.95966 -0.214737,-0.71345 -0.135615,-1.70398 0.07912,-0.99052 0.402567,-2.03101 0.316938,-1.0621 0.852385,-2.02492 0.52894,-0.98445 1.220347,-1.66412 0.6849,-0.70128 1.48483,-0.94205 0.454015,-0.13665 0.74389,-0.0353 0.304987,0.0733 0.409102,0.41917 0.02603,0.0865 0.02393,0.15784 0.01952,0.0649 0.02393,0.15785 -0.160156,-0.14042 -0.395875,-0.14021 -0.220606,-0.0279 -0.523283,0.0632 -0.691832,0.20822 -1.231901,0.84234 -0.524956,0.60599 -0.878839,1.46701 -0.338771,0.83289 -0.515288,1.73484 -0.176516,0.90195 -0.193089,1.7086 -0.0015,0.77852 0.148205,1.27578 0.143158,0.47563 0.443949,0.69162 0.30079,0.21598 0.646706,0.11187 0.583734,-0.1757 1.18404,-1.15804 0.621926,-0.98885 1.08327,-2.58957 0.461345,-1.60071 0.613081,-3.60338 0.09822,-1.3971 0.205041,-2.84395 0.128442,-1.45336 0.289421,-2.79862 0.154472,-1.36687 0.350297,-2.43968 0.210939,-1.10094 0.480654,-1.77157 0.284828,-0.69877 0.630744,-0.80288 0.172958,-0.0521 0.348227,0.0602 0.168761,0.0907 0.233833,0.30688 0.104115,0.34591 -0.0096,1.29971 -0.09864,0.92566 -0.330989,2.26882 -0.217232,1.31504 -0.434252,2.86579 -0.21702,1.55075 -0.377787,3.13173 -0.139146,1.57447 -0.109744,3.0039 0.04452,1.4013 0.369875,2.48228 0.182201,0.60536 0.338161,0.88851 0.15596,0.28316 0.523495,0.17253 0.454015,-0.13665 0.942239,-0.708 0.488224,-0.57136 0.878839,-1.46701 0.390616,-0.89566 0.545301,-2.02682 l 0.318001,0.1165 q -0.07891,1.22624 -0.525566,2.32739 -0.453164,1.07952 -1.125049,1.82405 -0.643759,0.75964 -1.37883,0.98089 -0.799931,0.24076 -1.286907,-0.20212 -0.458849,-0.42778 -0.628036,-0.98989 -0.110622,-0.36754 -0.184724,-1.00543 -0.0741,-0.63789 -0.100769,-1.43152 -0.346951,1.35408 -0.845453,2.51798 -0.50501,1.14229 -1.105529,1.88892 -0.578899,0.74012 -1.249111,0.94184 z" />
      <path
         id="path4446"
         style="font-style:normal;font-variant:normal;font-weight:normal;font-stretch:normal;font-size:22.5778px;font-family:'Dancing Script';-inkscape-font-specification:'Dancing Script';fill:#ff6600;stroke-width:0.264583"
         d="m 91.591733,172.13021 q -1.361538,0.20741 -2.169074,-0.44607 -0.781815,-0.63457 -0.948424,-1.72826 -0.153009,-1.00442 0.168029,-2.19524 0.343357,-1.19422 1.0196,-2.30212 0.698564,-1.1113 1.611172,-1.86695 0.909209,-0.77798 1.891302,-0.92759 0.513367,-0.0782 0.978255,0.12504 0.487208,0.19984 0.613015,1.02569 0.129207,0.84817 -0.268554,1.68527 -0.37884,0.81137 -1.116287,1.5175 -0.715126,0.70274 -1.639416,1.23179 -0.90537,0.50333 -1.851542,0.73882 -0.01064,0.23001 -0.0024,0.43429 0.0083,0.20428 0.03548,0.38285 0.051,0.3348 0.168966,0.6594 0.140284,0.32121 0.385369,0.58077 0.241685,0.23724 0.600291,0.34248 0.380926,0.10184 0.894293,0.0236 0.959773,-0.14621 1.815621,-0.82471 0.852448,-0.70081 1.519971,-1.71603 0.667524,-1.01522 1.062322,-2.1716 l 0.298446,0.16008 q -0.398637,1.43102 -1.186482,2.55593 -0.765524,1.1215 -1.777614,1.82379 -0.98637,0.72122 -2.102385,0.89123 z m -1.664926,-3.5832 q 0.572047,-0.29269 1.273134,-0.78774 0.697686,-0.51737 1.308011,-1.15847 0.632646,-0.64449 0.980446,-1.35978 0.370121,-0.7187 0.261315,-1.43294 -0.0374,-0.24553 -0.147084,-0.36585 -0.109682,-0.12032 -0.399846,-0.0761 -0.535688,0.0816 -1.073732,0.5975 -0.541445,0.49357 -0.997447,1.24818 -0.456002,0.75462 -0.780001,1.62615 -0.324,0.87153 -0.424796,1.70907 z" />
      <path
         id="path4448"
         style="font-style:normal;font-variant:normal;font-weight:normal;font-stretch:normal;font-size:22.5778px;font-family:'Dancing Script';-inkscape-font-specification:'Dancing Script';fill:#ff6600;stroke-width:0.264583"
         d="m 103.6439,170.75828 q -0.38272,-0.0291 -0.77255,-0.26251 -0.36903,-0.20919 -0.58416,-0.65576 -0.23764,-0.44828 -0.18802,-1.10115 0.0565,-0.74292 0.48684,-1.63857 0.43037,-0.89565 1.10666,-1.74996 0.67801,-0.87683 1.52414,-1.58237 0.84785,-0.72806 1.73756,-1.11329 0.89142,-0.40774 1.7244,-0.34442 0.47277,0.0359 0.70672,0.23486 0.25818,0.17812 0.2308,0.53833 -0.007,0.09 -0.0345,0.15588 -0.005,0.0675 -0.0345,0.15588 -0.0989,-0.18866 -0.31887,-0.27331 -0.19577,-0.10546 -0.51095,-0.12941 -0.72041,-0.0548 -1.45253,0.34245 -0.7079,0.3764 -1.34799,1.05232 -0.61587,0.65512 -1.10522,1.43307 -0.48935,0.77795 -0.79517,1.52456 -0.2816,0.72582 -0.32096,1.24361 -0.0376,0.49528 0.16523,0.80506 0.20289,0.30978 0.56309,0.33716 0.60785,0.0462 1.52152,-0.6542 0.93618,-0.6987 1.94279,-2.02605 1.00661,-1.32735 1.86906,-3.14116 0.59453,-1.2681 1.215,-2.57951 0.64298,-1.3097 1.27741,-2.50684 0.63614,-1.21965 1.205,-2.15006 0.59309,-0.9512 1.08613,-1.4798 0.51726,-0.5494 0.87747,-0.52202 0.1801,0.0137 0.3032,0.18155 0.12481,0.14534 0.1077,0.37047 -0.0274,0.36021 -0.47684,1.20912 -0.42523,0.82811 -1.12548,1.9976 -0.67603,1.14869 -1.43671,2.51737 -0.76068,1.36869 -1.47976,2.78582 -0.69657,1.41884 -1.18367,2.76304 -0.46288,1.32339 -0.54844,2.44903 -0.0479,0.63036 -0.004,0.95067 0.0436,0.32032 0.4263,0.34941 0.47277,0.0359 1.13393,-0.32138 0.66116,-0.35732 1.34799,-1.05233 0.68683,-0.69501 1.23832,-1.69467 l 0.25475,0.22316 q -0.51501,1.11564 -1.3281,1.98219 -0.81137,0.84405 -1.70622,1.29682 -0.87404,0.47699 -1.63948,0.41881 -0.83298,-0.0633 -1.12789,-0.65181 -0.27411,-0.56426 -0.22962,-1.1496 0.0291,-0.38272 0.18957,-1.00452 0.16048,-0.6218 0.42128,-1.37184 -0.81111,1.13842 -1.69516,2.04487 -0.88233,0.88394 -1.71135,1.36435 -0.80651,0.48213 -1.5044,0.42908 z" />
      <path
         id="path4450"
         style="font-style:normal;font-variant:normal;font-weight:normal;font-stretch:normal;font-size:22.5778px;font-family:'Dancing Script';-inkscape-font-specification:'Dancing Script';fill:#ff6600;stroke-width:0.264583"
         d="m 115.17642,172.38969 q -1.34532,-0.29484 -1.86466,-1.19453 -0.50212,-0.8728 -0.26528,-1.95346 0.21751,-0.99245 0.94439,-1.98883 0.74892,-0.99154 1.77761,-1.78309 1.05074,-0.78672 2.17369,-1.16467 1.12779,-0.40001 2.09818,-0.18734 0.50725,0.11118 0.86828,0.46766 0.38308,0.36133 0.20424,1.17734 -0.18367,0.83806 -0.85527,1.47674 -0.6447,0.62145 -1.58638,1.01602 -0.91963,0.39941 -1.97219,0.56166 -1.02568,0.14502 -1.99335,0.0254 -0.0924,0.21087 -0.158,0.40453 -0.0656,0.19365 -0.10422,0.37009 -0.0725,0.33081 -0.0789,0.67613 0.0157,0.35015 0.15137,0.68036 0.14049,0.30815 0.43747,0.53503 0.31903,0.23172 0.82628,0.34289 0.94834,0.20785 1.99062,-0.11845 1.04713,-0.34835 2.03442,-1.05651 0.9873,-0.70817 1.77067,-1.64594 l 0.22115,0.2565 q -0.88548,1.19275 -2.02444,1.96013 -1.1169,0.77222 -2.31357,1.06467 -1.17945,0.31935 -2.28216,0.0777 z m -0.26863,-3.94197 q 0.63897,-0.068 1.47099,-0.27856 0.83685,-0.23264 1.63654,-0.6121 0.82175,-0.37463 1.40301,-0.91754 0.60331,-0.53807 0.75799,-1.24381 0.0532,-0.2426 -0.006,-0.39426 -0.0592,-0.15166 -0.34592,-0.21449 -0.52931,-0.11601 -1.21661,0.17252 -0.68247,0.26647 -1.37884,0.80726 -0.69636,0.54079 -1.31146,1.23808 -0.6151,0.69728 -1.00965,1.4429 z" />
      <path
         id="path4452"
         style="font-style:normal;font-variant:normal;font-weight:normal;font-stretch:normal;font-size:22.5778px;font-family:'Dancing Script';-inkscape-font-specification:'Dancing Script';fill:#ff6600;stroke-width:0.264583"
         d="m 127.37681,175.79104 q -0.88926,-0.38954 -1.01043,-1.18208 -0.10953,-0.76281 0.28907,-1.67276 0.43483,-0.99267 1.40498,-2.19453 0.97015,-1.20186 2.23121,-2.44884 1.28173,-1.23791 2.63063,-2.34781 1.35796,-1.13058 2.59815,-1.99231 1.24019,-0.86173 2.14794,-1.30216 0.92843,-0.43137 1.28,-0.27737 0.22748,0.0996 0.25448,0.43191 0.0361,0.31159 -0.0443,0.72007 -0.0713,0.38781 -0.19811,0.67734 -0.2446,0.55838 -0.93273,1.3415 -0.65839,0.7715 -1.66459,1.66178 -0.97647,0.87866 -2.17786,1.70809 -1.17165,0.81781 -2.45183,1.48948 -1.2595,0.68073 -2.49558,1.02663 -0.36868,0.50402 -0.68694,1.00549 -0.28852,0.48984 -0.49688,0.96549 -0.3533,0.80655 -0.29794,1.29913 0.0554,0.49258 0.51034,0.69188 0.55838,0.2446 1.3135,-0.0162 0.77579,-0.25174 1.57758,-0.78789 0.83152,-0.54777 1.53639,-1.20031 l 0.23774,0.30133 q -1.59725,1.3955 -3.02219,2.00375 -1.41589,0.58758 -2.53265,0.0984 z m 2.35518,-4.98267 q 1.04089,-0.40676 2.13102,-1.03844 1.09918,-0.65236 2.12213,-1.41206 1.04363,-0.75064 1.91533,-1.50265 0.87169,-0.75201 1.44598,-1.3878 0.58336,-0.65648 0.76454,-1.07009 0.0906,-0.20681 0.0557,-0.29603 -0.0142,-0.0802 -0.0555,-0.0983 -0.16545,-0.0725 -0.8146,0.28404 -0.61941,0.3449 -1.54664,0.99863 -0.92724,0.65373 -1.98387,1.54658 -1.05663,0.89284 -2.11719,1.9072 -1.03988,1.02342 -1.91688,2.0689 z" />
      <path
         id="path4454"
         style="font-style:normal;font-variant:normal;font-weight:normal;font-stretch:normal;font-size:22.5778px;font-family:'Dancing Script';-inkscape-font-specification:'Dancing Script';fill:#ff6600;stroke-width:0.264583"
         d="m 131.27962,177.89986 q -0.59996,-0.36045 -0.76221,-1.01105 -0.19323,-0.64287 0.29513,-1.45572 0.41859,-0.69673 1.20497,-1.30419 0.79801,-0.6268 1.805,-1.07538 1.01863,-0.46792 2.07971,-0.69963 1.09206,-0.23943 2.0794,-0.17303 1.00669,0.078 1.76147,0.5315 0.75479,0.45347 1.01381,1.1622 0.27064,0.68939 -0.12469,1.34741 -0.29069,0.48384 -0.66629,0.49524 -0.35624,0.023 -0.78202,-0.23278 0.13173,-0.13158 0.25573,-0.29413 0.15498,-0.17028 0.248,-0.32511 0.26743,-0.44513 0.24058,-0.88269 -0.0152,-0.45691 -0.53776,-0.77085 -0.5419,-0.32557 -1.3357,-0.2757 -0.78218,0.0305 -1.68843,0.35525 -0.89462,0.30537 -1.74289,0.79663 -0.84827,0.49126 -1.51073,1.06781 -0.66246,0.57655 -0.99965,1.1378 -0.45347,0.75479 0.0691,1.06873 0.44513,0.26743 1.21186,0.17495 0.77835,-0.11184 1.70395,-0.42493 0.95659,-0.32083 1.87837,-0.71524 0.92178,-0.39442 1.65767,-0.74247 0.14718,-0.0696 0.16653,-0.058 0.1045,0.0891 0.2438,0.25183 0.15865,0.17433 0.23599,0.35249 0.0773,0.17816 -0.0157,0.33299 -0.10465,0.17418 -0.46487,0.37919 -0.3486,0.18566 -0.79403,0.44483 -0.44544,0.25917 -0.8638,0.56094 -0.40673,0.28243 -0.61602,0.63079 -0.17442,0.2903 -0.194,0.67363 -0.008,0.36397 0.34041,0.57326 0.52254,0.31394 1.82757,0.0708 1.31665,-0.26253 3.10613,-1.26823 l 0.0773,0.30981 q -1.0343,0.80092 -2.1497,1.21071 -1.11539,0.40979 -2.11826,0.41307 -0.98351,0.0149 -1.68023,-0.40367 -0.71609,-0.43021 -0.80865,-1.06529 -0.0732,-0.62344 0.22911,-1.12663 0.0698,-0.11612 0.17051,-0.23997 0.11238,-0.1432 0.22475,-0.2864 -1.5066,0.62252 -2.54052,0.76519 -1.01457,0.15429 -1.73065,-0.27593 z" />
      <path
         id="path4456"
         style="font-style:normal;font-variant:normal;font-weight:normal;font-stretch:normal;font-size:22.5778px;font-family:'Dancing Script';-inkscape-font-specification:'Dancing Script';fill:#ff6600;stroke-width:0.264583"
         d="m 144.6496,187.87465 q -0.75812,-0.77442 -0.74725,-1.79612 0.0109,-1.0217 1.04343,-2.03253 0.80669,-0.78971 1.86507,-1.22549 1.09031,-0.43545 2.20881,-0.51934 1.1185,-0.0839 2.08941,0.19784 0.98706,0.26596 1.58723,0.87904 0.64757,0.66149 0.49727,1.28256 -0.1503,0.62107 -0.56978,1.03171 -0.46788,0.45804 -1.04394,0.57964 -0.56027,0.13773 -0.92354,-0.23335 -0.2685,-0.27427 -0.21602,-0.70479 0.36598,0.11565 0.92693,-0.0859 0.57708,-0.21738 0.93202,-0.56485 0.19361,-0.18953 0.21144,-0.36497 0.0498,-0.17509 -0.15556,-0.38483 -0.42645,-0.43562 -1.27169,-0.52444 -0.82945,-0.0727 -1.83739,0.12415 -0.99215,0.21297 -1.92247,0.61819 -0.91454,0.42134 -1.51149,1.00573 -0.50015,0.48962 -0.68271,1.14228 -0.18257,0.65265 0.49658,1.34641 0.63177,0.64535 1.61848,0.94323 1.00251,0.31402 2.21679,0.23114 1.21429,-0.0829 2.43332,-0.61275 l 0.044,0.36768 q -1.3313,0.57657 -2.73749,0.68934 -1.39006,0.097 -2.58379,-0.251 -1.19374,-0.34798 -1.96765,-1.13854 z" />
      <path
         id="path4458"
         style="font-style:normal;font-variant:normal;font-weight:normal;font-stretch:normal;font-size:22.5778px;font-family:'Dancing Script';-inkscape-font-specification:'Dancing Script';fill:#ff6600;stroke-width:0.264583"
         d="m 150.83088,193.9464 q -0.45739,-0.6165 -0.40005,-1.2213 0.0708,-0.58666 0.59662,-0.97678 0.54398,-0.40358 1.33069,-0.59366 0.7867,-0.19007 1.54183,-0.38483 0.7867,-0.19008 1.25815,-0.53984 0.58024,-0.43048 0.59663,-0.97679 0.048,-0.54162 0.0281,-1.06102 -1.37923,0.37665 -2.67656,0.63632 -1.29734,0.25967 -2.00215,0.33277 l 0.18718,-0.39189 q 0.65977,-0.0959 1.86235,-0.36962 1.21604,-0.25558 2.67247,-0.71762 0.0468,-0.31585 0.30066,-0.50419 0.54397,-0.40357 1.11718,-0.35092 0.57321,0.0526 0.68083,0.19771 0.14798,0.19946 -0.0199,0.35212 -0.13629,0.15734 -0.22695,0.2246 -0.0907,0.0673 -0.44337,0.16025 -0.32112,0.0977 -0.37551,0.13804 -0.25386,0.18833 -0.26966,0.62175 0.0158,0.4381 0.0128,1.00253 0.0152,0.55099 -0.16379,1.10548 -0.14741,0.55917 -0.72765,0.98965 -0.54398,0.40357 -1.28097,0.58488 -0.72354,0.19944 -1.40613,0.34038 -0.66914,0.15908 -1.04992,0.44159 -0.32638,0.24214 -0.31411,0.48605 0.0123,0.24391 0.17371,0.4615 0.32286,0.43518 0.93116,0.6867 0.62175,0.26966 1.36166,0.39543 0.73991,0.12577 1.44882,0.13398 0.72704,-0.005 1.24703,-0.13801 l -0.006,0.37024 q -1.01717,0.22049 -2.20453,0.17367 -1.16923,-0.0603 -2.19223,-0.45394 -1.00955,-0.37553 -1.588,-1.15523 z" />
      <path
         id="path4460"
         style="font-style:normal;font-variant:normal;font-weight:normal;font-stretch:normal;font-size:22.5778px;font-family:'Dancing Script';-inkscape-font-specification:'Dancing Script';fill:#ff6600;stroke-width:0.264583"
         d="m 153.90714,198.5551 q -0.35568,-0.68027 0.0249,-1.41428 0.41102,-0.72446 1.21134,-1.1429 0.58023,-0.30338 1.43469,-0.52083 0.86491,-0.19745 1.75167,-0.3044 0.88675,-0.10696 1.52386,-0.0579 0.63711,0.049 0.75218,0.26914 0.0523,0.10004 0.0578,0.40291 0.0255,0.2924 -0.0709,0.54661 -0.45521,-0.0422 -1.32287,0.004 -0.86766,0.046 -1.79351,0.22437 -0.92586,0.17835 -1.60613,0.53403 -0.16006,0.0837 -0.47928,0.30155 -0.2992,0.20739 -0.47562,0.50345 -0.17641,0.29606 -0.009,0.61619 0.19876,0.38015 0.78814,0.58155 0.60938,0.19094 1.43885,0.2668 0.83994,0.0959 1.75899,0.0994 0.91905,0.004 1.74669,-0.0216 0.83811,-0.005 1.39336,-0.0151 0.0428,0.13051 0.0978,0.38198 0.0655,0.27148 0.0596,0.50386 0.005,0.25238 -0.1755,0.34654 -0.08,0.0418 -0.64483,0.0824 -0.54479,0.0301 -1.35151,0.0952 -0.77625,0.0747 -1.54113,0.2198 -0.76487,0.14514 -1.26507,0.40667 -0.36015,0.1883 -0.50701,0.44343 -0.1364,0.27514 0.0519,0.63528 0.21968,0.42017 0.91367,0.82165 0.69399,0.40147 1.73857,0.64512 1.0646,0.23318 2.33608,0.17985 l -0.0441,0.35426 q -1.30012,0.14473 -2.49614,-0.0962 -1.176,-0.25136 -2.03372,-0.77106 -0.85771,-0.51969 -1.23431,-1.23998 -0.27199,-0.52021 -0.23929,-0.94495 0.0432,-0.40473 0.31007,-0.72263 0.27737,-0.29789 0.67753,-0.50711 0.24009,-0.12553 0.50111,-0.21105 0.28103,-0.096 0.57252,-0.17195 -0.84857,-0.0149 -1.64849,-0.13172 -0.77991,-0.12726 -1.36065,-0.4096 -0.58074,-0.28234 -0.84228,-0.78254 z" />
      <path
         id="path4462"
         style="font-style:normal;font-variant:normal;font-weight:normal;font-stretch:normal;font-size:22.5778px;font-family:'Dancing Script';-inkscape-font-specification:'Dancing Script';fill:#ff6600;stroke-width:0.264583"
         d="m 157.9138,208.16115 q -0.34788,-1.00251 -0.1072,-1.75519 0.22676,-0.72395 0.78524,-1.18063 0.55109,-0.47801 1.19099,-0.70006 0.6399,-0.22205 1.0404,-0.16984 0.40049,0.0522 0.65255,0.22764 0.25946,0.19674 0.4188,0.38044 0.16674,0.20502 0.28166,0.26073 0.92595,0.39565 1.87887,0.66244 0.95293,0.2668 1.94676,0.376 l 0.25596,-0.0888 q 0.78922,-0.27386 1.19799,-0.12893 0.4375,0.15887 0.54112,0.45749 0.0592,0.17064 0.004,0.28557 -0.0557,0.11492 -0.16236,0.15193 -0.10665,0.037 -0.36349,0.0544 -0.25683,0.0174 -0.61944,0.14325 -0.7039,0.24426 -1.43955,0.81022 -0.71432,0.55855 -1.53529,1.15411 -0.79964,0.58817 -1.78083,0.92864 -0.27729,0.0962 -0.56938,0.14979 -0.26336,0.0675 -0.5202,0.0849 0.38704,0.70215 1.14974,1.17834 0.78404,0.46879 2.19317,0.67287 l -0.14669,0.26598 q -1.31378,0.002 -2.21362,-0.59407 -0.8785,-0.6033 -1.36089,-1.51134 -1.03562,-0.023 -1.72128,-0.62153 -0.67826,-0.57719 -0.99653,-1.49438 z m 0.76135,-0.2164 q 0.0888,0.25596 0.4075,0.62335 0.31867,0.36739 1.10398,0.35776 -0.14023,-0.95507 0.14877,-1.84401 0.2964,-0.8676 0.71122,-1.39392 -0.18416,-0.46186 -0.90938,-0.21021 -0.76789,0.26646 -1.27368,0.94385 -0.47707,0.69131 -0.18841,1.52318 z m 1.88977,0.96934 q 0.22811,-0.0314 0.47014,-0.0914 0.24203,-0.0601 0.56198,-0.17111 1.00252,-0.34788 1.89488,-0.94432 0.9211,-0.58251 1.73642,-1.05662 -0.98078,-0.20932 -1.91978,-0.50485 -0.91027,-0.28159 -1.5711,-0.60195 -0.57153,0.55681 -0.93932,1.42529 -0.36039,0.88981 -0.23322,1.94501 z" />
      <path
         id="path4464"
         style="font-style:normal;font-variant:normal;font-weight:normal;font-stretch:normal;font-size:22.5778px;font-family:'Dancing Script';-inkscape-font-specification:'Dancing Script';fill:#ff6600;stroke-width:0.264583"
         d="m 160.52197,214.65945 q -0.20214,-0.85701 0.24874,-1.40411 0.42892,-0.54192 1.19803,-0.72334 0.50542,-0.11921 1.31601,-0.12483 0.81576,0.0164 1.72337,0.12704 0.92958,0.1055 1.77002,0.32482 0.84563,0.24128 1.41595,0.59391 0.59229,0.34743 0.69596,0.78693 0.0466,0.19777 -0.0541,0.36072 -0.0736,0.17974 -0.31532,0.23676 -0.26369,0.0622 -0.93994,-0.14945 -0.67107,-0.18967 -1.54904,-0.46973 -0.87796,-0.28006 -1.81791,-0.42951 -0.91279,-0.13265 -1.68191,0.0488 -0.79109,0.1866 -0.99259,0.5125 -0.2015,0.32589 -0.0719,0.87526 0.17623,0.74714 1.12034,1.40595 0.94929,0.68079 3.04003,1.18513 l -0.1731,0.2496 q -2.04015,-0.1915 -3.33607,-1.16169 -1.29073,-0.9482 -1.59655,-2.24472 z m 10.68644,0.26304 q -0.0829,-0.3516 0.0255,-0.67874 0.1136,-0.30516 0.48717,-0.39327 0.46147,-0.10885 0.91549,0.34079 0.48118,0.46644 0.60558,0.99383 0.0777,0.32963 -0.0294,0.56368 -0.10717,0.23406 -0.48074,0.32217 -0.41753,0.0985 -0.92192,-0.26969 -0.47724,-0.35138 -0.60164,-0.87877 z" />
      <path
         id="path4466"
         style="font-style:normal;font-variant:normal;font-weight:normal;font-stretch:normal;font-size:22.5778px;font-family:'Dancing Script';-inkscape-font-specification:'Dancing Script';fill:#ff6600;stroke-width:0.264583"
         d="m 162.51981,225.50118 q -0.0947,-0.78454 0.26012,-1.2367 0.35749,-0.42974 0.98512,-0.50548 0.47072,-0.0568 1.0052,0.0379 0.53719,0.11711 1.09409,0.2091 0.57931,0.0893 1.09486,0.0271 0.62763,-0.0757 0.81932,-0.37177 0.21682,-0.27632 0.17083,-0.65737 -0.0839,-0.69487 -0.75319,-1.34184 -0.64694,-0.64966 -1.62469,-1.21393 -0.95534,-0.56697 -1.9671,-1.03616 -1.01176,-0.46919 -1.80556,-0.82824 -0.0433,-0.35864 0.0533,-0.68868 0.0715,-0.34976 0.29643,-0.55883 0.11208,-0.0135 0.72463,0.16272 0.60984,0.15383 1.49948,0.36486 0.88965,0.21103 1.81601,0.3494 0.92636,0.13838 1.66606,0.0491 0.17314,0.11556 0.3652,0.38802 0.19207,0.27246 0.22994,0.58628 0.073,0.60521 -0.50977,0.67553 -0.35864,0.0433 -1.23476,-0.0557 -0.8537,-0.10165 -1.81059,-0.30457 0.99205,0.49431 1.97791,1.12582 1.01099,0.65122 1.71898,1.42997 0.708,0.77875 0.81078,1.63053 0.10548,0.87419 -0.47616,1.33098 -0.57894,0.47921 -1.34106,0.57117 -0.69487,0.0838 -1.32713,-0.0673 -0.60984,-0.15383 -1.19997,-0.33278 -0.56501,-0.15923 -1.12539,-0.0916 -0.47072,0.0568 -0.65082,0.26046 -0.15498,0.22338 -0.11982,0.51478 0.0676,0.56038 0.65079,1.05855 0.60559,0.49546 1.47474,0.91364 0.87187,0.44059 1.74991,0.74399 l -0.26164,0.28173 q -1.15515,-0.33819 -2.07725,-0.8182 -0.9221,-0.48002 -1.49908,-1.11538 -0.57699,-0.63537 -0.67977,-1.48714 z" />
      <path
         id="path4468"
         style="font-style:normal;font-variant:normal;font-weight:normal;font-stretch:normal;font-size:22.5778px;font-family:'Dancing Script';-inkscape-font-specification:'Dancing Script';fill:#ff6600;stroke-width:0.264583"
         d="m 162.28105,231.13103 q -0.01,-1.37721 0.75295,-2.08253 0.74026,-0.68258 1.84654,-0.6904 1.01598,-0.007 2.14835,0.48154 1.13253,0.51129 2.13184,1.33963 0.99946,0.85091 1.61623,1.86258 0.63934,1.01151 0.64636,2.00491 0.004,0.51927 -0.26422,0.95016 -0.26774,0.45346 -1.1031,0.45936 -0.85793,0.006 -1.62923,-0.50779 -0.74856,-0.49143 -1.34147,-1.32264 -0.59275,-0.80863 -0.98359,-1.79932 -0.36809,-0.96826 -0.46527,-1.93845 -0.22609,-0.0436 -0.42944,-0.0647 -0.20336,-0.0211 -0.38397,-0.0199 -0.33866,0.002 -0.67684,0.0725 -0.33802,0.0927 -0.63009,0.29797 -0.26949,0.20511 -0.42514,0.54489 -0.15549,0.36235 -0.15182,0.88163 0.007,0.97082 0.55542,1.91523 0.57114,0.94426 1.47997,1.75065 0.90883,0.8064 1.99653,1.36317 l -0.20128,0.27236 q -1.35894,-0.60001 -2.35904,-1.54123 -0.99994,-0.91864 -1.54962,-2.0211 -0.57209,-1.07972 -0.58007,-2.20858 z m 3.78516,-1.13309 q 0.2075,0.60815 0.59674,1.37306 0.41182,0.76475 0.95862,1.46082 0.54696,0.71864 1.20489,1.16556 0.65809,0.46949 1.38056,0.46439 0.24835,-0.002 0.38318,-0.093 0.13482,-0.0913 0.13275,-0.38477 -0.004,-0.54185 -0.43711,-1.1484 -0.4107,-0.60672 -1.092,-1.16636 -0.68131,-0.55964 -1.49728,-1.00544 -0.81597,-0.4458 -1.63035,-0.66583 z" />
    </g>
  </g>
</svg>
