<svg
   xmlns:svg="http://www.w3.org/2000/svg"
   xmlns="http://www.w3.org/2000/svg"
   version="1.1"
   viewBox="0 0 124.0993 124.12078"
   id="hallodefault">
  <defs
     id="defs4">
    <filter
       x="-0.13714287"
       y="-0.13714287"
       width="1.2742857"
       height="1.2742857"
       color-interpolation-filters="sRGB"
       id="filter3803">
      <feGaussianBlur
         stdDeviation="22.886579"
         id="feGaussianBlur3805" />
    </filter>
    <filter
       x="-0.82454336"
       y="-0.77380216"
       width="2.6490867"
       height="2.5476043"
       color-interpolation-filters="sRGB"
       id="filter3784">
      <feGaussianBlur
         id="feGaussianBlur3786"
         stdDeviation="24.900431" />
    </filter>
    <filter
       x="-0.20081633"
       y="-0.20081633"
       width="1.4016327"
       height="1.4016327"
       color-interpolation-filters="sRGB"
       id="filter3812">
      <feGaussianBlur
         id="feGaussianBlur3814"
         stdDeviation="27.936301" />
    </filter>
  </defs>
  <g
     transform="matrix(0.23767855,0,0,0.23767855,-1.9265479,97.616561)"
     id="g3816">
    <g
       transform="translate(-110.13471,-689.1153)"
       id="layer1">
      <path
         d="m 581.23538,538.28632 a 200.25757,200.25757 0 1 1 -400.51513,0 200.25757,200.25757 0 1 1 400.51513,0 z"
         transform="matrix(0.96393136,0,0,0.96393136,12.078102,20.636336)"
         id="path2985"
         style="opacity:0.52282158;fill:none;stroke:#000080;stroke-width:31.29999924;stroke-miterlimit:4;stroke-dasharray:none;filter:url(#filter3803)" />
    </g>
    <path
       d="m 450.3125,294.64502 a 166.93643,166.93643 0 1 1 -333.87286,0 166.93643,166.93643 0 1 1 333.87286,0 z"
       transform="translate(-13.069756,-455.64479)"
       id="path2994"
       style="opacity:0.52282158;fill:#000080;fill-opacity:1;fill-rule:evenodd;stroke:#ffffff;stroke-width:31.29999924;stroke-linecap:round;stroke-miterlimit:4;stroke-opacity:1;stroke-dasharray:none;stroke-dashoffset:0;filter:url(#filter3812)" />
    <path
       d="m 342.18999,367.71686 a 72.477737,93.864616 0 1 1 -144.95548,0 72.477737,93.864616 0 1 1 144.95548,0 z"
       transform="matrix(1,0,0,0.78739399,-4.7526387,-446.1367)"
       id="path2998"
       style="opacity:0.52282158;fill:#000080;fill-opacity:1;fill-rule:evenodd;stroke:#000080;stroke-width:31.29999924;stroke-linecap:round;stroke-miterlimit:4;stroke-opacity:1;stroke-dasharray:none;stroke-dashoffset:0" />
    <path
       d="m 276.84119,245.93048 a 36.238869,38.615189 0 1 1 -72.47773,0 36.238869,38.615189 0 1 1 72.47773,0 z"
       transform="translate(17.822395,-423.56448)"
       id="path2996"
       style="opacity:0.52282158;fill:#000080;fill-opacity:1;fill-rule:evenodd;stroke:#ffffff;stroke-width:31.29999924;stroke-linecap:round;stroke-miterlimit:4;stroke-opacity:1;stroke-dasharray:none;stroke-dashoffset:0;filter:url(#filter3784)" />
  </g>
</svg>
