<?xml version="1.0" encoding="utf-8"?>
<!-- Generator: Adobe Illustrator 21.0.0, SVG Export Plug-In . SVG Version: 6.00 Build 0)  -->
<!DOCTYPE svg PUBLIC "-//W3C//DTD SVG 1.1//EN" "http://www.w3.org/Graphics/SVG/1.1/DTD/svg11.dtd">
<svg version="1.1" id="Layer_1" xmlns="http://www.w3.org/2000/svg" xmlns:xlink="http://www.w3.org/1999/xlink" x="0px" y="0px"
	 viewBox="0 0 172.5 172.5" style="enable-background:new 0 0 172.5 172.5;" xml:space="preserve">
<style type="text/css">
	.st0{fill:#246826;}
</style>
<g>
	<path class="st0" d="M86.8,142.6c-0.7-1-1.2-1.9-1.8-2.8c-10.3-16.3-20.2-32.8-29-50c-4.3-8.4-8.4-16.8-11.5-25.7
		c-1.3-3.8-2.6-7.7-2.9-11.7c-0.5-6.8,0.4-13.5,2.4-20c3-9.7,8.6-17.6,17.2-23.2c8.5-5.5,18-7.8,28.1-7.3c7.7,0.3,14.9,2.3,21.5,6.2
		c9.9,5.8,16.1,14.4,19.2,25.4c1.6,5.7,2.3,11.5,2.2,17.4c-0.1,3.5-1,6.9-2.1,10.3c-2.5,8.1-6.1,15.8-9.8,23.4
		c-7.4,15-15.8,29.5-24.5,43.8c-2.7,4.5-5.6,8.9-8.3,13.3C87.2,141.9,87,142.2,86.8,142.6z M86.8,63.9c8.6,0,15.7-7,15.7-15.6
		c0-8.7-7-15.8-15.7-15.8c-8.7,0-15.7,7-15.8,15.7C71.1,56.9,78.1,63.9,86.8,63.9z"/>
	<path class="st0" d="M66.6,116.4c-1.5,0.2-2.9,0.4-4.3,0.6c-7.2,1.1-14.2,2.7-20.9,5.9c-2.8,1.3-5.5,3-7.6,5.3
		c-3.4,3.7-3.7,8-0.9,12.2c2.1,3,5,5.1,8.1,6.9c5.4,3,11.1,5,17.1,6.4c13,3,26.1,3.7,39.3,2.7c7.1-0.5,14-1.6,20.9-3.5
		c6-1.7,11.8-3.8,16.9-7.4c2.1-1.5,4-3.1,5.5-5.3c2.8-4.2,2.4-8.4-1-12.1c-2.6-2.8-5.9-4.6-9.3-6.1c-5.8-2.5-11.8-3.9-18-4.9
		c-1.8-0.3-3.6-0.5-5.3-0.8c0.8-0.9,1.6-1.7,2.4-2.6c0.1-0.1,0.4-0.1,0.6-0.1c10,1,19.9,2.8,29.1,6.9c3.2,1.4,6.3,3.2,8.9,5.6
		c7.4,6.6,8.5,16.1,2.7,24.2c-2.9,4-6.8,7-11,9.5c-6.2,3.6-12.8,5.9-19.7,7.7c-13.9,3.5-28.1,4.4-42.4,3.6c-9.8-0.5-19.5-2-28.9-4.8
		c-7.1-2.1-13.9-5-19.9-9.5c-3-2.3-5.6-4.9-7.6-8.2c-4.4-7.6-3-16.2,3.5-22.1c3.8-3.4,8.2-5.7,13-7.4c6.8-2.5,13.9-3.9,21.1-4.9
		c1.4-0.2,2.8-0.4,4.2-0.5c0.4,0,0.8,0.2,1.1,0.4C65.1,114.8,65.8,115.6,66.6,116.4z"/>
</g>
</svg>
