<svg xmlns="http://www.w3.org/2000/svg" width="42" height="42" viewBox="0 0 42 42">
  <g fill="none" fill-rule="evenodd">
    <path fill="#72B200" d="M0,36.9963439 C0,39.7597868 2.24325385,42 5.00365614,42 L36.9963439,42 C39.7597868,42 42,39.7567461 42,36.9963439 L42,5.00365614 C42,2.24021316 39.7567461,0 36.9963439,0 L5.00365614,0 C2.24021316,0 0,2.24325385 0,5.00365614 L0,36.9963439 Z"/>
    <g fill="#FFF" transform="translate(10 9)">
      <path fill-rule="nonzero" d="M16.6526955,0 L6.34703245,0 C2.84728088,0 0,2.72361619 0,6.07120465 L0,15.9287954 C0,19.2765139 2.84728088,22 6.34703245,22 L16.6526955,22 C20.1527191,22 23,19.2763838 23,15.9287954 L23,6.07120465 C23.000136,2.72361619 20.1527191,0 16.6526955,0 Z M20.9594646,15.9287954 C20.9594646,18.2002106 19.0274929,20.0480534 16.6528315,20.0480534 L6.34703245,20.0480534 C3.97250713,20.0481835 2.04067147,18.2002106 2.04067147,15.9287954 L2.04067147,6.07120465 C2.04067147,3.79991956 3.97250713,1.95194662 6.34703245,1.95194662 L16.6526955,1.95194662 C19.0273568,1.95194662 20.9593285,3.79991956 20.9593285,6.07120465 L20.9593285,15.9287954 L20.9594646,15.9287954 Z"/>
      <path fill-rule="nonzero" d="M11.5,6 C8.46725432,6 6,8.46731096 6,11.5001263 C6,14.5328153 8.46725432,17 11.5,17 C14.5327457,17 17,14.5328153 17,11.5001263 C17,8.46731096 14.5327457,6 11.5,6 Z M11.5,15.1060213 C9.51162684,15.1060213 7.89380897,13.4884188 7.89380897,11.5 C7.89380897,9.51145494 9.51150059,7.89372618 11.5,7.89372618 C13.4884994,7.89372618 15.106191,9.51145494 15.106191,11.5 C15.106191,13.4884188 13.4883732,15.1060213 11.5,15.1060213 Z"/>
      <path d="M16.5,3 C16.1059091,3 15.7187727,3.15954545 15.4404545,3.43909091 C15.1607727,3.71727273 15,4.10454545 15,4.5 C15,4.89422727 15.1609091,5.28136364 15.4404545,5.56090909 C15.7186364,5.83909091 16.1059091,6 16.5,6 C16.8954545,6 17.2813636,5.83909091 17.5609091,5.56090909 C17.8404545,5.28136364 18,4.89409091 18,4.5 C18,4.10454545 17.8404545,3.71727273 17.5609091,3.43909091 C17.2827273,3.15954545 16.8954545,3 16.5,3 Z"/>
    </g>
  </g>
</svg>
