<?xml version="1.0" encoding="UTF-8" standalone="no"?>
<svg
   xmlns:dc="http://purl.org/dc/elements/1.1/"
   xmlns:cc="http://creativecommons.org/ns#"
   xmlns:rdf="http://www.w3.org/1999/02/22-rdf-syntax-ns#"
   xmlns:svg="http://www.w3.org/2000/svg"
   xmlns="http://www.w3.org/2000/svg"
   xmlns:xlink="http://www.w3.org/1999/xlink"
   xmlns:sodipodi="http://sodipodi.sourceforge.net/DTD/sodipodi-0.dtd"
   xmlns:inkscape="http://www.inkscape.org/namespaces/inkscape"
   sodipodi:docname="livingfoodguide.svg"
   inkscape:version="1.0 (4035a4fb49, 2020-05-01)"
   id="svg3849"
   version="1.1"
   viewBox="0 0 147.78012 82.232109"
   height="82.232109mm"
   width="147.78012mm">
  <defs
     id="defs3843">
    <rect
       id="rect935"
       height="32.942818"
       width="4.8131438"
       y="116.56364"
       x="43.437241" />
    <linearGradient
       inkscape:collect="always"
       id="linearGradient1503">
      <stop
         style="stop-color:#ffff00;stop-opacity:1;"
         offset="0"
         id="stop1499" />
      <stop
         style="stop-color:#ffff00;stop-opacity:0;"
         offset="1"
         id="stop1501" />
    </linearGradient>
    <radialGradient
       inkscape:collect="always"
       xlink:href="#linearGradient1503"
       id="radialGradient1511"
       cx="87.981911"
       cy="54.840591"
       fx="87.981911"
       fy="54.840591"
       r="0"
       gradientTransform="matrix(1,0,0,0,0,0)"
       gradientUnits="userSpaceOnUse" />
  </defs>
  <sodipodi:namedview
     inkscape:window-maximized="0"
     inkscape:window-y="38"
     inkscape:window-x="1644"
     inkscape:window-height="900"
     inkscape:window-width="1439"
     fit-margin-bottom="0"
     fit-margin-right="0"
     fit-margin-left="0"
     fit-margin-top="0"
     inkscape:guide-bbox="true"
     showguides="true"
     showgrid="false"
     inkscape:document-rotation="0"
     inkscape:current-layer="layer1"
     inkscape:document-units="mm"
     inkscape:cy="94.903697"
     inkscape:cx="270.78675"
     inkscape:zoom="0.98994949"
     inkscape:pageshadow="2"
     inkscape:pageopacity="0.0"
     borderopacity="1.0"
     bordercolor="#666666"
     pagecolor="#ffffff"
     id="base">
    <sodipodi:guide
       id="guide4423"
       orientation="0,-1"
       position="128.71958,-26.9255" />
    <sodipodi:guide
       id="guide1049"
       orientation="0,-1"
       position="93.277061,-123.8327" />
  </sodipodi:namedview>
  <metadata
     id="metadata3846">
    <rdf:RDF>
      <cc:Work
         rdf:about="">
        <dc:format>image/svg+xml</dc:format>
        <dc:type
           rdf:resource="http://purl.org/dc/dcmitype/StillImage" />
        <dc:title></dc:title>
      </cc:Work>
    </rdf:RDF>
  </metadata>
  <g
     transform="translate(-24.738743,-40.52096)"
     id="layer1"
     inkscape:groupmode="layer"
     inkscape:label="Calque 1"
     style="display:inline">
    <text
       id="text931"
       y="63.643871"
       x="74.021767"
       style="font-style:normal;font-weight:normal;font-size:10.5833px;line-height:1.25;font-family:sans-serif;fill:#000000;fill-opacity:1;stroke:none;stroke-width:0.264583"
       xml:space="preserve"><tspan
         style="stroke-width:0.264583"
         y="63.643871"
         x="74.021767"
         id="tspan929"
         sodipodi:role="line" /></text>
    <text
       style="fill:black;fill-opacity:1;line-height:1.25;stroke:none;font-family:sans-serif;font-style:normal;font-weight:normal;font-size:10.58333333px;white-space:pre;shape-inside:url(#rect935);"
       id="text933"
       xml:space="preserve" />
    <g
       id="g1198">
      <text
         id="text1497"
         y="61.551891"
         x="84.391373"
         style="font-style:normal;font-weight:normal;font-size:10.2128px;line-height:1.25;font-family:sans-serif;fill:#ff6600;fill-opacity:1;stroke:none;stroke-width:0.255321"
         xml:space="preserve"
         transform="scale(1.0362759,0.96499399)"><tspan
           style="fill:#ff6600;fill-opacity:1;stroke-width:0.255321"
           y="61.551891"
           x="84.391373"
           id="tspan1495"
           sodipodi:role="line"> </tspan></text>
      <path
         d="m 41.774605,116.34396 q 0.02361,0.29353 -0.08034,0.72509 -0.08573,0.41184 -0.453176,0.76954 -0.349217,0.33799 -1.078135,0.38882 -0.610713,0.0426 -1.49524,-0.11706 -0.884531,-0.15967 -1.974914,-0.41567 -1.090389,-0.256 -2.33838,-0.50101 -1.267689,-0.24363 -2.605328,-0.37169 -1.357336,-0.12669 -2.736362,-0.0305 -0.689517,0.0481 -1.214046,0.17693 -0.524529,0.12884 -0.800845,0.38795 -0.276316,0.25911 -0.239419,0.71774 0.03837,0.47698 0.360439,0.78657 0.32207,0.3096 0.812592,0.49677 0.489043,0.16881 1.010109,0.24315 0.51959,0.056 0.972698,0.0244 0.334906,-0.0234 0.645686,-0.10038 0.309292,-0.0954 0.612903,-0.26372 0.07232,0.89893 -0.348319,1.33413 -0.420641,0.4352 -1.090385,0.48207 -0.591012,0.0413 -1.243563,-0.18997 -0.652552,-0.2312 -1.203135,-0.67244 -0.571758,-0.45822 -0.938621,-1.07832 -0.388032,-0.63706 -0.447074,-1.37088 -0.10036,-1.24747 0.833007,-1.95827 0.913664,-0.70943 2.607898,-0.82762 1.083522,-0.0756 2.284732,0.0805 1.199732,0.13768 2.428023,0.38406 1.20859,0.24775 2.359552,0.51797 1.149491,0.25188 2.133994,0.42302 0.963331,0.15418 1.672545,0.1047 0.315205,-0.022 0.486606,-0.10774 0.169926,-0.10409 0.147784,-0.37928 -0.0428,-0.53201 -0.627837,-1.15533 -0.586521,-0.64167 -1.550296,-1.29391 -0.983477,-0.65087 -2.200407,-1.24856 -1.216931,-0.59769 -2.522034,-1.0601 -1.305103,-0.46239 -2.571316,-0.68768 -1.26769,-0.24362 -2.31181,-0.17078 -1.044123,0.0728 -1.567691,0.45988 -0.523571,0.38704 -0.677773,0.93279 -0.611674,-0.2156 -0.897297,-0.56464 -0.306799,-0.36601 -0.330411,-0.65953 -0.03985,-0.49532 0.594544,-0.98234 0.63439,-0.48701 1.855815,-0.57222 1.063821,-0.0742 2.473842,0.21483 1.388847,0.27208 2.919506,0.82942 1.51096,0.55873 2.977579,1.30504 1.445443,0.72933 2.643634,1.58661 1.177016,0.8403 1.900923,1.71221 0.743604,0.87053 0.810026,1.69606 z"
         style="font-style:normal;font-variant:normal;font-weight:bold;font-stretch:normal;font-size:19.7556px;line-height:1.25;font-family:'Dancing Script';-inkscape-font-specification:'Dancing Script Bold';fill:#aa4400;fill-opacity:1;stroke:none;stroke-width:0.255321"
         id="path1124" />
      <path
         d="m 40.453036,108.06828 q -0.08391,0.82416 -0.705631,1.08342 -0.600183,0.24268 -1.288548,0.1819 -0.629357,-0.0556 -1.259735,-0.29602 -0.650045,-0.24218 -1.188699,-0.60388 -0.536793,-0.38002 -0.831977,-0.79414 -0.312998,-0.43417 -0.271971,-0.83709 0.01305,-0.1282 0.08884,-0.28782 0.05798,-0.17968 0.163777,-0.24426 0.272633,0.24582 0.681078,0.52211 0.410305,0.25798 0.881479,0.50285 0.453372,0.22482 0.93387,0.37812 0.480497,0.1533 0.893509,0.18975 0.393351,0.0347 0.662079,-0.0709 0.270775,-0.12358 0.306021,-0.47192 0.03543,-0.34797 -0.329104,-0.86061 -0.38234,-0.5327 -0.888274,-1.02086 -0.630025,0.5357 -1.32482,0.73307 -0.714466,0.19563 -1.678167,0.11055 -0.413016,-0.0365 -0.925388,-0.26649 -0.510511,-0.24835 -0.860972,-0.70431 -0.348595,-0.47428 -0.274009,-1.20686 0.08018,-0.78753 0.583898,-1.0572 0.505595,-0.28796 1.154606,-0.23069 0.727694,0.0643 1.595099,0.51041 0.86927,0.42785 1.625291,0.99354 0.140379,-0.20936 0.170214,-0.50239 0.02797,-0.27472 -0.07054,-0.67148 -0.09852,-0.39676 -0.375894,-0.79083 -0.297055,-0.39582 -0.825366,-0.66421 l 0.289241,-0.30709 q 0.962014,0.49148 1.36504,1.21079 0.385227,0.69926 0.319962,1.34027 -0.02424,0.23809 -0.08782,0.47271 -0.08324,0.23287 -0.182424,0.42739 0.7233,0.69216 1.231277,1.55008 0.507974,0.85793 0.424065,1.68209 z m -2.734163,-3.1611 q -0.643606,-0.50032 -1.398606,-0.88113 -0.754996,-0.3808 -1.423687,-0.43984 -0.452349,-0.0399 -0.662079,0.0709 -0.229552,0.10878 -0.255499,0.3655 -0.03543,0.34798 0.458304,0.76116 0.493726,0.41317 1.300088,0.48436 0.413017,0.0365 1.016093,-0.0397 0.604937,-0.0944 0.965376,-0.32134 z"
         style="font-style:normal;font-variant:normal;font-weight:bold;font-stretch:normal;font-size:19.7556px;line-height:1.25;font-family:'Dancing Script';-inkscape-font-specification:'Dancing Script Bold';fill:#aa4400;fill-opacity:1;stroke:none;stroke-width:0.255321"
         id="path1126" />
      <path
         d="m 41.695465,100.95903 q -0.177305,0.79243 -0.788957,1.18113 -0.611648,0.3887 -1.636682,0.18982 -0.79295,-0.15386 -1.912255,-0.6529 -1.11528,-0.51707 -2.275686,-1.19323 -0.06688,0.11858 -0.126523,0.29492 -0.07495,0.15458 -0.188577,0.30166 l -0.599549,-0.11633 q 0.103155,-0.28066 0.162796,-0.457 0.06367,-0.19435 0.127333,-0.38872 -0.940409,-0.577089 -1.791367,-1.193198 -0.866268,-0.637872 -1.523827,-1.216463 -0.653526,-0.596591 -0.990356,-1.075365 -0.356172,-0.482527 -0.287667,-0.788692 0.0403,-0.180106 0.231287,-0.31217 0.171633,-0.135855 0.442412,-0.08325 0.386802,0.07506 1.017771,0.592112 0.634994,0.499038 1.48111,1.226958 0.826784,0.724177 1.797005,1.438594 0.03224,-0.144077 0.06447,-0.288164 0.03224,-0.144077 0.06045,-0.270145 0.177309,-0.792435 0.299008,-1.426535 0.106388,-0.655863 0.178128,-1.337241 l 0.638228,0.123833 q -0.124932,1.009314 -0.252279,1.849026 -0.127345,0.839713 -0.277257,1.599872 -0.01208,0.05401 -0.02417,0.108067 -0.01208,0.05401 -0.02417,0.108067 0.863049,0.562081 1.804263,1.045374 0.925909,0.46152 1.873582,0.6454 0.79295,0.15386 1.174122,-0.0165 0.381134,-0.17041 0.494001,-0.67462 0.201487,-0.90049 -0.45928,-2.005878 -0.676075,-1.127141 -2.027455,-2.122226 l 0.249821,-0.214607 q 1.036301,0.689666 1.807471,1.572158 0.775203,0.864501 1.116051,1.776262 0.360188,0.915521 0.166762,1.779991 z"
         style="font-style:normal;font-variant:normal;font-weight:bold;font-stretch:normal;font-size:19.7556px;line-height:1.25;font-family:'Dancing Script';-inkscape-font-specification:'Dancing Script Bold';fill:#aa4400;fill-opacity:1;stroke:none;stroke-width:0.255321"
         id="path1128" />
      <path
         d="m 43.17801,94.150748 q -0.226236,0.647258 -0.742582,0.93573 -0.49757,0.294133 -1.11748,0.106261 -0.525996,-0.159434 -1.041529,-0.586544 -0.515535,-0.42712 -1.012281,-0.848531 -0.490636,-0.438918 -0.941487,-0.575564 -0.432067,-0.130966 -0.805568,0.046 -0.392353,0.171166 -0.702435,0.464219 0.898685,0.698019 1.704326,1.483916 0.792971,0.762711 1.233802,1.225226 l -0.636498,0.09727 q -0.40282,-0.392953 -1.163889,-1.068604 -0.761073,-0.675661 -1.741014,-1.37896 -0.248897,0.118199 -0.568355,0.02123 -0.488423,-0.148035 -0.822659,-0.558896 -0.334232,-0.410851 -0.242515,-0.673248 0.07338,-0.209914 0.366944,-0.217671 0.280916,-0.03092 0.374825,-0.0028 0.09394,0.0285 0.307567,0.189967 0.219757,0.143994 0.320238,0.213137 0.212758,0.04516 0.517236,-0.172107 0.2918,-0.240449 0.683204,-0.528091 0.391401,-0.287643 0.883747,-0.447933 0.492346,-0.16029 1.093467,0.02188 0.544779,0.165123 1.028855,0.563356 0.48408,0.398233 0.893014,0.773689 0.408935,0.375456 0.76586,0.483645 0.262996,0.07971 0.399727,-0.01425 0.124057,-0.117175 0.185204,-0.292103 0.146746,-0.419838 0.04273,-0.954382 -0.122806,-0.540234 -0.402009,-1.108526 -0.279217,-0.568291 -0.632668,-1.043024 -0.372247,-0.480413 -0.705598,-0.774919 l 0.484888,-0.317348 q 0.691603,0.577213 1.260475,1.446119 0.550081,0.863216 0.788253,1.786654 0.219382,0.917748 -0.05577,1.704949 z"
         style="font-style:normal;font-variant:normal;font-weight:bold;font-stretch:normal;font-size:19.7556px;line-height:1.25;font-family:'Dancing Script';-inkscape-font-specification:'Dancing Script Bold';fill:#aa4400;fill-opacity:1;stroke:none;stroke-width:0.255321"
         id="path1130" />
      <path
         d="m 45.544619,89.283249 q -0.53002,1.068949 -1.447635,1.383606 -0.891387,0.30569 -1.824067,-0.09535 -0.789181,-0.339325 -1.48585,-1.084659 -0.706322,-0.769741 -1.162868,-1.736042 -0.474487,-0.974003 -0.577804,-1.950538 -0.103316,-0.976517 0.277634,-1.744824 0.215321,-0.434253 0.6569,-0.710442 0.431925,-0.300595 1.149364,0.0074 0.681568,0.293053 1.091263,0.915001 0.40969,0.621939 0.569609,1.440429 0.159915,0.81849 0.09215,1.701196 -0.07741,0.858281 -0.360403,1.648444 0.06347,0.04758 0.144858,0.102815 0.07173,0.03082 0.251102,0.107965 0.08968,0.03855 0.33113,0.122119 0.231794,0.05913 0.540868,0.05019 0.309075,-0.0093 0.620926,-0.199094 0.311877,-0.190088 0.543752,-0.657772 0.347827,-0.701492 0.283123,-1.580362 -0.07436,-0.903286 -0.467439,-1.822031 -0.384803,-0.935441 -1.038689,-1.723173 l 0.45261,-0.21065 q 0.852555,0.913679 1.303567,1.978913 0.459288,1.048527 0.477048,2.10984 0.02604,1.044617 -0.421165,1.946535 z M 41.950383,88.58889 q 0.161513,-0.457394 0.157483,-1.107548 -0.004,-0.650146 -0.176391,-1.311885 -0.164079,-0.678435 -0.491001,-1.204003 -0.344858,-0.533278 -0.847064,-0.749207 -0.197297,-0.08483 -0.302166,-0.04889 -0.10476,0.03613 -0.179405,0.18628 -0.190477,0.384144 -0.0926,0.932806 0.07994,0.540951 0.365449,1.15002 0.267581,0.601359 0.684181,1.165488 0.416599,0.56412 0.881519,0.986919 z"
         style="font-style:normal;font-variant:normal;font-weight:bold;font-stretch:normal;font-size:19.7556px;line-height:1.25;font-family:'Dancing Script';-inkscape-font-specification:'Dancing Script Bold';fill:#aa4400;fill-opacity:1;stroke:none;stroke-width:0.255321"
         id="path1132" />
      <path
         d="m 54.22918,83.376003 q -0.296061,0.368128 -0.793785,0.526657 -0.485875,0.143826 -1.023512,-0.231136 -0.506004,-0.352893 -0.703969,-0.904674 -0.170314,-0.555459 -0.162913,-1.239827 0.03505,-0.688055 0.16491,-1.401932 0.129861,-0.713868 0.267658,-1.37625 -0.296674,-0.459721 -0.668439,-0.948832 -0.371769,-0.48912 -0.83444,-1.018636 0.281268,1.000589 0.277977,1.894666 0.0086,0.879363 -0.465146,1.468356 -0.473699,0.589002 -1.200669,0.633625 -0.715134,0.02989 -1.442514,-0.477395 -0.838068,-0.584467 -1.257547,-1.474605 -0.423447,-0.915886 -0.49532,-1.931336 -0.08768,-1.026477 0.164503,-1.953826 0.236373,-0.938384 0.757443,-1.586285 0.378957,-0.471203 0.758188,-0.574465 0.36344,-0.114251 0.600608,0.05112 0.189753,0.132335 0.217543,0.312609 0.02779,0.180273 0.01992,0.220744 -0.29238,0.02589 -0.470068,0.154842 -0.18168,0.103123 -0.347473,0.309275 -0.461854,0.574279 -0.540307,1.34699 -0.07845,0.772712 0.143401,1.570985 0.217887,0.772526 0.613473,1.416153 0.395584,0.643626 0.869965,0.974459 0.316255,0.220567 0.596777,0.209346 0.264714,-0.02226 0.41865,-0.213686 0.331592,-0.412295 0.236033,-1.398301 -0.111367,-0.997022 -0.495453,-2.115298 -0.102815,-0.117677 -0.185856,-0.198562 -0.087,-0.106643 -0.170035,-0.187537 -0.514084,-0.588369 -0.648729,-1.004044 -0.134642,-0.415684 0.161419,-0.783802 0.0592,-0.07366 0.157929,-0.165654 0.110541,-0.106801 0.24876,-0.217243 0.284626,0.198498 0.814519,0.797892 0.529897,0.599394 1.198269,1.45625 0.65256,0.845831 1.305186,1.783637 0.161553,-0.599832 0.176822,-1.32467 -5.43e-4,-0.735863 -0.202613,-1.497363 -0.217882,-0.772516 -0.700413,-1.430809 l 0.497791,-0.06658 q 0.537902,0.742885 0.736144,1.662598 0.21008,0.904981 0.190976,1.788032 -0.03492,0.872025 -0.18853,1.523363 0.723891,1.125418 1.198813,2.192113 0.502578,1.063008 0.582255,1.946004 0.107332,0.879298 -0.378211,1.483013 z m -0.774752,-0.448379 q 0.213164,-0.265051 0.04265,-1.096466 -0.158671,-0.846147 -1.001324,-2.28423 -0.153542,0.743332 -0.22022,1.409327 -0.06668,0.666003 0.04038,1.177361 0.107059,0.511366 0.470752,0.76501 0.205565,0.14336 0.375462,0.146927 0.197568,-1.02e-4 0.29247,-0.117584 z"
         style="font-style:normal;font-variant:normal;font-weight:bold;font-stretch:normal;font-size:19.7556px;line-height:1.25;font-family:'Dancing Script';-inkscape-font-specification:'Dancing Script Bold';fill:#aa4400;fill-opacity:1;stroke:none;stroke-width:0.255321"
         id="path1134" />
      <path
         d="m 55.44177,74.472169 q -0.473952,0.44322 -1.21459,0.327601 -0.740696,-0.141638 -1.314644,-0.673863 -0.391966,-0.363472 -0.798458,-0.974068 -0.406491,-0.610597 -0.71529,-1.260416 -0.294853,-0.662847 -0.421727,-1.16993 -0.11293,-0.520111 0.06829,-0.689582 0.0976,-0.09126 0.404536,-0.170282 0.307073,-0.104706 0.614415,-0.105274 0.07064,0.351086 0.309561,0.988036 0.252854,0.623904 0.617534,1.273612 0.364672,0.649707 0.798636,1.052122 0.056,0.05196 0.279915,0.233595 0.237858,0.168642 0.503482,0.259184 0.265624,0.09051 0.474728,-0.104985 0.236981,-0.221601 0.249858,-0.702945 0.01282,-0.507353 -0.114344,-1.144517 -0.127225,-0.663182 -0.338322,-1.352215 -0.19716,-0.70207 -0.436023,-1.312992 -0.224921,-0.623978 -0.393494,-1.039905 0.13946,-0.104342 0.39061,-0.234917 0.265094,-0.143621 0.516439,-0.196114 0.237325,-0.06556 0.405315,0.09023 0.04198,0.03893 0.210567,0.454879 0.168514,0.389936 0.407255,0.948823 0.252688,0.545858 0.561248,1.091615 0.308502,0.519729 0.644472,0.831275 0.195983,0.181736 0.419668,0.259343 0.223627,0.05159 0.446648,-0.157012 0.292738,-0.273748 0.43102,-0.898416 0.138279,-0.624686 0.06646,-1.496115 -0.07182,-0.87142 -0.437195,-1.833327 l 0.377083,-0.03976 q 0.44925,0.987756 0.563305,2.002202 0.114049,1.014426 -0.107576,1.847406 -0.207625,0.845951 -0.737343,1.34131 -0.404254,0.378036 -0.809338,0.391836 -0.37714,0.01378 -0.740815,-0.193673 -0.377672,-0.220409 -0.699581,-0.492947 -0.06998,-0.06491 -0.139989,-0.129812 -0.08399,-0.07785 -0.139992,-0.129811 0.140988,0.5721 0.226159,1.170321 0.07117,0.58524 -0.01147,1.105732 -0.0687,0.507474 -0.417194,0.833362 z"
         style="font-style:normal;font-variant:normal;font-weight:bold;font-stretch:normal;font-size:19.7556px;line-height:1.25;font-family:'Dancing Script';-inkscape-font-specification:'Dancing Script Bold';fill:#aa4400;fill-opacity:1;stroke:none;stroke-width:0.255321"
         id="path1136" />
      <path
         d="m 61.800475,68.906223 q -0.679773,0.504494 -1.339784,0.382691 -0.660016,-0.121812 -1.115583,-0.654121 -0.283191,-0.330889 -0.590536,-0.926148 -0.307371,-0.59525 -0.558941,-1.30247 -0.248449,-0.73306 -0.373544,-1.440065 -0.125091,-0.706996 -0.04377,-1.261357 0.06901,-0.568757 0.408892,-0.820995 0.185385,-0.137605 0.422945,-0.125676 0.225249,-0.0028 0.397608,0.198925 0.160065,0.187035 0.233005,0.744533 0.08839,0.546036 0.182576,1.275958 0.109645,0.718469 0.318023,1.434227 0.211511,0.689899 0.617832,1.16466 0.394006,0.460373 0.699387,0.492509 0.308519,0.0065 0.648418,-0.245943 0.525279,-0.389834 0.724625,-1.337604 0.199342,-0.94778 -0.182907,-2.663671 l 0.428744,0.0582 q 0.542782,1.667328 0.311836,2.991421 -0.23095,1.324092 -1.188811,2.034962 z m -3.729968,-7.84133 q -0.293521,0.217876 -0.651531,0.27184 -0.354866,0.02812 -0.60112,-0.259613 -0.295502,-0.345284 -0.103132,-0.887958 0.192369,-0.542684 0.624948,-0.863729 0.278096,-0.206366 0.561972,-0.228901 0.299341,-0.03399 0.557905,0.268161 0.258568,0.302123 0.149486,0.853569 -0.121399,0.53705 -0.538532,0.846622 z"
         style="font-style:normal;font-variant:normal;font-weight:bold;font-stretch:normal;font-size:19.7556px;line-height:1.25;font-family:'Dancing Script';-inkscape-font-specification:'Dancing Script Bold';fill:#aa4400;fill-opacity:1;stroke:none;stroke-width:0.255321"
         id="path1138" />
      <path
         d="m 65.360192,66.280778 q -0.320095,0.182565 -0.760232,0.217783 -0.412957,0.04135 -0.838312,-0.147551 -0.442204,-0.179277 -0.762024,-0.66564 -0.340452,-0.517736 -0.493866,-1.314688 -0.153419,-0.79696 -0.121514,-1.699604 0.04876,-0.912235 0.304511,-1.791515 0.272602,-0.888889 0.746714,-1.612237 0.474112,-0.723358 1.181724,-1.126852 0.387514,-0.22094 0.689061,-0.220316 0.291239,-0.01509 0.466628,0.251642 0.05156,0.07841 0.09008,0.207493 0.02822,0.113338 -0.05499,0.268636 -0.129329,-0.05569 -0.318406,0.0093 -0.199434,0.04898 -0.384736,0.154712 -0.555994,0.317004 -0.865397,0.903342 -0.319738,0.570601 -0.441746,1.265761 -0.122015,0.695151 -0.09136,1.411105 0.04751,0.706363 0.209162,1.304472 0.151341,0.582427 0.388618,0.943273 0.196023,0.29809 0.454603,0.40951 0.248264,0.09571 0.517831,-0.05801 0.454887,-0.259398 0.758445,-1.101206 0.310081,-0.867118 0.358472,-2.167446 0.0549,-1.32561 -0.262249,-2.935222 -0.217391,-1.10562 -0.421736,-2.261833 -0.214649,-1.171905 -0.37772,-2.265363 -0.163071,-1.093468 -0.219181,-1.989044 -0.03927,-0.905195 0.05662,-1.49917 0.102417,-0.619266 0.405679,-0.792202 0.185335,-0.105637 0.412953,-0.04135 0.23417,0.03902 0.368281,0.24301 0.175398,0.266699 0.28101,1.026216 0.112149,0.734196 0.210569,1.799802 0.115275,1.056006 0.239161,2.301234 0.130414,1.219945 0.352632,2.473815 0.22876,1.228577 0.581982,2.364611 0.359749,1.110742 0.916872,1.957942 0.247627,0.376517 0.40784,0.479304 0.166768,0.07748 0.352096,-0.02821 0.370647,-0.211367 0.650162,-0.737466 0.279506,-0.526098 0.410795,-1.312834 0.120971,-0.802417 0.02359,-1.760766 l 0.485178,0.06844 q 0.196757,1.074248 0.05724,2.059826 -0.139531,0.985578 -0.559311,1.721096 -0.409462,0.75121 -1.049681,1.116274 -0.690788,0.393847 -1.228569,0.139691 -0.537792,-0.254202 -0.898874,-0.803311 -0.165026,-0.251046 -0.296408,-0.521275 -0.124839,-0.29553 -0.239403,-0.575369 -0.05803,1.003821 -0.276306,1.904872 -0.211741,0.87575 -0.561387,1.506564 -0.349642,0.630813 -0.855081,0.919014 z"
         style="font-style:normal;font-variant:normal;font-weight:bold;font-stretch:normal;font-size:19.7556px;line-height:1.25;font-family:'Dancing Script';-inkscape-font-specification:'Dancing Script Bold';fill:#aa4400;fill-opacity:1;stroke:none;stroke-width:0.255321"
         id="path1140" />
      <path
         d="m 74.655218,61.735674 q -1.159916,0.468568 -2.069431,0.134095 -0.883517,-0.32491 -1.292329,-1.202522 -0.345962,-0.742578 -0.332435,-1.730642 0.02375,-1.012247 0.374396,-2.016161 0.342781,-1.020796 0.964206,-1.813258 0.621429,-0.792454 1.455128,-1.129227 0.471209,-0.190359 0.998132,-0.122455 0.537177,0.04367 0.851653,0.718785 0.298754,0.641336 0.159472,1.359339 -0.139277,0.718012 -0.605453,1.427709 -0.466179,0.709677 -1.148094,1.326048 -0.671662,0.592158 -1.447926,1.005999 0.01338,0.07487 0.03452,0.166538 0.03154,0.06751 0.110367,0.236146 0.03895,0.08446 0.159618,0.29648 0.130579,0.187882 0.367533,0.372914 0.236927,0.185032 0.605533,0.236658 0.368601,0.05159 0.876065,-0.153352 0.761201,-0.307487 1.341577,-1.00315 0.590639,-0.719865 0.954612,-1.648955 0.382088,-0.93641 0.457811,-1.929539 l 0.488272,0.123609 q -0.01763,1.210298 -0.443175,2.284583 -0.407413,1.066966 -1.153306,1.869588 -0.727764,0.795303 -1.706455,1.190649 z M 72.471016,58.98839 q 0.447641,-0.240952 0.909662,-0.728404 0.462042,-0.487435 0.806801,-1.087928 0.3629,-0.607803 0.494975,-1.202597 0.124222,-0.611658 -0.09591,-1.084212 -0.08627,-0.185749 -0.190391,-0.223891 -0.103948,-0.03827 -0.26705,0.02766 -0.41683,0.168428 -0.736293,0.638328 -0.327309,0.453073 -0.550014,1.084454 -0.230558,0.614517 -0.32333,1.293679 -0.09277,0.679171 -0.04841,1.282905 z"
         style="font-style:normal;font-variant:normal;font-weight:bold;font-stretch:normal;font-size:19.7556px;line-height:1.25;font-family:'Dancing Script';-inkscape-font-specification:'Dancing Script Bold';fill:#aa4400;fill-opacity:1;stroke:none;stroke-width:0.255321"
         id="path1142" />
      <path
         d="m 84.734443,58.106242 q -0.369022,0.06397 -0.793611,-0.04954 -0.401564,-0.09878 -0.726373,-0.416718 -0.344233,-0.314564 -0.456315,-0.875248 -0.11934,-0.596824 0.04314,-1.392229 0.162484,-0.795396 0.538608,-1.627836 0.395539,-0.83582 0.971766,-1.571972 0.595656,-0.739514 1.316008,-1.25738 0.720348,-0.517876 1.536235,-0.658973 0.446702,-0.07748 0.728119,0.02347 0.277793,0.08279 0.339275,0.390281 0.0181,0.09042 0.0046,0.223771 -0.01716,0.115247 -0.154444,0.232617 -0.09938,-0.09505 -0.300836,-0.09754 -0.20507,-0.02058 -0.418705,0.01648 -0.640917,0.111131 -1.154882,0.555748 -0.517559,0.42658 -0.898233,1.035258 -0.380669,0.608669 -0.626727,1.28757 -0.226638,0.67554 -0.305134,1.287962 -0.08212,0.594337 0.0011,1.01031 0.0687,0.343637 0.267488,0.533725 0.195119,0.172014 0.505902,0.118115 0.524386,-0.09089 1.130883,-0.776185 0.62231,-0.706707 1.166394,-1.905113 0.559902,-1.219843 0.881247,-2.828729 0.221149,-1.104987 0.473905,-2.252866 0.24915,-1.165972 0.516372,-2.241514 0.267231,-1.075542 0.558431,-1.930685 0.31062,-0.858504 0.62807,-1.381381 0.33325,-0.544312 0.68285,-0.604934 0.21362,-0.03706 0.40156,0.09879 0.20373,0.114381 0.25076,0.349484 0.0615,0.307441 -0.13127,1.051974 -0.17694,0.72305 -0.49386,1.751072 -0.2975,1.024651 -0.65956,2.228915 -0.34626,1.182809 -0.61978,2.42786 -0.257719,1.223586 -0.363679,2.402167 -0.09015,1.157117 0.105127,2.133745 0.08679,0.434058 0.197062,0.58335 0.12604,0.127846 0.33968,0.09079 0.42728,-0.07413 0.89017,-0.472498 0.46291,-0.398382 0.88739,-1.08951 0.42086,-0.709203 0.69759,-1.636701 l 0.42688,0.225391 q -0.22839,1.06881 -0.73685,1.942912 -0.50845,0.874102 -1.18273,1.421413 -0.67066,0.565396 -1.40869,0.693335 -0.796304,0.138071 -1.201075,-0.278274 -0.404766,-0.416364 -0.53136,-1.049357 -0.05788,-0.289365 -0.07687,-0.585482 -0.0032,-0.317553 -0.0028,-0.617031 -0.439343,0.918251 -0.988917,1.687201 -0.533774,0.747503 -1.102368,1.220355 -0.568594,0.472842 -1.151238,0.573888 z"
         style="font-style:normal;font-variant:normal;font-weight:bold;font-stretch:normal;font-size:19.7556px;line-height:1.25;font-family:'Dancing Script';-inkscape-font-specification:'Dancing Script Bold';fill:#aa4400;fill-opacity:1;stroke:none;stroke-width:0.255321"
         id="path1144" />
      <path
         d="m 95.161184,56.945084 q -1.263014,0.05438 -1.985664,-0.559082 -0.70199,-0.59593 -0.74948,-1.551522 -0.0401,-0.808582 0.3493,-1.727755 0.40828,-0.938393 1.11896,-1.760897 0.709764,-0.840876 1.592914,-1.376138 0.88315,-0.535261 1.79095,-0.574344 0.51309,-0.02207 0.97976,0.215641 0.48549,0.218519 0.52197,0.9536 0.0347,0.698335 -0.36938,1.323468 -0.40405,0.625133 -1.1105,1.134377 -0.70646,0.509234 -1.579,0.859882 -0.85374,0.331382 -1.737224,0.461537 -0.0161,0.0744 -0.0312,0.167088 0.004,0.07347 0.0128,0.257285 0.005,0.09191 0.0362,0.329929 0.0504,0.218826 0.201354,0.470151 0.15094,0.251325 0.4758,0.421514 0.32487,0.17017 0.87744,0.146377 0.82884,-0.03567 1.63671,-0.494046 0.82669,-0.477582 1.52128,-1.22571 0.71433,-0.749003 1.163899,-1.652345 l 0.409277,0.277046 q -0.478077,1.125567 -1.285606,1.989071 -0.78779,0.862649 -1.79117,1.366249 -0.98365,0.502762 -2.04932,0.548652 z m -0.994,-3.290554 q 0.51035,-0.0772 1.12818,-0.380075 0.61782,-0.30283 1.16913,-0.750157 0.57106,-0.448166 0.92137,-0.960482 0.34942,-0.530698 0.32387,-1.045259 -0.0101,-0.202129 -0.0927,-0.27224 -0.0826,-0.07012 -0.2602,-0.06248 -0.4539,0.01956 -0.93175,0.353191 -0.47877,0.315272 -0.92775,0.831844 -0.44991,0.498199 -0.79567,1.102407 -0.34576,0.604209 -0.53455,1.183247 z"
         style="font-style:normal;font-variant:normal;font-weight:bold;font-stretch:normal;font-size:19.7556px;line-height:1.25;font-family:'Dancing Script';-inkscape-font-specification:'Dancing Script Bold';fill:#aa4400;fill-opacity:1;stroke:none;stroke-width:0.255321"
         id="path1146" />
      <path
         d="m 106.30829,57.016955 q -0.91947,-0.120378 -1.20591,-0.733787 -0.26415,-0.629053 -0.14585,-1.412418 0.13477,-0.892651 0.66844,-2.048911 0.53366,-1.15626 1.29903,-2.393638 0.78768,-1.25304 1.66217,-2.42041 0.89681,-1.183013 1.75511,-2.110995 0.8583,-0.927973 1.53596,-1.452311 0.69998,-0.540002 1.07169,-0.491318 0.25431,0.03334 0.39188,0.311398 0.13996,0.260023 0.18586,0.618819 0.0679,0.343283 0.0239,0.634752 -0.0743,0.491877 -0.46917,1.257595 -0.37259,0.750055 -1.00469,1.633339 -0.61254,0.885826 -1.42896,1.800715 -0.79411,0.899226 -1.73098,1.686875 -0.9173,0.790209 -1.91622,1.328217 -0.14701,0.445195 -0.29403,0.89038 -0.1247,0.429541 -0.17971,0.793897 -0.099,0.655825 0.089,0.996258 0.19071,0.322237 0.56245,0.370884 0.48908,0.06397 1.06098,-0.288387 0.59422,-0.368063 1.16276,-0.962419 0.59084,-0.610019 1.05025,-1.274403 l 0.43376,0.298305 q -1.08601,1.51122 -2.26588,2.322782 -1.17713,0.793347 -2.31179,0.6448 z m 1.21489,-4.875479 q 0.76692,-0.586972 1.47208,-1.293484 0.72748,-0.722165 1.34032,-1.477919 0.63242,-0.753203 1.11964,-1.469678 0.48722,-0.716467 0.77362,-1.292031 0.30871,-0.591228 0.38328,-0.953013 0.003,-0.01825 0.003,-0.01825 0.003,-0.01825 0.005,-0.0365 -0.1565,-0.02049 -0.5719,0.352409 -0.39309,0.357241 -0.96987,1.00626 -0.57679,0.649009 -1.22295,1.493294 -0.6266,0.846845 -1.25015,1.805548 -0.60123,0.943058 -1.08232,1.883267 z"
         style="font-style:normal;font-variant:normal;font-weight:bold;font-stretch:normal;font-size:19.7556px;line-height:1.25;font-family:'Dancing Script';-inkscape-font-specification:'Dancing Script Bold';fill:#aa4400;fill-opacity:1;stroke:none;stroke-width:0.255321"
         id="path1148" />
      <path
         d="m 110.35004,57.870096 q -0.63079,-0.153362 -0.97975,-0.656496 -0.36807,-0.507791 -0.14848,-1.290988 0.17467,-0.623001 0.68513,-1.278444 0.51045,-0.655435 1.24529,-1.237313 0.73485,-0.581869 1.58268,-0.984162 0.85281,-0.420136 1.73635,-0.585547 0.88352,-0.165458 1.66723,0.02505 0.82194,0.19983 1.2856,0.730854 0.46365,0.531024 0.28398,1.17182 -0.13475,0.480609 -0.55782,0.605904 -0.42307,0.125313 -0.89511,-0.08456 0.0832,-0.150893 0.14719,-0.306453 0.0831,-0.150912 0.13304,-0.328904 0.0998,-0.356003 0.0267,-0.677979 -0.0731,-0.321977 -0.57006,-0.442811 -0.53521,-0.130128 -1.18436,0.07329 -0.64916,0.203423 -1.31999,0.629705 -0.6467,0.41316 -1.23277,0.97417 -0.58108,0.543205 -0.98513,1.110435 -0.40405,0.56723 -0.5438,1.065624 -0.15969,0.569605 0.27994,0.676499 0.43964,0.106894 1.08465,-0.154581 0.6502,-0.278871 1.3549,-0.754348 0.72401,-0.470421 1.39567,-0.972588 0.67665,-0.519971 1.1646,-0.876672 0.0823,-0.07506 0.17786,-0.05187 0.0715,0.03641 0.26176,0.158706 0.21441,0.109176 0.37062,0.28024 0.15625,0.171064 0.10129,0.366888 -0.0499,0.178011 -0.30179,0.420983 -0.22778,0.229815 -0.55198,0.512242 -0.3001,0.269279 -0.56695,0.565657 -0.24275,0.283219 -0.3276,0.585817 -0.0649,0.231397 0.009,0.477535 0.0789,0.228343 0.38474,0.302691 0.45876,0.111531 1.45537,-0.311631 1.02066,-0.436422 2.30509,-1.740167 l 0.26833,0.426514 q -0.72827,0.849658 -1.58777,1.439237 -0.83541,0.57644 -1.65747,0.813853 -0.82702,0.255245 -1.55338,0.07869 -0.78371,-0.190545 -1.03624,-0.746293 -0.25254,-0.555757 -0.14106,-1.099046 0.01,-0.03557 0.015,-0.05345 0.005,-0.01779 0.01,-0.03557 -1.00415,0.668499 -1.79379,1.008886 -0.77054,0.345014 -1.4969,0.168438 z"
         style="font-style:normal;font-variant:normal;font-weight:bold;font-stretch:normal;font-size:19.7556px;line-height:1.25;font-family:'Dancing Script';-inkscape-font-specification:'Dancing Script Bold';fill:#aa4400;fill-opacity:1;stroke:none;stroke-width:0.255321"
         id="path1150" />
      <path
         d="m 124.00451,61.874397 q -0.83307,-0.381825 -0.89941,-1.047848 -0.0399,-0.674422 0.33526,-1.384165 0.42747,-0.808786 1.32231,-1.751929 0.89483,-0.943151 2.03698,-1.895969 1.1686,-0.961208 2.39094,-1.815763 1.24877,-0.862947 2.37542,-1.494803 1.12664,-0.631875 1.94629,-0.932834 0.84609,-0.309367 1.18287,-0.155 0.23042,0.105609 0.26781,0.409808 0.0461,0.287689 -0.031,0.641923 -0.0507,0.345843 -0.19026,0.609935 -0.23555,0.445661 -0.86756,1.058175 -0.60555,0.604135 -1.50233,1.259336 -0.87904,0.663332 -1.96152,1.294936 -1.05601,0.623215 -2.21022,1.098925 -1.13658,0.483607 -2.26589,0.704324 -0.289,0.380149 -0.578,0.760298 -0.26255,0.371768 -0.43703,0.701884 -0.31406,0.594198 -0.24967,0.972289 0.0731,0.361571 0.40989,0.515939 0.44312,0.203088 1.10463,0.03464 0.68794,-0.176791 1.42741,-0.57603 0.7659,-0.40762 1.4252,-0.905112 l 0.31201,0.409539 q -1.53862,1.119681 -2.93169,1.547416 -1.38434,0.411223 -2.41239,-0.05997 z m 2.7896,-4.278078 q 0.92543,-0.334529 1.83225,-0.800685 0.93335,-0.47437 1.76903,-1.014073 0.85343,-0.531537 1.55662,-1.07043 0.70318,-0.538884 1.16832,-1.00233 0.4916,-0.471837 0.6838,-0.793822 0.009,-0.01648 0.009,-0.01648 0.009,-0.01648 0.0175,-0.03306 -0.14182,-0.065 -0.6615,0.16841 -0.49327,0.224991 -1.25889,0.67377 -0.76564,0.448752 -1.66269,1.062813 -0.87932,0.622199 -1.79327,1.351544 -0.88749,0.720974 -1.65991,1.474176 z"
         style="font-style:normal;font-variant:normal;font-weight:bold;font-stretch:normal;font-size:19.7556px;line-height:1.25;font-family:'Dancing Script';-inkscape-font-specification:'Dancing Script Bold';fill:#aa4400;fill-opacity:1;stroke:none;stroke-width:0.255321"
         id="path1152" />
      <path
         d="m 128.1242,63.893948 q -0.74616,-0.415238 -0.85576,-1.033433 -0.10958,-0.618195 0.26538,-1.202504 0.23309,-0.363201 0.72345,-0.84042 0.49036,-0.477219 1.11287,-0.945172 0.64961,-0.474323 1.31637,-0.831946 0.66677,-0.357642 1.25266,-0.481661 0.59604,-0.139803 0.96911,0.06779 0.2035,0.113245 0.27505,0.324519 0.0816,0.195489 -0.0602,0.41656 -0.13174,0.205286 -0.66656,0.464889 -0.51786,0.269037 -1.21854,0.607794 -0.68373,0.348162 -1.33002,0.781493 -0.6192,0.426943 -0.95363,0.948068 -0.3243,0.505332 -0.24923,0.782853 0.10217,0.27115 0.47525,0.478774 0.57657,0.320868 1.59946,0.161426 1.02289,-0.159433 2.61352,-1.095908 l 0.0922,0.39422 q -1.48534,1.059376 -2.89764,1.323589 -1.41233,0.264185 -2.46374,-0.320905 z m 6.57159,-6.008506 q -0.3222,-0.179305 -0.50234,-0.472423 -0.15305,-0.29946 0.0497,-0.615309 0.24322,-0.379003 0.85642,-0.402088 0.61319,-0.02309 1.08803,0.241147 0.30524,0.169862 0.42767,0.409445 0.13941,0.248997 -0.0734,0.58064 -0.21281,0.331623 -0.80556,0.43036 -0.58259,0.08297 -1.04046,-0.1718 z"
         style="font-style:normal;font-variant:normal;font-weight:bold;font-stretch:normal;font-size:19.7556px;line-height:1.25;font-family:'Dancing Script';-inkscape-font-specification:'Dancing Script Bold';fill:#aa4400;fill-opacity:1;stroke:none;stroke-width:0.255321"
         id="path1154" />
      <path
         d="m 131.96828,66.297046 q -0.58305,-0.410534 -0.4143,-1.075877 0.17258,-0.639585 0.80408,-1.417307 0.13107,-0.161416 0.48045,-0.561186 0.3613,-0.414455 1.00049,-1.140634 0.37321,-0.429131 0.58306,-0.535066 0.22565,-0.09477 0.63533,0.193636 0.37819,0.266299 0.32206,0.457422 -0.0284,0.187546 -0.37398,0.613092 -0.35746,0.440222 -0.80985,0.905847 -0.43663,0.476726 -0.81791,0.946299 -0.36937,0.454889 -0.50082,0.70829 -0.11954,0.238726 0.0696,0.371871 0.28364,0.199718 0.84094,0.153911 0.56922,-0.06044 1.25759,-0.267677 0.71607,-0.210762 1.43248,-0.513574 0.74411,-0.306341 1.37369,-0.624127 0.84174,-0.975641 1.3364,-1.157815 0.49467,-0.182145 0.84134,0.06193 0.39394,0.277381 0.3451,0.612031 -0.0488,0.334641 -0.1918,0.510742 -0.17873,0.220111 -0.44778,0.307431 -0.26905,0.08725 -0.64531,0.306742 -0.37629,0.219356 -0.88863,0.850365 -0.16681,0.205435 -0.33785,0.477089 -0.14337,0.268078 -0.14453,0.544024 0.0265,0.272352 0.3259,0.483188 0.31517,0.221908 0.78945,0.186848 0.50196,-0.03865 1.3214,-0.407275 l 0.0661,0.254128 q -1.01777,0.551883 -1.73688,0.552936 -0.70336,0.01211 -1.11307,-0.276329 -0.52001,-0.366162 -0.54114,-0.980688 0.007,-0.618112 0.30982,-1.327119 -0.91421,0.394378 -1.92714,0.695737 -0.997,0.312795 -1.86256,0.372188 -0.87747,0.07403 -1.38171,-0.280994 z"
         style="font-style:normal;font-variant:normal;font-weight:bold;font-stretch:normal;font-size:19.7556px;line-height:1.25;font-family:'Dancing Script';-inkscape-font-specification:'Dancing Script Bold';fill:#aa4400;fill-opacity:1;stroke:none;stroke-width:0.255321"
         id="path1156" />
      <path
         d="m 138.42041,70.933139 q -0.63227,-0.555478 -0.59611,-1.181058 0.0363,-0.625654 0.53796,-1.120762 0.3118,-0.307775 0.90126,-0.67513 0.58944,-0.367354 1.30578,-0.699117 0.74406,-0.332919 1.47823,-0.547628 0.73396,-0.215101 1.3348,-0.218379 0.61438,-0.01667 0.93052,0.261084 0.17249,0.151471 0.19374,0.371973 0.0344,0.207307 -0.15536,0.39463 -0.17623,0.173997 -0.75871,0.319751 -0.56801,0.158585 -1.33073,0.348413 -0.74833,0.202492 -1.47986,0.495611 -0.7036,0.292363 -1.15097,0.733954 -0.43382,0.428209 -0.42488,0.714269 0.0369,0.285305 0.35303,0.563039 0.48858,0.429224 1.52431,0.479231 1.03573,0.05001 2.80597,-0.544574 l -0.001,0.403467 q -1.69595,0.735724 -3.13622,0.709696 -1.44025,-0.02598 -2.3312,-0.808731 z m 7.80981,-4.545374 q -0.27303,-0.239862 -0.38091,-0.562294 -0.08,-0.323187 0.19116,-0.590809 0.32536,-0.321157 0.92945,-0.220409 0.60409,0.100748 1.00644,0.454228 0.25866,0.227244 0.32267,0.485767 0.0784,0.271179 -0.20634,0.552182 -0.28469,0.281012 -0.88634,0.25829 -0.58809,-0.03613 -0.97608,-0.376973 z"
         style="font-style:normal;font-variant:normal;font-weight:bold;font-stretch:normal;font-size:19.7556px;line-height:1.25;font-family:'Dancing Script';-inkscape-font-specification:'Dancing Script Bold';fill:#aa4400;fill-opacity:1;stroke:none;stroke-width:0.255321"
         id="path1158" />
      <path
         d="m 145.24896,77.52139 q -0.49324,-0.551176 -0.45533,-1.083485 0.0354,-0.506422 0.49072,-0.859743 0.30354,-0.235532 0.72594,-0.395729 0.43758,-0.171976 0.8752,-0.343869 0.43758,-0.171976 0.7563,-0.419279 0.3339,-0.2591 0.31619,-0.508768 0.0101,-0.247321 -0.16691,-0.445195 -0.37942,-0.42399 -1.16355,-0.581812 -0.75629,-0.155466 -1.69725,-0.143705 -0.92831,0.02589 -1.8642,0.129532 -0.9359,0.103625 -1.66185,0.211972 -0.24028,-0.268525 -0.34904,-0.591228 -0.12393,-0.310932 -0.0329,-0.668955 0.0886,-0.04461 0.60706,-0.183738 0.52108,-0.164834 1.21667,-0.393345 0.71079,-0.240216 1.42916,-0.558197 0.71849,-0.317721 1.20402,-0.694844 0.20995,0.0047 0.50842,0.108356 0.31112,0.117771 0.51347,0.343907 0.44265,0.494642 -0.0127,0.847954 -0.18213,0.14133 -0.60961,0.353302 -0.39964,0.214393 -0.95614,0.454572 0.86001,-0.0447 1.72254,0.02831 0.86255,0.07301 1.56825,0.315653 0.73354,0.244974 1.16354,0.72549 0.54382,0.607719 0.35663,1.231911 -0.17454,0.638319 -0.70573,1.050521 -0.4553,0.353321 -0.97636,0.518201 -0.52109,0.164835 -0.99661,0.294422 -0.46287,0.143696 -0.7968,0.402731 -0.24284,0.188403 -0.26054,0.369795 0.0101,0.183719 0.12394,0.310922 0.30353,0.339186 0.98142,0.435771 0.67788,0.09658 1.49996,0.0094 0.84989,-0.08474 1.62391,-0.254379 l 0.003,0.405143 q -1.00926,0.280286 -1.97298,0.381564 -0.9359,0.103626 -1.73267,-0.06835 -0.76895,-0.169611 -1.27483,-0.734923 z"
         style="font-style:normal;font-variant:normal;font-weight:bold;font-stretch:normal;font-size:19.7556px;line-height:1.25;font-family:'Dancing Script';-inkscape-font-specification:'Dancing Script Bold';fill:#aa4400;fill-opacity:1;stroke:none;stroke-width:0.255321"
         id="path1160" />
      <path
         d="m 143.02859,82.709804 q -0.25722,-0.392627 -0.23057,-0.88185 0.0369,-0.473512 0.61035,-0.799251 0.5397,-0.306555 1.16338,-0.272976 0.6171,0.05885 1.29678,0.319267 0.6731,0.285677 1.33677,0.662912 0.66366,0.377234 1.27301,0.742214 0.56853,-0.08595 1.19424,-0.225856 0.6257,-0.139943 1.32545,-0.343497 -1.10217,-0.128144 -1.9925,-0.462813 -0.88003,-0.318959 -1.29156,-0.947165 -0.41155,-0.628197 -0.18621,-1.273388 0.23559,-0.629472 1.0114,-1.070169 0.89386,-0.507763 1.93715,-0.540132 1.07045,-0.02626 2.1097,0.288481 1.05612,0.30514 1.88725,0.867379 0.84801,0.552656 1.30069,1.243682 0.3292,0.502576 0.29144,0.868812 -0.0209,0.356665 -0.27388,0.500379 -0.20238,0.114977 -0.39246,0.07208 -0.19008,-0.04284 -0.22752,-0.06472 0.0826,-0.262434 0.0201,-0.46393 -0.0354,-0.195397 -0.17942,-0.415266 -0.40126,-0.612496 -1.14265,-0.967111 -0.74141,-0.354625 -1.61977,-0.459051 -0.85119,-0.09831 -1.63982,0.0047 -0.78862,0.103197 -1.29458,0.390616 -0.33732,0.191578 -0.43024,0.438341 -0.0761,0.237143 0.0577,0.44132 0.28807,0.439738 1.30674,0.72305 1.03554,0.273731 2.29319,0.356636 0.1555,-0.04526 0.26698,-0.08697 0.13863,-0.03566 0.25012,-0.07738 0.77749,-0.226163 1.24196,-0.188319 0.46448,0.03781 0.72168,0.430472 0.0514,0.07859 0.10672,0.197985 0.0654,0.135231 0.12429,0.295744 -0.30359,0.172424 -1.09793,0.408189 -0.79435,0.235755 -1.89685,0.495694 -1.08562,0.250356 -2.26299,0.466631 0.53817,0.362316 1.2553,0.644539 0.73399,0.272622 1.56832,0.380513 0.8512,0.0983 1.68671,-0.07459 l -0.11838,0.455131 q -0.94042,0.189427 -1.9311,0.01946 -0.98039,-0.154218 -1.85385,-0.49846 -0.8566,-0.353833 -1.44909,-0.728404 -1.39089,0.208284 -2.63083,0.223063 -1.24653,0.04004 -2.15659,-0.218752 -0.91664,-0.23352 -1.33845,-0.877435 z m 0.73465,-0.503526 q 0.18516,0.282707 1.07754,0.443817 0.90264,0.176828 2.64939,-0.01807 -0.68424,-0.408644 -1.32361,-0.713477 -0.63937,-0.304823 -1.18902,-0.402033 -0.54965,-0.09721 -0.93755,0.123135 -0.21925,0.124549 -0.28587,0.270135 -0.0732,0.170878 0.009,0.296517 z"
         style="font-style:normal;font-variant:normal;font-weight:bold;font-stretch:normal;font-size:19.7556px;line-height:1.25;font-family:'Dancing Script';-inkscape-font-specification:'Dancing Script Bold';fill:#aa4400;fill-opacity:1;stroke:none;stroke-width:0.255321"
         id="path1162" />
      <path
         d="m 148.2845,91.610631 q -0.0719,-0.190964 -0.0394,-0.493991 0.026,-0.320374 0.34563,-0.63911 0.29448,-0.330022 1.05888,-0.579466 0.80168,-0.261652 2.20478,-0.427055 1.37791,-0.176735 3.11386,-0.236388 1.74808,-0.08306 3.62953,-0.03427 1.88799,0.06621 3.6716,0.244397 1.80878,0.189493 3.31368,0.51714 1.51144,0.345006 2.51297,0.836919 1.00151,0.491914 1.25631,1.169008 0.1699,0.451387 -0.0762,0.687636 -0.22739,0.230159 -0.60027,0.351822 -0.80172,0.261568 -1.90934,0.155214 -1.10111,-0.08902 -2.3254,-0.449766 -1.20565,-0.366824 -2.38341,-0.937676 -1.17122,-0.553486 -2.11968,-1.23816 -0.21256,-0.0084 -0.42515,-0.01723 -0.21257,-0.0084 -0.42514,-0.01723 -0.003,0.215315 -0.14995,0.380326 -0.14071,0.182369 -0.33926,0.266653 -0.74943,0.400478 -1.33105,0.746246 -0.56299,0.33966 -0.81269,0.733042 -0.24317,0.41074 -0.0406,0.948953 0.22864,0.607664 0.88981,0.918233 0.66115,0.310578 1.72035,0.510761 l -0.15456,0.479295 q -1.40229,-0.166193 -2.22294,-0.678137 -0.80202,-0.518034 -1.01108,-1.073605 -0.11108,-0.295139 -0.10469,-0.667597 0.0129,-0.355099 0.1442,-0.729335 -1.16245,0.359839 -2.37257,0.481819 -1.22221,0.145418 -2.28603,0.04423 -1.06383,-0.101204 -1.79397,-0.428246 -0.74225,-0.303603 -0.93825,-0.82445 z m 1.33886,0.108914 q 0.0719,0.190974 0.50451,0.283722 0.43917,0.110098 1.09552,0.129839 0.65637,0.01974 1.43018,-0.03781 0.75516,-0.0515 1.48419,-0.172423 0.71038,-0.114847 1.2697,-0.297365 0.54069,-0.176427 0.90511,-0.431831 0.3896,-0.244136 0.80711,-0.692227 -1.4367,0.02049 -2.74752,0.09734 -1.31081,0.07682 -2.34564,0.219617 -1.05346,0.148827 -1.70601,0.361767 -0.80171,0.261569 -0.69715,0.539396 z m 11.8093,-1.105043 q 1.46124,0.712257 2.74896,1.130279 1.28771,0.418003 2.19585,0.550515 0.93331,0.143798 1.25026,0.04042 0.14916,-0.0487 0.0969,-0.187565 -0.15675,-0.4167 -1.04915,-0.729774 -0.87372,-0.319192 -2.24525,-0.514914 -1.37153,-0.195723 -2.99755,-0.288909 z"
         style="font-style:normal;font-variant:normal;font-weight:bold;font-stretch:normal;font-size:19.7556px;line-height:1.25;font-family:'Dancing Script';-inkscape-font-specification:'Dancing Script Bold';fill:#aa4400;fill-opacity:1;stroke:none;stroke-width:0.255321"
         id="path1164" />
      <path
         d="m 155.35942,96.970127 q -0.19436,-0.807818 0.31056,-1.233653 0.48994,-0.403858 1.16464,-0.544676 0.61689,-0.128694 1.29624,-0.08185 0.69864,0.04274 1.33111,0.231314 0.6368,0.206496 1.05522,0.51511 0.44201,0.322535 0.53703,0.717472 0.0302,0.125686 0.0113,0.299301 0.005,0.187556 -0.0745,0.279476 -0.34099,-0.155094 -0.82125,-0.299981 -0.47594,-0.126943 -1.00538,-0.223864 -0.50586,-0.08297 -1.01372,-0.09014 -0.50786,-0.0074 -0.91269,0.07729 -0.38557,0.08036 -0.60581,0.258589 -0.21606,0.195899 -0.13401,0.536984 0.0821,0.341066 0.59919,0.723367 0.54072,0.396212 1.18416,0.714436 0.42084,-0.691091 1.01581,-1.079155 0.61426,-0.392088 1.55886,-0.58917 0.40484,-0.08446 0.96852,-0.0135 0.56801,0.08884 1.0529,0.421318 0.48921,0.350406 0.66197,1.068474 0.18572,0.771911 -0.20353,1.173627 -0.38492,0.419654 -1.02109,0.552374 -0.71327,0.14881 -1.68643,-0.0252 -0.96883,-0.15608 -1.87583,-0.47588 -0.0638,0.23955 0.005,0.52678 0.0648,0.26926 0.29044,0.61809 0.22563,0.34885 0.62047,0.64353 0.4141,0.29066 1.00571,0.39347 l -0.17288,0.37542 q -1.07817,-0.18982 -1.70065,-0.75751 -0.59886,-0.55376 -0.75003,-1.18208 -0.0561,-0.23337 -0.0737,-0.47477 0.002,-0.245447 0.0313,-0.459002 -0.91795,-0.449478 -1.68632,-1.118704 -0.76837,-0.669208 -0.96272,-1.477035 z m 3.65117,2.216996 q 0.77837,0.290073 1.6229,0.434373 0.84453,0.144311 1.49997,0.0075 0.44339,-0.09256 0.60583,-0.258598 0.18184,-0.169862 0.12136,-0.421225 -0.0821,-0.341066 -0.68894,-0.591525 -0.60688,-0.250441 -1.39727,-0.08558 -0.40484,0.08446 -0.9529,0.330823 -0.54379,0.26426 -0.81104,0.583964 z"
         style="font-style:normal;font-variant:normal;font-weight:bold;font-stretch:normal;font-size:19.7556px;line-height:1.25;font-family:'Dancing Script';-inkscape-font-specification:'Dancing Script Bold';fill:#aa4400;fill-opacity:1;stroke:none;stroke-width:0.255321"
         id="path1166" />
      <path
         d="m 156.7946,103.59298 q -0.0869,-0.82389 0.47011,-1.18908 0.53928,-0.34508 1.22741,-0.408 0.62915,-0.0576 1.29728,0.0662 0.68778,0.12196 1.29077,0.38106 0.60493,0.27741 0.97971,0.63132 0.39638,0.37043 0.43884,0.77323 0.0135,0.12818 -0.0281,0.29833 -0.02,0.18667 -0.11059,0.26891 -0.31809,-0.19274 -0.77573,-0.39119 -0.45572,-0.18015 -0.96848,-0.33659 -0.49117,-0.13994 -0.99429,-0.20484 -0.50311,-0.0649 -0.91599,-0.0271 -0.39322,0.0359 -0.63531,0.18745 -0.24013,0.16987 -0.20346,0.51771 0.0367,0.34787 0.49978,0.78613 0.48467,0.45477 1.08151,0.84383 0.50839,-0.63801 1.14983,-0.95546 0.66112,-0.31925 1.6245,-0.40735 0.41288,-0.0377 0.96304,0.0968 0.55208,0.15284 0.98971,0.53798 0.43956,0.40345 0.51679,1.1358 0.083,0.78727 -0.35602,1.14167 -0.43711,0.3727 -1.08592,0.43205 -0.72745,0.0665 -1.67047,-0.21693 -0.9411,-0.26516 -1.79933,-0.68578 -0.0948,0.2305 -0.0639,0.52344 0.029,0.2746 0.20714,0.64652 0.17824,0.37186 0.53137,0.70929 0.37285,0.33561 0.94653,0.50497 l -0.22084,0.35293 q -1.04519,-0.31109 -1.5885,-0.94535 -0.52171,-0.61776 -0.5893,-1.25856 -0.0251,-0.23799 -0.0109,-0.47962 0.0339,-0.2434 0.0913,-0.45199 -0.85209,-0.55057 -1.52687,-1.30222 -0.67479,-0.75164 -0.7617,-1.5755 z m 3.33286,2.61587 q 0.73447,0.37648 1.55374,0.6158 0.81927,0.23932 1.48773,0.17819 0.45221,-0.0414 0.63532,-0.18746 0.20276,-0.14792 0.17572,-0.40425 -0.0367,-0.34787 -0.60614,-0.6655 -0.56947,-0.31762 -1.37557,-0.2439 -0.41288,0.0377 -0.9892,0.21985 -0.57439,0.20039 -0.88158,0.4873 z"
         style="font-style:normal;font-variant:normal;font-weight:bold;font-stretch:normal;font-size:19.7556px;line-height:1.25;font-family:'Dancing Script';-inkscape-font-specification:'Dancing Script Bold';fill:#aa4400;fill-opacity:1;stroke:none;stroke-width:0.255321"
         id="path1168" />
      <path
         d="m 157.44473,110.37522 q 0.0174,-0.34917 0.23301,-0.70819 0.19499,-0.3415 0.60157,-0.56337 0.40747,-0.24027 1.01925,-0.21384 0.65123,0.0281 1.44571,0.35706 0.79448,0.32895 1.5789,0.86005 0.78351,0.54947 1.42154,1.24 0.63714,0.7089 1.01406,1.48025 0.3769,0.77135 0.33851,1.54317 -0.021,0.42266 -0.1908,0.65475 -0.15002,0.23293 -0.48539,0.21871 -0.0987,-0.005 -0.23498,-0.0469 -0.11659,-0.0419 -0.20794,-0.19313 0.12206,-0.0684 0.17068,-0.25047 0.0684,-0.18121 0.0784,-0.38336 0.0302,-0.60645 -0.31734,-1.17393 -0.3278,-0.56663 -0.87721,-1.05077 -0.54944,-0.48412 -1.20303,-0.86224 -0.65451,-0.35973 -1.27686,-0.57076 -0.60262,-0.21017 -1.05652,-0.22976 -0.37495,-0.0162 -0.61908,0.12061 -0.22438,0.13767 -0.23903,0.43169 -0.0247,0.49617 0.55324,1.20251 0.59675,0.72558 1.7254,1.49253 1.14749,0.78619 2.75618,1.44494 1.10474,0.45284 2.24711,0.94413 1.16212,0.49215 2.22557,0.98004 1.06343,0.48789 1.89098,0.94718 0.82663,0.47766 1.30078,0.88487 0.49297,0.42644 0.47651,0.75723 -0.0101,0.20215 -0.19499,0.34149 -0.16609,0.15863 -0.42265,0.14754 -0.33548,-0.0144 -1.06984,-0.35926 -0.71555,-0.32554 -1.71796,-0.84763 -1.00332,-0.50372 -2.17968,-1.10697 -1.15754,-0.58403 -2.39676,-1.11634 -1.22041,-0.51308 -2.42839,-0.87829 -1.18917,-0.34599 -2.25483,-0.39197 -0.47363,-0.0205 -0.65489,0.0454 -0.16247,0.085 -0.17251,0.28722 -0.0201,0.40428 0.29067,0.91494 0.31084,0.51064 0.93642,1.05332 0.64536,0.54352 1.55184,1.00622 l -0.33313,0.33553 q -1.06527,-0.45113 -1.86302,-1.11172 -0.79774,-0.66059 -1.21597,-1.39688 -0.43799,-0.73712 -0.4032,-1.43547 0.0375,-0.75345 0.56522,-1.02534 0.52774,-0.27188 1.21844,-0.24208 0.31575,0.0136 0.62967,0.064 0.33274,0.0696 0.64575,0.13836 -0.8597,-0.60801 -1.53812,-1.28186 -0.65962,-0.65463 -1.02412,-1.2781 -0.36451,-0.62348 -0.33707,-1.17478 z"
         style="font-style:normal;font-variant:normal;font-weight:bold;font-stretch:normal;font-size:19.7556px;line-height:1.25;font-family:'Dancing Script';-inkscape-font-specification:'Dancing Script Bold';fill:#aa4400;fill-opacity:1;stroke:none;stroke-width:0.255321"
         id="path1170" />
    </g>
  </g>
</svg>
