<svg xmlns="http://www.w3.org/2000/svg" viewBox="0 0 1473.3 1221.5"><defs/><defs><clipPath id="a"><path d="M382.8 727.2h208.8l39.6-118.7-12.5-23.8H450.2s-86.7 109.7-67.4 142.5z" class="a"/></clipPath><clipPath id="b"><path d="M991.4 608.5l-39.8-35.1L819 608.5l43.4 118.6 208.9.1-79.9-118.7z" class="a"/></clipPath><clipPath id="c"><path d="M603.2 727.1H851l-42.7-118.6-24.8-26.6H662.6l-19.9 26.6-39.5 118.6z" class="a"/></clipPath><style>.a,.ap,.at,.bc,.o{fill:none}.ab,.af,.ak,.ap,.aw,.bj,.bl,.d,.r,.s,.u,.w,.y{isolation:isolate}.d{fill:#2e282b;opacity:.27}.e{fill:#897872}.f{fill:#f2d080}.g{fill:#cfaa66}.h{fill:#993937}.ap{opacity:.67}.j{fill:#b94941}.ab,.r,.y{opacity:.16}.l{fill:#61764b}.bl,.u{fill:#394927}.aw{opacity:.25}.n{opacity:.39}.o{stroke:#75402b;stroke-width:2.91px}.ap,.o{stroke-linecap:round}.ap,.at,.bc,.o{stroke-miterlimit:10}.q{fill:#b56350}.r{fill:#380100}.s{fill:#4d3d32;opacity:.36}.t{fill:#99af79}.u{opacity:.32}.v{fill:#ebb858}.ab,.w{fill:#600100}.w{opacity:.15}.x{fill:#bf8e3d}.y{fill:#501f0b}.z{fill:#5e3e1d}.aa{fill:#ca7e36}.ac{fill:#87491c}.ad{fill:#6b6f76}.ae{fill:#989da4}.af{fill:#32314f;opacity:.17}.ag{fill:#fff}.at{stroke-width:7.46px}.aj{fill:#e9a56b}.ak{fill:#7c5521;opacity:.2}.al{fill:#675546}.am{fill:#ae6340}.ao{fill:#502614}.ap{stroke:#441d13;stroke-width:5.59px}.ar{fill:#472724}.at{stroke:#7c572c}.au{fill:#7c572c}.aw{fill:#26311a}.ax{opacity:.5}.az{fill:#a1bc88}.bc{stroke:#4d3f3b;stroke-width:7.63px}.be{fill:#4f474a}.bg{fill:#efc47e}.bi{fill:#be8253}.bj{fill:#873327;opacity:.13}.bk{fill:#899e68}.bl{opacity:.21}.bm{fill:#a65345}</style></defs><path d="M527.4.1C376 4.8 253.2 167.7 147.1 346.1s-194.3 372.3-119 502.7C104.6 979.7 344 1045.9 535 1104.3c190.5 57 331.6 105.8 472 95 141-9.4 282.5-78.6 371.5-198 89.5-118 127.7-286.7 61-411.2-65.2-124.8-236-206.8-409.8-324.2S678-5 527.4.1z" style="isolation:isolate" fill="#e5f3e1" opacity=".7"/><path fill="#5b4c54" d="M405.7 240h587.7v641.3H405.7z"/><path d="M417.8 389v196.8h568.7v-19.1l-534.1-12.2 2.1-166.5zM464.7 243.3l-4.1 112.5 528.6 6.3-.6 13.2-570.8.9V240z" class="d"/><path d="M395.5 240h20.3v612.9h-20.3zM989.2 240h20.3v612.9h-20.3z" class="e"/><path d="M1009.4 240v29.3a46.6 46.6 0 01-16 8 35.2 35.2 0 01-4.2.8c-9.6 1.2-20.5-2-31.4-14.3 0 0-28.4 31.5-63.4 0 0 0-14.7 31.5-54.3 0 0 0-20 28.8-53 2.7 0 0-18.5 30.6-56 0 0 0-22 28.7-55.3 2.8 0 0-33.6 20.5-57.9-4.1 0 0-31.7 27.4-53.4-4.1 0 0-11.7 35.6-56.4 4a41.8 41.8 0 01-56.6 0s-17 15.2-35.7 12.4a30.3 30.3 0 01-10.1-3.5 38.6 38.6 0 01-10.2-8.4V240z" class="d"/><path d="M410.3 376.9h583v11.2h-583zM410.3 586.5h583v11.2h-583z" class="e"/><path d="M1013 243.2H394.8l1.5-1.9 17-22 51.4-66.6h478.4l51.8 67 15.6 20.3z" class="f"/><path d="M394.8 243.3l1.5-2-.1 2zM1013 243.3h-2.3a26.9 26.9 0 00-.2-3.3z" class="f"/><path d="M507.5 243.3a27.7 27.7 0 01-55.4 0zM619.3 243.3a27.7 27.7 0 01-55.3 0zM731.1 243.3a27.7 27.7 0 01-55.3 0zM843 243.3a27.7 27.7 0 01-55.4 0zM954.8 243.3a27.7 27.7 0 01-55.3 0z" class="g"/><path d="M451.5 243.3a27.7 27.7 0 01-55.3 0zM563.4 243.3a27.7 27.7 0 01-55.3 0zM675.2 243.3a27.7 27.7 0 01-55.3 0zM787 243.3a27.7 27.7 0 01-55.3 0zM899 243.3a27.7 27.7 0 01-55.4 0zM1010.7 243.3a27.7 27.7 0 01-55.3 0z" class="h"/><g opacity=".7"><path d="M452.1 243.2l58.5-90.5h-46.4l-68 90.5zM508 243.2h55.4l35.6-90.5h-42.5zM675.8 243.2l7.2-90.5h-38.5l-24.6 90.5zM954.9 243.2l-58.5-90.5h46.4l68 90.5zM899 243.2h-55.4L808 152.7h42.5zM731.2 243.2l-11-90.5h42.3l24.6 90.5z" class="j"/></g><path d="M942.8 152.7l-474.5 9.6L435 230l575.8 13.3H396.2l68-90.5z" style="isolation:isolate" fill="#7b0100" opacity=".2"/><path d="M761.5 283.7a48 48 0 00-20.7 14.7 21 21 0 00-3.7 8.3s-11.5-7-22.7-2.2c0 0-8-17-19.3-20.8a31.2 31.2 0 0120.4 4.4 37.1 37.1 0 00-18.1-20.5s8.8-4.7 20.4 3.2c0 0 2.5-12.7-4.5-21.5a54.3 54.3 0 018.7 6.5 33 33 0 017.9 10.5 30.2 30.2 0 0117.3-12 36.4 36.4 0 00-10 19.1s9.3-8 19-3.1c0 0-13 4.8-16.7 15.5a26.6 26.6 0 0122-2.1z" class="l"/><path d="M740.8 298.4a21 21 0 00-3.7 8.3s-11.5-7-22.7-2.2c0 0-8-17-19.3-20.8a31.3 31.3 0 0120.4 4.4 37.1 37.1 0 00-18.1-20.5s8.8-4.7 20.4 3.2c0 0 2.5-12.7-4.5-21.6a54.4 54.4 0 018.7 6.6c-.6.5-.9 1.3-.7 3 .7 5.7 3.8 10.8 4 17 0 2-.8 4.7-2.8 4.6-2.4-.2-4-4.3-6-3l5 12a2 2 0 001.7 1.6 41.3 41.3 0 0117.6 7.4z" style="isolation:isolate" fill="#394927" opacity=".3"/><path d="M758.4 338.2c0 17.4-8.8 32.3-21.2 38.6a29 29 0 01-13.2 3.1c-19 0-34.4-18.6-34.4-41.7s15.4-41.7 34.4-41.7a30.2 30.2 0 0119.6 7.5h.1a44.7 44.7 0 0114.7 34.2z" class="f"/><g class="n"><path d="M699 367s20.9 11 50.5 0M691.3 352.8s26 11 65 0M691.3 341.5a302.2 302.2 0 0067 0M690.3 328.4s38.5 1.4 68 0M694.5 316.8a366.6 366.6 0 0158.3 0M699.7 308.6a97.3 97.3 0 0149 0M713.1 298.6s-34 36.4 0 79.2M720.4 296.7s-13.8 31.9 0 83.2M727.6 296.7a211.1 211.1 0 010 83.2M740.3 301.5s15.8 37.5 0 73.5" class="o"/></g><path d="M737.1 376.8a29.1 29.1 0 01-13.1 3.1c-19 0-34.4-18.6-34.4-41.7s15.4-41.7 34.4-41.7a30.3 30.3 0 0119.6 7.5 26.8 26.8 0 00-34.7 7.7c-15.4 19.2-6.6 72.5 28.2 65.1z" style="isolation:isolate" fill="#b80200" opacity=".2"/><path d="M850.1 331.4a21.3 21.3 0 01-11.1 2.9c-21 0-27-21.2-19.9-28.8 4.4-4.6 7.2-5.2 10.8-4.6 1.8.2 3.8.7 6.2 1.2 8.2 1.5 9.3-6.2 18.3-.4 8.4 5.5 7.1 22.7-4.3 29.7z" class="q"/><path d="M850.1 331.3a21.2 21.2 0 01-11.1 3c-21 0-27-21.2-19.9-28.8 4.4-4.6 7.2-5.2 10.8-4.6a13.9 13.9 0 00-6 11.4 19.4 19.4 0 009.7 15.6 25.9 25.9 0 0016.5 3.4z" class="r"/><path d="M839.6 305.2H838a35.8 35.8 0 01-2.5-16.8 7.5 7.5 0 011.5-.1 15.2 15.2 0 012.6 0 50.5 50.5 0 000 16.9z" class="e"/><path d="M839 305.2h-1a35.8 35.8 0 01-2.5-16.8 8.2 8.2 0 011.5-.2 58.8 58.8 0 002 17z" class="s"/><path d="M849 291.1a10.3 10.3 0 01-4.4 7.3 12.3 12.3 0 01-6.6 2 9.5 9.5 0 015-8.3 11.6 11.6 0 016-1z" class="t"/><path d="M844.6 298.4a12.2 12.2 0 01-6.6 2 9.5 9.5 0 015-8.3s-3.2 2.8-1.8 5.5c.5.9 1.8 1 3.4.8z" class="u"/><path d="M862.2 362.6a21.3 21.3 0 01-11.2 3c-21 0-27-21.3-19.9-28.9 4.4-4.5 7.2-5.1 10.8-4.6 1.8.2 3.8.8 6.2 1.2 8.3 1.6 9.3-6.2 18.3-.3 8.5 5.4 7.2 22.7-4.2 29.6z" class="q"/><path d="M862.2 362.6a21.3 21.3 0 01-11.2 3c-21 0-27-21.3-19.9-28.9 4.4-4.5 7.2-5.1 10.8-4.6a13.9 13.9 0 00-6 11.4 19.4 19.4 0 009.7 15.6 26 26 0 0016.6 3.5z" class="r"/><path d="M851.7 336.4h-1.6a35.6 35.6 0 01-2.5-16.7 7.4 7.4 0 011.5-.2 15.2 15.2 0 012.6.2 50.2 50.2 0 000 16.7z" class="e"/><path d="M851 336.4h-1a35.6 35.6 0 01-2.5-16.7 7.4 7.4 0 011.6-.2 58.8 58.8 0 002 17z" class="s"/><path d="M861 322.4a10.3 10.3 0 01-4.3 7.3 12.2 12.2 0 01-6.6 2 9.5 9.5 0 015-8.4 11.7 11.7 0 015.9-1z" class="t"/><path d="M856.7 329.7a12.3 12.3 0 01-6.6 2 9.5 9.5 0 015-8.4s-3.2 2.8-1.8 5.6c.5.8 1.8 1 3.4.8z" class="u"/><path d="M898.8 365.2a21.2 21.2 0 01-11.1 3c-21 0-27-21.3-19.9-28.9 4.4-4.5 7.2-5.1 10.8-4.6 1.8.2 3.8.8 6.2 1.2 8.3 1.6 9.3-6.2 18.3-.3 8.4 5.4 7.2 22.7-4.3 29.6z" class="q"/><path d="M898.8 365.2a21.2 21.2 0 01-11.1 3c-21 0-27-21.3-19.9-28.9 4.4-4.5 7.2-5.1 10.8-4.6a13.9 13.9 0 00-6 11.4 19.4 19.4 0 009.7 15.6 26 26 0 0016.5 3.5z" class="r"/><path d="M888.4 339h-1.6a35.5 35.5 0 01-2.6-16.8 7.4 7.4 0 011.6-.1 15.2 15.2 0 012.6.1 50.5 50.5 0 000 16.8z" class="e"/><path d="M887.7 339h-1a35.5 35.5 0 01-2.5-16.8 7.4 7.4 0 011.5-.1 58.8 58.8 0 002 16.9z" class="s"/><path d="M897.6 325a10.3 10.3 0 01-4.2 7.3 12.3 12.3 0 01-6.6 2 9.5 9.5 0 015-8.4 11.6 11.6 0 015.9-.9z" class="t"/><path d="M893.4 332.3a12.3 12.3 0 01-6.6 2 9.5 9.5 0 015-8.4s-3.2 2.8-1.8 5.6c.4.8 1.7 1 3.4.8z" class="u"/><path d="M940 375.9a21.4 21.4 0 01-11.1 2.9c-21 0-27-21.2-20-28.8 4.5-4.5 7.3-5.1 10.9-4.6 1.8.2 3.8.8 6.2 1.2 8.2 1.5 9.3-6.2 18.3-.4 8.3 5.5 7 22.7-4.3 29.7z" class="q"/><path d="M940 375.9a21.4 21.4 0 01-11.1 2.9c-21 0-27-21.2-20-28.8 4.5-4.5 7.3-5.1 10.9-4.6a13.9 13.9 0 00-6 11.4 19.4 19.4 0 009.7 15.6 26 26 0 0016.5 3.5z" class="r"/><path d="M929.5 349.7h-1.6a35.8 35.8 0 01-2.6-16.8 7.5 7.5 0 011.6-.1 15.1 15.1 0 012.6.1 50.5 50.5 0 000 16.8z" class="e"/><path d="M928.8 349.7h-1a35.8 35.8 0 01-2.5-16.8 7.5 7.5 0 011.6-.1 58.8 58.8 0 002 16.9z" class="s"/><path d="M938.8 335.6a10.3 10.3 0 01-4.3 7.3 12.2 12.2 0 01-6.6 2 9.5 9.5 0 015-8.3 11.7 11.7 0 015.9-1z" class="t"/><path d="M934.5 343a12.3 12.3 0 01-6.6 1.9 9.5 9.5 0 015-8.3s-3.2 2.8-1.8 5.5c.4.9 1.7 1 3.4.8z" class="u"/><path d="M954.9 354.2a21.2 21.2 0 01-11.2 3c-20.9 0-27-21.3-19.9-28.9 4.4-4.5 7.2-5.1 10.9-4.6 1.7.2 3.7.8 6.1 1.2 8.3 1.6 9.3-6.2 18.4-.3 8.3 5.4 7 22.6-4.3 29.6z" class="q"/><path d="M954.9 354.2a21.2 21.2 0 01-11.2 3c-20.9 0-27-21.3-19.9-28.9 4.4-4.5 7.2-5.1 10.9-4.6a13.9 13.9 0 00-6.1 11.4 19.4 19.4 0 009.7 15.6 25.9 25.9 0 0016.6 3.5z" class="r"/><path d="M944.4 328h-1.6a35.8 35.8 0 01-2.6-16.8 7.5 7.5 0 011.6-.1 15.2 15.2 0 012.6.1 50.5 50.5 0 000 16.8z" class="e"/><path d="M943.8 328h-1a35.8 35.8 0 01-2.6-16.8 7.5 7.5 0 011.6-.1 58.8 58.8 0 002 16.9z" class="s"/><path d="M953.7 314a10.2 10.2 0 01-4.3 7.3 12.3 12.3 0 01-6.6 2 9.5 9.5 0 015-8.4 11.7 11.7 0 015.9-.9z" class="t"/><path d="M949.4 321.3a12.3 12.3 0 01-6.6 1.9 9.5 9.5 0 015-8.3s-3.2 2.8-1.8 5.6c.4.8 1.8 1 3.4.8z" class="u"/><path d="M888.2 338.6a21.3 21.3 0 01-11.2 3c-20.9 0-27-21.2-19.8-28.8 4.3-4.6 7.2-5.2 10.8-4.6 1.8.2 3.7.7 6.1 1.2 8.3 1.5 9.3-6.2 18.4-.4 8.4 5.5 7.1 22.7-4.3 29.6z" class="q"/><path d="M888.2 338.6a21.3 21.3 0 01-11.2 3c-20.9 0-27-21.2-19.8-28.8 4.3-4.6 7.2-5.2 10.8-4.6a13.9 13.9 0 00-6.1 11.4 19.4 19.4 0 009.8 15.6 26 26 0 0016.5 3.4z" class="r"/><path d="M877.7 312.5h-1.6a35.6 35.6 0 01-2.5-16.8 7.4 7.4 0 011.5-.1 15.2 15.2 0 012.6 0 50.2 50.2 0 000 16.9z" class="e"/><path d="M877 312.5h-1a35.7 35.7 0 01-2.5-16.8 8.2 8.2 0 011.6-.2 58.5 58.5 0 002 17z" class="s"/><path d="M887 298.4a10.3 10.3 0 01-4.3 7.3 12.3 12.3 0 01-6.6 2 9.5 9.5 0 015-8.3 11.7 11.7 0 015.9-1z" class="t"/><path d="M882.7 305.7a12.2 12.2 0 01-6.6 2 9.5 9.5 0 015-8.3s-3.2 2.8-1.8 5.6c.5.8 1.8 1 3.4.7z" class="u"/><path d="M925.3 331.1a21.2 21.2 0 01-11.2 3c-20.9 0-27-21.2-19.8-28.8 4.3-4.6 7.1-5.2 10.8-4.6 1.7.2 3.7.7 6.1 1.2 8.3 1.5 9.3-6.2 18.4-.4 8.4 5.5 7.1 22.7-4.3 29.6z" class="q"/><path d="M925.3 331.1a21.2 21.2 0 01-11.2 3c-20.9 0-27-21.2-19.8-28.8 4.3-4.6 7.1-5.2 10.8-4.6A13.9 13.9 0 00899 312a19.4 19.4 0 009.8 15.6 25.9 25.9 0 0016.5 3.4z" class="r"/><path d="M914.8 305h-1.6a35.6 35.6 0 01-2.5-16.8 7.4 7.4 0 011.5-.1 15.2 15.2 0 012.6.1 50.2 50.2 0 000 16.8z" class="e"/><path d="M914.2 305h-1a35.5 35.5 0 01-2.5-16.8 8 8 0 011.5-.1 58.8 58.8 0 002 16.9z" class="s"/><path d="M924 291a10.3 10.3 0 01-4.2 7.2 12.2 12.2 0 01-6.6 2 9.5 9.5 0 015-8.3 11.7 11.7 0 015.9-1z" class="t"/><path d="M919.8 298.2a12.2 12.2 0 01-6.6 2 9.5 9.5 0 015-8.3s-3.2 2.8-1.8 5.5c.5.9 1.8 1 3.4.8z" class="u"/><path d="M957.2 335a21.3 21.3 0 01-11.1 3c-21 0-27-21.3-19.9-28.9 4.4-4.5 7.2-5.1 10.8-4.6 1.8.2 3.8.8 6.2 1.2 8.2 1.6 9.3-6.1 18.3-.3 8.4 5.4 7.1 22.6-4.3 29.6z" class="q"/><path d="M957.2 335a21.3 21.3 0 01-11.1 3c-21 0-27-21.3-19.9-28.9 4.4-4.5 7.2-5.1 10.8-4.6a13.9 13.9 0 00-6 11.4 19.4 19.4 0 009.7 15.6 26 26 0 0016.5 3.5z" class="r"/><path d="M946.8 308.8h-1.6a35.5 35.5 0 01-2.6-16.8 7.4 7.4 0 011.6-.1 15.2 15.2 0 012.6.1 50.5 50.5 0 000 16.8z" class="e"/><path d="M946.1 308.8h-1a35.5 35.5 0 01-2.5-16.8 7.4 7.4 0 011.6-.1 58.5 58.5 0 002 16.9z" class="s"/><path d="M956 294.8a10.3 10.3 0 01-4.3 7.2 12.3 12.3 0 01-6.6 2 9.5 9.5 0 015-8.3 11.7 11.7 0 015.9-1z" class="t"/><path d="M951.8 302a12.3 12.3 0 01-6.6 2 9.5 9.5 0 015-8.3s-3.2 2.8-1.9 5.6c.5.8 1.8 1 3.5.8z" class="u"/><path d="M925.7 365.2a21.2 21.2 0 01-11.1 3c-21 0-27-21.3-19.9-28.9 4.4-4.5 7.2-5.1 10.8-4.6 1.8.2 3.8.8 6.2 1.2 8.2 1.6 9.3-6.2 18.3-.3 8.4 5.4 7.1 22.7-4.3 29.6z" class="q"/><path d="M925.7 365.2a21.2 21.2 0 01-11.1 3c-21 0-27-21.3-19.9-28.9 4.4-4.5 7.2-5.1 10.8-4.6a13.9 13.9 0 00-6 11.4 19.4 19.4 0 009.7 15.6 25.9 25.9 0 0016.5 3.5z" class="r"/><path d="M915.3 339h-1.6a35.5 35.5 0 01-2.6-16.8 7.4 7.4 0 011.6-.1 15.2 15.2 0 012.6.1 50.5 50.5 0 000 16.8z" class="e"/><path d="M914.6 339h-1a35.5 35.5 0 01-2.5-16.8 7.4 7.4 0 011.5-.1 58.8 58.8 0 002 16.9z" class="s"/><path d="M924.5 325a10.3 10.3 0 01-4.2 7.3 12.3 12.3 0 01-6.6 2 9.5 9.5 0 015-8.4 11.6 11.6 0 015.8-.9z" class="t"/><path d="M920.3 332.3a12.3 12.3 0 01-6.6 2 9.5 9.5 0 015-8.4s-3.2 2.8-1.9 5.6c.5.8 1.8 1 3.5.8z" class="u"/><path d="M810.6 319.5h162.7v25.6H810.6zM810.6 355.8h162.7v25.6H810.6z" class="v"/><path d="M973.3 355.8v25.6H810.6v-25.6H835l.5 16.5s116.7 3 116.5 2.3v-18.8zM973.3 319.5v25.6H810.6v-25.6h24.6l.5 16.7 116.3 2.5.3-19.2z" class="w"/><path d="M810.6 315.9h21.7v66.6h-21.7zM953.6 315.9h19.7v66.6h-19.7z" class="x"/><path d="M832.3 379.8v2.6h-21.7V316h2.6l2.1 63.2zM973.3 380.1v2.3h-19.7V316h2.3l1 62.5z" class="y"/><circle cx="821.4" cy="332.5" r="2.9" class="z"/><circle cx="821.4" cy="367.7" r="2.9" class="z"/><circle cx="966.4" cy="332.5" r="2.9" class="z"/><circle cx="966.4" cy="367.7" r="2.9" class="z"/><path d="M947.7 428.6a23.2 23.2 0 01-3.1 11.6 23.4 23.4 0 11-25.4-34.5h.3a23.5 23.5 0 0128.2 22.8z" class="aa"/><path d="M944.5 440.3a23.4 23.4 0 11-25.3-34.6c-2.3.7-16.2 5.8-10 25 6.3 19.6 28 19.2 35.3 9.6z" class="ab"/><path d="M935.9 416.2c-.7 1.2-3.4.9-6-.6s-4.2-3.7-3.6-4.9 3.4-.9 6 .7 4.3 3.7 3.6 4.8z" class="ac"/><path d="M915.4 420.5a23.1 23.1 0 01-3.1 11.7 23.4 23.4 0 11-25.4-34.6h.3a23.5 23.5 0 0127.7 18.1 24.3 24.3 0 01.5 4.8z" class="aa"/><path d="M912.2 432.2a23.4 23.4 0 11-25.3-34.5c-2.3.6-16.2 5.7-10 25 6.3 19.5 28 19.2 35.3 9.5z" class="ab"/><path d="M903.6 408.1c-.7 1.2-3.4 1-6-.6s-4.3-3.7-3.6-4.8 3.4-1 6 .6 4.2 3.7 3.6 4.8z" class="ac"/><path d="M881.9 416.4a23 23 0 01-3.1 11.6 23.4 23.4 0 11-25.4-34.5l.3-.1a23.5 23.5 0 0128.2 22.9z" class="aa"/><path d="M878.7 428a23.4 23.4 0 11-25.4-34.5c-2.2.7-16.1 5.8-10 25 6.4 19.6 28.1 19.2 35.4 9.6z" class="ab"/><path d="M870 404c-.6 1.2-3.3.9-6-.6s-4.2-3.7-3.5-4.9 3.4-.9 6 .7 4.2 3.6 3.5 4.8z" class="ac"/><path d="M855.7 434.1a23 23 0 01-3.1 11.7 23.4 23.4 0 11-25.4-34.5l.3-.1a23.5 23.5 0 0128.2 23z" class="aa"/><path d="M852.5 445.8a23.4 23.4 0 11-25.3-34.5c-2.3.7-16.2 5.8-10 25 6.3 19.6 28 19.2 35.3 9.5z" class="ab"/><path d="M843.9 421.8c-.7 1.2-3.4.9-6-.7s-4.2-3.6-3.6-4.8 3.4-.9 6 .7 4.3 3.6 3.6 4.8z" class="ac"/><path d="M893 441.8a23.1 23.1 0 01-3.1 11.7 23.4 23.4 0 11-25.4-34.5h.3a23.5 23.5 0 0127.7 18.1 22.7 22.7 0 01.5 4.8z" class="aa"/><path d="M889.9 453.5a23.4 23.4 0 11-25.4-34.5c-2.2.7-16.2 5.8-10 25 6.3 19.5 28 19.2 35.4 9.5z" class="ab"/><path d="M881.2 429.5c-.7 1.1-3.4.8-6-.7s-4.2-3.7-3.6-4.8 3.4-1 6 .6 4.3 3.7 3.6 4.9z" class="ac"/><path d="M938.2 442.1a23 23 0 01-3.2 11.7 23.4 23.4 0 11-25.3-34.6h.3a23.7 23.7 0 014.8-.5 23.4 23.4 0 0123.4 23.4z" class="aa"/><path d="M935 453.8a23.4 23.4 0 11-25.4-34.6c-2.2.7-16.1 5.8-10 25 6.4 19.6 28.1 19.3 35.4 9.6z" class="ab"/><path d="M926.4 429.8c-.7 1.1-3.4.8-6-.7s-4.3-3.7-3.6-4.8 3.4-1 6 .6 4.2 3.7 3.6 4.9z" class="ac"/><path d="M871.2 478.3h10.1v35h-10.1z" class="ad"/><path d="M951.6 438a85.4 85.4 0 01-146 7.8 84.4 84.4 0 01-4.7-7.8z" class="ae"/><path d="M924.3 468.4a85.4 85.4 0 01-118.7-22.6 84.4 84.4 0 01-4.7-7.8h21.7a79.5 79.5 0 0028.4 30.7c25 16.2 53.4 10.8 73.3-.3z" class="af"/><path d="M956.6 581.1a12.2 12.2 0 01-9.6 4.7H807.8a12.3 12.3 0 01-12.2-12.3 12 12 0 01.5-3.5l18.1-61.2A20.7 20.7 0 01834 494h87a20.6 20.6 0 0119.7 14.8l18.1 61.2a12.2 12.2 0 01-2.2 11.1z" class="ae"/><path d="M956.6 581.1a12.2 12.2 0 01-9.6 4.7H807.8a12.3 12.3 0 01-12.2-12.3 12 12 0 01.5-3.5l18.1-61.2A20.6 20.6 0 01828 495l-19.2 70.8a9.3 9.3 0 006.5 11.4 9 9 0 002.2.3z" class="af"/><circle cx="877.5" cy="539.9" r="37.3" class="ad"/><circle cx="877.4" cy="539.9" r="29.9" class="ag"/><path d="M907.3 539.9a29.9 29.9 0 11-29.9-29.9h1a28.2 28.2 0 1029 29 8.6 8.6 0 010 .9z" style="isolation:isolate" fill="#32314f" opacity=".3"/><path fill="none" stroke="#4f474a" stroke-linecap="round" stroke-miterlimit="10" stroke-width="7.5" d="M877.5 539.9l21.4 8.1"/><path d="M781.4 519c-4.8 13.4-16.5 23-22 27.8-3.5 3-7 26.5-16.4 54a205.6 205.6 0 01-22 46.8c-27.4 41.8-86-85.5-86-85.5s23-5.7 35.3-24.2l6.4 12.2c8.1 15.4 21.6 40.3 25.4 44 5.5 5.5 19.9-41.1 20.5-45.2a146.3 146.3 0 012.7-28.4l1.2-4.5c4.8-16.5 13.7-15.8 13.7-11s-4 10.2 4.8 14 11 1 18.5-3.7 2.8-12.2 9-13.3a9.3 9.3 0 013.1 0c5.2.7 9.8 5.9 5.8 17z" class="aj"/><path d="M760.8 534c-15.5 6.6-29-1.2-35.5-13.5l1.2-4.5c4.8-16.5 13.7-15.8 13.7-11s-4 10.2 4.8 14 11 1 18.5-3.7 2.8-12.2 9-13.3a9.6 9.6 0 013.1 0l1 1.9s8.4 19.8-15.8 30.1zM743 600.8a205.6 205.6 0 01-22 46.8c-27.4 41.8-86-85.4-86-85.4s23-5.8 35.3-24.3l6.4 12.2-16 14.6c-11.4 10.7 13.6 55 38.8 66.4s43.5-30.3 43.5-30.3z" class="ak"/><path d="M776.7 507.4a25 25 0 01-1.1 7 24.2 24.2 0 111-7z" class="aa"/><path d="M757.6 491.3c3-3 12.3 7 8.2 9.6s-10.5-7.3-8.2-9.6z" class="ac"/><path d="M775.6 514.5a24.2 24.2 0 11-33.5-29 18.6 18.6 0 00-4.6 14.2 24.6 24.6 0 005 11.2 23.7 23.7 0 0015.5 10.5 24.4 24.4 0 0017.6-7z" class="ab"/><path d="M681.3 538a68.6 68.6 0 01-28.7 23.2 96.3 96.3 0 01-24.1 7.6s-7-58.5-6.6-86.2a62.8 62.8 0 0112.8 5.8 125 125 0 0146.6 49.5z" class="g"/><path d="M652.6 561.2a96.2 96.2 0 01-24 7.6s-7.2-58.5-6.7-86.2a62.6 62.6 0 0112.8 5.8c-1.7 3.3-2.3 9.8-.5 21.6a174.3 174.3 0 0018.4 51.2z" class="y"/><path d="M637 663.6a1142.8 1142.8 0 01-152.4 0s-1.8-26.6-1.6-62.8c.1-37 2.2-84 10-123.2a28.2 28.2 0 015.4-3.4 90.8 90.8 0 0118.7-7c3.5-.8 7.5-1.7 12-2.5 27-5 66.3 5.8 66.3 5.8a58.2 58.2 0 017.7 2 51 51 0 0118.7 10.2s15.6 102.7 15.2 180.9z" class="f"/><path d="M522 466.9s1.6-1.7 7-2.2 58.8 3.3 59.4 3.8 3.8.6 7 2c0 0 .2 22.4-27.5 26.3s-43.1-10.5-45.8-30z" class="ag"/><path d="M637 663.6s-35.5 3-90.7 2.3c-18.5-.3-39.3-1-61.7-2.3 0 0-1.7-26.6-1.5-62.8.6-.6 21.4-18.7 23.2-57a223 223 0 00-7.8-69.6 90.8 90.8 0 0118.6-7c9 16 11.1 43.3 11.1 43.3a51.4 51.4 0 009 2.4c26 5 67-2 67-2a192.7 192.7 0 00-1-38.4 51 51 0 0118.8 10.1s15.4 102.8 15 181z" class="q"/><path d="M546.2 665.9c-18.5-.3-39.3-1-61.6-2.3 0 0-1.7-26.6-1.6-62.8.6-.6 21.5-18.7 23.3-57a223 223 0 00-7.9-69.6 90.8 90.8 0 0118.7-7c9 16 11 43.3 11 43.3a51.4 51.4 0 009 2.4 274.9 274.9 0 00-1 99.8c3 18.9 6.6 37 10.1 53.2z" class="y"/><path d="M483 555.7s-2 7.4-5 19.5a696.1 696.1 0 00-17 103.2h-43.6s0-76.7 28.7-144.6z" class="aj"/><path d="M483 555.7s-2 7.4-5 19.5c-8.7-3.5-20.3-7.4-24.3-6-4.2 1.4-19.4 46-23 109.2h-13.3s0-76.7 28.7-144.6z" class="ak"/><path d="M490.3 562.1a98 98 0 01-42-14.9 149.7 149.7 0 01-17.9-12.5c11.9-41.6 54-62.3 64.3-58.3a15.8 15.8 0 018.2 10.2c8.5 23.3-1 76.2-12.6 75.5z" class="g"/><path d="M502.9 486.6c-9.5-7.9-39.3 14.9-54.6 60.6a148.6 148.6 0 01-17.9-12.5c11.9-41.6 54-62.3 64.3-58.3a15.8 15.8 0 018.2 10.2z" class="y"/><path d="M588.4 468.5c-.8 5-1.6 22.4-30.1 22.4-21.8 0-31.6-23.8-30-25.6a46.2 46.2 0 0110.1-5c1.3-15.6 1.3-39.8 1.3-39.8a138.5 138.5 0 0040.6 13.3 330.4 330.4 0 00.7 29.7 25.6 25.6 0 017.4 5z" class="aj"/><path d="M580.3 433.7c-.2 2.6-.3 5.7-.2 8.9a66.8 66.8 0 01-20.1-.8c-10.8-2.6-1.6 17.4-9 21.6s-8.4 23.3 7.3 27.5c-21.8 0-31.6-23.8-30-25.6a46.2 46.2 0 0110.1-5c1.3-15.6 1.3-39.8 1.3-39.8a138.5 138.5 0 0040.6 13.2z" class="ak"/><path d="M672 342.6c-1.7 24-25.7 32.7-25.7 32.7s-1-33.7-8.9-48.2c0 0-48.7 13.4-90.1-11.6a58.4 58.4 0 01-10 32.5 54.5 54.5 0 01-22 18.5s-20.5-11-16.4 12.7c0 0-27.3-12.7-24-51.7 3.1-36 32-42 32-42s-2.7-29 33.5-39.3c34.3-9.7 48.5 7.5 49.2 8.3s31-14.4 54.6 9.5 14 46.3 14 46.3 15.5 8.3 13.8 32.3z" class="al"/><path d="M589.6 254.6c-1.2-.6-32.5-16-51.4 5.5-19.1 22-8.2 40.5-8.2 40.5s-13.7-8.5-31 18.9 19.7 43 32.3 29.7a5.5 5.5 0 016.1-1.2 54.5 54.5 0 01-22 18.6s-20.6-11-16.4 12.7c0 0-27.4-12.8-24-51.8 3-36 32-42 32-42s-2.8-29 33.4-39.3c34.3-9.7 48.5 7.5 49.2 8.4z" class="s"/><path d="M645.6 397.6a48.8 48.8 0 01-38.6 37 113.5 113.5 0 01-50-1.5c-44.3-10.1-47.5-46.2-46.2-71 0 0 31.1-5.1 33-50.4a133.8 133.8 0 0095.9 9.2s15.5 39.7 6 76.7z" class="aj"/><path d="M607 434.6a113.5 113.5 0 01-50-1.5c-44.3-10.1-47.5-46.2-46.2-71 0 0 31.1-5.1 33-50.4 0 0 42.2 23.5 90.9 10.6-9.6 5.8-31.6 14.6-70.7 9.3 0 0 1.7 16.4-21.2 32.3s.5 75.2 64.2 70.7z" class="ak"/><path d="M510.9 362.1s-6.8-8.3-12.8 0c-7.4 10.2 1.3 33.3 15 30.5z" class="aj"/><path d="M503 368.6c3.3-1 5.6 13.4 2.5 13.4s-6.5-12-2.4-13.4z" class="am"/><g opacity=".7"><ellipse cx="581.9" cy="355.8" class="ao" rx="4.5" ry="8.1"/><path d="M628.5 355c0 4-1.8 7.1-4 7.1s-4-3.2-4-7.2 1.8-7.2 4-7.2 4 3.3 4 7.2z" class="ao"/></g><path d="M608.6 352.2c4.5.3 0 12.7 0 12.7s10-1.8 9.3 4.8-13.4 8.2-16.1 2.7 2.4-20.6 6.8-20.2z" class="am"/><path d="M587.7 370.3a23.4 23.4 0 0022.6 13" class="ap"/><g opacity=".6"><ellipse cx="569.2" cy="371.7" class="am" rx="11" ry="5.1"/><path d="M644.3 371.4c0 2.7-4.6 4.8-10.3 4.8s-10.3-2.1-10.3-4.8 4.6-4.8 10.3-4.8 10.3 2.1 10.3 4.8z" class="am"/></g><path d="M574.4 339.9a46.2 46.2 0 0110-1 3.8 3.8 0 004-3.5v-.2a3.8 3.8 0 00-3.6-3.5 40 40 0 00-12.5 1.3 3.6 3.6 0 00-2.8 3.7 4 4 0 004.5 3.3 2.3 2.3 0 00.4-.1zM631 340a33.3 33.3 0 00-8.4-1 3.6 3.6 0 01-3.5-3.7v-.1a3.3 3.3 0 013-3.5 29 29 0 0110.6 1.5 3.7 3.7 0 012.4 3.7v.1a3.3 3.3 0 01-3.4 3.2 3.7 3.7 0 01-.7-.1z" class="al"/><path d="M595.6 732.6v107.6h-215l-7.8-107.6zM372.9 732.6L455.8 603h183l-43.2 129.6z" class="v"/><path d="M382.8 727.2l76-118.7h172.4l-39.6 118.6z" class="ar"/><g opacity=".5"><path d="M375.3 766.1h220.3M378.2 806.6h217.4" class="at"/></g><path d="M595.6 834v6.2h-215l-7.8-107.6h17.8l15 98.2z" class="w"/><path d="M388 749.3a4.3 4.3 0 11-4.4-4.4 4.3 4.3 0 014.3 4.3z" class="au"/><circle cx="580.1" cy="749.3" r="4.3" class="au"/><path d="M392.3 787.9a4.3 4.3 0 11-4.4-4.4 4.3 4.3 0 014.4 4.4zM584.4 787.9a4.3 4.3 0 11-4.3-4.4 4.3 4.3 0 014.3 4.4zM396.6 826.5a4.3 4.3 0 11-4.3-4.4 4.3 4.3 0 014.3 4.4z" class="au"/><circle cx="580.5" cy="824.3" r="4.3" class="au"/><g clip-path="url(#a)"><path d="M496.7 634.1a23.2 23.2 0 11-3-11.3 23.2 23.2 0 013 11.3z" class="q"/><path d="M489.5 650.9a23.1 23.1 0 114.2-28.1 19.3 19.3 0 01-15.1-2.4 7.9 7.9 0 01-6.2 6.5 10.6 10.6 0 01-3.8-5c-1.6-3.8-11.9 1.4-9.5 17a18.8 18.8 0 0030.4 12z" class="r"/><path d="M480.4 613.1c8.3 3.8 9.7 8.6 9.7 8.6-9.7.5-12.7-3.8-12.7-3.8a8 8 0 01-1.1 4.4 6.8 6.8 0 01-4.2 3 9.9 9.9 0 01-1.9-8.6 29.1 29.1 0 01-16.5 1.1 18.3 18.3 0 0112.6-5.7 13.2 13.2 0 01-7.2-5.8 20.1 20.1 0 0113 3 13 13 0 014.7-8.9 11.4 11.4 0 011.4 1.6 6.8 6.8 0 01.8 6.8 18 18 0 0113.5-1 15.7 15.7 0 01-12 5.3z" class="l"/><path d="M468.5 610.8c-.7.4-.5 1.4.1 1.8a3.3 3.3 0 002.2.3 11 11 0 00-5.7 2.7 13.3 13.3 0 007.1-1.4 14.6 14.6 0 000 8 2.4 2.4 0 00.7 1.3c.8.5 1.8 0 2.5-.5l.9-.8a6.8 6.8 0 01-4.1 3 9.9 9.9 0 01-2-8.6 29.2 29.2 0 01-16.5 1.2 18.3 18.3 0 0112.7-5.7 13.2 13.2 0 01-7.3-5.9 20.3 20.3 0 0113 3 13 13 0 014.7-8.8 10.7 10.7 0 011.4 1.5 4.4 4.4 0 00-2.2 2.4 22.8 22.8 0 00-2.2 7.2 14 14 0 00-4.4-1 1.6 1.6 0 00-1 .3z" class="aw"/><path d="M541.6 634.1a23.2 23.2 0 11-3-11.3 23.2 23.2 0 013 11.3z" class="q"/><path d="M534.4 650.9a23.1 23.1 0 114.3-28.1 19.3 19.3 0 01-15.2-2.4 7.9 7.9 0 01-6.2 6.5 10.6 10.6 0 01-3.8-5c-1.6-3.8-11.9 1.4-9.5 17a18.8 18.8 0 0030.4 12z" class="r"/><path d="M525.4 613.1c8.3 3.8 9.6 8.6 9.6 8.6-9.7.5-12.7-3.8-12.7-3.8a8 8 0 01-1 4.4 6.8 6.8 0 01-4.2 3 9.9 9.9 0 01-2-8.6 29.1 29.1 0 01-16.5 1.1 18.3 18.3 0 0112.6-5.7 13.2 13.2 0 01-7.2-5.8 20.1 20.1 0 0113 3 13 13 0 014.7-8.9 10.8 10.8 0 011.4 1.6 6.9 6.9 0 01.8 6.8 18 18 0 0113.5-1 15.7 15.7 0 01-12 5.3z" class="l"/><path d="M513.4 610.8c-.6.4-.5 1.4.2 1.8a3.3 3.3 0 002.2.3 11.2 11.2 0 00-5.8 2.7 13.3 13.3 0 007.2-1.4 14.7 14.7 0 00-.1 8 2.5 2.5 0 00.7 1.3c.8.5 1.8 0 2.6-.5l.8-.8a6.8 6.8 0 01-4.1 3 9.9 9.9 0 01-2-8.6 29.2 29.2 0 01-16.4 1.2 18.3 18.3 0 0112.6-5.7 13.2 13.2 0 01-7.3-5.8 20.2 20.2 0 0113 3 13 13 0 014.7-8.9 10.7 10.7 0 011.4 1.6 4.4 4.4 0 00-2.2 2.4 22.8 22.8 0 00-2.3 7.2 14 14 0 00-4.3-1 1.6 1.6 0 00-1 .2z" class="aw"/><path d="M586.5 634.1a23.2 23.2 0 11-3-11.3 23.2 23.2 0 013 11.3z" class="q"/><path d="M579.4 650.9a23.1 23.1 0 114.2-28.1 19.3 19.3 0 01-15.2-2.4 7.8 7.8 0 01-6.2 6.5 10.6 10.6 0 01-3.8-5c-1.5-3.8-11.8 1.4-9.4 17a18.8 18.8 0 0030.4 12z" class="r"/><path d="M570.3 613.1c8.3 3.8 9.6 8.6 9.6 8.6-9.6.5-12.6-3.8-12.6-3.8a8.3 8.3 0 01-1.2 4.4 6.8 6.8 0 01-4 3 9.9 9.9 0 01-2-8.6 29.1 29.1 0 01-16.5 1.1 18.3 18.3 0 0112.6-5.7 13.2 13.2 0 01-7.2-5.8 20.1 20.1 0 0113 3 13 13 0 014.7-8.9 10.8 10.8 0 011.4 1.6 6.9 6.9 0 01.8 6.8 18 18 0 0113.5-1 15.8 15.8 0 01-12.1 5.3z" class="l"/><path d="M558.3 610.8c-.6.4-.4 1.4.2 1.8a3.3 3.3 0 002.2.3 11.2 11.2 0 00-5.7 2.7 13.2 13.2 0 007-1.4 14.7 14.7 0 000 8 2.4 2.4 0 00.8 1.3c.7.5 1.8 0 2.5-.5l.8-.8a6.8 6.8 0 01-4 3 9.9 9.9 0 01-2-8.6 29.2 29.2 0 01-16.5 1.2 18.3 18.3 0 0112.6-5.7 13.1 13.1 0 01-7.2-5.8 20.3 20.3 0 0113 3 13 13 0 014.7-8.9 11.3 11.3 0 011.4 1.6 4.4 4.4 0 00-2.3 2.4 22.8 22.8 0 00-2.2 7.2 13.9 13.9 0 00-4.4-1 1.6 1.6 0 00-.9.2z" class="aw"/><path d="M631.5 634.1a23.2 23.2 0 11-3-11.3 23.2 23.2 0 013 11.3z" class="q"/><path d="M624.3 650.9a23.1 23.1 0 114.2-28.1 19.3 19.3 0 01-15.2-2.4 7.9 7.9 0 01-6.1 6.5 10.6 10.6 0 01-3.8-5c-1.6-3.8-11.9 1.4-9.5 17a18.8 18.8 0 0030.4 12z" class="r"/><path d="M615.2 613.1c8.3 3.8 9.7 8.6 9.7 8.6-9.7.5-12.7-3.8-12.7-3.8a8 8 0 01-1.1 4.4 6.8 6.8 0 01-4.2 3 9.9 9.9 0 01-1.9-8.6 29.1 29.1 0 01-16.5 1.1 18.3 18.3 0 0112.6-5.7 13.2 13.2 0 01-7.2-5.8 20.1 20.1 0 0113 3 13 13 0 014.7-8.9 10.8 10.8 0 011.4 1.6 6.8 6.8 0 01.8 6.8 18 18 0 0113.5-1 15.8 15.8 0 01-12 5.3z" class="l"/><path d="M603.2 610.8c-.6.4-.4 1.4.2 1.8a3.3 3.3 0 002.2.3 11 11 0 00-5.7 2.7 13.2 13.2 0 007.1-1.4 14.7 14.7 0 000 8 2.5 2.5 0 00.7 1.3c.7.5 1.8 0 2.5-.5l.8-.8a6.8 6.8 0 01-4 3 9.9 9.9 0 01-2-8.6 29.2 29.2 0 01-16.5 1.2 18.2 18.2 0 0112.6-5.7 13.2 13.2 0 01-7.2-5.9 20.3 20.3 0 0113 3 13 13 0 014.7-8.8 10.7 10.7 0 011.4 1.6 4.3 4.3 0 00-2.2 2.4 22.8 22.8 0 00-2.3 7.2 14 14 0 00-4.3-1 1.6 1.6 0 00-1 .2z" class="aw"/><path d="M479.7 663.6a25.4 25.4 0 11-3.3-12.4 25.4 25.4 0 013.3 12.4z" class="q"/><path d="M471.8 682a25.4 25.4 0 114.6-30.8 21.2 21.2 0 01-16.6-2.7 8.6 8.6 0 01-6.8 7.2 11.6 11.6 0 01-4.2-5.6c-1.7-4-13 1.7-10.4 18.9a20.6 20.6 0 0033.4 13z" class="r"/><path d="M461.8 640.5c9.1 4.1 10.6 9.5 10.6 9.5-10.6.6-13.9-4.1-13.9-4.1a9 9 0 01-1.2 4.7 7.5 7.5 0 01-4.5 3.3 10.9 10.9 0 01-2.2-9.4 32.1 32.1 0 01-18 1.3 20 20 0 0113.8-6.3 14.4 14.4 0 01-8-6.4 22.1 22.1 0 0114.4 3.3 14.3 14.3 0 015.1-9.7 11.7 11.7 0 011.5 1.7 7.5 7.5 0 011 7.5 19.7 19.7 0 0114.7-1.1 17.2 17.2 0 01-13.3 5.7z" class="l"/><path d="M448.7 638c-.7.4-.5 1.6.2 2a3.7 3.7 0 002.4.3 12.2 12.2 0 00-6.3 3 14.5 14.5 0 007.8-1.5 16.1 16.1 0 000 8.8 2.6 2.6 0 00.8 1.4c.8.6 2 .1 2.8-.5l.9-.8a7.4 7.4 0 01-4.5 3.3 10.9 10.9 0 01-2.2-9.5 32 32 0 01-18 1.3 20 20 0 0113.8-6.3 14.5 14.5 0 01-8-6.4 22.2 22.2 0 0114.4 3.4 14.3 14.3 0 015-9.7 12.3 12.3 0 011.6 1.7 4.8 4.8 0 00-2.4 2.5 25 25 0 00-2.5 8 15.5 15.5 0 00-4.8-1.2 1.8 1.8 0 00-1 .2z" class="aw"/><path d="M529 663.6a25.4 25.4 0 11-3.3-12.4 25.4 25.4 0 013.3 12.4z" class="q"/><path d="M521.1 682a25.4 25.4 0 114.6-30.8 21.2 21.2 0 01-16.6-2.7 8.6 8.6 0 01-6.8 7.2 11.6 11.6 0 01-4.2-5.5c-1.7-4.1-13 1.6-10.3 18.8a20.6 20.6 0 0033.3 13z" class="r"/><path d="M511.1 640.5c9.1 4.1 10.6 9.5 10.6 9.5-10.6.6-13.9-4.1-13.9-4.1a9 9 0 01-1.2 4.7 7.5 7.5 0 01-4.5 3.3 10.9 10.9 0 01-2.2-9.4 32.2 32.2 0 01-18 1.3 20.1 20.1 0 0113.8-6.3 14.4 14.4 0 01-8-6.4 22.1 22.1 0 0114.4 3.3 14.4 14.4 0 015.1-9.7 12.4 12.4 0 011.5 1.7 7.5 7.5 0 011 7.5 19.8 19.8 0 0114.7-1.1 17.2 17.2 0 01-13.3 5.7z" class="l"/><path d="M498 638c-.7.4-.5 1.6.2 2a3.7 3.7 0 002.4.3 12.2 12.2 0 00-6.3 3 14.5 14.5 0 007.8-1.5 16 16 0 000 8.8 2.6 2.6 0 00.8 1.4c.8.6 2 .1 2.8-.5l.9-.8a7.4 7.4 0 01-4.5 3.3 10.9 10.9 0 01-2.2-9.5 32 32 0 01-18 1.3 20 20 0 0113.8-6.3 14.4 14.4 0 01-8-6.4 22.2 22.2 0 0114.4 3.4 14.3 14.3 0 015.1-9.7 11.6 11.6 0 011.5 1.7 4.8 4.8 0 00-2.4 2.6 25.3 25.3 0 00-2.5 7.9 15.5 15.5 0 00-4.8-1.1 1.8 1.8 0 00-1 .1z" class="aw"/><path d="M578.3 663.6a25.4 25.4 0 11-3.3-12.4 25.4 25.4 0 013.3 12.4z" class="q"/><path d="M570.4 682a25.4 25.4 0 114.6-30.8 21.2 21.2 0 01-16.6-2.7 8.6 8.6 0 01-6.8 7.2 11.6 11.6 0 01-4.2-5.6c-1.7-4-13 1.6-10.4 18.9a20.6 20.6 0 0033.4 13z" class="r"/><path d="M560.5 640.5c9 4.1 10.5 9.5 10.5 9.5-10.6.6-14-4.2-14-4.2a9 9 0 01-1.1 4.8 7.5 7.5 0 01-4.6 3.3 10.9 10.9 0 01-2-9.4 32.1 32.1 0 01-18.2 1.2 20 20 0 0113.9-6.2 14.4 14.4 0 01-8-6.4 22.1 22.1 0 0114.4 3.3 14.3 14.3 0 015.1-9.7 12.4 12.4 0 011.5 1.7 7.5 7.5 0 011 7.5 19.7 19.7 0 0114.7-1.1 17.2 17.2 0 01-13.3 5.7z" class="l"/><path d="M547.3 638c-.7.4-.5 1.6.2 2a3.7 3.7 0 002.4.3 12.3 12.3 0 00-6.3 3 14.6 14.6 0 007.8-1.5 16 16 0 000 8.8 2.7 2.7 0 00.8 1.4c.8.6 2 .1 2.8-.6l.9-.8a7.5 7.5 0 01-4.5 3.4 10.9 10.9 0 01-2.2-9.5 32 32 0 01-18 1.3 20.1 20.1 0 0113.8-6.3 14.4 14.4 0 01-8-6.4 22.1 22.1 0 0114.4 3.3 14.3 14.3 0 015.1-9.7 12.9 12.9 0 011.5 1.7 4.8 4.8 0 00-2.4 2.6 25.1 25.1 0 00-2.5 8 15.8 15.8 0 00-4.8-1.2 1.7 1.7 0 00-1 .2z" class="aw"/><path d="M627.6 663.6a25.4 25.4 0 11-3.2-12.4 25.4 25.4 0 013.2 12.4z" class="q"/><path d="M619.7 682a25.4 25.4 0 114.6-30.8 21.2 21.2 0 01-16.6-2.7 8.6 8.6 0 01-6.8 7.2 11.7 11.7 0 01-4.2-5.6c-1.7-4-13 1.7-10.3 18.9a20.6 20.6 0 0033.3 13z" class="r"/><path d="M609.8 640.5c9 4.1 10.5 9.5 10.5 9.5-10.6.6-13.9-4.1-13.9-4.1a9 9 0 01-1.2 4.7 7.5 7.5 0 01-4.5 3.3 10.8 10.8 0 01-2.1-9.4 32.2 32.2 0 01-18.1 1.3 20.1 20.1 0 0113.8-6.3 14.4 14.4 0 01-8-6.4 22.1 22.1 0 0114.4 3.3 14.3 14.3 0 015.1-9.7 11.2 11.2 0 011.5 1.7 7.5 7.5 0 011 7.5 19.7 19.7 0 0114.8-1.1 17.3 17.3 0 01-13.4 5.7z" class="l"/><path d="M596.6 638c-.7.4-.5 1.6.2 2a3.7 3.7 0 002.4.3 12.2 12.2 0 00-6.3 3 14.5 14.5 0 007.9-1.5 16.1 16.1 0 00-.1 8.8 2.6 2.6 0 00.8 1.4c.8.6 2 .1 2.8-.5l1-.8a7.4 7.4 0 01-4.6 3.3 10.9 10.9 0 01-2.1-9.5 32 32 0 01-18.1 1.3 20 20 0 0113.8-6.3 14.4 14.4 0 01-8-6.4 22.2 22.2 0 0114.4 3.4 14.3 14.3 0 015.1-9.7 12.3 12.3 0 011.5 1.7 4.8 4.8 0 00-2.4 2.6 25.3 25.3 0 00-2.5 7.9 15.5 15.5 0 00-4.8-1.1 1.7 1.7 0 00-1 .1z" class="aw"/><path d="M460.1 696.2a26.4 26.4 0 11-3.3-12.9 26.4 26.4 0 013.3 13z" class="q"/><path d="M452 715.4a26.4 26.4 0 11.9-37.4 26 26 0 014 5.3 22 22 0 01-17.4-2.8 9 9 0 01-7 7.5 12 12 0 01-4.4-5.8c-1.7-4.2-13.5 1.7-10.7 19.6a21.5 21.5 0 0034.6 13.6z" class="r"/><path d="M441.6 672.3c9.5 4.2 11 9.8 11 9.8-11 .6-14.5-4.3-14.5-4.3a9.3 9.3 0 01-1.2 5 7.7 7.7 0 01-4.8 3.4 11.3 11.3 0 01-2.2-9.8 33.4 33.4 0 01-18.8 1.3 20.9 20.9 0 0114.4-6.5 15 15 0 01-8.2-6.7 23 23 0 0114.9 3.5 15 15 0 015.3-10.1 11.6 11.6 0 011.6 1.7 7.8 7.8 0 011 7.8 20.6 20.6 0 0115.3-1.1 18 18 0 01-13.8 6z" class="l"/><path d="M428 669.6c-.8.4-.6 1.7.1 2.1a3.7 3.7 0 002.5.3 12.8 12.8 0 00-6.5 3.1 15.2 15.2 0 008.1-1.6 16.7 16.7 0 000 9.2 2.8 2.8 0 00.8 1.5c.8.6 2 0 2.9-.6l1-.9a7.8 7.8 0 01-4.7 3.5 11.3 11.3 0 01-2.2-9.8 33.3 33.3 0 01-18.8 1.3 20.9 20.9 0 0114.4-6.5 15 15 0 01-8.3-6.7 23 23 0 0114.8 3.5 14.8 14.8 0 015.4-10.1 12 12 0 011.6 1.8 5 5 0 00-2.6 2.7 26.1 26.1 0 00-2.6 8.2 16 16 0 00-5-1.1 1.8 1.8 0 00-1 0z" class="aw"/><path d="M511.4 696.2a26.4 26.4 0 11-3.4-12.9 26.4 26.4 0 013.4 13z" class="q"/><path d="M503.2 715.4a26.4 26.4 0 114.8-32 22 22 0 01-17.3-2.8 9 9 0 01-7 7.5 12 12 0 01-4.3-5.8c-1.8-4.3-13.6 1.6-10.8 19.5a21.5 21.5 0 0034.7 13.6z" class="r"/><path d="M492.9 672.3c9.4 4.2 11 9.8 11 9.8-11 .6-14.5-4.3-14.5-4.3a9.4 9.4 0 01-1.3 5 7.7 7.7 0 01-4.7 3.4 11.3 11.3 0 01-2.2-9.8 33.4 33.4 0 01-18.8 1.3 20.9 20.9 0 0114.4-6.5 15 15 0 01-8.3-6.7 23 23 0 0115 3.5 14.9 14.9 0 015.3-10.1 12 12 0 011.5 1.7 7.8 7.8 0 011 7.8 20.6 20.6 0 0115.4-1.1 18 18 0 01-13.8 6z" class="l"/><path d="M479.2 669.6c-.8.4-.5 1.7.2 2.1a3.7 3.7 0 002.5.3 12.7 12.7 0 00-6.5 3.1 15.2 15.2 0 008-1.6 16.6 16.6 0 000 9.2 2.8 2.8 0 00.9 1.5c.8.6 2 0 2.9-.6l1-.9a7.7 7.7 0 01-4.8 3.5 11.3 11.3 0 01-2.2-9.8 33.3 33.3 0 01-18.8 1.3 20.9 20.9 0 0114.4-6.5 15 15 0 01-8.2-6.7 23 23 0 0114.8 3.5 14.8 14.8 0 015.4-10.1 12 12 0 011.5 1.8 5 5 0 00-2.5 2.7 26.1 26.1 0 00-2.6 8.2 16 16 0 00-5-1.1 1.8 1.8 0 00-1 0z" class="aw"/><path d="M562.7 696.2a26.4 26.4 0 11-3.4-12.9 26.4 26.4 0 013.4 13z" class="q"/><path d="M554.5 715.4a26.4 26.4 0 114.8-32 22 22 0 01-17.3-2.9 9 9 0 01-7 7.5 12.1 12.1 0 01-4.4-5.8c-1.8-4.3-13.5 1.7-10.8 19.6a21.5 21.5 0 0034.7 13.6z" class="r"/><path d="M544.1 672.3c9.5 4.2 11 9.8 11 9.8-11 .6-14.5-4.3-14.5-4.3a9.3 9.3 0 01-1.2 5 7.7 7.7 0 01-4.7 3.4 11.3 11.3 0 01-2.2-9.8 33.4 33.4 0 01-18.8 1.3 20.9 20.9 0 0114.4-6.5 15 15 0 01-8.3-6.7 23 23 0 0114.9 3.5 15 15 0 015.3-10.1 12 12 0 011.6 1.7 7.8 7.8 0 011 7.8 20.6 20.6 0 0115.3-1.2 17.9 17.9 0 01-13.8 6z" class="l"/><path d="M530.5 669.6c-.8.4-.5 1.7.2 2.1a3.7 3.7 0 002.5.3 12.8 12.8 0 00-6.6 3.1 15.2 15.2 0 008.2-1.6 16.7 16.7 0 00-.1 9.2 2.8 2.8 0 00.8 1.5c.9.6 2.1 0 3-.6l1-.9a7.7 7.7 0 01-4.8 3.5 11.3 11.3 0 01-2.2-9.8 33.3 33.3 0 01-18.8 1.3 20.9 20.9 0 0114.4-6.5 15 15 0 01-8.3-6.7 23 23 0 0114.9 3.5 14.8 14.8 0 015.3-10.1 12 12 0 011.6 1.7 5 5 0 00-2.6 2.7 26.1 26.1 0 00-2.6 8.3 16.1 16.1 0 00-5-1.1 1.8 1.8 0 00-1 0z" class="aw"/><path d="M614 696.2a26.4 26.4 0 11-3.4-12.9 26.4 26.4 0 013.3 13z" class="q"/><path d="M605.7 715.4a26.4 26.4 0 114.8-32 22 22 0 01-17.3-2.8 9 9 0 01-7 7.5 12 12 0 01-4.4-5.8c-1.7-4.3-13.5 1.6-10.8 19.5a21.5 21.5 0 0034.7 13.6z" class="r"/><path d="M595.4 672.3c9.4 4.2 11 9.8 11 9.8-11 .6-14.5-4.3-14.5-4.3a9.3 9.3 0 01-1.3 5 7.7 7.7 0 01-4.7 3.4 11.2 11.2 0 01-2.2-9.8 33.4 33.4 0 01-18.8 1.3 20.9 20.9 0 0114.4-6.5 15 15 0 01-8.3-6.7 23 23 0 0115 3.5 15 15 0 015.3-10.1 12.6 12.6 0 011.5 1.7 7.8 7.8 0 011 7.8 20.6 20.6 0 0115.4-1.1 17.9 17.9 0 01-13.8 6z" class="l"/><path d="M581.7 669.6c-.8.4-.5 1.7.2 2.1a3.7 3.7 0 002.5.3 12.8 12.8 0 00-6.5 3.1 15.2 15.2 0 008.1-1.6 16.7 16.7 0 000 9.2 2.8 2.8 0 00.8 1.5c.8.6 2 0 2.9-.6l1-.9a7.7 7.7 0 01-4.7 3.5 11.3 11.3 0 01-2.2-9.8 33.3 33.3 0 01-18.8 1.3 20.9 20.9 0 0114.4-6.5 15 15 0 01-8.3-6.7 23 23 0 0114.8 3.5 15 15 0 015.4-10.1 11.6 11.6 0 011.6 1.8 5 5 0 00-2.6 2.7 26.4 26.4 0 00-2.6 8.2 16 16 0 00-5-1.1 1.8 1.8 0 00-1 0z" class="aw"/><path d="M441.8 719.5a26.4 26.4 0 11-3.3-13 26.4 26.4 0 013.3 13z" class="q"/><path d="M433.7 738.6a26.4 26.4 0 114.8-32 22 22 0 01-17.3-2.8 9 9 0 01-7 7.5 12.1 12.1 0 01-4.4-5.8c-1.8-4.3-13.5 1.7-10.8 19.6a21.5 21.5 0 0034.7 13.5z" class="r"/><path d="M423.3 695.5c9.5 4.3 11 9.9 11 9.9-11 .6-14.5-4.4-14.5-4.4a9.4 9.4 0 01-1.2 5 7.7 7.7 0 01-4.8 3.4 11.3 11.3 0 01-2.2-9.8 33.4 33.4 0 01-18.8 1.3 20.9 20.9 0 0114.4-6.5 15 15 0 01-8.2-6.6 23 23 0 0114.9 3.4 15 15 0 015.3-10 12 12 0 011.6 1.7 7.8 7.8 0 011 7.7 20.6 20.6 0 0115.3-1.1 17.9 17.9 0 01-13.8 6z" class="l"/><path d="M409.6 692.8c-.7.5-.5 1.7.2 2.2a3.7 3.7 0 002.5.3 12.8 12.8 0 00-6.5 3 15.2 15.2 0 008.1-1.5 16.7 16.7 0 000 9.1 2.8 2.8 0 00.8 1.5c.9.6 2 0 2.9-.6l1-.8a7.7 7.7 0 01-4.7 3.4 11.3 11.3 0 01-2.2-9.8 33.3 33.3 0 01-18.8 1.3 20.9 20.9 0 0114.4-6.5 15 15 0 01-8.3-6.6 23 23 0 0114.9 3.4 15 15 0 015.3-10 11.6 11.6 0 011.6 1.7 5 5 0 00-2.6 2.7 26.4 26.4 0 00-2.5 8.2 16.4 16.4 0 00-5-1.1 1.8 1.8 0 00-1 .1z" class="aw"/><path d="M493.1 719.5a26.4 26.4 0 11-3.3-13 26.4 26.4 0 013.3 13z" class="q"/><path d="M485 738.6a26.4 26.4 0 11.8-37.4 26.1 26.1 0 014 5.4 22 22 0 01-17.4-2.8 9 9 0 01-7 7.5 12.1 12.1 0 01-4.3-5.8c-1.8-4.3-13.6 1.7-10.8 19.6a21.5 21.5 0 0034.7 13.5z" class="r"/><path d="M474.6 695.5c9.4 4.3 11 9.9 11 9.9-11 .6-14.5-4.4-14.5-4.4a9.5 9.5 0 01-1.3 5 7.7 7.7 0 01-4.7 3.4 11.2 11.2 0 01-2.2-9.8 33.4 33.4 0 01-18.8 1.3 20.8 20.8 0 0114.4-6.5 15 15 0 01-8.3-6.6 23 23 0 0115 3.4 14.8 14.8 0 015.3-10 12.5 12.5 0 011.5 1.7 7.8 7.8 0 011 7.7 20.6 20.6 0 0115.4-1.1 17.9 17.9 0 01-13.8 6z" class="l"/><path d="M460.9 692.8c-.8.5-.5 1.7.2 2.2a3.7 3.7 0 002.5.3 12.8 12.8 0 00-6.6 3 15.2 15.2 0 008.2-1.5 16.7 16.7 0 000 9.1 2.8 2.8 0 00.8 1.5c.8.6 2 0 2.9-.6l1-.8a7.8 7.8 0 01-4.8 3.4 11.3 11.3 0 01-2.2-9.8A33.3 33.3 0 01444 701a20.9 20.9 0 0114.4-6.5 15 15 0 01-8.3-6.6 23 23 0 0115 3.4 14.9 14.9 0 015.2-10 12 12 0 011.6 1.7 5 5 0 00-2.5 2.7 25.9 25.9 0 00-2.6 8.2 16.4 16.4 0 00-5-1.1 1.9 1.9 0 00-1 .1z" class="aw"/><path d="M544.4 719.5a26.4 26.4 0 11-3.4-13 26.4 26.4 0 013.4 13z" class="q"/><path d="M536.2 738.6a26.4 26.4 0 11.9-37.4 26.1 26.1 0 013.9 5.4 22 22 0 01-17.3-2.8 9 9 0 01-7 7.5 12.1 12.1 0 01-4.4-5.8c-1.7-4.3-13.5 1.7-10.8 19.6a21.5 21.5 0 0034.7 13.5z" class="r"/><path d="M525.8 695.5c9.5 4.3 11 9.9 11 9.9-11 .6-14.5-4.4-14.5-4.4a9.3 9.3 0 01-1.2 5 7.7 7.7 0 01-4.7 3.4 11.3 11.3 0 01-2.2-9.8 33.4 33.4 0 01-18.8 1.3 20.9 20.9 0 0114.4-6.5 15 15 0 01-8.3-6.6 23 23 0 0114.9 3.4 14.9 14.9 0 015.3-10 12 12 0 011.6 1.7 7.8 7.8 0 011 7.7 20.6 20.6 0 0115.3-1.1 17.9 17.9 0 01-13.8 6z" class="l"/><path d="M512.1 692.8c-.7.5-.5 1.7.2 2.2a3.7 3.7 0 002.6.3 12.8 12.8 0 00-6.6 3 15.2 15.2 0 008.1-1.5 16.7 16.7 0 000 9.1 2.8 2.8 0 00.8 1.5c.9.6 2 0 3-.6.2-.3.5-.6 1-.8a7.7 7.7 0 01-4.8 3.4 11.3 11.3 0 01-2.2-9.8 33.3 33.3 0 01-18.8 1.3 20.9 20.9 0 0114.4-6.5 15 15 0 01-8.3-6.6 23 23 0 0115 3.4 15 15 0 015.2-10 11.6 11.6 0 011.6 1.7 5 5 0 00-2.5 2.7 26.1 26.1 0 00-2.6 8.2 16.4 16.4 0 00-5-1.1 1.8 1.8 0 00-1 .1z" class="aw"/><path d="M595.6 719.5a26.4 26.4 0 11-3.3-13 26.4 26.4 0 013.3 13z" class="q"/><path d="M587.4 738.6a26.4 26.4 0 114.8-32 22 22 0 01-17.3-2.8 9 9 0 01-7 7.5 12.1 12.1 0 01-4.3-5.8c-1.8-4.3-13.6 1.7-10.8 19.6a21.5 21.5 0 0034.7 13.5z" class="r"/><path d="M577 695.5c9.5 4.3 11 9.9 11 9.9-11 .6-14.4-4.4-14.4-4.4a9.4 9.4 0 01-1.3 5 7.7 7.7 0 01-4.7 3.4 11.2 11.2 0 01-2.2-9.8 33.4 33.4 0 01-18.8 1.3 20.8 20.8 0 0114.4-6.5 15 15 0 01-8.3-6.7 23 23 0 0115 3.5 14.8 14.8 0 015.3-10 13.2 13.2 0 011.6 1.7 7.8 7.8 0 011 7.7 20.6 20.6 0 0115.3-1.1 17.9 17.9 0 01-13.8 6z" class="l"/><path d="M563.4 692.8c-.7.5-.5 1.7.2 2.2a3.7 3.7 0 002.5.3 12.8 12.8 0 00-6.5 3 15.1 15.1 0 008-1.5 16.7 16.7 0 000 9.1 2.8 2.8 0 00.9 1.5c.8.6 2 0 2.9-.6l1-.8a7.7 7.7 0 01-4.7 3.4 11.3 11.3 0 01-2.3-9.8 33.3 33.3 0 01-18.8 1.3 20.8 20.8 0 0114.4-6.5 15 15 0 01-8.3-6.6 23 23 0 0115 3.4 14.9 14.9 0 015.3-10 12.7 12.7 0 011.6 1.7 5 5 0 00-2.6 2.7 26.1 26.1 0 00-2.6 8.2 16.4 16.4 0 00-5-1.1 1.9 1.9 0 00-1 .1z" class="aw"/></g><path d="M1081.3 732.6l-7.5 103-.3 4.6h-215V732.6z" class="v"/><g class="ax"><path d="M858.5 767.5h220.2M858.8 806.6h217.1" class="at"/></g><path d="M1073.8 835.6l-.3 4.6h-215V732.6h19.1l9.2 101z" class="w"/><circle cx="874.1" cy="749.3" r="4.3" class="au"/><path d="M878.5 786.9a4.3 4.3 0 11-4.4-4.4 4.3 4.3 0 014.4 4.4z" class="au"/><circle cx="874.5" cy="824.3" r="4.3" class="au"/><path d="M1067.7 749.3a4.3 4.3 0 11-4.3-4.4 4.3 4.3 0 014.3 4.3zM1067.7 786.9a4.3 4.3 0 11-4.3-4.4 4.3 4.3 0 014.3 4.4z" class="au"/><circle cx="1059.9" cy="824.3" r="4.3" class="au"/><path d="M1081.2 732.6L994.4 603h-183l47 129.5z" class="v"/><path d="M1071.3 727.2l-79.9-118.7H819l43.5 118.6z" class="ar"/><g clip-path="url(#b)"><path d="M1005.4 673.6a93.3 93.3 0 01-12.4 47.1c-12.2 20.9-32.2 34.5-54.8 34.5-37.1 0-67.2-36.6-67.2-81.6s30.1-81.6 67.2-81.6l2.7.1c35.8 1.8 64.5 37.6 64.5 81.5z" class="l"/><path d="M938.2 592s-54.7 23.6-54.7 83.2 47.2 80.5 54.7 80a96.2 96.2 0 01-41.1-80 105.6 105.6 0 0141-83.1z" class="az"/><path d="M938.2 755.2s-29.5-73.8 0-163.1a736.6 736.6 0 010 163z" class="az"/><path d="M938.2 592s37.7 26.6 37.7 81.6-37.7 81.6-37.7 81.6 51.4-30.2 51.4-81.6c0-59.4-51.4-81.5-51.4-81.5z" class="az"/><path d="M993 720.8c-12.1 20.8-32.2 34.4-54.8 34.4-37 0-67.2-36.5-67.2-81.6s30.1-81.5 67.2-81.5h2.7c-13.4 1.4-36.4 11.4-48 62.6-17 74.8 58 110.6 100.1 66z" class="u"/><path d="M1044.2 705a93.4 93.4 0 01-12.3 47.1c-12.2 20.8-32.2 34.4-54.8 34.4-37.1 0-67.2-36.5-67.2-81.5s30-81.6 67.2-81.6h2.6c35.9 1.9 64.5 37.6 64.5 81.6z" class="l"/><path d="M977 623.4s-54.7 23.6-54.7 83.2 47.3 80.5 54.7 80a96.2 96.2 0 01-41.1-80 105.6 105.6 0 0141.1-83.2z" class="az"/><path d="M977 786.5s-29.4-73.8 0-163a737.8 737.8 0 010 163z" class="az"/><path d="M977 623.4s37.7 26.5 37.7 81.6-37.7 81.5-37.7 81.5 51.4-30.1 51.4-81.5c0-59.4-51.4-81.6-51.4-81.6z" class="az"/><path d="M1031.8 752.1c-12.1 20.9-32.1 34.5-54.8 34.5-37 0-67.2-36.6-67.2-81.6s30.1-81.6 67.2-81.6l2.7.1c-13.4 1.3-36.4 11.4-48 62.6-17 74.7 58 110.5 100.1 66z" class="u"/><path d="M972.6 694a93.4 93.4 0 01-12.3 47.2C948 762 928 775.6 905.5 775.6c-37.1 0-67.2-36.5-67.2-81.5s30-81.6 67.2-81.6h2.6c35.9 1.8 64.5 37.6 64.5 81.6z" class="l"/><path d="M905.4 612.5s-54.7 23.5-54.7 83.2 47.3 80.4 54.7 80a96.2 96.2 0 01-41.1-80 105.6 105.6 0 0141.1-83.2z" class="az"/><path d="M905.4 775.6s-29.4-73.8 0-163a737.8 737.8 0 010 163z" class="az"/><path d="M905.4 612.5s37.7 26.5 37.7 81.6-37.7 81.5-37.7 81.5 51.4-30.1 51.4-81.5c0-59.4-51.4-81.6-51.4-81.6z" class="az"/><path d="M960.2 741.2c-12.1 20.8-32.1 34.4-54.8 34.4-37 0-67.1-36.5-67.1-81.5s30-81.6 67.1-81.6l2.7.1c-13.4 1.3-36.4 11.4-48.1 62.6-17 74.7 58.2 110.5 100.2 66z" class="u"/><path d="M998 745a93.4 93.4 0 01-12.4 47c-12.1 20.8-32.1 34.4-54.8 34.4-37 0-67.2-36.5-67.2-81.5s30.1-81.6 67.2-81.6h2.7c35.8 1.9 64.4 37.7 64.4 81.6z" class="l"/><path d="M930.8 663.4S876 686.9 876 746.5s47.2 80.5 54.7 80a96.2 96.2 0 01-41.2-80 105.6 105.6 0 0141.2-83.1z" class="az"/><path d="M930.8 826.5s-29.5-73.8 0-163.1a737.7 737.7 0 010 163z" class="az"/><path d="M930.8 663.4s37.7 26.5 37.7 81.5-37.7 81.6-37.7 81.6 51.4-30.2 51.4-81.6c0-59.4-51.4-81.5-51.4-81.5z" class="az"/><path d="M985.6 792c-12.2 20.8-32.2 34.4-54.8 34.4-37.1 0-67.2-36.5-67.2-81.5s30-81.6 67.2-81.6l2.7.1c-13.5 1.3-36.5 11.4-48.1 62.6-17 74.8 58.1 110.6 100.2 66z" class="u"/></g><path d="M595.6 732.6h263.2v107.6H595.6zM595.6 732.6h263.2L812.2 603H638.8z" class="v"/><path d="M603.2 727l39.5-118.5h165.6L851 727.1z" class="ar"/><g class="ax"><path d="M595.6 762.7h262.9M595.6 803.2h262.9" class="at"/></g><path d="M858.8 833.3v6.9H595.6V732.6h22.1l4.1 98.2z" class="w"/><path d="M615.7 749.3a4.3 4.3 0 11-4.3-4.4 4.3 4.3 0 014.3 4.3zM615.7 784.9a4.3 4.3 0 11-4.3-4.4 4.3 4.3 0 014.3 4.3zM616.1 824.3a4.3 4.3 0 11-4.3-4.3 4.3 4.3 0 014.3 4.3zM847.6 749.3a4.3 4.3 0 11-4.4-4.4 4.3 4.3 0 014.4 4.3zM847.6 784.9a4.3 4.3 0 11-4.4-4.4 4.3 4.3 0 014.4 4.4zM848 824.3a4.3 4.3 0 11-4.3-4.3 4.3 4.3 0 014.3 4.3z" class="au"/><g clip-path="url(#c)"><path d="M787 624a25.4 25.4 0 01-3.5 12.7 25.7 25.7 0 11-27.8-37.9 1.8 1.8 0 01.3 0 24.7 24.7 0 015.3-.6 25.7 25.7 0 0125.6 25.7z" class="aa"/><path d="M783.5 636.8a25.7 25.7 0 11-27.9-38c-2.4.8-17.7 6.4-10.9 27.5 7 21.5 30.8 21 38.8 10.5z" class="ab"/><path d="M774 610.4c-.8 1.3-3.7 1-6.6-.7s-4.6-4.1-3.9-5.4 3.7-1 6.6.7 4.6 4 3.9 5.4z" class="ac"/><path d="M694 628.9a25.4 25.4 0 01-3.4 12.8 25.7 25.7 0 11-27.9-38 2.3 2.3 0 01.3 0 25.8 25.8 0 0130.5 20 26.5 26.5 0 01.5 5.1z" class="aa"/><path d="M690.5 641.7a25.7 25.7 0 11-27.8-38c-2.5.8-17.8 6.4-11 27.5 7 21.5 30.8 21 38.8 10.5z" class="ab"/><path d="M681 615.3c-.8 1.3-3.7 1-6.6-.7s-4.6-4-3.9-5.3 3.7-1 6.6.7 4.6 4 3.9 5.3z" class="ac"/><path d="M747.8 624.4a25.3 25.3 0 01-3.4 12.8 25.7 25.7 0 11-27.9-38 1.7 1.7 0 01.4 0 25.7 25.7 0 0130.4 20 25.4 25.4 0 01.6 5.2z" class="aa"/><path d="M744.4 637.2a25.7 25.7 0 11-27.9-37.9c-2.4.8-17.7 6.4-10.9 27.5 7 21.4 30.8 21 38.8 10.4z" class="ab"/><path d="M734.9 610.8c-.8 1.3-3.7 1-6.6-.7s-4.6-4-3.9-5.3 3.7-1 6.6.7 4.6 4 3.9 5.3z" class="ac"/><path d="M813.3 646.7a25.4 25.4 0 01-3.4 12.8 25.7 25.7 0 11-27.9-38 2.6 2.6 0 01.3 0 25.7 25.7 0 0131 25.2z" class="aa"/><path d="M809.9 659.5a25.7 25.7 0 11-27.9-38c-2.4.8-17.7 6.4-11 27.6 7 21.4 30.9 21 38.9 10.4z" class="ab"/><path d="M800.4 633.1c-.8 1.3-3.7 1-6.6-.7s-4.6-4-4-5.3 3.8-1 6.7.7 4.6 4 3.9 5.3z" class="ac"/><path d="M684.5 654.6a25.4 25.4 0 01-3.5 12.8 25.7 25.7 0 11-27.9-38 2.6 2.6 0 01.4 0 25.8 25.8 0 0130.4 20 25.1 25.1 0 01.6 5.2z" class="aa"/><path d="M681 667.4a25.7 25.7 0 11-27.9-38c-2.4.8-17.7 6.4-10.9 27.5 7 21.5 30.8 21.1 38.8 10.5z" class="ab"/><path d="M671.5 641c-.8 1.3-3.7 1-6.6-.7s-4.6-4-3.9-5.3 3.7-1 6.6.7 4.6 4 3.9 5.3z" class="ac"/><path d="M731 644.6a25.3 25.3 0 01-3.5 12.8 25.7 25.7 0 11-27.9-38h.4a25.7 25.7 0 0130.4 20 25.3 25.3 0 01.6 5.2z" class="aa"/><path d="M727.5 657.4a25.7 25.7 0 11-27.9-37.9c-2.4.8-17.7 6.3-10.9 27.5 7 21.4 30.8 21 38.8 10.4z" class="ab"/><path d="M718 631c-.7 1.3-3.7 1-6.6-.7s-4.6-4-3.9-5.3 3.7-1 6.6.7 4.6 4 3.9 5.3z" class="ac"/><path d="M773.5 644.6a25.2 25.2 0 01-3.4 12.8 25.7 25.7 0 11-27.9-38h.4a25.7 25.7 0 0130.4 20 25.3 25.3 0 01.6 5.2z" class="aa"/><path d="M770 657.4a25.7 25.7 0 11-27.8-37.9c-2.4.8-17.7 6.3-10.9 27.5 7 21.4 30.8 21 38.8 10.4z" class="ab"/><path d="M760.6 631c-.8 1.3-3.7 1-6.6-.7s-4.6-4-3.9-5.3 3.7-1 6.6.7 4.6 4 3.9 5.3z" class="ac"/><path d="M828.6 678.1a25.3 25.3 0 01-3.4 12.9 25.7 25.7 0 11-27.8-38h.3a24.6 24.6 0 015.3-.5 25.7 25.7 0 0125.6 25.6z" class="aa"/><path d="M825.2 691a25.7 25.7 0 11-27.9-38c-2.4.8-17.7 6.4-10.9 27.6 7 21.4 30.8 21 38.8 10.4z" class="ab"/><path d="M815.7 664.6c-.8 1.3-3.7 1-6.6-.7s-4.6-4-3.9-5.4 3.7-1 6.6.7 4.6 4.1 3.9 5.4z" class="ac"/><path d="M683 673a25.2 25.2 0 01-3.4 12.8 25.7 25.7 0 11-27.9-38h.3a25.7 25.7 0 0131 25.2z" class="aa"/><path d="M679.5 685.9a25.7 25.7 0 11-27.8-38c-2.5.8-17.8 6.4-11 27.5 7 21.5 30.8 21 38.8 10.5z" class="ab"/><path d="M670 659.5c-.7 1.3-3.7 1-6.6-.7s-4.6-4-3.9-5.4 3.7-1 6.6.7 4.7 4 3.9 5.4z" class="ac"/><path d="M733.7 673.3a25.3 25.3 0 01-3.4 12.9 25.7 25.7 0 11-27.9-38h.3a25.8 25.8 0 0130.5 20 25.3 25.3 0 01.5 5.2z" class="aa"/><path d="M730.3 686.2a25.7 25.7 0 11-27.9-38c-2.4.8-17.7 6.4-11 27.5 7 21.5 30.8 21 38.9 10.5z" class="ab"/><path d="M720.7 659.8c-.7 1.3-3.7 1-6.5-.7s-4.7-4-4-5.4 3.7-1 6.6.7 4.7 4.1 4 5.4z" class="ac"/><path d="M782.9 678.1a25.4 25.4 0 01-3.4 12.9 25.7 25.7 0 11-27.9-38h.3a24.7 24.7 0 015.3-.5A25.7 25.7 0 01783 678z" class="aa"/><path d="M779.4 691a25.7 25.7 0 11-27.8-38c-2.5.8-17.8 6.4-11 27.6 7 21.4 30.8 21 38.8 10.4z" class="ab"/><path d="M770 664.6c-.8 1.3-3.8 1-6.7-.7s-4.6-4-3.8-5.4 3.6-1 6.5.7 4.6 4.1 4 5.4z" class="ac"/><path d="M836.5 713.3a25.4 25.4 0 01-3.4 12.8 25.7 25.7 0 11-27.9-37.9 2.3 2.3 0 01.3 0 25.8 25.8 0 0130.5 20 25 25 0 01.5 5z" class="aa"/><path d="M833 726.1a25.7 25.7 0 11-27.8-38c-2.5.8-17.7 6.4-11 27.6 7 21.4 30.8 21 38.8 10.4z" class="ab"/><path d="M823.5 699.7c-.7 1.3-3.7 1-6.5-.7s-4.7-4-4-5.3 3.7-1 6.6.7 4.7 4 4 5.3z" class="ac"/><path d="M666 713.3a25.3 25.3 0 01-3.3 12.8 25.7 25.7 0 11-27.9-38 2.3 2.3 0 01.3 0 25.7 25.7 0 0131 25.2z" class="aa"/><path d="M662.6 726.1a25.7 25.7 0 11-27.8-38c-2.5.8-17.7 6.4-11 27.6 7 21.4 30.8 21 38.8 10.4z" class="ab"/><path d="M653.1 699.7c-.7 1.3-3.7 1-6.6-.7s-4.6-4-3.8-5.3 3.6-1 6.5.7 4.6 4 4 5.3z" class="ac"/><path d="M708.7 713.3a25.4 25.4 0 01-3.4 12.8 25.7 25.7 0 11-27.9-38 2.3 2.3 0 01.3 0 25.8 25.8 0 0130.5 20 25 25 0 01.5 5.2z" class="aa"/><path d="M705.2 726.1a25.7 25.7 0 11-27.8-38c-2.5.8-17.7 6.4-11 27.6 7 21.4 30.8 21 38.8 10.4z" class="ab"/><path d="M695.7 699.7c-.7 1.3-3.7 1-6.6-.7s-4.6-4-3.8-5.3 3.6-1 6.5.7 4.7 4 4 5.3z" class="ac"/><path d="M751.3 713.3a25.3 25.3 0 01-3.4 12.8 25.7 25.7 0 11-27.9-37.9 2.6 2.6 0 01.3 0 25.8 25.8 0 0130.5 20 26.5 26.5 0 01.5 5z" class="aa"/><path d="M747.8 726.1a25.7 25.7 0 11-27.8-38c-2.4.8-17.7 6.4-11 27.5 7 21.5 30.8 21 38.8 10.5z" class="ab"/><path d="M738.3 699.7c-.7 1.3-3.6 1-6.5-.7s-4.7-4-4-5.3 3.7-1 6.6.7 4.7 4 4 5.3z" class="ac"/><path d="M794 713.3a25.4 25.4 0 01-3.5 12.8 25.7 25.7 0 11-27.9-38 2.6 2.6 0 01.3 0 25.8 25.8 0 0130.5 20 26.5 26.5 0 01.5 5.2z" class="aa"/><path d="M790.4 726.1a25.7 25.7 0 11-27.8-38c-2.5.8-17.7 6.4-11 27.6 7 21.4 30.8 21 38.8 10.4z" class="ab"/><path d="M781 699.7c-.8 1.3-3.8 1-6.6-.7s-4.7-4-4-5.3 3.7-1 6.6.7 4.7 4 4 5.3z" class="ac"/></g><path d="M326.3 840.2h770.4v266.6H326.3z" class="e"/><g opacity=".5"><path d="M326.3 930l770.3-6.9M326.3 1023.9h767.9" class="bc"/></g><path d="M1096.6 1089.7v17.1H326.3V840.2h18.4l1.8 249.5z" style="isolation:isolate" fill="#3b2727" opacity=".3"/><g class="n"><path d="M607.9 866.7a576.1 576.1 0 00-185.2-2.2c-11.9 1.9-24.7 4.6-32.2 13.6a11.5 11.5 0 00-3 10.6c1.8 5.2 8.5 7 14.2 8 54.5 8.5 110.1 8.1 165.4 7.7a61 61 0 0019.8-2.3 19.4 19.4 0 0013.3-13.4c-36-10.9-74.4-11.2-112.2-11.4-14.6 0-30.4.2-42 8.7a508.6 508.6 0 0091.2 10.1M751 880a1398 1398 0 00254.4 2.2 38.1 38.1 0 0019.2-5.2c5.4-3.8 8-12 3.7-16.8-3.3-3.8-9-4.3-14.2-4.4-61.3-2.2-122.6-3-184-2.8-58 .1-118 1.6-171 24.6a15.7 15.7 0 00-8 5.9 10.4 10.4 0 004.7 12.9 33.4 33.4 0 0015 4 2292.6 2292.6 0 00278 11.6c32-.6 65.5-2.3 93-18M515.6 981.7A482 482 0 00638.4 964c6.3-1.8 13.3-4.3 16-10a441.7 441.7 0 00-190.3 8.5c-26 7-51.9 16.8-72.3 33.7l163.5 5c24.3.7 48.6 1.5 72.9.1a417.7 417.7 0 0073-10.6 59.7 59.7 0 0024.3-10c16.2-13.2 14.1-38.5 3.8-56.3M384 1103.1a568.5 568.5 0 01236.1-64.9c33.1-1.7 67-.4 98.4 9.6s60.6 29.4 76.3 57.3" class="bc"/><path d="M473.6 1108c3.4-11.5 15.9-18.1 27.6-22.2 52.5-18.4 110.4-11.3 165.7-3.9 12.5 1.6 25.2 3.4 36.4 8.7a58 58 0 0121.5 17.6" class="bc"/><path d="M545.8 1105.5c14.3-10.9 34.2-11.6 52.5-11.2 14.2.3 30.3 1.9 39.2 12.5M826.6 1053.2c32.7-6.5 66.5-6.2 100-5.8l60.4.7c13.6.1 28.9 1 38 10.5 3.8 4 5.9 10.4 2.2 14.4a15 15 0 01-6.9 3.6c-58.9 18-121.5 21-183.3 22.6-7 .2-15.9-.7-18.4-7-2-5 1.7-10.6 6.6-13a36.1 36.1 0 0116.2-2.5l136.2-.1M1096.6 935.5S870 927.2 864.2 960s232.4 42.1 232.4 42.1" class="bc"/><path d="M1096.6 950.5s-181.8-.3-181.2 12.9 181.2 15.6 181.2 15.6M326.3 1087.6s200.8-45.2 81.7-65.8M326.3 1057.9s128.1-19.6 33.2-36.1M729.4 1023.2s27.1-50 76.7-49.7 76.8 37.4 161.4 51" class="bc"/><path d="M761.4 1023.2s15.3-33 49.7-27.4 53.9 23.3 78.6 28.8" class="bc"/></g><path d="M346.6 886.8a5.8 5.8 0 11-6-5.5h.2a5.6 5.6 0 015.8 5.5zM346.6 979a5.8 5.8 0 11-6-5.5h.2a5.6 5.6 0 015.8 5.5zM346.6 1063.4a5.8 5.8 0 11-6-5.5h.2a5.6 5.6 0 015.8 5.5z" class="be"/><ellipse cx="1077.9" cy="886.8" class="be" rx="5.7" ry="5.5"/><ellipse cx="1077.9" cy="979" class="be" rx="5.7" ry="5.5"/><ellipse cx="1077.9" cy="1063.4" class="be" rx="5.7" ry="5.5"/><path d="M1135 1138s5.2 45.2 0 43.9-23-9.6-41.3 0-18.3 21.9 3 21.9 63.8 1.9 69.2-5.5 7-60.3 7-60.3zM1233.8 1155.5s5.2 45.2 0 43.8-23.1-9.5-41.4 0-18.3 22 3 22 63.8 1.8 69.3-5.6 6.8-60.3 6.8-60.3z" class="be"/><path fill="#8b9096" d="M1212 1151.1c-3.2.9-6.5 1.6-9.8 2.2-43.6 7.7-95.3-7.7-95.3-7.7 4.3-127 21.4-283.2 28.8-346.3l3.4-28.3a166 166 0 0057.6 19c6.3.9 10.2 1.1 10.2 1.1v21.4c.1 101.2 5.1 338.6 5.1 338.6z"/><path d="M1309.8 1165.5a183.4 183.4 0 01-30.3 4.7 306.9 306.9 0 01-77.3-4.7v-12.2a34097.1 34097.1 0 00-5.5-363.3v-.8c41.2 5.9 86.8-2.8 86.8-2.8 10.5 91.8 26.3 379.1 26.3 379.1z" class="ae"/><path d="M1309.8 1165.5a183.4 183.4 0 01-30.3 4.7c-1.8-70.8-6.5-233-12.9-287.5-8-68.6-15.6-70-59.8-70.2h-9.7a173.2 173.2 0 01-61.4-13.2c2-18 3.4-28.3 3.4-28.3a166 166 0 0057.6 19v-.8c41 5.8 86.7-2.9 86.7-2.9 10.6 91.9 26.4 379.2 26.4 379.2z" class="af"/><path d="M1331 557.1c-16.4 21.5-39.3 2.8-39.3 2.8a18.7 18.7 0 01-13.6 20.5c-16 4.6-23.9-11.4-23.9-11.4s-.9 18.7-25.5 22.4a31.4 31.4 0 01-5.5.3c-20.8-.4-29.7-21.4-29.7-21.4a25.6 25.6 0 01-28 17c-21.4-2.8-20.5-23.8-21.8-23.3s-21.5 15-35.2 1.3.4-32.4.4-32.4-30.8-6.4-21.4-30.6c11.4-29.7 40.6-11 40.6-11s-6.8-49 30.3-98.5c19-25.6 50.9-34.2 82.1-31.8h.2c38 3 75.4 22.1 88.5 46.7 23.7 44.8-23.3 109.2-23.3 109.2 15.5 2.3 41.6 18.8 25.1 40.2z" class="bg"/><path d="M1331 557.1c-16.4 21.5-39.3 2.8-39.3 2.8a18.7 18.7 0 01-13.6 20.5c-16 4.6-23.9-11.4-23.9-11.4s-.9 18.8-25.6 22.4a31.5 31.5 0 01-5.4.3 24.2 24.2 0 0012.5-28c9.6-1 17.5-14.1 17.5-14.1s8.7 22 20 16 4.8-21.6 4.8-21.6 15.2 7.7 23.5-2.6-13-26.7-13-26.7 26.7-42.6 15.7-94c-10.6-49.7-60.4-59.1-63.5-59.6 38 2.9 75.4 22 88.4 46.6 23.8 44.8-23.3 109.2-23.3 109.2 15.6 2.3 41.7 18.8 25.2 40.2z" style="isolation:isolate" fill="#3f3122" opacity=".1"/><path d="M1009 659.2a31.8 31.8 0 01-1.3 9.3 31.4 31.4 0 111.4-9.3z" class="aa"/><path d="M984.4 638.5c3.8-4 16 9 10.6 12.4s-13.6-9.4-10.6-12.4z" class="ac"/><path d="M1007.7 668.5a31.4 31.4 0 11-43.5-37.6 24 24 0 00-5.9 18.4 31.9 31.9 0 006.5 14.5c4.9 6.7 11.8 12.7 20 13.6s16.2-3.4 22.9-9z" class="ab"/><path d="M1157 652.8c-18.5 47.3-64.5 113.4-93.6 104.7s-68.9-46.2-72.3-50.3-22.6-4-35.7-17.1a45.1 45.1 0 01-11.2-16.5 21.5 21.5 0 011-17.6c4.7-9.4 9-2 9 8.5s2.6 19.4 5.1 19.3-2.5-25.3 3.7-30 8.2 0 6.9 17.1 2.7 23.3 4 16 .6-19.2 7-20.7 2.6 12.3 2.7 19 1.6 5.8 9.8 1.7 6-20.8 12-20.7 6.3 21.8 8.3 23.9a133.9 133.9 0 0043.2 19c17.8 3.2 29.4-4.4 37-17 9.1-15 18-32 23.9-43.5l7-14.1a118.5 118.5 0 0032.1 18.3z" class="bi"/><path d="M1157 652.8c-18.5 47.3-64.5 113.4-93.6 104.7s-68.9-46.2-72.3-50.3-22.6-4-35.7-17.1a45.1 45.1 0 01-11.2-16.5c14.3 19.4 39.6 25.5 47.5 28.4 8.2 3 71.7 51.6 96 36.1s58.3-74 48-78.8a152.5 152.5 0 01-17.9-10.6l7-14.1a118.7 118.7 0 0032.1 18.2z" class="bj"/><path d="M1161 573.4s-29.4 18.7-47.2 65.3a117.7 117.7 0 0041.2 20.5s-8.6-44.8 6-85.8z" class="bk"/><path d="M1269.3 688.7s14.7 64.4 20.1 112.9a353.7 353.7 0 01-39.6 4c-35.2 1.8-87.6 0-131.2-19.6 0 0 11.6-59 36.4-102.8 0 0-20-56.6 4.7-108.7 0 0 3.8-4.7 19.7-6.9a192.2 192.2 0 0147 1c56.7 6.8 64.2 10.6 68.1 29.7 6 29.2-25.2 90.4-25.2 90.4z" class="t"/><path d="M1269.3 688.7s14.7 64.4 20.1 112.9a353.7 353.7 0 01-39.6 4c-4.5-41.5-14.8-86.2-12.9-110.7 2.5-31.5 1-60.3-2.5-76.8s-9-13.7-33-19.8c-16-4.1-20.8-20.3-22-30.7a191.6 191.6 0 0147 1c56.6 6.8 64.2 10.6 68 29.7 6 29.2-25 90.4-25 90.4z" class="bl"/><path d="M1183 566.7a11.3 11.3 0 017.3-1l64.7 5a20.1 20.1 0 019.2 1.8s-5.8 22.6-34.3 25.4-48.3-9.9-46.9-31.2z" class="ag"/><path d="M1384.3 1037.6s-62.6 21.7-242.7 0a259.6 259.6 0 01-.3-35.4c.4-7.2 1-15.2 2.2-23.7a268.8 268.8 0 017-35.4 217 217 0 016.4-20A195.2 195.2 0 011168 898h189a372.7 372.7 0 0014 45.2 466.3 466.3 0 0111 59.1 307.3 307.3 0 012.2 35.3z" class="bm"/><path fill="#8d443b" d="M1209.5 898s-3.9-65.8 39.6-65.8S1290 898 1290 898h16.4s4.4-78-57.2-78-58.2 78-58.2 78z"/><path d="M1357 898l-185.4 5.5c-.9 1.2-28 41.3-30 134 0 0-13-12.4-24.8-38.5 0 0 2.4-49 33.8-110.2 0 0 115.1-5.5 180 0a94.8 94.8 0 0126.5 9.2z" class="ar"/><path d="M1171.6 903.5a106.9 106.9 0 00-9.9 19.8 210.5 210.5 0 00-6.9 20.2 294.2 294.2 0 00-8 36q-1.7 10.6-3 23c-1 10.7-1.8 22.4-2 35 0 0-13-12.4-25-38.5a173.7 173.7 0 012.7-20 326.7 326.7 0 0131.2-90.1l17.6 9.1z" class="q"/><path d="M1217.3 910s-4-76 39.6-76 40.8 76 40.8 76h16.4s4.4-90-57.2-90-58.2 90-58.2 90z" class="bm"/><g opacity=".3"><path d="M1371 943.2c-.2-.7-81.8 11-216.3.3l-4.3-.3a82 82 0 01-17.7-13.2 310 310 0 017.9-19.9l.8.7a63.4 63.4 0 0015.5 12.4l4.8.2c24.5 1.1 135.9 5.8 203.8-.2a416 416 0 015.5 20zM1382.1 1002.2c-2.2.3-125.9 15.3-238.4.3-.8 0-1.6-.2-2.3-.3a183.2 183.2 0 01-22-23.2c1-5.7 2.5-12.4 4.4-20a157.6 157.6 0 0019.7 19.5 6.7 6.7 0 00.7.5l2.5.4a813 813 0 00232-.4c1.4 7.5 2.5 15.3 3.4 23.2z" class="ar"/></g><path d="M1384.3 1037.6s-62.6 21.7-242.7 0c170.4 11.7 234.7 7.5 226.4-50a525.8 525.8 0 00-22-89.6h11.1a372.7 372.7 0 0014 45.2 470.9 470.9 0 0111 59.1 305 305 0 012.2 35.3z" style="isolation:isolate" fill="#501f0b" opacity=".2"/><path d="M1325.5 759.5c-8.8 14.8-33.5 57.4-35.4 59.4s1.2 30.2-7 32.2l-6.3 1.5a9.2 9.2 0 01-8.1-1.5c-4.1-2.7-10.3 1.4-13.7-3.4s-5.5-2.7-8.2-5.5-.7-12.3 0-15.7-6.2-8.2-6.2-8.2c11.6-15.1 22.6-13 23.6-15.1s23-51.4 23.7-57.6c.5-4.6-6.8-47.4-10.4-68.2l-2-11.3 36.3-4s19 88.8 13.8 97.4z" class="bi"/><path d="M1325.5 759.5c-8.8 14.8-33.5 57.4-35.4 59.4s1.2 30.2-7 32.2l-6.3 1.5c5-13.6 2.4-33.5 4.9-37.1 3.4-4.9 30.2-54.1 32.5-61.9s-6.5-75.2-16-76a200.4 200.4 0 00-20.7-.2l-2-11.3 36.3-4s19 88.8 13.8 97.4z" class="bj"/><path d="M1323.3 662a68 68 0 01-20 7 244.2 244.2 0 01-42.1 4.6 107.9 107.9 0 011.4-64.5c5.8-15.6 15.6-25.4 27.3-23 28.1 6 33.4 76 33.4 76z" class="bk"/><path d="M1323.3 662a68 68 0 01-20 7c-1.5-23.4-5-55-13.2-64.6-13.5-15.8-27.5 4.7-27.5 4.7 5.8-15.6 15.6-25.4 27.3-23 28.1 6 33.4 76 33.4 76z" class="bl"/><path d="M1255 570.5s-6.8 25-40.3 21.2a31 31 0 01-16.2-5.9 22.6 22.6 0 01-8.1-20 19.7 19.7 0 016.2-1.3c2-.2 4.3-17.8 5.4-27.7l.7-6.6a63.3 63.3 0 0050.3-13.3s-7 29.3-5.5 51.2c3.6 1.3 6.3.8 7.5 2.4z" class="bi"/><path d="M1255 570.5s-6.8 25-40.3 21.2a31 31 0 01-16.2-5.9c11.2 6.7 24.8 5.9 29-6.7s2-38.4-9.5-39.2a69 69 0 01-16-3.1l.7-6.6a63.3 63.3 0 0050.2-13.3s-6.8 29.3-5.5 51.2c3.7 1.3 6.4.8 7.6 2.4z" class="bj"/><path d="M1273.5 476.2c-4.6 43-33.4 62.2-68.9 58-18.4-2.1-35.7-7.7-47.7-18.3-11-9.9-17.5-24-16-43.8 3-39.4 20.6-62.7 22.2-64.7l-.1.1c-1 1.9-5.2 11.5 5.9 9.8a48 48 0 0023.2-13.1c-1.4 1.6-15 17.8 0 20.4 15.6 2.7 40.2-14.5 41.6-15.5-1 1-17.7 19.3-2.7 23.3 15.6 4 34.8-10.1 34.8-10.1-14.7 47 7.7 54 7.7 54z" class="bi"/><path d="M1273.5 476.2c-4.6 43-33.4 62.2-68.9 58-18.4-2.1-35.7-7.7-47.7-18.3 17.8 10.9 47.7 18.3 66.7-6s10.8-68 0-70.7-6.3-17.2-6.3-17.2-18.5 9.6-28.8 8.3-9.6-7.6-9.6-7.6a34.8 34.8 0 01-15.8 0c-7.6-1.8-1.3-13.2-.2-15.2-.9 1.9-5.2 11.4 6 9.7a48 48 0 0023-13c-1.3 1.6-15 17.8.2 20.4 15.6 2.6 40.1-14.5 41.6-15.5-1 1-17.8 19.2-2.7 23.2 15.5 4.1 34.7-10 34.7-10-14.6 47 7.8 54 7.8 54z" class="bj"/><path d="M1273.5 476.2s16.9-10.4 20.5 4.2-15 32.5-31.4 29.2a211.6 211.6 0 0010.9-33.4z" class="bi"/><path d="M1280.8 483.1c4.6 0 1.4 14.2-5 14.6s1.3-14.6 5-14.6z" class="am"/><path d="M1206.2 463.3c-.4 4.5 1.2 8.2 3.6 8.5s4.8-3.2 5.2-7.6-1.1-8.2-3.6-8.4-4.8 3.1-5.2 7.5zM1163.2 458c-.4 4 1 7.4 3.2 7.6s4.3-2.8 4.7-6.7-1-7.4-3.3-7.6-4.3 2.8-4.6 6.8z" class="ao"/><path fill="#9c5437" d="M1179.3 457.2c-4.4-.6-2.6 12.4-2.6 12.4s-9.4-3.7-10 2.8 11.4 10.8 15.2 6 1.9-20.6-2.6-21.2z"/><path d="M1196.6 478.3a23.4 23.4 0 01-24.4 9.3" class="ap"/><path d="M1203.8 480.8c-.4 2.8 4 5.8 10 6.8s11.2-.6 11.6-3.4-4-5.8-10-6.8-11.2.6-11.6 3.4zM1140.5 470.5c-.4 2.6 3.8 5.5 9.5 6.3s10.5-.5 10.9-3.1-3.8-5.5-9.4-6.4-10.5.5-11 3.2z" class="am"/><path d="M1214.5 450.3a45.6 45.6 0 00-9.7-2.6 3.8 3.8 0 01-3.5-4.1v-.2a3.7 3.7 0 014.2-2.9 39.5 39.5 0 0112.1 3.3 3.6 3.6 0 012.2 4v.1a4 4 0 01-5 2.5zM1158.6 441.6a33.1 33.1 0 018.5.2 3.6 3.6 0 004-3v-.1a3.4 3.4 0 00-2.5-4 28.8 28.8 0 00-10.6-.1 3.7 3.7 0 00-3 3.3 3.3 3.3 0 002.8 3.7 2.8 2.8 0 00.8 0z" class="bg"/></svg>
