<?xml version="1.0" encoding="UTF-8" standalone="no"?>
<!-- Created with Inkscape (http://www.inkscape.org/) -->

<svg
   xmlns:dc="http://purl.org/dc/elements/1.1/"
   xmlns:cc="http://creativecommons.org/ns#"
   xmlns:rdf="http://www.w3.org/1999/02/22-rdf-syntax-ns#"
   xmlns:svg="http://www.w3.org/2000/svg"
   xmlns="http://www.w3.org/2000/svg"
   xmlns:sodipodi="http://sodipodi.sourceforge.net/DTD/sodipodi-0.dtd"
   xmlns:inkscape="http://www.inkscape.org/namespaces/inkscape"
   width="317.18863"
   height="319.47247"
   id="svg6259"
   version="1.1"
   inkscape:version="0.48.2 r9819"
   sodipodi:docname="Nouveau document 15">
  <defs
     id="defs3">
    <linearGradient
       id="linearGradient6870">
      <stop
         style="stop-color:#000000;stop-opacity:1;"
         offset="0"
         id="stop6872" />
      <stop
         style="stop-color:#000000;stop-opacity:0;"
         offset="1"
         id="stop6874" />
    </linearGradient>
    <linearGradient
       id="linearGradient6864">
      <stop
         id="stop6866"
         offset="0"
         style="stop-color:#000057;stop-opacity:1;" />
      <stop
         id="stop6868"
         offset="1"
         style="stop-color:#000000;stop-opacity:0;" />
    </linearGradient>
    <filter
       x="-0.13714287"
       y="-0.13714287"
       width="1.2742857"
       height="1.2742857"
       color-interpolation-filters="sRGB"
       id="filter3803-5-5">
      <feGaussianBlur
         id="feGaussianBlur3805-0-1"
         stdDeviation="22.886579" />
    </filter>
    <filter
       inkscape:collect="always"
       id="filter6922">
      <feGaussianBlur
         inkscape:collect="always"
         stdDeviation="7.9505158"
         id="feGaussianBlur6924" />
    </filter>
  </defs>
  <sodipodi:namedview
     id="base"
     pagecolor="#ffffff"
     bordercolor="#666666"
     borderopacity="1.0"
     inkscape:pageopacity="0.0"
     inkscape:pageshadow="2"
     inkscape:zoom="1.3335938"
     inkscape:cx="241.07557"
     inkscape:cy="153.06901"
     inkscape:document-units="mm"
     inkscape:current-layer="layer1"
     showgrid="false"
     units="mm"
     fit-margin-top="0"
     fit-margin-left="0"
     fit-margin-right="0"
     fit-margin-bottom="0"
     inkscape:window-width="1062"
     inkscape:window-height="746"
     inkscape:window-x="1541"
     inkscape:window-y="18"
     inkscape:window-maximized="0" />
  <metadata
     id="metadata6263">
    <rdf:RDF>
      <cc:Work
         rdf:about="">
        <dc:format>image/svg+xml</dc:format>
        <dc:type
           rdf:resource="http://purl.org/dc/dcmitype/StillImage" />
        <dc:title></dc:title>
      </cc:Work>
    </rdf:RDF>
  </metadata>
  <g
     inkscape:label="Layer 1"
     inkscape:groupmode="layer"
     id="layer1"
     transform="translate(17.538392,52.227897)">
    <rect
       style="opacity:1;fill:#000080;fill-opacity:1;fill-rule:evenodd;stroke:none"
       id="rect6888"
       width="393.6731"
       height="345.6825"
       x="-38.242531"
       y="-15.712061"
       transform="translate(-17.538392,-52.227897)" />
    <path
       sodipodi:type="arc"
       style="opacity:0.10373444;fill:#ffffff;fill-opacity:1;fill-rule:evenodd;stroke:none;filter:url(#filter6922)"
       id="path6886"
       sodipodi:cx="29.244287"
       sodipodi:cy="61.522854"
       sodipodi:rx="159.71881"
       sodipodi:ry="164.96777"
       d="m 188.9631,61.522854 a 159.71881,164.96777 0 1 1 -319.43762,0 159.71881,164.96777 0 1 1 319.43762,0 z"
       transform="matrix(0.99270166,0,0,0.95454545,113.23403,48.30029)" />
    <path
       transform="translate(-237.02123,-138.39338)"
       sodipodi:type="arc"
       style="fill:#000080;fill-opacity:1;fill-rule:evenodd;stroke:none"
       id="path5884-4"
       sodipodi:cx="379.46295"
       sodipodi:cy="245.31599"
       sodipodi:rx="153.98495"
       sodipodi:ry="153.98495"
       d="m 533.44791,245.31599 a 153.98495,153.98495 0 1 1 -307.96991,0 153.98495,153.98495 0 1 1 307.96991,0 z" />
    <path
       inkscape:connector-curvature="0"
       style="opacity:0.52282158;fill:none;stroke:#ffffff;stroke-width:31.29999924;stroke-miterlimit:4;stroke-dasharray:none;filter:url(#filter3803-5-5)"
       id="path2985-94-0"
       transform="matrix(0.58557744,0,0,0.58557744,-83.288704,-213.15767)"
       d="m 581.23538,538.28632 a 200.25757,200.25757 0 1 1 -400.51513,0 200.25757,200.25757 0 1 1 400.51513,0 z" />
    <path
       inkscape:connector-curvature="0"
       style="font-size:57.23546219px;font-style:normal;font-variant:normal;font-weight:normal;font-stretch:normal;line-height:125%;letter-spacing:0px;word-spacing:0px;fill:#6565b7;fill-opacity:1;stroke:none;font-family:HP Simplified;-inkscape-font-specification:HP Simplified"
       id="path3006-1-8-8"
       d="m 202.6069,89.226257 c 0.40022,2e-5 0.71842,0.12834 0.95459,0.38494 0.23614,0.25666 0.35421,0.62072 0.35423,1.09215 l 0,3.65944 -25.49999,0.25955 0,27.537903 -4.25076,0 c -0.83597,0 -1.25395,-0.49237 -1.25395,-1.4771 l 0,-26.060803 -1.90752,0 c -0.87144,4e-5 -1.30717,-0.49234 -1.30716,-1.47709 l 0,-3.65944 3.21468,0 0,-4.94261 c 0,-2.90974 0.56322,-5.16719 1.68967,-6.77232 1.12643,-1.60504 3.08828,-2.40758 5.88555,-2.40763 0.58095,5e-5 1.30742,0.0536 2.17943,0.16064 0.87198,0.10711 1.56243,0.28933 2.07134,0.54657 0.39912,0.21293 0.66242,0.48 0.78995,0.80123 0.12748,0.32133 0.19123,0.69615 0.19124,1.12448 l 0,2.82294 c -0.90915,-0.12794 -1.59987,-0.21316 -2.07216,-0.25564 -0.47232,-0.0424 -1.03499,-0.0636 -1.688,-0.0637 -0.79938,4e-5 -1.43523,0.10677 -1.90753,0.32029 -0.47231,0.21358 -0.82654,0.51298 -1.06269,0.89822 -0.23616,0.38531 -0.39055,0.84535 -0.46315,1.38012 -0.0727,0.53485 -0.10895,1.12353 -0.10894,1.76605 l 0,4.62133 z" />
    <path
       inkscape:connector-curvature="0"
       style="font-size:57.23546219px;font-style:normal;font-variant:normal;font-weight:normal;font-stretch:normal;line-height:125%;letter-spacing:0px;word-spacing:0px;fill:#8181d6;fill-opacity:1;stroke:none;font-family:HP Simplified;-inkscape-font-specification:HP Simplified"
       id="path3008-8-9-4"
       d="m 103.55466,90.860667 c 0.40023,2e-5 0.71843,0.12834 0.9546,0.38494 0.23613,0.25666 0.35422,0.62072 0.35423,1.09215 l 0,3.65944 -6.811874,0 0,27.537903 -4.25077,0 c -0.83597,0 -1.25395,-0.49237 -1.25394,-1.4771 l 0,-26.060803 -1.90753,0 c -0.87144,4e-5 -1.30716,-0.49234 -1.30716,-1.47709 l 0,-3.65944 3.21469,0 0,-4.94261 c -1e-5,-2.90974 0.56321,-5.16719 1.68966,-6.77232 1.12643,-1.60504 3.08828,-2.40758 5.885554,-2.40763 0.58095,5e-5 1.30742,0.0536 2.17943,0.16064 0.87198,0.10711 1.56243,0.28933 2.07134,0.54657 0.39912,0.21293 0.66243,0.48 0.78995,0.80123 0.12748,0.32133 0.19124,0.69615 0.19125,1.12448 l 0,2.82294 c -0.90916,-0.12794 -1.59987,-0.21316 -2.07217,-0.25564 -0.47232,-0.0424 -1.03498,-0.0636 -1.68799,-0.0637 -0.79939,4e-5 -1.43524,0.10677 -1.907534,0.32029 -0.47232,0.21358 -0.82655,0.51298 -1.06269,0.89822 -0.23617,0.38531 -0.39055,0.84535 -0.46316,1.38012 -0.0726,0.53485 -0.10894,1.12353 -0.10893,1.76605 l 0,4.62133 z" />
    <path
       inkscape:connector-curvature="0"
       style="font-size:57.23546219px;font-style:normal;font-variant:normal;font-weight:normal;font-stretch:normal;line-height:125%;letter-spacing:0px;word-spacing:0px;fill:#7c7c96;fill-opacity:1;stroke:none;font-family:HP Simplified;-inkscape-font-specification:HP Simplified"
       id="path3010-26-8-9"
       d="m 134.82185,116.66077 -2.55832,0 c -0.53202,0 -0.79803,-0.30021 -0.79802,-0.90062 l 0,-19.021703 2.55934,0 c 0.53133,1e-5 0.797,0.30022 0.797,0.90061 z m -1.66093,-23.052993 c -0.73144,2e-5 -1.2577,-0.16322 -1.5788,-0.48972 -0.3211,-0.32647 -0.48165,-0.8811 -0.48165,-1.66389 0,-0.75646 0.16055,-1.30431 0.48165,-1.64356 0.3211,-0.3392 0.84736,-0.50882 1.5788,-0.50884 0.70844,2e-5 1.22879,0.16964 1.56105,0.50884 0.33225,0.33925 0.49838,0.8871 0.49839,1.64356 -1e-5,0.78279 -0.16614,1.33742 -0.49839,1.66389 -0.33226,0.3265 -0.85261,0.48974 -1.56105,0.48972 z" />
    <path
       inkscape:connector-curvature="0"
       style="font-size:57.23546219px;font-style:normal;font-variant:normal;font-weight:normal;font-stretch:normal;line-height:125%;letter-spacing:0px;word-spacing:0px;fill:#d0d0e4;fill-opacity:1;stroke:none;font-family:HP Simplified;-inkscape-font-specification:HP Simplified"
       id="path3012-6-4-9"
       d="m 79.139096,112.77883 c 1.27167,5e-5 2.5888,0.11791 3.95142,0.35361 1.36258,0.23577 2.42527,0.54563 3.18808,0.92955 0.4357,0.21423 0.73533,0.49273 0.89888,0.83552 0.16351,0.34287 0.24528,0.79247 0.24531,1.34878 l 0,3.01689 c -1.0533,-0.17105 -2.22492,-0.33169 -3.51488,-0.48192 -1.28999,-0.15015 -2.62515,-0.22525 -4.00547,-0.22529 -1.63535,4e-5 -3.01596,0.26745 -4.14183,0.80222 -1.1259,0.53485 -2.0342,1.44416 -2.72492,2.72793 -0.69073,1.28385 -1.18133,3.00647 -1.4718,5.16789 -0.29049,2.16147 -0.43573,4.86818 -0.43572,8.12012 -10e-6,3.59547 0.18182,6.52713 0.54548,8.795 0.36365,2.2679 0.89943,4.0333 1.60735,5.2962 0.70789,1.26293 1.60705,2.12979 2.69747,2.6006 1.09039,0.47082 2.38009,0.70624 3.86909,0.70622 1.52557,2e-5 2.85157,-0.10711 3.97803,-0.32128 1.12643,-0.21417 1.98013,-0.32127 2.56111,-0.32127 0.908,0 1.36202,0.51326 1.36205,1.53978 l 0,3.14618 c -1.0533,0.47017 -2.31556,0.88711 -3.78678,1.25083 -1.47128,0.36374 -3.16981,0.5456 -5.0956,0.5456 -2.39704,0 -4.44952,-0.42772 -6.15746,-1.28316 -1.70797,-0.85544 -3.11575,-2.21402 -4.22334,-4.07574 -1.1076,-1.86171 -1.91584,-4.23701 -2.42473,-7.12591 -0.5089,-2.88889 -0.76334,-6.36614 -0.76334,-10.43178 0,-4.10737 0.25444,-7.61629 0.76334,-10.52676 0.50889,-2.91042 1.31713,-5.28572 2.42473,-7.12593 1.10759,-1.84012 2.53338,-3.17748 4.27738,-4.01206 1.74398,-0.8345 3.86936,-1.25177 6.37615,-1.25182 z" />
    <path
       inkscape:connector-curvature="0"
       style="font-size:57.23546219px;font-style:normal;font-variant:normal;font-weight:normal;font-stretch:normal;line-height:125%;letter-spacing:0px;word-spacing:0px;fill:#6f6f9c;fill-opacity:1;stroke:none;font-family:HP Simplified;-inkscape-font-specification:HP Simplified"
       id="path3014-0-1-2"
       d="m 194.71705,171.6554 c -0.39915,0 -0.7168,-0.12832 -0.95293,-0.38494 -0.23618,-0.25664 -0.35425,-0.62069 -0.35423,-1.09216 l 0,-20.22097 c -2e-5,-2.22542 -0.39971,-3.8194 -1.19906,-4.78196 -0.79939,-0.9625 -1.96187,-1.44376 -3.48743,-1.4438 -1.49011,4e-5 -2.76207,0.35298 -3.81588,1.05886 -1.05383,0.70592 -1.88952,1.4226 -2.50705,2.15002 l 0,24.71495 -4.1959,0 c -0.87143,0 -1.30716,-0.49237 -1.30715,-1.4771 l 0,-44.61268 4.19588,0 c 0.39913,4e-5 0.71677,0.12836 0.95293,0.38494 0.23615,0.25668 0.35423,0.62008 0.35424,1.09019 l 0,15.21373 c 1.05436,-1.32688 2.29888,-2.32173 3.73355,-2.98457 1.43466,-0.66276 2.96965,-0.99416 4.605,-0.99419 2.90589,3e-5 4.99469,1.00566 6.2664,3.01688 1.27166,2.01129 1.90749,4.72844 1.90752,8.15146 l 0,22.21134 z" />
    <path
       inkscape:connector-curvature="0"
       style="font-size:57.23546219px;font-style:normal;font-variant:normal;font-weight:normal;font-stretch:normal;line-height:125%;letter-spacing:0px;word-spacing:0px;fill:#3a3a88;fill-opacity:1;stroke:none;font-family:HP Simplified;-inkscape-font-specification:HP Simplified"
       id="path3016-3-4-5"
       d="m 100.73613,50.191087 c -1.089874,2e-5 -1.998174,0.1391 -2.724914,0.41727 -0.72677,0.27819 -1.29914,0.66347 -1.71711,1.15582 -0.41799,0.49238 -0.70875,1.08107 -0.87227,1.76605 -0.16354,0.68501 -0.24531,1.43369 -0.2453,2.24601 -1e-5,1.96947 0.39968,3.40348 1.19906,4.30201 0.79936,0.89854 2.01672,1.3478 3.652064,1.3478 1.4524,0 2.70551,-0.33172 3.75934,-0.99518 1.05381,-0.66345 1.96211,-1.42289 2.72492,-2.27834 l 0,-7.96144 z m -2.125384,16.17755 c -2.83386,0 -4.94122,-0.92008 -6.32211,-2.76025 -1.38089,-1.84016 -2.07134,-4.38688 -2.07134,-7.64016 0,-2.01125 0.2636,-3.68 0.79079,-5.00626 0.52718,-1.32625 1.27195,-2.38542 2.23432,-3.17753 0.96234,-0.79208 2.09766,-1.34844 3.40594,-1.66909 1.30826,-0.32061 2.72517,-0.48091 4.250764,-0.48093 l 5.61281,0 0,-2.18235 c -2e-5,-2.22542 -0.49034,-3.74463 -1.47098,-4.55765 -0.98066,-0.81296 -2.65174,-1.21946 -5.01328,-1.21948 -1.598764,2e-5 -3.033974,0.0963 -4.305644,0.28894 -1.27169,0.19268 -2.1071,0.289 -2.50623,0.28896 -0.4723,4e-5 -0.80852,-0.13906 -1.00863,-0.41726 -0.20013,-0.27816 -0.3002,-0.63143 -0.30019,-1.05983 l 0,-2.76025 c 1.27168,-0.47145 2.7069,-0.85672 4.30565,-1.15583 1.59874,-0.29904 3.23352,-0.44858 4.904354,-0.44861 2.07105,3e-5 3.79674,0.26743 5.17709,0.80222 1.38031,0.53484 2.48847,1.29428 3.32445,2.27832 0.83594,0.98412 1.42632,2.18238 1.77115,3.59481 0.34479,1.41247 0.51719,2.97478 0.51721,4.68695 l 0,22.01738 -3.32444,0 c -0.61758,0 -0.99897,-0.16064 -1.14419,-0.48192 -0.14526,-0.32128 -0.25391,-0.69545 -0.32596,-1.12252 l -0.21952,-1.92571 c -0.94352,1.06962 -2.07855,2.02171 -3.4051,2.85625 -1.32658,0.83454 -2.95222,1.2518 -4.876914,1.2518 z" />
    <path
       inkscape:connector-curvature="0"
       style="font-size:57.23546219px;font-style:normal;font-variant:normal;font-weight:normal;font-stretch:normal;line-height:125%;letter-spacing:0px;word-spacing:0px;fill:#acacec;fill-opacity:1;stroke:none;font-family:HP Simplified;-inkscape-font-specification:HP Simplified"
       id="path3018-8-3-5"
       d="m 159.62761,67.165607 c -0.87145,0 -1.30717,-0.49237 -1.30716,-1.4771 l 0,-31.19733 3.32444,0 c 0.39913,2e-5 0.73507,0.10711 1.00782,0.32127 0.27273,0.21422 0.44513,0.64193 0.51721,1.28315 l 0.21786,1.99037 c 2.25287,-2.86666 5.14104,-4.30001 8.66451,-4.30004 2.97907,3e-5 5.10445,1.01644 6.37616,3.04921 1.27165,2.03283 1.90749,4.73921 1.90752,8.11913 l 0,22.21134 -4.19589,0 c -0.39915,0 -0.7168,-0.12832 -0.95293,-0.38494 -0.23617,-0.25664 -0.35425,-0.62069 -0.35423,-1.09216 l 0,-20.22097 c -2e-5,-2.22542 -0.39971,-3.8194 -1.19906,-4.78196 -0.7994,-0.9625 -1.96187,-1.44376 -3.48743,-1.4438 -1.49011,4e-5 -2.76207,0.35298 -3.81588,1.05886 -1.05383,0.70592 -1.88952,1.4226 -2.50705,2.15002 l 0,24.71495 z" />
    <path
       inkscape:connector-curvature="0"
       style="font-size:57.23546219px;font-style:normal;font-variant:normal;font-weight:normal;font-stretch:normal;line-height:125%;letter-spacing:0px;word-spacing:0px;fill:#cecee6;fill-opacity:1;stroke:none;font-family:HP Simplified;-inkscape-font-specification:HP Simplified"
       id="path3020-0-9-3"
       d="m 122.00639,162.14942 c 0,-3.21015 0.26332,-5.87441 0.78995,-7.99278 0.52663,-2.11832 1.33488,-3.80863 2.42474,-5.07092 1.08985,-1.26223 2.46131,-2.14999 4.1144,-2.66328 1.65306,-0.51323 3.60549,-0.76986 5.85728,-0.7699 1.45349,4e-5 2.96132,0.0856 4.52351,0.25664 1.56214,0.17112 2.88814,0.36376 3.97802,0.57791 0.6907,0.12802 6.03011,0.79073 6.37494,1.04733 0.34478,0.25667 0.51718,0.77026 0.51721,1.54077 2e-5,0.54176 0.6506,2.10967 0,2.76026 -0.48802,0.48803 -6.89215,-0.4704 -6.89215,-0.4704 0.10974,2.69562 0.18264,5.35955 0.2187,7.9918 0.036,2.63228 0.054,5.23222 0.054,7.79982 l 0,11.48964 c -3e-5,3.76652 -0.89004,6.6342 -2.67004,8.60302 -1.78004,1.9688 -4.54099,2.9532 -8.28284,2.95321 -0.58209,-1e-5 -1.23622,-0.0323 -1.96241,-0.097 -0.72621,-0.0647 -1.46183,-0.15021 -2.20687,-0.25663 -0.74506,-0.10644 -1.45352,-0.23477 -2.12539,-0.38494 -0.67188,-0.1502 -1.22567,-0.3324 -1.66139,-0.54658 -0.47231,-0.21288 -0.77221,-0.47997 -0.89971,-0.80123 -0.12751,-0.32129 -0.19126,-0.71701 -0.19125,-1.18717 l 0,-2.69757 c 1.27167,0.21419 2.54336,0.38561 3.81505,0.51425 1.27167,0.12863 2.48847,0.19295 3.6504,0.19297 2.65311,-2e-5 4.49716,-0.43883 5.53215,-1.31647 1.03496,-0.87763 1.55245,-2.38607 1.55247,-4.52532 l 0,-3.98072 c -1.05329,0.85674 -2.1157,1.5202 -3.18725,1.99035 -1.07158,0.47017 -2.33411,0.70525 -3.78761,0.70525 -1.88924,0 -3.44225,-0.38494 -4.65905,-1.15483 -1.2168,-0.7699 -2.18858,-1.8503 -2.91533,-3.2412 -0.72676,-1.39089 -1.23538,-3.03842 -1.52585,-4.9426 -0.29049,-1.90415 -0.43573,-4.01204 -0.43572,-6.32371 z m 5.50305,-0.12733 c -1e-5,2.01128 0.10892,3.70157 0.32679,5.07092 0.21785,1.36936 0.55407,2.48208 1.00864,3.33815 0.45456,0.8561 1.04495,1.46601 1.77116,1.82973 0.72619,0.36373 1.57989,0.54559 2.5611,0.54558 1.16302,1e-5 2.15309,-0.2034 2.97022,-0.61023 0.8171,-0.40681 1.60705,-0.90995 2.36985,-1.50941 l 0,-19.77041 c -0.58098,-0.0861 -1.17108,-0.14004 -1.77032,-0.16162 -0.59927,-0.0215 -1.15334,-0.0323 -1.66222,-0.0323 -1.34376,4e-5 -2.48795,0.1499 -3.43255,0.44961 -0.94463,0.29974 -1.72598,0.86688 -2.34407,1.70139 -0.61812,0.83458 -1.07241,1.97929 -1.36288,3.43416 -0.29049,1.45492 -0.43573,3.35973 -0.43572,5.71446 z" />
    <path
       inkscape:connector-curvature="0"
       style="font-size:57.23546219px;font-style:normal;font-variant:normal;font-weight:normal;font-stretch:normal;line-height:125%;letter-spacing:0px;word-spacing:0px;fill:#8181c1;fill-opacity:1;stroke:none;font-family:HP Simplified;-inkscape-font-specification:HP Simplified"
       id="path3022-1-8-3"
       d="m 67.123636,83.482077 c 0.0732,1.71219 0.23698,3.16742 0.49143,4.36567 0.25444,1.19827 0.68129,2.17191 1.28055,2.92089 0.59925,0.74901 1.40749,1.29459 2.42474,1.63677 1.01722,0.34217 2.32521,0.51326 3.92398,0.51326 1.4169,0 2.7066,-0.0856 3.86909,-0.25664 1.16246,-0.17108 1.96156,-0.25662 2.3973,-0.25662 0.83594,0 1.25392,0.47082 1.25394,1.41244 l 0,2.69561 c -0.87257,0.42837 -2.06249,0.80287 -3.56975,1.1235 -1.5073,0.32062 -3.24214,0.48094 -5.20453,0.48094 -2.07107,0 -3.86938,-0.29942 -5.39495,-0.89822 -1.52558,-0.5988 -2.78784,-1.5721 -3.78677,-2.91991 -0.99895,-1.34779 -1.73457,-3.10242 -2.20688,-5.26388 -0.47231,-2.16144 -0.70846,-4.78259 -0.70846,-7.86349 0,-3.08217 0.23615,-5.71443 0.70846,-7.89679 0.47231,-2.18233 1.18964,-3.96894 2.15199,-5.35988 0.96235,-1.39087 2.15199,-2.39649 3.56892,-3.01688 1.41691,-0.62032 3.06999,-0.93049 4.95923,-0.93053 2.10763,4e-5 3.8336,0.35298 5.17792,1.05884 1.34429,0.70594 2.39783,1.65802 3.16064,2.85625 0.76276,1.1983 1.2894,2.59997 1.5799,4.20503 0.29046,1.60511 0.4357,3.32774 0.43572,5.16789 -2e-5,1.24072 -0.0546,2.43899 -0.16381,3.59479 -0.10923,1.15584 -0.25419,2.03282 -0.43489,2.63096 z m 11.49836,-4.55667 c 0.0366,-0.42836 0.0549,-0.74963 0.0549,-0.96383 -2e-5,-0.21418 -2e-5,-0.49236 0,-0.83455 -2e-5,-2.73868 -0.35425,-4.80348 -1.06269,-6.19441 -0.70848,-1.39087 -2.09824,-2.08633 -4.16928,-2.08635 -1.23511,2e-5 -2.25207,0.23544 -3.05087,0.70623 -0.79884,0.47084 -1.4344,1.1343 -1.9067,1.99036 -0.47231,0.85611 -0.80853,1.91528 -1.00864,3.17752 -0.20013,1.26228 -0.31848,2.66395 -0.35506,4.20503 z" />
    <path
       inkscape:connector-curvature="0"
       style="font-size:57.23546219px;font-style:normal;font-variant:normal;font-weight:normal;font-stretch:normal;line-height:125%;letter-spacing:0px;word-spacing:0px;fill:#c3c3d6;fill-opacity:1;stroke:none;font-family:HP Simplified;-inkscape-font-specification:HP Simplified"
       id="path3004-2-8-3"
       d="m 155.60895,162.21368 c -0.67767,-5.13784 -1.3797,-10.07701 -2.1061,-14.81751 -0.72651,-4.74044 -1.47883,-9.50879 -2.25701,-14.30507 l -32.43266,0 c -0.96759,5.48294 -1.83979,11.02251 -2.6165,16.61869 -0.7768,5.5962 -1.50397,11.07828 -2.18158,16.44616 l -11.1985,0 c -2.13348,0 -3.151394,-1.4274 -3.053734,-4.28213 0.289954,-3.4264 0.724964,-6.79701 1.304924,-10.11184 1.74582,-11.07738 3.68546,-21.67024 5.81895,-31.77867 2.13349,-10.10831 4.31504,-19.58837 6.54469,-28.440263 2.22962,-8.85171 4.48441,-16.98983 6.76439,-24.41435 2.2799,-7.42431 4.43779,-13.99126 6.47364,-19.70084 l 14.54077,0 c 1.16584,8e-5 2.03948,0.28496 2.62099,0.85483 0.58137,0.57003 1.06591,1.48414 1.45363,2.74235 2.03575,5.82461 4.2654,12.79152 6.68891,20.90079 2.42339,8.10945 4.82318,17.1329 7.19935,27.07043 2.37607,9.937623 4.63086,20.588883 6.76442,31.953783 2.13338,11.36498 3.9754,23.10027 5.52599,35.20591 l -12.3614,0 c -2.03591,0 -3.20028,-1.3141 -3.49317,-3.94227 z M 134.95629,62.161667 c -2.32583,8.10769 -4.72491,16.87322 -7.19716,26.29661 -2.47231,9.42349 -4.824,19.618133 -7.05509,30.583923 l 28.65097,0 c -2.22823,-10.96579 -4.57843,-21.160433 -7.05066,-30.583923 -2.47236,-9.42339 -4.92171,-18.18892 -7.34806,-26.29661 z" />
  </g>
</svg>
