<?xml version="1.0" encoding="UTF-8" standalone="no"?>
<svg
   xmlns:dc="http://purl.org/dc/elements/1.1/"
   xmlns:cc="http://creativecommons.org/ns#"
   xmlns:rdf="http://www.w3.org/1999/02/22-rdf-syntax-ns#"
   xmlns:svg="http://www.w3.org/2000/svg"
   xmlns="http://www.w3.org/2000/svg"
   xmlns:sodipodi="http://sodipodi.sourceforge.net/DTD/sodipodi-0.dtd"
   xmlns:inkscape="http://www.inkscape.org/namespaces/inkscape"
   sodipodi:docname="nanteagglo.svg"
   inkscape:version="1.0 (4035a4fb49, 2020-05-01)"
   id="svg8"
   version="1.1"
   viewBox="0 0 101.16605 32.240337"
   height="32.240337mm"
   width="101.16605mm">
  <defs
     id="defs2" />
  <sodipodi:namedview
     inkscape:window-maximized="0"
     inkscape:window-y="1"
     inkscape:window-x="1492"
     inkscape:window-height="900"
     inkscape:window-width="1724"
     fit-margin-bottom="0"
     fit-margin-right="0"
     fit-margin-left="0"
     fit-margin-top="0"
     inkscape:guide-bbox="true"
     showguides="true"
     showgrid="false"
     inkscape:document-rotation="0"
     inkscape:current-layer="layer1"
     inkscape:document-units="mm"
     inkscape:cy="27.766438"
     inkscape:cx="176.66586"
     inkscape:zoom="1.4"
     inkscape:pageshadow="2"
     inkscape:pageopacity="0.0"
     borderopacity="1.0"
     bordercolor="#666666"
     pagecolor="#ffffff"
     id="base">
    <sodipodi:guide
       id="guide869"
       orientation="0,-1"
       position="70.157537,-111.6564" />
    <sodipodi:guide
       id="guide883"
       orientation="0,-1"
       position="75.827177,-7.1459784" />
  </sodipodi:namedview>
  <metadata
     id="metadata5">
    <rdf:RDF>
      <cc:Work
         rdf:about="">
        <dc:format>image/svg+xml</dc:format>
        <dc:type
           rdf:resource="http://purl.org/dc/dcmitype/StillImage" />
        <dc:title></dc:title>
      </cc:Work>
    </rdf:RDF>
  </metadata>
  <g
     transform="translate(-55.897521,-34.319035)"
     id="layer1"
     inkscape:groupmode="layer"
     inkscape:label="Calque 1">
    <g
       aria-label="Nantes et agglomération"
       transform="rotate(-34.705771,-167.88219,90.580646)"
       id="g971"
       style="font-style:normal;font-weight:normal;font-size:9.73013px;line-height:1.25;font-family:sans-serif;fill:#ffffff;fill-opacity:1;stroke:#ffffff;stroke-width:0.243254">
      <path
         d="m 45.775724,180.96593 -0.06819,-1.16201 6.121025,-3.71919 -6.317517,0.37072 -0.05149,-0.87743 7.06215,-0.41442 0.08544,1.45607 -5.588107,3.39285 5.767344,-0.33844 0.05149,0.87744 z"
         style="stroke-width:0.243254;stroke:#ffffff;fill:#ffffff"
         id="path929" />
      <path
         d="m 46.691729,186.83199 -0.146353,-0.87631 0.55765,-0.0931 q -0.09923,-0.10385 -0.278154,-0.28109 -0.173455,-0.17334 -0.289111,-0.3467 -0.144565,-0.20224 -0.262598,-0.47636 -0.122719,-0.27333 -0.186895,-0.65759 -0.118179,-0.70761 0.268258,-1.27792 0.386436,-0.57031 1.112787,-0.69162 0.595139,-0.0994 1.00292,0.0926 0.41325,0.1959 0.703172,0.63398 0.290706,0.44277 0.477601,1.10037 0.186895,0.65759 0.352737,1.41986 l 0.135898,-0.0227 q 0.299913,-0.0501 0.47873,-0.19074 0.179599,-0.13597 0.259196,-0.35157 0.07648,-0.20544 0.07014,-0.47413 -0.0063,-0.26868 -0.05408,-0.55454 -0.05792,-0.34677 -0.222858,-0.75756 -0.160257,-0.41156 -0.409559,-0.83716 l -0.0078,-0.0469 0.895052,-0.14949 q 0.113337,0.246 0.279082,0.71927 0.165745,0.47327 0.244791,0.94657 0.09235,0.55297 0.06672,0.97631 -0.02016,0.42725 -0.190324,0.76395 -0.166256,0.33123 -0.482516,0.543 -0.316261,0.21178 -0.822364,0.2963 z m 1.142334,-1.09153 1.457388,-0.2434 q -0.09074,-0.3991 -0.229168,-0.93955 -0.137647,-0.53576 -0.279903,-0.83955 -0.171175,-0.36158 -0.439928,-0.55753 -0.264066,-0.19674 -0.662387,-0.13022 -0.449869,0.0751 -0.634097,0.38528 -0.179541,0.30936 -0.08641,0.86701 0.07748,0.46393 0.31973,0.81845 0.246936,0.35374 0.554772,0.63951 z"
         style="stroke-width:0.243254;stroke:#ffffff;fill:#ffffff"
         id="path931" />
      <path
         d="m 48.213043,192.80928 -0.233168,-0.86222 2.916886,-0.7888 q 0.353145,-0.0955 0.649265,-0.21988 0.300706,-0.12561 0.445219,-0.28281 0.161619,-0.16675 0.195052,-0.40711 0.03802,-0.2416 -0.055,-0.58558 -0.0955,-0.35314 -0.37396,-0.69126 -0.278461,-0.33812 -0.644553,-0.61809 l -3.824974,1.03438 -0.233168,-0.86223 5.122897,-1.38537 0.233168,0.86223 -0.568701,0.15379 q 0.443942,0.31306 0.748565,0.69332 0.304622,0.38026 0.427408,0.8343 0.224486,0.83012 -0.157596,1.40101 -0.382082,0.57089 -1.322274,0.82514 z"
         style="stroke-width:0.243254;stroke:#ffffff;fill:#ffffff"
         id="path933" />
      <path
         d="m 49.757466,197.01211 q -0.148048,-0.21427 -0.289881,-0.48129 -0.140219,-0.26256 -0.219251,-0.48153 -0.275806,-0.76418 -0.0082,-1.3103 0.267589,-0.54612 1.174773,-0.87354 l 2.654518,-0.95806 -0.204839,-0.56755 0.706084,-0.25484 0.204838,0.56755 1.434513,-0.51774 0.303225,0.84015 -1.434512,0.51774 0.625805,1.73393 -0.706084,0.25484 -0.625805,-1.73393 -2.274663,0.82097 q -0.393262,0.14193 -0.610254,0.24045 -0.212524,0.0969 -0.365976,0.27352 -0.143272,0.16283 -0.166891,0.36329 -0.01754,0.20332 0.109883,0.55636 0.07419,0.20557 0.212934,0.40805 0.143209,0.20086 0.218913,0.28466 l 0.01613,0.0447 z"
         style="stroke-width:0.243254;stroke:#ffffff;fill:#ffffff"
         id="path935" />
      <path
         d="m 54.276394,201.02664 -1.614185,-3.56137 q -0.445712,0.20202 -0.718112,0.48719 -0.268073,0.28321 -0.374198,0.61299 -0.105721,0.31916 -0.07032,0.67347 0.03736,0.35864 0.206037,0.73079 0.223593,0.49331 0.643876,0.90269 0.426571,0.41175 0.713078,0.53748 l 0.01961,0.0433 -0.887096,0.40207 q -0.359419,-0.33264 -0.670429,-0.70808 -0.31101,-0.37545 -0.524797,-0.84713 -0.545253,-1.20299 -0.202127,-2.17225 0.347453,-0.97122 1.546115,-1.51451 1.18568,-0.53741 2.174615,-0.20841 0.990897,0.33331 1.469464,1.38918 0.443263,0.97796 0.111343,1.76479 -0.329958,0.79116 -1.381492,1.26776 z m 0.264205,-1.07433 q 0.638479,-0.2946 0.843851,-0.77369 0.207333,-0.47476 -0.08687,-1.12386 -0.296163,-0.65342 -0.857813,-0.86832 -0.559689,-0.21057 -1.154429,-0.004 z"
         style="stroke-width:0.243254;stroke:#ffffff;fill:#ffffff"
         id="path937" />
      <path
         d="m 55.786738,205.82478 q -0.632758,0.35779 -1.335044,0.0617 -0.699947,-0.29192 -1.212078,-1.19764 -0.289973,-0.51282 -0.413243,-1.01075 -0.116795,-0.49612 -0.135741,-0.86747 l 0.872628,-0.49342 0.02338,0.0413 q -0.06896,0.52476 0.0205,1.06909 0.09361,0.54199 0.327455,0.95555 0.289973,0.51283 0.619095,0.70879 0.329122,0.19595 0.68479,-0.005 0.272955,-0.15434 0.324705,-0.391 0.05175,-0.23667 -0.101552,-0.73944 -0.05632,-0.18648 -0.158693,-0.48336 -0.100036,-0.29274 -0.166076,-0.54467 -0.182468,-0.69915 -0.01728,-1.13095 0.171662,-0.43 0.626587,-0.68724 0.285361,-0.16135 0.603115,-0.1882 0.320093,-0.0227 0.654238,0.10491 0.325333,0.12168 0.638107,0.41421 0.319248,0.29433 0.569468,0.73685 0.233849,0.41356 0.368984,0.89387 0.141609,0.48209 0.155879,0.84517 l -0.831271,0.47003 -0.02338,-0.0414 q 0.05082,-0.42171 -0.04116,-0.93187 -0.08785,-0.5125 -0.319357,-0.92193 -0.240865,-0.42598 -0.572325,-0.62607 -0.327325,-0.20243 -0.649908,-0.02 -0.285361,0.16136 -0.329555,0.42104 -0.04653,0.25555 0.0823,0.69575 0.07197,0.24311 0.172009,0.53586 0.102374,0.29688 0.161573,0.4981 0.182273,0.61193 0.0464,1.07627 -0.140007,0.46668 -0.644559,0.75198 z"
         style="stroke-width:0.243254;stroke:#ffffff;fill:#ffffff"
         id="path939" />
      <path
         d="m 61.813425,212.43594 -2.394343,-3.09128 q -0.38688,0.29965 -0.585913,0.64011 -0.195278,0.33754 -0.222226,0.68293 -0.02901,0.33496 0.0874,0.67147 0.119321,0.34026 0.36952,0.66329 0.331659,0.4282 0.835252,0.72923 0.510259,0.30189 0.818083,0.35793 l 0.02909,0.0376 -0.770005,0.5964 q -0.426627,-0.24046 -0.816061,-0.53376 -0.389435,-0.29331 -0.706547,-0.70272 -0.808782,-1.04421 -0.699212,-2.06655 0.113325,-1.02526 1.15377,-1.83113 1.029177,-0.79715 2.067396,-0.70588 1.041128,0.095 1.750994,1.01152 0.657499,0.84888 0.516624,1.69115 -0.137966,0.84603 -1.050703,1.55299 z m 0.0085,-1.1063 q 0.552996,-0.43433 0.641955,-0.94794 0.09187,-0.50985 -0.344526,-1.07327 -0.439302,-0.56717 -1.035432,-0.64629 -0.593221,-0.0754 -1.123941,0.26358 z"
         style="stroke-width:0.243254;stroke:#ffffff;fill:#ffffff"
         id="path941" />
      <path
         d="m 62.589435,217.01555 q -0.218527,-0.14169 -0.451408,-0.33452 -0.229688,-0.18932 -0.386198,-0.36166 -0.546189,-0.60143 -0.506887,-1.20831 0.0393,-0.60688 0.753279,-1.25528 l 2.089173,-1.89728 -0.405649,-0.44668 0.555707,-0.50467 0.405649,0.44668 1.128998,-1.0253 0.600488,0.66122 -1.128998,1.0253 1.239306,1.36464 -0.555706,0.50467 -1.239306,-1.36464 -1.790218,1.62579 q -0.309507,0.28108 -0.472587,0.45485 -0.159563,0.17058 -0.234142,0.39233 -0.07042,0.20514 -0.01586,0.39948 0.06126,0.19466 0.313594,0.47252 0.146928,0.16179 0.352355,0.29612 0.208944,0.13114 0.310868,0.17977 l 0.03194,0.0352 z"
         style="stroke-width:0.243254;stroke:#ffffff;fill:#ffffff"
         id="path943" />
      <path
         d="m 68.941175,222.84335 -0.679927,-0.57187 0.363916,-0.43268 q -0.142887,-0.0146 -0.394035,-0.0334 -0.244455,-0.0194 -0.44494,-0.0762 -0.241227,-0.0601 -0.508893,-0.19211 -0.270725,-0.12837 -0.568875,-0.37914 -0.549032,-0.46177 -0.624997,-1.14647 -0.07597,-0.6847 0.398043,-1.24828 0.38838,-0.46177 0.823256,-0.58023 0.44157,-0.11905 0.946418,0.0262 0.508485,0.14831 1.077359,0.52745 0.568874,0.37913 1.189639,0.85157 l 0.08868,-0.10544 q 0.19572,-0.2327 0.240533,-0.45575 0.04845,-0.21999 -0.03087,-0.43569 -0.0751,-0.20595 -0.254252,-0.4063 -0.17915,-0.20034 -0.400944,-0.38688 -0.269062,-0.2263 -0.661098,-0.43187 -0.388978,-0.20921 -0.854818,-0.37132 l -0.03636,-0.0306 0.5841,-0.69447 q 0.24585,0.11366 0.679038,0.36626 0.433187,0.25259 0.80042,0.56146 0.429045,0.36086 0.684212,0.69964 0.261862,0.33819 0.350833,0.7048 0.08839,0.35992 -0.01486,0.72626 -0.103255,0.36635 -0.433532,0.75903 z m 0.161056,-1.57176 0.951074,-1.13079 q -0.327984,-0.24482 -0.783974,-0.56626 -0.452354,-0.31838 -0.757705,-0.45725 -0.36485,-0.16408 -0.696497,-0.13882 -0.328588,0.0216 -0.588528,0.33068 -0.293579,0.34905 -0.232541,0.70459 0.0641,0.35189 0.496778,0.71581 0.359961,0.30275 0.77432,0.41535 0.417416,0.10896 0.837073,0.12669 z"
         style="stroke-width:0.243254;stroke:#ffffff;fill:#ffffff"
         id="path945" />
      <path
         d="m 74.205504,225.83749 q -0.764503,1.11181 -1.627542,1.28523 -0.863039,0.17342 -1.912217,-0.54802 -0.348421,-0.23958 -0.646188,-0.51928 -0.296544,-0.2731 -0.555647,-0.58388 l 0.516847,-0.75165 0.03915,0.0269 q 0.131629,0.1943 0.453123,0.56527 0.318803,0.3749 0.710288,0.64409 0.375825,0.25842 0.684374,0.33797 0.308549,0.0796 0.555937,0.0133 0.242004,-0.0585 0.448781,-0.2334 0.206778,-0.17494 0.389828,-0.44115 l 0.274575,-0.39931 q -0.515812,0.0374 -0.912694,-0.0395 -0.390276,-0.0781 -0.860058,-0.40112 -0.782968,-0.53838 -0.857285,-1.41976 -0.06771,-0.88261 0.640263,-1.91221 0.387635,-0.56374 0.824188,-0.86321 0.443159,-0.30069 0.921783,-0.40978 0.445591,-0.10298 0.914656,-0.005 0.471757,0.0937 0.831922,0.34141 0.37974,0.26111 0.580367,0.51438 0.207233,0.25205 0.38534,0.60515 l 0.17619,-0.1556 0.689012,0.47377 z m -0.251447,-1.21075 1.639374,-2.38414 q -0.202088,-0.335 -0.418867,-0.56478 -0.210171,-0.23101 -0.460721,-0.40329 -0.606801,-0.41725 -1.23518,-0.24968 -0.62838,0.16756 -1.161378,0.9427 -0.50608,0.73599 -0.508815,1.29339 -0.0027,0.55741 0.596235,0.96927 0.321017,0.22074 0.725483,0.32012 0.411074,0.0982 0.823869,0.0764 z"
         style="stroke-width:0.243254;stroke:#ffffff;fill:#ffffff"
         id="path947" />
      <path
         d="m 79.423417,228.8074 q -0.650883,1.18193 -1.492559,1.43979 -0.841676,0.25786 -1.957014,-0.35635 -0.370393,-0.20398 -0.694344,-0.45289 -0.322082,-0.24245 -0.61063,-0.5261 l 0.440034,-0.79905 0.04162,0.0229 q 0.150186,0.18033 0.506769,0.51772 0.354291,0.34155 0.770462,0.57074 0.399525,0.22001 0.714425,0.26868 0.3149,0.0487 0.554525,-0.0418 0.235042,-0.0821 0.423519,-0.27661 0.188477,-0.19451 0.344323,-0.47751 l 0.233768,-0.42449 q -0.509591,0.0882 -0.912127,0.0509 -0.396083,-0.0391 -0.895488,-0.31416 -0.832342,-0.45837 -0.993399,-1.32809 -0.154603,-0.87159 0.448152,-1.96612 0.330026,-0.59929 0.734846,-0.94043 0.411273,-0.34302 0.876773,-0.49888 0.433232,-0.14651 0.909653,-0.0957 0.478713,0.0467 0.86159,0.25753 0.403686,0.22231 0.628361,0.45451 0.231128,0.23033 0.443259,0.56411 l 0.159949,-0.17226 0.732461,0.40336 z m -0.36987,-1.17997 1.395733,-2.53448 q -0.234206,-0.31339 -0.472631,-0.52062 -0.231972,-0.20911 -0.498322,-0.35578 -0.645065,-0.35524 -1.253809,-0.1264 -0.608744,0.22885 -1.062529,1.05287 -0.430866,0.7824 -0.378502,1.33735 0.05236,0.55494 0.689106,0.9056 0.34126,0.18793 0.753568,0.24685 0.418761,0.057 0.827386,-0.005 z"
         style="stroke-width:0.243254;stroke:#ffffff;fill:#ffffff"
         id="path949" />
      <path
         d="m 81.549327,230.45239 -0.81123,-0.37377 3.093554,-6.71422 0.811229,0.37377 z"
         style="stroke-width:0.243254;stroke:#ffffff;fill:#ffffff"
         id="path951" />
      <path
         d="m 88.334742,230.31032 q -0.458327,1.21336 -1.345819,1.68056 -0.887493,0.46719 -1.931958,0.0727 -1.053353,-0.39789 -1.410328,-1.33516 -0.352531,-0.9356 0.105796,-2.14895 0.458326,-1.21336 1.341374,-1.68223 0.889172,-0.47165 1.942525,-0.0738 1.044465,0.39453 1.399761,1.33625 0.356976,0.93728 -0.101351,2.15063 z m -0.862239,-0.32569 q 0.364311,-0.96447 0.162806,-1.57384 -0.199827,-0.61383 -0.870951,-0.86733 -0.680013,-0.25687 -1.235756,0.0716 -0.54962,0.32565 -0.913931,1.29011 -0.352559,0.93336 -0.157769,1.56051 0.196469,0.62271 0.872038,0.8779 0.666679,0.25183 1.224101,-0.081 0.563546,-0.33562 0.919462,-1.27786 z"
         style="stroke-width:0.243254;stroke:#ffffff;fill:#ffffff"
         id="path953" />
      <path
         d="m 96.237059,235.08555 -0.868708,-0.20772 0.702695,-2.93882 q 0.07955,-0.33269 0.121231,-0.65002 0.0463,-0.31622 -0.0065,-0.52426 -0.05877,-0.2241 -0.233155,-0.37327 -0.174387,-0.14916 -0.54867,-0.23866 -0.365042,-0.0873 -0.774279,0.0103 -0.408132,0.0929 -0.840571,0.28751 -0.01155,0.1096 -0.03656,0.25505 -0.0239,0.14083 -0.05705,0.27946 l -0.789979,3.30386 -0.868708,-0.20772 0.702695,-2.93882 q 0.08176,-0.34193 0.122336,-0.65464 0.0463,-0.31622 -0.0065,-0.52425 -0.05877,-0.22411 -0.23426,-0.36866 -0.174387,-0.14916 -0.54867,-0.23866 -0.355801,-0.0851 -0.758207,0.004 -0.397785,0.0905 -0.818773,0.27807 l -0.921458,3.85373 -0.868708,-0.20771 1.234136,-5.16142 0.868707,0.20771 -0.137003,0.57298 q 0.487284,-0.24009 0.934592,-0.33342 0.451928,-0.0922 0.909386,0.0172 0.52677,0.12596 0.838778,0.43504 0.316629,0.31018 0.402926,0.74604 0.632837,-0.31764 1.113595,-0.40786 0.481863,-0.0948 0.976287,0.0234 0.850225,0.20329 1.128488,0.81695 0.283989,0.61013 0.06302,1.53429 z"
         style="stroke-width:0.243254;stroke:#ffffff;fill:#ffffff"
         id="path955" />
      <path
         d="m 102.6541,233.20619 -3.886594,-0.42815 q -0.05358,0.48642 0.05275,0.86617 0.106859,0.37504 0.336381,0.63453 0.220598,0.25373 0.543408,0.40401 0.327535,0.1508 0.733665,0.19554 0.53837,0.0593 1.10486,-0.0934 0.57174,-0.15689 0.82603,-0.33919 l 0.0472,0.005 -0.10664,0.9681 q -0.46945,0.13948 -0.95102,0.21548 -0.48157,0.076 -0.99632,0.0193 -1.312851,-0.14462 -1.971521,-0.93415 -0.658151,-0.79425 -0.514046,-2.10237 0.142543,-1.29396 0.929949,-1.97677 0.792128,-0.68228 1.944418,-0.55534 1.06728,0.11757 1.57475,0.80441 0.51219,0.68735 0.38577,1.83491 z m -0.7893,-0.77523 q 0.0723,-0.69945 -0.23505,-1.12047 -0.3026,-0.4205 -1.01097,-0.49853 -0.713096,-0.0786 -1.18442,0.29492 -0.4666,0.374 -0.591941,0.99113 z m 0.62521,-4.67745 -1.4838,1.62418 -0.70365,-0.0775 1.03989,-1.67308 z"
         style="stroke-width:0.243254;stroke:#ffffff;fill:#ffffff"
         id="path957" />
      <path
         d="m 107.17143,231.5642 -0.0475,-0.001 q -0.198,-0.0536 -0.38738,-0.0784 -0.18448,-0.0294 -0.44092,-0.0372 -0.41315,-0.0126 -0.80344,0.1609 -0.39016,0.16873 -0.75515,0.44756 l -0.11473,3.76583 -0.89278,-0.0272 0.16161,-5.30445 0.89278,0.0272 -0.0239,0.78356 q 0.54489,-0.41119 0.95389,-0.5746 0.4139,-0.16802 0.83655,-0.15514 0.23269,0.007 0.33673,0.0245 0.10419,0.0127 0.31212,0.0523 z"
         style="stroke-width:0.243254;stroke:#ffffff;fill:#ffffff"
         id="path959" />
      <path
         d="m 111.84031,235.68282 -0.88739,0.0432 -0.0275,-0.56471 q -0.11471,0.0865 -0.3116,0.2435 -0.19237,0.15206 -0.37803,0.24672 -0.21772,0.12001 -0.50373,0.20528 -0.28577,0.09 -0.67489,0.10897 -0.71656,0.0349 -1.23794,-0.41538 -0.52137,-0.45028 -0.55719,-1.18582 -0.0293,-0.60267 0.20888,-0.98529 0.24275,-0.3876 0.71164,-0.62448 0.47363,-0.23711 1.14853,-0.34608 0.6749,-0.10897 1.4513,-0.18483 l -0.007,-0.13762 q -0.0148,-0.30371 -0.13364,-0.4977 -0.11411,-0.19422 -0.31896,-0.29841 -0.19513,-0.0999 -0.46272,-0.12492 -0.26759,-0.025 -0.55706,-0.0109 -0.35117,0.0171 -0.77838,0.13303 -0.42744,0.11119 -0.8792,0.30919 l -0.0474,0.002 -0.0441,-0.90638 q 0.25753,-0.0839 0.74689,-0.19333 0.48937,-0.10945 0.96865,-0.13279 0.55996,-0.0273 0.97744,0.0475 0.42198,0.0698 0.73655,0.27807 0.30959,0.20373 0.48306,0.54253 0.17346,0.33879 0.19842,0.85129 z m -0.95094,-1.26178 -0.0719,-1.47583 q -0.40695,0.0436 -0.95985,0.11809 -0.54816,0.0743 -0.86646,0.18013 -0.37906,0.12787 -0.60501,0.37194 -0.22618,0.23934 -0.20654,0.6427 0.0222,0.45556 0.30874,0.67468 0.28632,0.21438 0.85103,0.18688 0.46979,-0.0229 0.85014,-0.22215 0.38011,-0.20402 0.69981,-0.47644 z"
         style="stroke-width:0.243254;stroke:#ffffff;fill:#ffffff"
         id="path961" />
      <path
         d="m 116.28783,235.09383 q -0.24132,0.0979 -0.53278,0.17836 -0.28676,0.0798 -0.51767,0.10936 -0.80586,0.10314 -1.28077,-0.27674 -0.47491,-0.37988 -0.59735,-1.33653 l -0.35828,-2.79929 -0.5985,0.0766 -0.0953,-0.74459 0.5985,-0.0766 -0.19361,-1.51274 0.88597,-0.1134 0.19361,1.51275 1.82849,-0.23403 0.0953,0.74459 -1.82849,0.23403 0.30701,2.39871 q 0.0531,0.41471 0.10208,0.64793 0.0484,0.2285 0.18745,0.41667 0.1278,0.17523 0.31834,0.24185 0.19465,0.0613 0.56694,0.0137 0.21678,-0.0277 0.44457,-0.11917 0.22719,-0.0961 0.32544,-0.15182 l 0.0471,-0.006 z"
         style="stroke-width:0.243254;stroke:#ffffff;fill:#ffffff"
         id="path963" />
      <path
         d="m 117.1909,228.67485 -0.99084,0.18093 -0.16642,-0.91138 0.99083,-0.18093 z m 1.05681,6.10482 -0.87867,0.16045 -0.9533,-5.22059 0.87867,-0.16044 z"
         style="stroke-width:0.243254;stroke:#ffffff;fill:#ffffff"
         id="path965" />
      <path
         d="m 123.71842,230.76325 q 0.32238,1.25633 -0.13532,2.14876 -0.4577,0.89243 -1.53915,1.16993 -1.09066,0.27987 -1.92152,-0.28192 -0.82624,-0.56297 -1.14862,-1.8193 -0.32238,-1.25633 0.13071,-2.14758 0.45652,-0.89703 1.54718,-1.1769 1.08146,-0.2775 1.91349,0.28889 0.83085,0.56178 1.15323,1.81812 z m -0.89278,0.22908 q -0.25625,-0.99862 -0.77141,-1.38145 -0.51633,-0.38743 -1.21123,-0.20912 -0.7041,0.18067 -0.97009,0.76885 -0.26257,0.5824 -0.006,1.58102 0.24798,0.96641 0.76786,1.36765 0.5187,0.39664 1.2182,0.21715 0.69029,-0.17713 0.9551,-0.76992 0.26823,-0.59856 0.0179,-1.57418 z"
         style="stroke-width:0.243254;stroke:#ffffff;fill:#ffffff"
         id="path967" />
      <path
         d="m 129.86955,231.38382 -0.8389,0.30667 -1.03747,-2.83797 q -0.12561,-0.34359 -0.27506,-0.62788 -0.15108,-0.28875 -0.32016,-0.41916 -0.18007,-0.14664 -0.42242,-0.15921 -0.24398,-0.017 -0.57865,0.1053 -0.34359,0.12561 -0.65643,0.4322 -0.31284,0.30659 -0.56019,0.69547 l 1.36047,3.72149 -0.8389,0.30667 -1.82211,-4.9843 0.8389,-0.30667 0.20228,0.55331 q 0.27359,-0.46929 0.62616,-0.80558 0.35257,-0.33629 0.79433,-0.49778 0.80766,-0.29526 1.40937,0.0362 0.60172,0.33141 0.93613,1.24617 z"
         style="stroke-width:0.243254;stroke:#ffffff;fill:#ffffff"
         id="path969" />
    </g>
  </g>
</svg>
