<svg xmlns="http://www.w3.org/2000/svg" xmlns:xlink="http://www.w3.org/1999/xlink" viewBox="0 0 221.84 256" style="enable-background:new 0 0 221.84 256" xml:space="preserve"><style>.st6{fill:none}.st8{fill:#fff}.st116{fill:none;stroke:red;stroke-width:.25;stroke-miterlimit:10}.st702{fill:#000008}.st706{fill:#f2e2d9}.st811{display:none}.st813{display:inline;fill:none;stroke:red;stroke-width:.25;stroke-miterlimit:10}</style><g id="FOND"><path class="st116" d="M221.84 64.01.16 191.99M.16 64.01l221.68 127.98M111 0v256"/></g><g id="ILLU"><defs><path id="SVGID_00000038391664784547789260000018128432118264501947_" d="M-123.4 191.99V64.01L-234.24 0l-110.84 64.01v127.98L-234.24 256z"/></defs><radialGradient id="SVGID_00000093143164005162123080000000863086567103786679_" cx="-128.427" cy="76.203" r="368.525" gradientUnits="userSpaceOnUse"><stop offset=".233" style="stop-color:#9797f7"/><stop offset=".551" style="stop-color:#518fff"/></radialGradient><use xlink:href="#SVGID_00000038391664784547789260000018128432118264501947_" style="overflow:visible;fill:url(#SVGID_00000093143164005162123080000000863086567103786679_)"/><clipPath id="SVGID_00000131352269157259696820000002850620346525431487_"><use xlink:href="#SVGID_00000038391664784547789260000018128432118264501947_" style="overflow:visible"/></clipPath><g style="clip-path:url(#SVGID_00000131352269157259696820000002850620346525431487_)"><defs><path id="SVGID_00000173846671398727820570000000275021507859364026_" d="M-243.65 66.3c-.25 3.74-1.86 10.01-2.29 13.73 8.14 3.31 16.46 4.46 15.93.79-.6-4.41-.57-10.79-.17-15.21 1.4-11.54-9.27-13.81-12.42-8.39-.41 1.41-.95 7.63-1.05 9.08"/></defs><clipPath id="SVGID_00000044889708007103611880000003187940542714285461_"><use xlink:href="#SVGID_00000173846671398727820570000000275021507859364026_" style="overflow:visible"/></clipPath><g style="clip-path:url(#SVGID_00000044889708007103611880000003187940542714285461_)"><defs><path id="SVGID_00000165929805476494599700000000992041617621596050_" d="M-964.59-2218.9h2532.07v7501.25H-964.59z"/></defs><clipPath id="SVGID_00000016778414646195941520000014063401063235428543_"><use xlink:href="#SVGID_00000165929805476494599700000000992041617621596050_" style="overflow:visible"/></clipPath></g><defs><path id="SVGID_00000148643018008014485100000004840159692444543369_" d="M-245.5 39.47c-1.13 3.38-2.76 13.62 3.19 22.84 2.66 4.12 6.73 5.73 11.13 7.01 4.92 1.43 9.19 1.65 11.14-2.84 1.07-2.46.64-5.93 1.04-8.59.93-.01 2.77-.26 3.85-.35-.74-4.78-.72-6.36-2.19-13.89-1.15-5.87-5.57-9.72-11.61-11.03-5.23-1.16-13.88-1.16-16.55 6.85"/></defs><clipPath id="SVGID_00000110447741502271627170000001786116537233678214_"><use xlink:href="#SVGID_00000148643018008014485100000004840159692444543369_" style="overflow:visible"/></clipPath><g style="clip-path:url(#SVGID_00000110447741502271627170000001786116537233678214_)"><defs><path id="SVGID_00000036937775699923533880000013033305874411427997_" d="M-964.59-2218.9h2532.07v7501.25H-964.59z"/></defs><clipPath id="SVGID_00000095305125239665270540000006723802358852249016_"><use xlink:href="#SVGID_00000036937775699923533880000013033305874411427997_" style="overflow:visible"/></clipPath></g><defs><path id="SVGID_00000110467619028261888560000009332231935113503636_" d="M-244.75 58.09c.01-2.52-2.66-11.03 2.71-10.46 2.33.25 3.33 4.24 5.95 2.18 1.85-1.46 2.51-5.53 2.62-7.68.11-2.29-.93-6.77-1.54-8.74 3.42.63 8.66 1.89 12.04 1.42-3.72-3.11-10.13-3.27-14.56-2.77-6.2.7-9.23 7.22-9.88 12.98-.25 2.21-.54 7.24 2.5 12.85"/></defs><clipPath id="SVGID_00000164479374282153015320000015943737589376490673_"><use xlink:href="#SVGID_00000110467619028261888560000009332231935113503636_" style="overflow:visible"/></clipPath><g style="clip-path:url(#SVGID_00000164479374282153015320000015943737589376490673_)"><defs><path id="SVGID_00000160880426067687571400000012913641548403446207_" d="M-964.59-2218.9h2532.07v7501.25H-964.59z"/></defs><clipPath id="SVGID_00000181066323005382311110000017369917912223378306_"><use xlink:href="#SVGID_00000160880426067687571400000012913641548403446207_" style="overflow:visible"/></clipPath></g><defs><path id="SVGID_00000005948798812390598860000004406998007440175773_" d="M-232.58 143.22c-5.56-.16-18.78 3.89-17.24 18.96.43 4.25 4.44 15.67 5.93 19.57 3.47 9.04 12.2 27.81 14.79 35.31 2.29 6.65 2.48 16.73 7.89 19.77 2.32 1.3 7.95 2.6 12.5.09 1.13-.62 6.81-4.39 5.82-11.68-.54-3.97-1.06-3.25-1.68-7.21-1.25-7.95-1.95-14.81-3.81-22.63-1.74-7.37-5.13-18.61-7.34-25.69-3.07-9.85-1.77-26.05-16.86-26.49"/></defs><clipPath id="SVGID_00000109735523084746092920000001133237224759390117_"><use xlink:href="#SVGID_00000005948798812390598860000004406998007440175773_" style="overflow:visible"/></clipPath><g style="clip-path:url(#SVGID_00000109735523084746092920000001133237224759390117_)"><defs><path id="SVGID_00000123441594886477677760000004203149890792367017_" d="M-964.59-2218.9h2532.07v7501.25H-964.59z"/></defs><clipPath id="SVGID_00000039814543954051290830000017332521550414996378_"><use xlink:href="#SVGID_00000123441594886477677760000004203149890792367017_" style="overflow:visible"/></clipPath></g><defs><path id="SVGID_00000096754065339253220670000016711732453932656303_" d="M-201.38 229.33c-3.74-14.33-16.17-17.75-23.23-6.36-2.91 4.69 1.39 9.78 2.56 16.35.68 3.85.84 10.69 3.57 19.11 1.99 6.13 10.75 22.72 12.01 25.69 1.37 3.22 3.04 7 4.34 10.31-.08.85 10.12-.99 10.19-2.22.04-.74-2.12-10.85-2.31-12.71-.69-6.84-4.08-28.38-5.38-35.28-.98-5.2-.58-10.38-1.75-14.89"/></defs><clipPath id="SVGID_00000183945628924682543180000012531703222876946342_"><use xlink:href="#SVGID_00000096754065339253220670000016711732453932656303_" style="overflow:visible"/></clipPath><g style="clip-path:url(#SVGID_00000183945628924682543180000012531703222876946342_)"><defs><path id="SVGID_00000124139780206625684980000014656495645543662213_" d="M-964.59-2218.9h2532.07v7501.25H-964.59z"/></defs><clipPath id="SVGID_00000150804288498197534990000005884880648334142384_"><use xlink:href="#SVGID_00000124139780206625684980000014656495645543662213_" style="overflow:visible"/></clipPath></g><g><defs><path id="SVGID_00000065794557025561292350000004699263087393895101_" d="M-198.71 302.33c1.75-.44 1.72-.88 3.1-1.02 1.86-.18 1.96.03 3.8-.27 2.97-.49 3.79-.7 6.51-1.84.48-.2 2.15-2.37 1.09-2.44-2.11-.15-3.57-.18-5.54-.82-2.96-1.43-1.15-.9-5.28-4.4-2.21-1.86-4.44-.35-5.38 1.01-.65.94-.12 2.45-.67 3.69-1.24 2.81-.79 4.46.2 6.36.53.06 1.26-.05 2.17-.27"/></defs><clipPath id="SVGID_00000091712615281716602100000005706102849757183397_"><use xlink:href="#SVGID_00000065794557025561292350000004699263087393895101_" style="overflow:visible"/></clipPath><g style="clip-path:url(#SVGID_00000091712615281716602100000005706102849757183397_)"><defs><path id="SVGID_00000116208276115584204060000004968056278978870457_" d="M-964.59-2218.9h2532.07v7501.25H-964.59z"/></defs><clipPath id="SVGID_00000023239283857480656660000009027959986576202125_"><use xlink:href="#SVGID_00000116208276115584204060000004968056278978870457_" style="overflow:visible"/></clipPath></g></g><g><defs><path id="SVGID_00000149360536433811866750000008954391496312542137_" d="M-285.96 294.4c1.47 1.05 2.25.87 3.31 1.77 1.42 1.22 1.33 1.43 2.82 2.55 2.4 1.8 3.13 2.26 5.83 3.43.47.2 3.2-.09 2.53-.9-1.35-1.62-2.35-2.7-3.25-4.57-1.02-3.12-.14-1.45-.48-6.85-.18-2.88-2.82-3.45-4.45-3.19-1.13.18-1.86 1.61-3.13 2.07-2.89 1.05-3.83 2.28-4.51 4.3.42.73 1.19 1.29 1.33 1.39"/></defs><clipPath id="SVGID_00000090257353001360185360000014574293539533149615_"><use xlink:href="#SVGID_00000149360536433811866750000008954391496312542137_" style="overflow:visible"/></clipPath><g style="clip-path:url(#SVGID_00000090257353001360185360000014574293539533149615_)"><defs><path id="SVGID_00000096038909070208330470000017491207886127957903_" d="M-964.59-2218.9h2532.07v7501.25H-964.59z"/></defs><clipPath id="SVGID_00000108994597352647779310000016953473130340862125_"><use xlink:href="#SVGID_00000096038909070208330470000017491207886127957903_" style="overflow:visible"/></clipPath></g></g><g><defs><path id="SVGID_00000054987972412654079670000012422146196152317098_" d="M-240.74 238.15c6.29-13.41-1.08-23.98-13.79-19.73-5.23 1.75-5.18 8.41-8.49 14.21-1.94 3.4-6.19 8.75-9.47 16.98-2.39 5.98-6.27 24.34-7.2 27.43-1.01 3.35-2.14 7.33-3.26 10.7-.6.6 8.42 5.71 9.26 4.81.51-.54 5.31-9.69 6.35-11.24 3.85-5.7 15.01-24.43 18.43-30.57 2.56-4.65 6.19-8.37 8.17-12.59"/></defs><clipPath id="SVGID_00000065789731880691177310000003457073916900946591_"><use xlink:href="#SVGID_00000054987972412654079670000012422146196152317098_" style="overflow:visible"/></clipPath><g style="clip-path:url(#SVGID_00000065789731880691177310000003457073916900946591_)"><defs><path id="SVGID_00000132808564177651826600000000551962708156671654_" d="M-964.59-2218.9h2532.07v7501.25H-964.59z"/></defs><clipPath id="SVGID_00000105426377023434411870000000349437899191789994_"><use xlink:href="#SVGID_00000132808564177651826600000000551962708156671654_" style="overflow:visible"/></clipPath></g></g><g><defs><path id="SVGID_00000123402315843265062740000008077907660592430210_" d="M-235.21 143.4c-5.08-2.26-18.85-3.53-23.15 11-1.21 4.1-1.85 16.18-1.95 20.36-.23 9.68.73 30.36.27 38.27-.4 7.02-4.06 16.42-.21 21.28 1.65 2.08 6.37 5.42 11.53 4.82 1.28-.15 7.97-1.48 9.82-8.6 1.01-3.87.26-3.41 1.18-7.31 1.86-7.83 3.82-14.45 5.07-22.38 1.18-7.48 2.32-19.17 2.97-26.56.91-10.25 8.26-24.74-5.53-30.88"/></defs><clipPath id="SVGID_00000029761805126008105880000008444136567019256473_"><use xlink:href="#SVGID_00000123402315843265062740000008077907660592430210_" style="overflow:visible"/></clipPath><g style="clip-path:url(#SVGID_00000029761805126008105880000008444136567019256473_)"><defs><path id="SVGID_00000068639028304185816390000004853268327204996528_" d="M-964.59-2218.9h2532.07v7501.25H-964.59z"/></defs><clipPath id="SVGID_00000108997393946459541400000010295406375973796496_"><use xlink:href="#SVGID_00000068639028304185816390000004853268327204996528_" style="overflow:visible"/></clipPath></g></g><g><defs><path id="SVGID_00000119078332179812422490000011882999829210428337_" d="M-220.44 96.88c-1.95-9.62-3.68-13.59-11.06-16.65-7.7-3.19-13.71-2.51-19.96.23-17.66 7.73-13.96 28.25-9.38 43.78 2.14 7.25 3.48 16.92 4.33 24.4.36 3.19 4.92 2.65 5.53 2.74 7.69 1.14 14.53 1.17 21.4-.23 7.47-1.52 5.13-2.59 6.73-8.67 1.92-7.3 2.64-12.77 2.88-22.8.17-6.96.73-16.88-.47-22.8"/></defs><use xlink:href="#SVGID_00000119078332179812422490000011882999829210428337_" style="overflow:visible;fill-rule:evenodd;clip-rule:evenodd;fill:#e1000f"/><clipPath id="SVGID_00000018209410295733240430000009728157464133125026_"><use xlink:href="#SVGID_00000119078332179812422490000011882999829210428337_" style="overflow:visible"/></clipPath><g style="clip-path:url(#SVGID_00000018209410295733240430000009728157464133125026_)"><defs><path id="SVGID_00000108988897556981621250000011849949805566378167_" d="M-964.59-2218.9h2532.07v7501.25H-964.59z"/></defs><clipPath id="SVGID_00000107573487015467455680000010223253128763902344_"><use xlink:href="#SVGID_00000108988897556981621250000011849949805566378167_" style="overflow:visible"/></clipPath></g></g><g><defs><path id="SVGID_00000052820283204678490430000013020802284447465903_" d="M-194.55 177.16c1.32.93 2.7 1.62 4.02 2.54 2.24 1.57 3.15 3.34 4.43 5.71.16.28.27.72-.02.86-.13.06-.27.03-.41-.01-1.29-.36-2.03-1.29-3.03-2.18 1.06 2.32 1.55 4.95 2.41 7.35.1.3.2.66 0 .91-.26.32-.77.18-1.14.01-3.02-1.44-5.59-3.77-7.4-6.58-1.19-1.85-4.17-7.06-1.97-8.95.69-.6 1.96-.62 2.38.1"/></defs><use xlink:href="#SVGID_00000052820283204678490430000013020802284447465903_" style="overflow:visible;fill-rule:evenodd;clip-rule:evenodd;fill:#9f714f"/><clipPath id="SVGID_00000076603331169005625440000016366632848743281536_"><use xlink:href="#SVGID_00000052820283204678490430000013020802284447465903_" style="overflow:visible"/></clipPath><g style="clip-path:url(#SVGID_00000076603331169005625440000016366632848743281536_)"><defs><path id="SVGID_00000003793406655689828040000005989251964498151053_" d="M-964.59-2218.9h2532.07v7501.25H-964.59z"/></defs><clipPath id="SVGID_00000159466559633649175490000009554307656774718364_"><use xlink:href="#SVGID_00000003793406655689828040000005989251964498151053_" style="overflow:visible"/></clipPath></g></g><g><defs><path id="SVGID_00000011721479811751994590000002441138283709423039_" d="M-223.5 136.83c1.76.37 3.22 1.56 4.51 2.82 10.54 10.2 15 24.58 25.1 35.21.99 1.29-4.04 6.85-5.97 5.25-4.68-3.64-22.83-21.79-25.2-24.34-1.69-1.82-3.38-3.65-4.7-5.74-1.29-2.05-1.79-4.3-1.79-6.71 0-.85.04-1.71.27-2.53.91-3.23 4.7-4.61 7.78-3.96"/></defs><use xlink:href="#SVGID_00000011721479811751994590000002441138283709423039_" style="overflow:visible;fill-rule:evenodd;clip-rule:evenodd;fill:#e1000f"/><clipPath id="SVGID_00000029016414052921732490000013154390298326700931_"><use xlink:href="#SVGID_00000011721479811751994590000002441138283709423039_" style="overflow:visible"/></clipPath><g style="clip-path:url(#SVGID_00000029016414052921732490000013154390298326700931_)"><defs><path id="SVGID_00000120520731252871050760000015789017055298155934_" d="M-964.59-2218.9h2532.07v7501.25H-964.59z"/></defs><clipPath id="SVGID_00000092420043444341097150000012947748915869447820_"><use xlink:href="#SVGID_00000120520731252871050760000015789017055298155934_" style="overflow:visible"/></clipPath></g></g><g><defs><path id="SVGID_00000044161301117773281850000009804162989117869701_" d="M-245.49 109.82c-1.29-4.28-2.46-8.8-1.57-13.18.89-4.38 4.45-8.54 8.92-8.63 2.36-.05 4.64 1.03 6.4 2.6 1.76 1.57 3.05 3.6 4.12 5.69 3.18 6.19 4.68 13.08 6.01 19.91 1.37 7.04 2.59 14.11 3.81 21.18.13.72.25 1.46.18 2.18-.17 1.62-1.32 3-2.69 3.87-1.38.86-2.98 1.29-4.55 1.7-2.11.55-4.34.72-6.35-.38-2.18-1.19-3.13-4.36-3.99-6.51-1.25-3.12-2.49-6.25-3.69-9.39-2.4-6.27-4.65-12.6-6.6-19.04"/></defs><clipPath id="SVGID_00000106124954088663041210000006107874692062752944_"><use xlink:href="#SVGID_00000044161301117773281850000009804162989117869701_" style="overflow:visible"/></clipPath><g style="clip-path:url(#SVGID_00000106124954088663041210000006107874692062752944_)"><defs><path id="SVGID_00000031203677570877802980000006670337199725554853_" d="M-964.59-2218.9h2532.07v7501.25H-964.59z"/></defs><clipPath id="SVGID_00000091009119889932505370000001452026353736466309_"><use xlink:href="#SVGID_00000031203677570877802980000006670337199725554853_" style="overflow:visible"/></clipPath></g></g></g><linearGradient id="SVGID_1_" gradientUnits="userSpaceOnUse" x1="110.998" y1="4.482" x2="110.998" y2="163.95"><stop offset="0" style="stop-color:#3b8f6d"/><stop offset=".898" style="stop-color:#73e0cf"/></linearGradient><path style="fill:url(#SVGID_1_)" d="M221.84 191.99V64.01L111 0 .16 64.01v127.98L111 256z"/><path class="st702" d="M156.61 44.02c0-6.64-5.38-12.02-12.02-12.02H77.41c-6.64 0-12.02 5.38-12.02 12.02v167.96c0 6.64 5.38 12.02 12.02 12.02h67.18c6.64 0 12.02-5.38 12.02-12.02V44.02z"/><defs><path id="SVGID_00000086680011802480811370000001223875326279498634_" d="M141.32 35.38H80.68c-6.64 0-12.02 5.38-12.02 12.02v159.27c0 5.84 4.74 10.58 10.58 10.58h62.08c6.64 0 12.02-5.38 12.02-12.02V47.4c0-6.64-5.38-12.02-12.02-12.02z"/></defs><use xlink:href="#SVGID_00000086680011802480811370000001223875326279498634_" style="overflow:visible;fill:#0c0ccf"/><clipPath id="SVGID_00000118355779153663973980000003397300479029341629_"><use xlink:href="#SVGID_00000086680011802480811370000001223875326279498634_" style="overflow:visible"/></clipPath><path class="st702" d="M156.61 44.02c0-6.64-5.38-12.02-12.02-12.02H77.41c-6.64 0-12.02 5.38-12.02 12.02v167.96c0 6.64 5.38 12.02 12.02 12.02h67.18c6.64 0 12.02-5.38 12.02-12.02V44.02z"/><defs><path id="SVGID_00000026869326965796316710000001915820872695850403_" d="M141.32 35.38H80.68c-6.64 0-12.02 5.38-12.02 12.02v159.27c0 5.84 4.74 10.58 10.58 10.58h62.08c6.64 0 12.02-5.38 12.02-12.02V47.4c0-6.64-5.38-12.02-12.02-12.02z"/></defs><use xlink:href="#SVGID_00000026869326965796316710000001915820872695850403_" style="overflow:visible;fill:#f3f6fe"/><clipPath id="SVGID_00000138543366347782185230000016774050535200258481_"><use xlink:href="#SVGID_00000026869326965796316710000001915820872695850403_" style="overflow:visible"/></clipPath><g style="clip-path:url(#SVGID_00000138543366347782185230000016774050535200258481_)"><defs><path id="SVGID_00000130649149947512013620000008017872625390601133_" d="M104.5 159.58c-1.2.08-2.4.09-3.59.04-8.07-.39-16.49-2.97-18.54-11.81-3.87-16.63 6.89-19.55 7.53-25.4.3-2.71-1.71-4.99-1.48-7.77.32-4 2.69-6.81 4.05-10.4 1.21-3.2.06-2.65-1.23-5.73-1.17-2.82-.87-5.56-.09-8.38.47-1.72 1.56-3.06 2.23-4.67.58-1.4.6-2.88 1.28-4.23 1.64-3.26 5.62-5.63 8.93-6.77 12.88-4.43 25.12-2.54 33.72 8.62 15.46 20.08-.56 23.04 9.15 30.74 10.65 8.45 9.97 47.4-10.42 47.4-3.49 0-6.25-1.79-9.61-2.61-7.29-1.78-14.65.5-21.93.97z"/></defs><use xlink:href="#SVGID_00000130649149947512013620000008017872625390601133_" style="overflow:visible;fill:#b5b5b5"/><clipPath id="SVGID_00000000916750175143164780000014875952666405510329_"><use xlink:href="#SVGID_00000130649149947512013620000008017872625390601133_" style="overflow:visible"/></clipPath><defs><path id="SVGID_00000096754665673751184660000011525432621264721315_" d="M99.85 157.97s4.75-2.13 5.26-7.98c.51-5.85.86-13.33.86-13.33s-6.75-6.77-7.69-13.3c0 0-5.19-.98-4.14-9.87.53-4.45 3.53-1.96 3.53-1.96l-.01-9.64s-.46-11.76 12.23-12.56c5.05-.32 20.8 1.69 18.8 9.74-.85 3.43-.71 6.53.67 9.96.53 1.31 1.49 4.37 2.95 4.19 4.59-4.61 9.05 1.52 4.18 8.29-1.71 2.38-5.5 2.56-5.5 2.56s-.83 9.6-6.36 13.47c-2.37 1.66-1.74 1.81-1.74 1.81l.82 12.93 6.85 3.41-4.74 12.77c-.38 16.33-23.1 24.54-25.98.45-.49-4.2.01-10.94.01-10.94z"/></defs><use xlink:href="#SVGID_00000096754665673751184660000011525432621264721315_" style="overflow:visible;fill:#fbd8ab"/><clipPath id="SVGID_00000023262718664819109410000005725576799212195767_"><use xlink:href="#SVGID_00000096754665673751184660000011525432621264721315_" style="overflow:visible"/></clipPath><g><defs><path id="SVGID_00000095309704395151886410000009838619861116603567_" d="M198.38 224.72c.47.27 1.19.05 1.62.58 2.76 3.36-.43 8.92.75 12.59 1.63 5.07 5.68 9.08 5.19 14.72-.74 8.48-18.13 3.69-23.84.67-7.23-3.82-13.18-9.96-18.52-16.09-5.37-6.16-8.8-12.1-13.15-19.03-.09 8.14-7.96 14.83-7.88 23.04.05 5.2 4.56 8.81 5.29 13.71 1.09 7.25-5.04 7.46-10.58 7.46H103.6c-6.07 0-19.11 3.29-22.97-4.08-2.56-4.89-.33-12.84.17-17.78.64-6.29.96-14.14-3.99-19.45-3.82 6.68-9.05 17.72-17.04 20.82-5.81 2.26-16.13 2.88-21.59-.65-5.5-3.55-4.23-11.14-2.53-16.42 1.63-5.08 3.15-10.41 6.15-14.89 1.45-2.17 3.19-4.19 5.83-4.79 2.81-.63 8.63 2.89 10.19.2 1.25-2.15-1.27-6.08-1.27-8.55 0-2.24.78-4.5 2.46-5.9 2.71-2.27 5.61-3.51 7.53-6.71 4.05-6.75 10.44-24.29 25.87-24.29 0-6.29 12.33-8.02 12.33-8.02l-1.68 4.96 8.53 23.64 13.61-23.45-1.43-4.89s12.25.72 12.25 9.1c13.9 0 32.08 23.11 32.08 23.11 3.17 3.03 6.26 6.16 9.22 9.4 1.77 1.93 4.37 4.26 5.5 6.63 1.46 3.08 1.58 8.27 1.35 11.56-.13 1.85-1.99 7.51.07 9.09 2.16 1.66 5.16-1.44 8.07-.26 1.55.63 4.56 2.89 5.98 3.95.04-.01.06.01.09.02z"/></defs><use xlink:href="#SVGID_00000095309704395151886410000009838619861116603567_" style="overflow:visible;fill:#a19237"/><clipPath id="SVGID_00000091723831711880767210000016226444813843169930_"><use xlink:href="#SVGID_00000095309704395151886410000009838619861116603567_" style="overflow:visible"/></clipPath></g><g><defs><path id="SVGID_00000176036915695651871900000009155588406604993454_" d="M95.95 96.57c.62 1.97 1.47 3.76 2.65 5.62 1.54 2.43 3.1 3.54 5.74 4.4 1.8.59 4.42 1.42 6.02-.01 3.13-2.79-5.94-7.81-3.87-12.33.35 3.82 3.77 7.56 6.55 9.89 1.62 1.35 3.49 2.58 5.56 3.09 1.87.46 4.66-.05 6.23-1.2 1.93-1.4 2.24-4.24 4.72-5.37 1.73-.79 4.44-1.4 5.01-3.44.57-2.03.6-5.24.03-7.26-.7-2.48-2.17-5.43-3.94-7.31-4.09-4.33-9.62-6.49-15.47-7.24-5.34-.69-11.94.94-15.93 4.63-2.19 2.03-3.78 4.27-4.33 7.26-.41 2.22-.12 4.37.33 6.57.2.96.42 1.85.7 2.7z"/></defs><use xlink:href="#SVGID_00000176036915695651871900000009155588406604993454_" style="overflow:visible;fill:#b5b5b5"/><clipPath id="SVGID_00000121998141214462530190000012469625156254061197_"><use xlink:href="#SVGID_00000176036915695651871900000009155588406604993454_" style="overflow:visible"/></clipPath></g></g><circle class="st8" cx="111" cy="200" r="8"/><path class="st702" d="M116 202.46v1.96c0 .29-.23.53-.52.55-.24.02-.44.03-.59.03a8.89 8.89 0 0 1-8.89-8.89c0-.15.01-.35.03-.59.02-.29.26-.52.55-.52h1.96c.14 0 .26.11.28.25.01.13.02.23.04.31.11.77.34 1.52.67 2.22.05.11.02.24-.08.31l-1.2.86a7.206 7.206 0 0 0 3.8 3.8l.86-1.2c.07-.1.21-.14.32-.08.7.33 1.45.56 2.22.67.08.01.18.02.31.04.13.01.24.13.24.28z"/><circle class="st8" cx="135.2" cy="200" r="8"/><circle class="st8" cx="87" cy="200" r="8"/><path class="st6" d="M128.69 167.79h24v24h-24v-24z"/><path class="st702" d="m137.47 198.73 2.37-1.66c.1-.07.24-.05.32.06.03.04.04.08.04.13v5.49c0 .13-.1.23-.23.23-.05 0-.09-.01-.13-.04l-2.37-1.66v1.91c0 .25-.2.45-.45.45h-6.36c-.25 0-.45-.2-.45-.45v-6.36c0-.25.2-.45.45-.45h6.36c.25 0 .45.2.45.45v1.9zm-5.45-.55v.91h.91v-.91h-.91z"/><path class="st6" d="M82 195h10v10H82v-10z"/><path d="M87 195.42c1.15 0 2.08.93 2.08 2.08v1.67c0 1.15-.93 2.08-2.08 2.08s-2.08-.93-2.08-2.08v-1.67c0-1.15.93-2.08 2.08-2.08zm-3.73 4.16h.84c.23 1.59 1.71 2.7 3.31 2.47a2.928 2.928 0 0 0 2.47-2.47h.84a3.753 3.753 0 0 1-3.31 3.31v1.69h-.83v-1.69a3.753 3.753 0 0 1-3.32-3.31z"/><g><defs><path id="SVGID_00000120537228805538565490000003686142178084270474_" d="M102.2 85.38H77.15c-1.7 0-3.08-1.38-3.08-3.08V44.95c0-1.7 1.38-3.08 3.08-3.08h25.05c1.7 0 3.08 1.38 3.08 3.08V82.3c0 1.7-1.38 3.08-3.08 3.08z"/></defs><use xlink:href="#SVGID_00000120537228805538565490000003686142178084270474_" style="overflow:visible;fill:#12c7d2"/><clipPath id="SVGID_00000072993636159694245310000013605970730722024091_"><use xlink:href="#SVGID_00000120537228805538565490000003686142178084270474_" style="overflow:visible"/></clipPath><g style="clip-path:url(#SVGID_00000072993636159694245310000013605970730722024091_)"><path d="M82.89 70.21s-3.86 6.34-15.51 12.45c-3.01 1.58-6.87 7.27-6.69 16.57.18 9.31 45.27 3.84 50.97 4.02 5.7.18 8.04-16.05 2.73-16.05S92.24 71.23 92.24 71.23l-9.35-1.02z" style="fill:#006a6f"/><path class="st706" d="M90.6 83.06c.1.09 3.59-6.84 3.59-10.1s4.07-8.49 3.46-11.52c-.89-4.34.89-5.14.18-9.04-.52-2.88-6.74-2.75-11.65-1.2 0 0 .13 3.9-1.95 4.3l-.13 4.3s-2.3-2.35-2.35 1.24c-.04 3.01 2.08 3.46 2.08 3.46s.09 5.67-.31 6.78c-.01-.01 1.54 6.37 7.08 11.78z"/><path d="M84.26 55.9s-.09 2.17 1.6 5.14c.92 1.62.27 4.23 1.33 3.9 1.15-.35 1.68-1.07 5.27-1.02 2.97.04 3.06 2.53 3.9 1.51.84-1.02 1.29-2.72 1.29-2.72s-.48 3.99-.36 5.21c.18 1.91-.35 4.08-3.04 5.34-1.51.71-6.22.47-8.17-.95-1.95-1.42-2.62-3.14-2.28-5.43.33-2.28.56-5.87.07-6.71-.19-.34-.46-.67-.71-.95a.591.591 0 0 0-1.01.21l-.41 1.32s-.49-1.06-.49-2.53c0-1.46-.04-1.91-.35-2.79-.31-.89-1.15-1.99-.18-2.84.97-.84 1.86-1.51 2.04-2.7.11-.73.42-1.52 1.03-1.97.69-.51 1.42-.12 2.2-.44.48-.2.88-.67.82-1.19-.02-.18-.1-.38-.01-.54.07-.13.22-.2.37-.24 1.01-.29 2.09.02 3.04.46.28.13.59.28.9.22.34-.08.56-.39.8-.65 1.05-1.12 2.96-1.14 4.21-.25 1.25.89 1.85 2.51 1.77 4.04-.01.23-.04.46.05.68.11.28.37.46.6.65.36.28.68.63.82 1.07.28.91-.66 2.74-1.43 3.26l-.09-1.64s-5.45-3.9-11.83-1.6c-.02-.02 1.57 3.13-1.75 4.15z" style="fill:#8d533e"/><path class="st706" d="M89.89 66.09s1.35-.38 2.35-.22c1.11.18 1.99.58 1.99.58s-.66 1.06-2.26.84c-1.59-.23-2.08-1.2-2.08-1.2z"/></g></g><path d="m120.73 129.48-13.46 1.43s.94 4.39 7.1 3.94c4.96-.38 6.36-5.37 6.36-5.37z" style="fill:#b5b5b5"/></g></svg>
