<svg xmlns="http://www.w3.org/2000/svg" xmlns:xlink="http://www.w3.org/1999/xlink" viewBox="0 0 192 192" style="enable-background:new 0 0 192 192" xml:space="preserve"><style>.st622,.st794,.st795,.st796{fill-rule:evenodd;clip-rule:evenodd;fill:#e1000f}.st794,.st795,.st796{fill:#518fff}.st795,.st796{fill:#0909b9}.st796{fill:#f06060}.st809{display:none}.st1735{display:inline;fill-rule:evenodd;clip-rule:evenodd}</style><g id="ILLU"><defs><path id="SVGID_00000034776031018459179110000010028138494948587929_" d="M-451.43-1268.79v-127.97l-110.84-64.02-110.84 64.02v127.97l110.84 64.01z"/></defs><radialGradient id="SVGID_00000038385518014641045940000005946588252087876489_" cx="-456.464" cy="-1384.572" r="368.525" gradientUnits="userSpaceOnUse"><stop offset=".233" style="stop-color:#9797f7"/><stop offset=".551" style="stop-color:#518fff"/></radialGradient><use xlink:href="#SVGID_00000034776031018459179110000010028138494948587929_" style="overflow:visible;fill:url(#SVGID_00000038385518014641045940000005946588252087876489_)"/><clipPath id="SVGID_00000108999929621713722420000005782642639451460522_"><use xlink:href="#SVGID_00000034776031018459179110000010028138494948587929_" style="overflow:visible"/></clipPath><g style="clip-path:url(#SVGID_00000108999929621713722420000005782642639451460522_)"><defs><path id="SVGID_00000124863613059387850940000008589964511004699283_" d="M-571.68-1394.48c-.25 3.74-1.86 10.01-2.29 13.73 8.14 3.31 16.46 4.46 15.93.79-.6-4.41-.57-10.79-.17-15.21 1.4-11.54-9.27-13.81-12.42-8.39-.42 1.41-.95 7.63-1.05 9.08"/></defs><clipPath id="SVGID_00000065044598778601586570000003808213593152753812_"><use xlink:href="#SVGID_00000124863613059387850940000008589964511004699283_" style="overflow:visible"/></clipPath><g style="clip-path:url(#SVGID_00000065044598778601586570000003808213593152753812_)"><defs><path id="SVGID_00000160903840038410371420000005433553699239615667_" d="M-1292.62-3679.67h2532.07v7501.25h-2532.07z"/></defs><clipPath id="SVGID_00000103258743375714253240000008671869404083654061_"><use xlink:href="#SVGID_00000160903840038410371420000005433553699239615667_" style="overflow:visible"/></clipPath></g><defs><path id="SVGID_00000096023823438097964750000005847141912078394275_" d="M-573.54-1421.3c-1.13 3.38-2.76 13.62 3.19 22.84 2.66 4.12 6.73 5.73 11.13 7.01 4.92 1.43 9.19 1.65 11.14-2.84 1.07-2.46.64-5.93 1.04-8.59.93-.01 2.77-.26 3.85-.35-.74-4.78-.72-6.36-2.19-13.89-1.15-5.87-5.57-9.72-11.61-11.03-5.23-1.16-13.87-1.17-16.55 6.85"/></defs><clipPath id="SVGID_00000052091570987251389400000002111138476070281356_"><use xlink:href="#SVGID_00000096023823438097964750000005847141912078394275_" style="overflow:visible"/></clipPath><g style="clip-path:url(#SVGID_00000052091570987251389400000002111138476070281356_)"><defs><path id="SVGID_00000173849945467266882720000002766142684097988797_" d="M-1292.62-3679.67h2532.07v7501.25h-2532.07z"/></defs><clipPath id="SVGID_00000137851823030990310230000013559723113669297066_"><use xlink:href="#SVGID_00000173849945467266882720000002766142684097988797_" style="overflow:visible"/></clipPath></g><defs><path id="SVGID_00000101065937572156908480000010559483458287309198_" d="M-572.78-1402.68c.01-2.52-2.66-11.03 2.71-10.46 2.33.25 3.33 4.24 5.95 2.18 1.85-1.46 2.51-5.53 2.62-7.68.11-2.29-.93-6.77-1.53-8.74 3.42.63 8.66 1.89 12.04 1.42-3.72-3.11-10.13-3.27-14.56-2.77-6.2.7-9.23 7.22-9.88 12.98-.25 2.21-.54 7.24 2.5 12.85"/></defs><clipPath id="SVGID_00000029034977581970782550000006218017721991848340_"><use xlink:href="#SVGID_00000101065937572156908480000010559483458287309198_" style="overflow:visible"/></clipPath><g style="clip-path:url(#SVGID_00000029034977581970782550000006218017721991848340_)"><defs><path id="SVGID_00000000923459229918519840000009974787307213608625_" d="M-1292.62-3679.67h2532.07v7501.25h-2532.07z"/></defs><clipPath id="SVGID_00000077309502839611683530000013021334333922513819_"><use xlink:href="#SVGID_00000000923459229918519840000009974787307213608625_" style="overflow:visible"/></clipPath></g><defs><path id="SVGID_00000158011226110318592870000009552020361038537376_" d="M-560.62-1317.56c-5.56-.16-18.78 3.89-17.24 18.96.43 4.25 4.44 15.67 5.93 19.57 3.47 9.04 12.2 27.81 14.79 35.31 2.29 6.65 2.48 16.73 7.89 19.77 2.32 1.3 7.95 2.6 12.5.09 1.13-.62 6.81-4.39 5.82-11.68-.54-3.97-1.06-3.25-1.68-7.21-1.25-7.95-1.95-14.81-3.81-22.63-1.74-7.37-5.13-18.61-7.34-25.69-3.07-9.85-1.77-26.05-16.86-26.49"/></defs><clipPath id="SVGID_00000044168268266690680720000004632668612267346310_"><use xlink:href="#SVGID_00000158011226110318592870000009552020361038537376_" style="overflow:visible"/></clipPath><g style="clip-path:url(#SVGID_00000044168268266690680720000004632668612267346310_)"><defs><path id="SVGID_00000008871688347259818470000006692092160440470441_" d="M-1292.62-3679.67h2532.07v7501.25h-2532.07z"/></defs><clipPath id="SVGID_00000177444117463697874940000007552178202940265872_"><use xlink:href="#SVGID_00000008871688347259818470000006692092160440470441_" style="overflow:visible"/></clipPath></g><defs><path id="SVGID_00000014609316997869651920000012188425387910747544_" d="M-529.42-1231.45c-3.74-14.33-16.17-17.75-23.23-6.36-2.91 4.69 1.39 9.78 2.56 16.35.68 3.85.84 10.69 3.57 19.11 1.99 6.13 10.75 22.72 12.01 25.69 1.37 3.22 3.04 7 4.34 10.31-.08.85 10.12-.99 10.19-2.22.04-.74-2.12-10.85-2.31-12.71-.69-6.84-4.08-28.38-5.38-35.28-.97-5.2-.57-10.37-1.75-14.89"/></defs><clipPath id="SVGID_00000112605624677417511480000000115765586698484651_"><use xlink:href="#SVGID_00000014609316997869651920000012188425387910747544_" style="overflow:visible"/></clipPath><g style="clip-path:url(#SVGID_00000112605624677417511480000000115765586698484651_)"><defs><path id="SVGID_00000137838268644190005090000016958643366999457703_" d="M-1292.62-3679.67h2532.07v7501.25h-2532.07z"/></defs><clipPath id="SVGID_00000165922744328003259410000006206957768673268395_"><use xlink:href="#SVGID_00000137838268644190005090000016958643366999457703_" style="overflow:visible"/></clipPath></g><g><defs><path id="SVGID_00000048470940876083910710000008700290189894154420_" d="M-526.75-1158.45c1.75-.44 1.72-.88 3.1-1.02 1.86-.18 1.96.03 3.8-.27 2.97-.49 3.79-.7 6.51-1.84.48-.2 2.15-2.37 1.09-2.44-2.11-.15-3.57-.18-5.54-.82-2.96-1.43-1.15-.9-5.28-4.4-2.21-1.86-4.44-.35-5.38 1.01-.65.94-.12 2.45-.67 3.69-1.24 2.81-.79 4.46.2 6.36.53.06 1.27-.04 2.17-.27"/></defs><clipPath id="SVGID_00000148630102337226927270000000256383796373322163_"><use xlink:href="#SVGID_00000048470940876083910710000008700290189894154420_" style="overflow:visible"/></clipPath><g style="clip-path:url(#SVGID_00000148630102337226927270000000256383796373322163_)"><defs><path id="SVGID_00000044886494789569503490000017527063499719084687_" d="M-1292.62-3679.67h2532.07v7501.25h-2532.07z"/></defs><clipPath id="SVGID_00000134249295257783662820000014117162281751906182_"><use xlink:href="#SVGID_00000044886494789569503490000017527063499719084687_" style="overflow:visible"/></clipPath></g></g><g><defs><path id="SVGID_00000044152267189899754770000013045393751981605001_" d="M-614-1166.38c1.47 1.05 2.25.87 3.31 1.77 1.42 1.22 1.33 1.43 2.82 2.55 2.4 1.8 3.13 2.26 5.83 3.43.47.2 3.2-.09 2.53-.9-1.35-1.62-2.35-2.7-3.25-4.57-1.02-3.12-.14-1.45-.48-6.85-.18-2.88-2.82-3.45-4.45-3.19-1.13.18-1.86 1.61-3.13 2.07-2.89 1.05-3.83 2.28-4.51 4.3.43.73 1.19 1.29 1.33 1.39"/></defs><clipPath id="SVGID_00000125565786605689323980000006006606901949044393_"><use xlink:href="#SVGID_00000044152267189899754770000013045393751981605001_" style="overflow:visible"/></clipPath><g style="clip-path:url(#SVGID_00000125565786605689323980000006006606901949044393_)"><defs><path id="SVGID_00000163052815051954576460000011170592055304569492_" d="M-1292.62-3679.67h2532.07v7501.25h-2532.07z"/></defs><clipPath id="SVGID_00000003827804465465800480000003422261351388345009_"><use xlink:href="#SVGID_00000163052815051954576460000011170592055304569492_" style="overflow:visible"/></clipPath></g></g><g><defs><path id="SVGID_00000054948209818912367680000003620285815676855205_" d="M-568.78-1222.63c6.29-13.41-1.08-23.98-13.79-19.73-5.23 1.75-5.18 8.41-8.49 14.21-1.94 3.4-6.19 8.76-9.47 16.98-2.39 5.98-6.27 24.34-7.2 27.43-1.01 3.35-2.14 7.33-3.26 10.7-.6.6 8.42 5.71 9.26 4.81.51-.54 5.31-9.69 6.35-11.24 3.85-5.7 15.01-24.43 18.43-30.57 2.57-4.64 6.19-8.37 8.17-12.59"/></defs><clipPath id="SVGID_00000075884107527180071370000005319062967147976595_"><use xlink:href="#SVGID_00000054948209818912367680000003620285815676855205_" style="overflow:visible"/></clipPath><g style="clip-path:url(#SVGID_00000075884107527180071370000005319062967147976595_)"><defs><path id="SVGID_00000149359773306703664970000005603021039382156982_" d="M-1292.62-3679.67h2532.07v7501.25h-2532.07z"/></defs><clipPath id="SVGID_00000181788311346567644240000011205918051122312613_"><use xlink:href="#SVGID_00000149359773306703664970000005603021039382156982_" style="overflow:visible"/></clipPath></g></g><g><defs><path id="SVGID_00000091010739738518498150000000160703243503926662_" d="M-563.25-1317.38c-5.08-2.26-18.85-3.53-23.15 11-1.21 4.1-1.85 16.18-1.95 20.36-.23 9.68.73 30.36.27 38.27-.4 7.02-4.06 16.42-.21 21.28 1.65 2.08 6.37 5.42 11.53 4.82 1.28-.15 7.97-1.48 9.82-8.6 1.01-3.87.26-3.41 1.18-7.31 1.86-7.83 3.82-14.45 5.07-22.38 1.18-7.48 2.32-19.17 2.97-26.56.91-10.25 8.26-24.74-5.53-30.88"/></defs><clipPath id="SVGID_00000163776755394842955570000013642116055554215852_"><use xlink:href="#SVGID_00000091010739738518498150000000160703243503926662_" style="overflow:visible"/></clipPath><g style="clip-path:url(#SVGID_00000163776755394842955570000013642116055554215852_)"><defs><path id="SVGID_00000021108427504189487340000007254809778821867151_" d="M-1292.62-3679.67h2532.07v7501.25h-2532.07z"/></defs><clipPath id="SVGID_00000019646038727910549650000003680434942124601524_"><use xlink:href="#SVGID_00000021108427504189487340000007254809778821867151_" style="overflow:visible"/></clipPath></g></g><g><defs><path id="SVGID_00000146478020789918243780000012710052104121682613_" d="M-548.48-1363.9c-1.95-9.62-3.68-13.59-11.06-16.65-7.7-3.19-13.71-2.51-19.96.23-17.66 7.73-13.96 28.25-9.38 43.78 2.14 7.25 3.48 16.92 4.33 24.4.36 3.19 4.92 2.65 5.53 2.74 7.69 1.14 14.53 1.17 21.4-.23 7.47-1.52 5.13-2.59 6.73-8.67 1.92-7.3 2.64-12.77 2.88-22.8.18-6.95.73-16.87-.47-22.8"/></defs><use xlink:href="#SVGID_00000146478020789918243780000012710052104121682613_" style="overflow:visible;fill-rule:evenodd;clip-rule:evenodd;fill:#e1000f"/><clipPath id="SVGID_00000150811754025306690750000015301614219384924544_"><use xlink:href="#SVGID_00000146478020789918243780000012710052104121682613_" style="overflow:visible"/></clipPath><g style="clip-path:url(#SVGID_00000150811754025306690750000015301614219384924544_)"><defs><path id="SVGID_00000180362006471948009850000008191471027752836773_" d="M-1292.62-3679.67h2532.07v7501.25h-2532.07z"/></defs><clipPath id="SVGID_00000126289025371368840960000010448108183642072502_"><use xlink:href="#SVGID_00000180362006471948009850000008191471027752836773_" style="overflow:visible"/></clipPath></g></g><g><defs><path id="SVGID_00000109715991480403162560000016972847843165619634_" d="M-522.59-1283.61c1.32.93 2.7 1.62 4.02 2.54 2.24 1.57 3.15 3.34 4.43 5.71.16.28.27.72-.02.86-.13.06-.27.03-.41-.01-1.29-.36-2.03-1.29-3.03-2.18 1.06 2.32 1.55 4.95 2.41 7.35.1.3.2.66 0 .91-.26.32-.77.18-1.14.01-3.02-1.44-5.59-3.77-7.4-6.58-1.19-1.85-4.17-7.06-1.97-8.95.69-.6 1.96-.62 2.38.1"/></defs><use xlink:href="#SVGID_00000109715991480403162560000016972847843165619634_" style="overflow:visible;fill-rule:evenodd;clip-rule:evenodd;fill:#9f714f"/><clipPath id="SVGID_00000049216786959259378280000007281743353937146011_"><use xlink:href="#SVGID_00000109715991480403162560000016972847843165619634_" style="overflow:visible"/></clipPath><g style="clip-path:url(#SVGID_00000049216786959259378280000007281743353937146011_)"><defs><path id="SVGID_00000054975311937008717370000013091139236591778485_" d="M-1292.62-3679.67h2532.07v7501.25h-2532.07z"/></defs><clipPath id="SVGID_00000060030564985458191250000007529502294702190466_"><use xlink:href="#SVGID_00000054975311937008717370000013091139236591778485_" style="overflow:visible"/></clipPath></g></g><g><defs><path id="SVGID_00000140694021758384628930000001275582797414399895_" d="M-551.53-1323.95c1.76.37 3.22 1.56 4.51 2.81 10.54 10.2 15 24.58 25.1 35.21.99 1.29-4.04 6.85-5.97 5.25-4.68-3.64-22.83-21.79-25.2-24.34-1.69-1.82-3.38-3.65-4.7-5.74-1.29-2.05-1.79-4.3-1.79-6.71 0-.85.04-1.71.27-2.53.9-3.21 4.69-4.6 7.78-3.95"/></defs><use xlink:href="#SVGID_00000140694021758384628930000001275582797414399895_" style="overflow:visible;fill-rule:evenodd;clip-rule:evenodd;fill:#e1000f"/><clipPath id="SVGID_00000093898096980344771810000008333361322859671477_"><use xlink:href="#SVGID_00000140694021758384628930000001275582797414399895_" style="overflow:visible"/></clipPath><g style="clip-path:url(#SVGID_00000093898096980344771810000008333361322859671477_)"><defs><path id="SVGID_00000163788065329840612640000006516937494823809461_" d="M-1292.62-3679.67h2532.07v7501.25h-2532.07z"/></defs><clipPath id="SVGID_00000170257074723633277990000010953230167716650887_"><use xlink:href="#SVGID_00000163788065329840612640000006516937494823809461_" style="overflow:visible"/></clipPath></g></g><g><defs><path id="SVGID_00000063604625004412618720000004424829409099708032_" d="M-573.52-1350.95c-1.29-4.28-2.46-8.8-1.57-13.18.89-4.38 4.45-8.54 8.92-8.63 2.36-.05 4.64 1.03 6.4 2.6 1.76 1.57 3.05 3.6 4.12 5.69 3.18 6.19 4.68 13.08 6.01 19.91 1.37 7.04 2.59 14.11 3.81 21.18.13.72.25 1.46.18 2.18-.17 1.62-1.32 3-2.69 3.87-1.38.86-2.98 1.29-4.55 1.7-2.11.55-4.34.72-6.35-.38-2.18-1.19-3.13-4.36-3.99-6.51-1.25-3.12-2.49-6.25-3.69-9.39-2.41-6.27-4.66-12.61-6.6-19.04"/></defs><clipPath id="SVGID_00000102534834222554915250000004850736090883810972_"><use xlink:href="#SVGID_00000063604625004412618720000004424829409099708032_" style="overflow:visible"/></clipPath><g style="clip-path:url(#SVGID_00000102534834222554915250000004850736090883810972_)"><defs><path id="SVGID_00000021116885598672056060000007233272968582907523_" d="M-1292.62-3679.67h2532.07v7501.25h-2532.07z"/></defs><clipPath id="SVGID_00000052083337029861245160000014485248363920446125_"><use xlink:href="#SVGID_00000021116885598672056060000007233272968582907523_" style="overflow:visible"/></clipPath></g></g></g><g><defs><path id="SVGID_00000166675151424035961910000017464162478684326794_" d="M0 0h192v192H0z"/></defs><clipPath id="SVGID_00000018198174595989180810000014077501633662060476_"><use xlink:href="#SVGID_00000166675151424035961910000017464162478684326794_" style="overflow:visible"/></clipPath><linearGradient id="SVGID_1_" gradientUnits="userSpaceOnUse" x1="94.264" y1="194.35" x2="94.264" y2="-135.368"><stop offset=".398" style="stop-color:#f99782"/><stop offset="1" style="stop-color:#e1000f"/></linearGradient><path style="clip-path:url(#SVGID_00000018198174595989180810000014077501633662060476_);fill:url(#SVGID_1_)" d="M-3.97-1.46H192.5v194.45H-3.97z"/><linearGradient id="SVGID_00000170972250705328251010000011069606418938004123_" gradientUnits="userSpaceOnUse" x1="103.322" y1="96.19" x2="146.417" y2="211.37"><stop offset="0" style="stop-color:#518fff"/><stop offset=".156" style="stop-color:#4f8bfd"/><stop offset=".307" style="stop-color:#4980f7"/><stop offset=".456" style="stop-color:#3e6ced"/><stop offset=".603" style="stop-color:#3051de"/><stop offset=".748" style="stop-color:#1d2ecc"/><stop offset=".875" style="stop-color:#0909b9"/></linearGradient><path style="clip-path:url(#SVGID_00000018198174595989180810000014077501633662060476_);fill-rule:evenodd;clip-rule:evenodd;fill:url(#SVGID_00000170972250705328251010000011069606418938004123_)" d="M0 175.46c14.75-12.46 28.42-29.47 55.07-43.95 46.91-25.49 49.44-24.31 72.98-50.42 22.56-25.02 16.23-44.22 64.95-60.4 45.86-15.23 24.66 42.12 24.66 42.12L209 214.14l-210.9-18.3c.01 0-9.32-10.91 1.9-20.38z"/><g style="clip-path:url(#SVGID_00000018198174595989180810000014077501633662060476_)"><path class="st794" d="M94.05 103.46c-2.79.18-5.54 1.55-7.11 3.86-2.11 3.12-1.71 8.25.78 11.03 7.31 8.17 14.04 5.99 61.23-14.36-.13-3.79-1.46-6.71-2.66-10.29-.01.01-51 9.68-52.24 9.76z"/><path class="st795" d="M100.16 104.58c-5.54-3.52-11.15-6.72-16.11-11.07-7.01-6.14-11.57-12.14-18.91-18.35-16.56-14.01-32.15 9.68-16.67 21.41 4.84 3.67 21.23 18.09 44.49 26.38 9.95 3.55 22.97-8.34 7.2-18.37zM147.27 86.73c-.02-.33-.17-.66-.33-.96.12.24-3.39 1.74-3.72 1.86-1.31.46-2.68.68-3.96 1.23-1.74.75-3.34 2.1-4.55 3.53-1 1.19-1.47 2.71.12 4.04 1.04.87 1.59.93 2.87.48.53-.19 1.05-.44 1.48-.8 1-.84 1.46-2.28 1.11-3.54-.02-.09-.05-.19-.01-.27.03-.05.08-.08.13-.11 2.02-1.24 4.13-2.5 5.94-4.01.41-.34.84-.73.91-1.25.01-.06.01-.13.01-.2z"/><path class="st796" d="M139.91 94.66c.37 1.01.77 2.01 1.17 3.01.12.29 1.08 3.01 1.35 2.97.69-.1 1.39-.21 2.1-.33 1.73-.29 3.44-.68 5.13-1.17.75-.22 1.48-.4 2.23-.57.67-.15 1.45-.54 1.71-1.21.23-.6.01-1.26-.22-1.85-.33-.83-.7-1.65-1.1-2.45-.21-.41-.44-.83-.79-1.13-.61-.52-1.49-.6-2.29-.55-.57.04-1.14.14-1.72.14-.56 0-1.04-.15-1.62-.06-.73.11-1.42.44-2.08.75-.29.14-4.1 1.85-4.08 1.91.08.18.14.36.21.54z"/><path class="st795" d="M143.59 93.38c-.02.15-.03.29-.04.44-.04.97.21 1.93.5 2.85.15.47.32.96.67 1.32.44.45 1.1.61 1.73.58.59-.03 1.1-.27 1.66-.39.49-.11 1.02-.14 1.52-.23 1.15-.21 2.29-.46 3.42-.74.03-.14.06-.73.04-.89.01.11-2.16.15-4.38.16 1.92-.32 3.83-.76 5.73-1.37l-.6-1.2c-1.23.41-2.6.58-3.9.48.4.03 1-.24 1.39-.35.51-.14 1.03-.29 1.53-.47.92-.32 1.77-.72 2.63-1.17-.19-.46-.49-.89-.78-1.29-.02-.02-2.95 1.02-3.24 1.09-.9.22-1.81.39-2.72.52 2.97-1.24 6.75-2.84 6.74-2.86-.24-.44-.45-.91-.74-1.35-.09-.14-5.56 1.6-6.26 1.78-1.33.34-1.75.45-3.16.74-1.43.19-1.63 1.53-1.74 2.35z"/></g><g style="clip-path:url(#SVGID_00000018198174595989180810000014077501633662060476_)"><defs><path id="SVGID_00000083050831443863515950000004104754168570526106_" d="M124.47 17.39c-8.49 3.67-.91 9.83-3.99 15.48-2.29 4.2-13.54-4.23-17.19-5.86-4.77-2.12-8.77 1.06-11.08 5.02-2.29 3.9-4.17 8.28-5 12.75-1.02 5.46-.45 22.8 5.68 25.66 1.69.79 3.31.32 5.07.44 8.34.55 11.35 5.87 6.86 13.35-2.87 4.8-6.73 7.22-12.08 8.01-8.94 1.32-12.7 6.94-13.82 15.72-.11.85-.93 11.96-1.53 11.87 7.1 1.08 14.09 2.86 21.26 3.53 3.8.35 10.76 2.77 13.95-.31 3.05-2.94.77-8.94 4.04-12.08 3.64-3.5 10.1-1.97 14.22-.31 5.03 2.03 10.68 5.64 5.49 11.19-1.94 2.07-5.52 4.33-2.45 6.69.97.74 2.78 1.05 3.93 1.34 4.01 1 7.72 1.52 11.77 1.88 5.32.47 10.42 2.34 15.72 2.95 7.78.89 8-7.51 8.6-13.55.4-4 3.2-15.07.57-18.56-2.75-3.65-8.12 3.04-12.17.66-3.18-1.87-3.96-7.53-4.35-10.66-.71-5.66-.63-21.96 8.76-21.29 4.31.31 8.77 8.36 13.33 5.52 5.79-3.63 5.74-19.24 6.02-25.2.18-3.84-.06-6.36-1.13-8.2-1.35-2.33-4.05-3.55-8.98-4.98-4.51-1.31-9.61-1.55-14.27-1.3-4.06.22-11.82 1.9-15.36-.58-4.23-2.96 4.56-11.37 1.01-16.14-1.97-2.64-7.16-3.01-10.1-3.66-4.54-.98-8.39-1.28-12.78.62z"/></defs><use xlink:href="#SVGID_00000083050831443863515950000004104754168570526106_" style="overflow:visible;fill-rule:evenodd;clip-rule:evenodd;fill:#fff"/><clipPath id="SVGID_00000132781314007812062380000007661563063543149717_"><use xlink:href="#SVGID_00000083050831443863515950000004104754168570526106_" style="overflow:visible"/></clipPath></g><path class="st795" d="M64.49 163.37c3.19 8.71 5.79 18.06 8.47 27.13 2.85 9.62 5.45 19.33 7.63 29.13 1.08 4.87 1.91 9.79 2.93 14.68 2.47 11.88-9.03 17.08-11.46 17.53-13.82 2.55-15.79-13.65-17.62-19.94-2.25-7.72-2.57-15.91-5.77-23.28-4.73-10.89-24.19-53.48-24.74-56.62-3.09-17.48 11.47-23.75 17.81-23.62 17.2.35 18.32 22.88 22.75 34.99z" style="clip-path:url(#SVGID_00000018198174595989180810000014077501633662060476_)"/><path class="st795" d="M40.35 180.43c-2.81 8.89-8.24 17.92-11.67 26.79-3.64 9.41-5.76 18.72-10.03 27.86-2.13 4.54-4.48 8.97-6.68 13.47-1.66 3.4-4.97 5.76-8.39 7.42-1.32.64-2.72 1.17-4.19 1.33-2.53.26-5.05-.63-7.3-1.83-2.82-1.5-5.48-3.63-6.71-6.58-2.87-6.88 2.52-13.96 4.92-20.09 2.94-7.53 3.5-15.28 5.47-23.11 2.92-11.57 8.31-23.29 11.3-35.08 1.29-5.09 2.85-10.13 4.54-15.1 1.03-3.03 1.76-6.28 3.43-9.01 1.72-2.81 3.94-5.31 6.53-7.35 1.28-1 2.64-1.89 4.11-2.58 5.77-2.71 11.8.7 18.03 2.06 20.52 4.48.54 29.45-3.36 41.8z" style="clip-path:url(#SVGID_00000018198174595989180810000014077501633662060476_)"/><path class="st794" d="M65.5 125.88c2.1-9.16 6.92-43.63 2.02-50.13-7.28-9.65-22.45-11.03-31.49-10.15-20.33 2-23.99 20.31-19.33 44.27.47 2.43 1.46 9.22 1.69 11.48.89 8.69-11.4 18.18.98 23.18 10.4 4.2 30.21 5 41.33 5.34 4.1.55 3.6-18.74 4.8-23.99z" style="clip-path:url(#SVGID_00000018198174595989180810000014077501633662060476_)"/><g style="clip-path:url(#SVGID_00000018198174595989180810000014077501633662060476_)"><path class="st622" d="M28.55 22.46c-.45 4.39.33 17.26 9.8 27.01 4.24 4.36 9.48 5.31 15.03 5.78 6.2.52 11.31-.25 12.44-6.2.62-3.26-.81-7.37-1.04-10.72 1.1-.24 3.2-1 4.47-1.37-2.14-5.63-2.53-7.57-6.26-16.37-2.91-6.86-9.16-10.46-16.65-10.57-6.5-.1-16.73 2.02-17.79 12.44z"/><path class="st795" d="M28.55 22.46c-.25 3.01.05 6.05.62 9.01.12.74.33 1.47.5 2.21.18.73.42 1.45.62 2.18.25.71.49 1.43.76 2.13.3.69.56 1.4.89 2.08 1.27 2.74 2.89 5.32 4.82 7.64l1.51 1.68c.26.27.54.53.81.79.28.25.57.49.86.74 1.18.95 2.49 1.71 3.88 2.31 2.78 1.2 5.81 1.68 8.8 1.96 1.5.14 3.01.24 4.52.18 1.5-.06 3.03-.25 4.43-.82 1.39-.58 2.64-1.57 3.34-2.92l.26-.5c.09-.17.14-.35.21-.53.06-.18.14-.35.19-.53l.13-.55c.2-.73.27-1.49.26-2.24 0-1.51-.25-3.01-.52-4.49-.13-.74-.27-1.48-.39-2.23-.06-.37-.12-.75-.17-1.12-.02-.19-.05-.37-.07-.56l-.02-.28-.01-.14-.01-.07v-.04c0-.01.02-.01.03-.01 1.5-.36 2.95-.92 4.43-1.36l-1.33-3.67-1.32-3.68c-.89-2.45-1.86-4.87-2.87-7.28l-.76-1.8c-.28-.59-.53-1.19-.87-1.75-.3-.58-.68-1.11-1.04-1.65-.4-.51-.78-1.04-1.24-1.51-.43-.49-.92-.92-1.4-1.37-.51-.4-1.01-.82-1.57-1.17-1.08-.72-2.25-1.33-3.47-1.78-1.22-.46-2.48-.81-3.77-1l-.48-.08-.49-.05c-.32-.03-.65-.07-.97-.1-.65-.03-1.3-.07-1.95-.06-2.6.02-5.22.38-7.7 1.19-2.47.81-4.82 2.15-6.53 4.13-1.72 1.96-2.67 4.52-2.92 7.11"/><g><path class="st795" d="M36.84 52.68c-.17 4.35-.7 9.63-1.07 13.96 2.37.65 15.25 4.54 18.61 4.5-.84-5.1-.35-14.82-.03-19.96-4.66-1.44-12.9-10.3-17.09-11.68-.43 1.66-.35 11.49-.42 13.18z"/><path class="st622" d="M39.36 67.91c-.05-.01-.12.06-.16.04a.642.642 0 0 1-.1-.13c-.01-.02-.11-.11-.1-.13.01-.03.14-.02.16-.04.05.01.12-.06.16-.04.02.01.09.11.1.13.01.01-.16.03-.16.04-.01.03.11.1.1.13z"/></g></g><g style="clip-path:url(#SVGID_00000018198174595989180810000014077501633662060476_)"><path class="st796" d="M53.54 73.22s1.66 7.5-2.79 58.74c2.52 2.84 4 3.87 4 3.87 1.94-1.1 1.46-.69 3.94-3.05 1.45-34.97-2.92-59.46-2.92-59.46l-2.23-.1z"/><path class="st795" d="M53.54 73.22c.12.71.15 1.44.2 2.16.04.72.06 1.45.08 2.17.03 1.45.04 2.89.02 4.34-.02 2.89-.12 5.79-.23 8.68-.23 5.78-.59 11.56-.97 17.33-.4 5.77-.84 11.54-1.32 17.31l-.36 4.32-.18 2.16c0 .09-.02.18-.02.27l.18.2.36.4c.24.27.49.53.74.79.5.52 1.02 1.03 1.55 1.51.27.24.54.48.82.71l.21.17.11.08c.04-.01.08-.04.12-.06l.47-.27c1.33-.62 2.29-1.75 3.35-2.72.18-5.15.32-10.31.28-15.46 0-5.15-.15-10.31-.4-15.46-.24-5.15-.62-10.29-1.12-15.42-.26-2.56-.54-5.13-.88-7.68-.16-1.28-.34-2.55-.54-3.83l-.15-.95-.08-.48-.02-.12-.01-.06h-.06l-.24-.01-1.91-.08"/></g><g style="clip-path:url(#SVGID_00000018198174595989180810000014077501633662060476_)"><path d="m107.45 75.25 7.51 1.4c.16-1.76.41-3.59.77-5.49.28-1.48.62-2.87.95-4.18l-7.42-1.39.49-2.64 7.59 1.42c4.72-15.68 13.9-21.9 24.54-19.92 8 1.49 12.12 5.93 14.89 11.66l-2.58 1.48c-2.44-5.23-5.81-9.11-12.66-10.38-9.16-1.71-17.04 3.48-21.31 17.7l27.3 5.09-.49 2.64-27.55-5.14c-.25 1.32-.59 2.71-.87 4.19-.35 1.9-.61 3.73-.77 5.49l27.38 5.11-.49 2.64-27.14-5.06c-.74 14.03 4.65 21.27 13.56 22.93 6.85 1.28 11.55-1.09 15.55-5.12l1.87 2.31c-4.58 4.44-10.01 7.01-18.1 5.5-10.31-1.92-16.61-10.69-15.77-26.16l-7.75-1.45.5-2.63z" style="fill:#0909b9"/></g><g style="clip-path:url(#SVGID_00000018198174595989180810000014077501633662060476_)"><path class="st795" d="M61.87 90.28C54.47 84.62 47.78 78 40.49 71.73c-9.95-8.57-28.41 4.17-16.43 20.33 3.62 4.88 19.92 19.37 49.26 24.72 4.56.83 9.49-3.77 9.58-8.4.21-9.97-15.8-14.09-21.03-18.1zM143.03 102.88c.09-.32.05-.68.01-1.01.03.27-3.77.54-4.13.54-1.39.01-2.76-.23-4.14-.12-1.89.14-3.85.89-5.46 1.86-1.33.8-2.27 2.08-1.21 3.86.7 1.16 1.2 1.4 2.56 1.39.56 0 1.13-.07 1.66-.27 1.22-.46 2.12-1.68 2.21-2.98.01-.09.01-.2.08-.26.04-.04.1-.05.16-.06 2.31-.51 4.72-1.01 6.92-1.85.49-.19 1.03-.41 1.27-.89.03-.08.05-.14.07-.21z"/><path class="st795" d="M127.56 106.76c.02 1.08.07 2.15.13 3.23.02.31.04 3.2.31 3.25.69.13 1.39.25 2.1.37 1.73.29 3.48.48 5.23.57.78.04 1.53.1 2.29.19.68.08 1.55-.04 2.01-.59.41-.49.42-1.19.4-1.83-.04-.89-.12-1.79-.25-2.67-.06-.46-.14-.93-.38-1.33-.41-.69-1.21-1.05-1.99-1.26-.55-.15-1.13-.24-1.67-.43-.53-.18-.94-.48-1.51-.58-.73-.13-1.48-.05-2.21.04-.31.04-4.48.41-4.48.48.01.18.01.37.02.56z"/><path class="st795" d="M136.45 108.35c-.07.13-.13.27-.18.4-.35.9-.43 1.89-.46 2.86-.01.5-.01 1.01.2 1.46.27.57.84.94 1.44 1.11.57.16 1.12.11 1.7.17.5.06 1.01.2 1.51.28 1.15.18 2.31.32 3.48.42.07-.12.3-.67.33-.82-.02.1-2.09-.56-4.19-1.28 1.92.33 3.87.53 5.86.57-.06-.44-.12-.89-.17-1.33-1.3-.02-2.65-.29-3.84-.82.37.16 1.02.1 1.43.12.53.04 1.07.06 1.6.06.97 0 1.91-.1 2.87-.25-.02-.5-.17-1-.32-1.47-.01-.02-3.13 0-3.42-.02-.92-.08-1.84-.22-2.74-.4 3.22-.2 7.31-.49 7.3-.51-.09-.5-.13-1.01-.26-1.52-.04-.16-5.78-.3-6.5-.36-1.37-.11-1.8-.14-3.23-.33-1.4-.28-2.03.92-2.41 1.66z"/><g><path class="st795" d="M73.46 96.51c-2.69-.74-5.75-.34-7.98 1.34-3.01 2.26-4.3 7.25-2.85 10.69 4.26 10.1 11.34 10.22 62.57 6.28 1.1-3.63.8-6.82.82-10.6.01 0-51.36-7.39-52.56-7.71z"/></g></g></g></g></svg>
