<svg xmlns="http://www.w3.org/2000/svg" xmlns:xlink="http://www.w3.org/1999/xlink" viewBox="0 0 192 192" style="enable-background:new 0 0 192 192" xml:space="preserve"><style>.st8{fill:#fff}.st622,.st795,.st804{fill-rule:evenodd;clip-rule:evenodd;fill:#e1000f}.st795,.st804{fill:#0909b9}.st804{fill:#8ad0ff}.st805{fill:#806447}.st806{fill:#8ad0ff}.st809{display:none}.st1735{display:inline;fill-rule:evenodd;clip-rule:evenodd}</style><g id="FOND"><radialGradient id="SVGID_1_" cx="14.581" cy="49.487" r="240.631" gradientTransform="translate(.99 1.978) scale(.9897)" gradientUnits="userSpaceOnUse"><stop offset="0" style="stop-color:#fae27e"/><stop offset=".092" style="stop-color:#f4dc7e"/><stop offset=".22" style="stop-color:#e2cc80"/><stop offset=".369" style="stop-color:#c4b182"/><stop offset=".534" style="stop-color:#9b8c85"/><stop offset=".712" style="stop-color:#665c89"/><stop offset=".898" style="stop-color:#26228e"/><stop offset="1" style="stop-color:#000091"/></radialGradient><path style="fill:url(#SVGID_1_)" d="M0 0h192v192H0z"/></g><g id="ILLU"><defs><path id="SVGID_00000034776031018459179110000010028138494948587929_" d="M-796.51-1268.79v-127.97l-110.84-64.02-110.84 64.02v127.97l110.84 64.01z"/></defs><radialGradient id="SVGID_00000080928510351533402410000002866232075097504399_" cx="-801.535" cy="-1384.572" r="368.525" gradientUnits="userSpaceOnUse"><stop offset=".233" style="stop-color:#9797f7"/><stop offset=".551" style="stop-color:#518fff"/></radialGradient><use xlink:href="#SVGID_00000034776031018459179110000010028138494948587929_" style="overflow:visible;fill:url(#SVGID_00000080928510351533402410000002866232075097504399_)"/><clipPath id="SVGID_00000008132917702047070500000004559675026329228170_"><use xlink:href="#SVGID_00000034776031018459179110000010028138494948587929_" style="overflow:visible"/></clipPath><g style="clip-path:url(#SVGID_00000008132917702047070500000004559675026329228170_)"><defs><path id="SVGID_00000124863613059387850940000008589964511004699283_" d="M-916.75-1394.48c-.25 3.74-1.86 10.01-2.29 13.73 8.14 3.31 16.46 4.46 15.93.79-.6-4.41-.57-10.79-.17-15.21 1.4-11.54-9.27-13.81-12.42-8.39-.42 1.41-.95 7.63-1.05 9.08"/></defs><clipPath id="SVGID_00000183221269940723684900000008384125122235236790_"><use xlink:href="#SVGID_00000124863613059387850940000008589964511004699283_" style="overflow:visible"/></clipPath><g style="clip-path:url(#SVGID_00000183221269940723684900000008384125122235236790_)"><defs><path id="SVGID_00000160903840038410371420000005433553699239615667_" d="M-1637.69-3679.67H894.38v7501.25h-2532.07z"/></defs><clipPath id="SVGID_00000060019488568629631460000017645072999291473080_"><use xlink:href="#SVGID_00000160903840038410371420000005433553699239615667_" style="overflow:visible"/></clipPath></g><defs><path id="SVGID_00000096023823438097964750000005847141912078394275_" d="M-918.61-1421.3c-1.13 3.38-2.76 13.62 3.19 22.84 2.66 4.12 6.73 5.73 11.13 7.01 4.92 1.43 9.19 1.65 11.14-2.84 1.07-2.46.64-5.93 1.04-8.59.93-.01 2.77-.26 3.85-.35-.74-4.78-.72-6.36-2.19-13.89-1.15-5.87-5.57-9.72-11.61-11.03-5.23-1.16-13.87-1.17-16.55 6.85"/></defs><clipPath id="SVGID_00000091724031157895952760000006218149515338901413_"><use xlink:href="#SVGID_00000096023823438097964750000005847141912078394275_" style="overflow:visible"/></clipPath><g style="clip-path:url(#SVGID_00000091724031157895952760000006218149515338901413_)"><defs><path id="SVGID_00000173849945467266882720000002766142684097988797_" d="M-1637.69-3679.67H894.38v7501.25h-2532.07z"/></defs><clipPath id="SVGID_00000132068752634822364860000012875122372158027933_"><use xlink:href="#SVGID_00000173849945467266882720000002766142684097988797_" style="overflow:visible"/></clipPath></g><defs><path id="SVGID_00000101065937572156908480000010559483458287309198_" d="M-917.85-1402.68c.01-2.52-2.66-11.03 2.71-10.46 2.33.25 3.33 4.24 5.95 2.18 1.85-1.46 2.51-5.53 2.62-7.68.11-2.29-.93-6.77-1.54-8.74 3.42.63 8.66 1.89 12.04 1.42-3.72-3.11-10.13-3.27-14.56-2.77-6.2.7-9.23 7.22-9.88 12.98-.25 2.21-.54 7.24 2.5 12.85"/></defs><clipPath id="SVGID_00000114789019791877422880000011790195797323650992_"><use xlink:href="#SVGID_00000101065937572156908480000010559483458287309198_" style="overflow:visible"/></clipPath><g style="clip-path:url(#SVGID_00000114789019791877422880000011790195797323650992_)"><defs><path id="SVGID_00000000923459229918519840000009974787307213608625_" d="M-1637.69-3679.67H894.38v7501.25h-2532.07z"/></defs><clipPath id="SVGID_00000121246523846599643760000009778892709674127544_"><use xlink:href="#SVGID_00000000923459229918519840000009974787307213608625_" style="overflow:visible"/></clipPath></g><defs><path id="SVGID_00000158011226110318592870000009552020361038537376_" d="M-905.69-1317.56c-5.56-.16-18.78 3.89-17.24 18.96.43 4.25 4.44 15.67 5.93 19.57 3.47 9.04 12.2 27.81 14.79 35.31 2.29 6.65 2.48 16.73 7.89 19.77 2.32 1.3 7.95 2.6 12.5.09 1.13-.62 6.81-4.39 5.82-11.68-.54-3.97-1.06-3.25-1.68-7.21-1.25-7.95-1.95-14.81-3.81-22.63-1.74-7.37-5.13-18.61-7.34-25.69-3.07-9.85-1.77-26.05-16.86-26.49"/></defs><clipPath id="SVGID_00000008146580231225263630000002221164828920518581_"><use xlink:href="#SVGID_00000158011226110318592870000009552020361038537376_" style="overflow:visible"/></clipPath><g style="clip-path:url(#SVGID_00000008146580231225263630000002221164828920518581_)"><defs><path id="SVGID_00000008871688347259818470000006692092160440470441_" d="M-1637.69-3679.67H894.38v7501.25h-2532.07z"/></defs><clipPath id="SVGID_00000077299018669520074630000006810441976245641089_"><use xlink:href="#SVGID_00000008871688347259818470000006692092160440470441_" style="overflow:visible"/></clipPath></g><defs><path id="SVGID_00000014609316997869651920000012188425387910747544_" d="M-874.49-1231.45c-3.74-14.33-16.17-17.75-23.23-6.36-2.91 4.69 1.39 9.78 2.56 16.35.68 3.85.84 10.69 3.57 19.11 1.99 6.13 10.75 22.72 12.01 25.69 1.37 3.22 3.04 7 4.34 10.31-.08.85 10.12-.99 10.19-2.22.04-.74-2.12-10.85-2.31-12.71-.69-6.84-4.08-28.38-5.38-35.28-.98-5.2-.57-10.37-1.75-14.89"/></defs><clipPath id="SVGID_00000155119221798257694120000010602829446734074291_"><use xlink:href="#SVGID_00000014609316997869651920000012188425387910747544_" style="overflow:visible"/></clipPath><g style="clip-path:url(#SVGID_00000155119221798257694120000010602829446734074291_)"><defs><path id="SVGID_00000137838268644190005090000016958643366999457703_" d="M-1637.69-3679.67H894.38v7501.25h-2532.07z"/></defs><clipPath id="SVGID_00000142863095230159114040000008400752350864681860_"><use xlink:href="#SVGID_00000137838268644190005090000016958643366999457703_" style="overflow:visible"/></clipPath></g><g><defs><path id="SVGID_00000048470940876083910710000008700290189894154420_" d="M-871.82-1158.45c1.75-.44 1.72-.88 3.1-1.02 1.86-.18 1.96.03 3.8-.27 2.97-.49 3.79-.7 6.51-1.84.48-.2 2.15-2.37 1.09-2.44-2.11-.15-3.57-.18-5.54-.82-2.96-1.43-1.15-.9-5.28-4.4-2.21-1.86-4.44-.35-5.38 1.01-.65.94-.12 2.45-.67 3.69-1.24 2.81-.79 4.46.2 6.36.53.06 1.26-.04 2.17-.27"/></defs><clipPath id="SVGID_00000166653780168684732260000000880412955989524897_"><use xlink:href="#SVGID_00000048470940876083910710000008700290189894154420_" style="overflow:visible"/></clipPath><g style="clip-path:url(#SVGID_00000166653780168684732260000000880412955989524897_)"><defs><path id="SVGID_00000044886494789569503490000017527063499719084687_" d="M-1637.69-3679.67H894.38v7501.25h-2532.07z"/></defs><clipPath id="SVGID_00000090286484704837273590000001805493427220420763_"><use xlink:href="#SVGID_00000044886494789569503490000017527063499719084687_" style="overflow:visible"/></clipPath></g></g><g><defs><path id="SVGID_00000044152267189899754770000013045393751981605001_" d="M-959.07-1166.38c1.47 1.05 2.25.87 3.31 1.77 1.42 1.22 1.33 1.43 2.82 2.55 2.4 1.8 3.13 2.26 5.83 3.43.47.2 3.2-.09 2.53-.9-1.35-1.62-2.35-2.7-3.25-4.57-1.02-3.12-.14-1.45-.48-6.85-.18-2.88-2.82-3.45-4.45-3.19-1.13.18-1.86 1.61-3.13 2.07-2.89 1.05-3.83 2.28-4.51 4.3.43.73 1.19 1.29 1.33 1.39"/></defs><clipPath id="SVGID_00000102522832475247068380000002554330792579727002_"><use xlink:href="#SVGID_00000044152267189899754770000013045393751981605001_" style="overflow:visible"/></clipPath><g style="clip-path:url(#SVGID_00000102522832475247068380000002554330792579727002_)"><defs><path id="SVGID_00000163052815051954576460000011170592055304569492_" d="M-1637.69-3679.67H894.38v7501.25h-2532.07z"/></defs><clipPath id="SVGID_00000183935187913759334940000016685974971986953607_"><use xlink:href="#SVGID_00000163052815051954576460000011170592055304569492_" style="overflow:visible"/></clipPath></g></g><g><defs><path id="SVGID_00000054948209818912367680000003620285815676855205_" d="M-913.85-1222.63c6.29-13.41-1.08-23.98-13.79-19.73-5.23 1.75-5.18 8.41-8.49 14.21-1.94 3.4-6.19 8.76-9.47 16.98-2.39 5.98-6.27 24.34-7.2 27.43-1.01 3.35-2.14 7.33-3.26 10.7-.6.6 8.42 5.71 9.26 4.81.51-.54 5.31-9.69 6.35-11.24 3.85-5.7 15.01-24.43 18.43-30.57 2.56-4.64 6.19-8.37 8.17-12.59"/></defs><clipPath id="SVGID_00000066512919939731351880000011844552717556736952_"><use xlink:href="#SVGID_00000054948209818912367680000003620285815676855205_" style="overflow:visible"/></clipPath><g style="clip-path:url(#SVGID_00000066512919939731351880000011844552717556736952_)"><defs><path id="SVGID_00000149359773306703664970000005603021039382156982_" d="M-1637.69-3679.67H894.38v7501.25h-2532.07z"/></defs><clipPath id="SVGID_00000005958256817559195950000014705009196764970368_"><use xlink:href="#SVGID_00000149359773306703664970000005603021039382156982_" style="overflow:visible"/></clipPath></g></g><g><defs><path id="SVGID_00000091010739738518498150000000160703243503926662_" d="M-908.32-1317.38c-5.08-2.26-18.85-3.53-23.15 11-1.21 4.1-1.85 16.18-1.95 20.36-.23 9.68.73 30.36.27 38.27-.4 7.02-4.06 16.42-.21 21.28 1.65 2.08 6.37 5.42 11.53 4.82 1.28-.15 7.97-1.48 9.82-8.6 1.01-3.87.26-3.41 1.18-7.31 1.86-7.83 3.82-14.45 5.07-22.38 1.18-7.48 2.32-19.17 2.97-26.56.91-10.25 8.26-24.74-5.53-30.88"/></defs><clipPath id="SVGID_00000113321481472339937960000015444648918470115251_"><use xlink:href="#SVGID_00000091010739738518498150000000160703243503926662_" style="overflow:visible"/></clipPath><g style="clip-path:url(#SVGID_00000113321481472339937960000015444648918470115251_)"><defs><path id="SVGID_00000021108427504189487340000007254809778821867151_" d="M-1637.69-3679.67H894.38v7501.25h-2532.07z"/></defs><clipPath id="SVGID_00000065037592687285098190000014892456741829599165_"><use xlink:href="#SVGID_00000021108427504189487340000007254809778821867151_" style="overflow:visible"/></clipPath></g></g><g><defs><path id="SVGID_00000146478020789918243780000012710052104121682613_" d="M-893.55-1363.9c-1.95-9.62-3.68-13.59-11.06-16.65-7.7-3.19-13.71-2.51-19.96.23-17.66 7.73-13.96 28.25-9.38 43.78 2.14 7.25 3.48 16.92 4.33 24.4.36 3.19 4.92 2.65 5.53 2.74 7.69 1.14 14.53 1.17 21.4-.23 7.47-1.52 5.13-2.59 6.73-8.67 1.92-7.3 2.64-12.77 2.88-22.8.17-6.95.73-16.87-.47-22.8"/></defs><use xlink:href="#SVGID_00000146478020789918243780000012710052104121682613_" style="overflow:visible;fill-rule:evenodd;clip-rule:evenodd;fill:#e1000f"/><clipPath id="SVGID_00000183932692316377603990000013505321796375203990_"><use xlink:href="#SVGID_00000146478020789918243780000012710052104121682613_" style="overflow:visible"/></clipPath><g style="clip-path:url(#SVGID_00000183932692316377603990000013505321796375203990_)"><defs><path id="SVGID_00000180362006471948009850000008191471027752836773_" d="M-1637.69-3679.67H894.38v7501.25h-2532.07z"/></defs><clipPath id="SVGID_00000083083085357325404890000004616050821345386896_"><use xlink:href="#SVGID_00000180362006471948009850000008191471027752836773_" style="overflow:visible"/></clipPath></g></g><g><defs><path id="SVGID_00000109715991480403162560000016972847843165619634_" d="M-867.66-1283.61c1.32.93 2.7 1.62 4.02 2.54 2.24 1.57 3.15 3.34 4.43 5.71.16.28.27.72-.02.86-.13.06-.27.03-.41-.01-1.29-.36-2.03-1.29-3.03-2.18 1.06 2.32 1.55 4.95 2.41 7.35.1.3.2.66 0 .91-.26.32-.77.18-1.14.01-3.02-1.44-5.59-3.77-7.4-6.58-1.19-1.85-4.17-7.06-1.97-8.95.69-.6 1.96-.62 2.38.1"/></defs><use xlink:href="#SVGID_00000109715991480403162560000016972847843165619634_" style="overflow:visible;fill-rule:evenodd;clip-rule:evenodd;fill:#9f714f"/><clipPath id="SVGID_00000056422819778772108700000013089097125685700233_"><use xlink:href="#SVGID_00000109715991480403162560000016972847843165619634_" style="overflow:visible"/></clipPath><g style="clip-path:url(#SVGID_00000056422819778772108700000013089097125685700233_)"><defs><path id="SVGID_00000054975311937008717370000013091139236591778485_" d="M-1637.69-3679.67H894.38v7501.25h-2532.07z"/></defs><clipPath id="SVGID_00000173847579408068825240000001452634422089272468_"><use xlink:href="#SVGID_00000054975311937008717370000013091139236591778485_" style="overflow:visible"/></clipPath></g></g><g><defs><path id="SVGID_00000140694021758384628930000001275582797414399895_" d="M-896.6-1323.95c1.76.37 3.22 1.56 4.51 2.81 10.54 10.2 15 24.58 25.1 35.21.99 1.29-4.04 6.85-5.97 5.25-4.68-3.64-22.83-21.79-25.2-24.34-1.69-1.82-3.38-3.65-4.7-5.74-1.29-2.05-1.79-4.3-1.79-6.71 0-.85.04-1.71.27-2.53.9-3.21 4.69-4.6 7.78-3.95"/></defs><use xlink:href="#SVGID_00000140694021758384628930000001275582797414399895_" style="overflow:visible;fill-rule:evenodd;clip-rule:evenodd;fill:#e1000f"/><clipPath id="SVGID_00000153677638735147273180000016863661255111567510_"><use xlink:href="#SVGID_00000140694021758384628930000001275582797414399895_" style="overflow:visible"/></clipPath><g style="clip-path:url(#SVGID_00000153677638735147273180000016863661255111567510_)"><defs><path id="SVGID_00000163788065329840612640000006516937494823809461_" d="M-1637.69-3679.67H894.38v7501.25h-2532.07z"/></defs><clipPath id="SVGID_00000165920821057002597850000009853938881475245205_"><use xlink:href="#SVGID_00000163788065329840612640000006516937494823809461_" style="overflow:visible"/></clipPath></g></g><g><defs><path id="SVGID_00000063604625004412618720000004424829409099708032_" d="M-918.59-1350.95c-1.29-4.28-2.46-8.8-1.57-13.18.89-4.38 4.45-8.54 8.92-8.63 2.36-.05 4.64 1.03 6.4 2.6 1.76 1.57 3.05 3.6 4.12 5.69 3.18 6.19 4.68 13.08 6.01 19.91 1.37 7.04 2.59 14.11 3.81 21.18.13.72.25 1.46.18 2.18-.17 1.62-1.32 3-2.69 3.87-1.38.86-2.98 1.29-4.55 1.7-2.11.55-4.34.72-6.35-.38-2.18-1.19-3.13-4.36-3.99-6.51-1.25-3.12-2.49-6.25-3.69-9.39-2.41-6.27-4.66-12.61-6.6-19.04"/></defs><clipPath id="SVGID_00000080896138323215349210000006659345247690096573_"><use xlink:href="#SVGID_00000063604625004412618720000004424829409099708032_" style="overflow:visible"/></clipPath><g style="clip-path:url(#SVGID_00000080896138323215349210000006659345247690096573_)"><defs><path id="SVGID_00000021116885598672056060000007233272968582907523_" d="M-1637.69-3679.67H894.38v7501.25h-2532.07z"/></defs><clipPath id="SVGID_00000074430444588667783290000017519820876176425093_"><use xlink:href="#SVGID_00000021116885598672056060000007233272968582907523_" style="overflow:visible"/></clipPath></g></g></g><g><defs><path id="SVGID_00000003824777578381562480000005753737079267651213_" d="M.01 0h192v192H.01z"/></defs><clipPath id="SVGID_00000149360960492277690290000018376753923447453314_"><use xlink:href="#SVGID_00000003824777578381562480000005753737079267651213_" style="overflow:visible"/></clipPath><g id="g4588" style="clip-path:url(#SVGID_00000149360960492277690290000018376753923447453314_)" transform="matrix(6.28708 0 0 6.28997 -1152.02 -124.72)"><g id="g100"><defs><path id="SVGID_00000029008203730825054220000008390363975250189470_" d="M208.41 24.33c-.41.16-.75.39-1.02.68-.28.3-.49.65-.63 1.07-.15.42-.22.87-.22 1.37 0 1.05.3 1.86.88 2.47.59.6 1.4.9 2.48.9.46 0 .86-.06 1.21-.17.64-.23 1.36-.86 1.48-1.46.08-.39-.16-.48-.29-.5h-.08a.48.48 0 0 0-.34.12c-.09.08-.35.33-.49.45s-.29.23-.45.34c-.17.11-.34.19-.52.24-.18.05-.37.08-.58.08-.32 0-.62-.08-.88-.24-.27-.16-.48-.4-.64-.71-.15-.29-.23-.61-.24-.97 0-.12.09-.19.19-.19h3.23c.44 0 .77-.06.99-.18.2-.1.31-.33.31-.74 0-.44-.11-.88-.34-1.31a2.66 2.66 0 0 0-1.03-1.05c-.46-.27-1.01-.41-1.66-.41-.5-.03-.95.05-1.36.21m2.45 1.21c.28.3.44.74.49 1.3.01.09-.09.18-.19.18h-2.88c-.1 0-.21-.08-.19-.19.07-.55.23-.98.51-1.28.29-.31.67-.47 1.12-.47.46 0 .85.15 1.14.46"/></defs><clipPath id="SVGID_00000163779642518115610590000001483378129747304355_"><use xlink:href="#SVGID_00000029008203730825054220000008390363975250189470_" style="overflow:visible"/></clipPath><g id="g102" style="clip-path:url(#SVGID_00000163779642518115610590000001483378129747304355_)"><g id="g108"><g id="g110"><defs><path id="SVGID_00000170985177167098854460000011515320694069889974_" d="M189.97 6.29h39.41v42.33h-39.41z"/></defs><clipPath id="SVGID_00000007405983222023921130000014185620404310479038_"><use xlink:href="#SVGID_00000170985177167098854460000011515320694069889974_" style="overflow:visible"/></clipPath><g id="g112" style="clip-path:url(#SVGID_00000007405983222023921130000014185620404310479038_)"><path id="path128" class="st8" d="M208.41 24.33c-.41.16-.75.39-1.02.68-.28.3-.49.65-.63 1.07-.15.42-.22.87-.22 1.37 0 1.05.3 1.86.88 2.47.59.6 1.4.9 2.48.9.46 0 .86-.06 1.21-.17.64-.23 1.36-.86 1.48-1.46.08-.39-.16-.48-.29-.5h-.08a.48.48 0 0 0-.34.12c-.09.08-.35.33-.49.45s-.29.23-.45.34c-.17.11-.34.19-.52.24-.18.05-.37.08-.58.08-.32 0-.62-.08-.88-.24-.27-.16-.48-.4-.64-.71-.15-.29-.23-.61-.24-.97 0-.12.09-.19.19-.19h3.23c.44 0 .77-.06.99-.18.2-.1.31-.33.31-.74 0-.44-.11-.88-.34-1.31a2.66 2.66 0 0 0-1.03-1.05c-.46-.27-1.01-.41-1.66-.41-.5-.03-.95.05-1.36.21m2.45 1.21c.28.3.44.74.49 1.3.01.09-.09.18-.19.18h-2.88c-.1 0-.21-.08-.19-.19.07-.55.23-.98.51-1.28.29-.31.67-.47 1.12-.47.46 0 .85.15 1.14.46"/></g></g></g></g></g><g id="g130"><defs><path id="SVGID_00000100344755590202941140000014916473985488642700_" d="M202.02 27.46c0 2.81 2.28 5.09 5.09 5.09s5.09-2.28 5.09-5.09-2.28-5.09-5.09-5.09-5.09 2.28-5.09 5.09"/></defs><clipPath id="SVGID_00000172425661667894324070000008511435642790293172_"><use xlink:href="#SVGID_00000100344755590202941140000014916473985488642700_" style="overflow:visible"/></clipPath><g id="g132" style="clip-path:url(#SVGID_00000172425661667894324070000008511435642790293172_)"><g id="g138"><g id="g140"><defs><path id="SVGID_00000080193099809711284890000012450821207115883669_" d="M175.11-4.56h64v64.03h-64z"/></defs><clipPath id="SVGID_00000103234849597328683490000010348971888016289439_"><use xlink:href="#SVGID_00000080193099809711284890000012450821207115883669_" style="overflow:visible"/></clipPath><g id="g142" style="clip-path:url(#SVGID_00000103234849597328683490000010348971888016289439_)"><path id="path158" class="st8" d="M202.02 27.46c0 2.81 2.28 5.09 5.09 5.09s5.09-2.28 5.09-5.09-2.28-5.09-5.09-5.09-5.09 2.28-5.09 5.09"/></g></g></g></g></g><g id="g186"><defs><path id="SVGID_00000044873417106363668750000017686319944285382551_" d="M208.41 24.33c-.41.16-.75.39-1.02.68-.28.3-.49.65-.63 1.07-.15.42-.22.87-.22 1.37 0 1.05.3 1.86.88 2.47.59.6 1.4.9 2.48.9.44 0 .83-.06 1.17-.16.46-.56.8-1.23.98-1.95a.46.46 0 0 0-.17.09c-.09.08-.35.33-.49.45s-.29.23-.45.34c-.17.11-.34.19-.52.24-.18.05-.37.08-.58.08-.32 0-.62-.08-.88-.24-.27-.16-.48-.4-.64-.71-.15-.29-.23-.61-.24-.97 0-.12.09-.19.19-.19h3.23c.27 0 .5-.02.69-.07 0-.08.01-.17.01-.25 0-1.17-.39-2.24-1.06-3.1-.4-.17-.85-.26-1.37-.26-.5-.03-.95.05-1.36.21m2.45 1.21c.28.3.44.74.49 1.3.01.09-.09.18-.19.18h-2.88c-.1 0-.21-.08-.19-.19.07-.55.23-.98.51-1.28.29-.31.67-.47 1.12-.47.46 0 .85.15 1.14.46"/></defs><clipPath id="SVGID_00000114783626749382831060000002945411421069175743_"><use xlink:href="#SVGID_00000044873417106363668750000017686319944285382551_" style="overflow:visible"/></clipPath><g id="g188" style="clip-path:url(#SVGID_00000114783626749382831060000002945411421069175743_)"><g id="g194"><g id="g196"><defs><path id="SVGID_00000075131289670980125210000012228086139651853963_" d="M191.56 6.29h35.61v42.33h-35.61z"/></defs><clipPath id="SVGID_00000163055751789703243410000015538866333902484371_"><use xlink:href="#SVGID_00000075131289670980125210000012228086139651853963_" style="overflow:visible"/></clipPath><g id="g198" style="clip-path:url(#SVGID_00000163055751789703243410000015538866333902484371_)"><path id="path214" d="M207.39 25.01c-.28.3-.49.65-.63 1.07-.15.42-.22.87-.22 1.37 0 1.05.3 1.86.88 2.47.59.6 1.4.9 2.48.9.44 0 .83-.06 1.17-.16.46-.56.8-1.23.98-1.95-.07.02-.12.05-.19.11s-.33.31-.46.42c-.14.12-.28.23-.45.34-.16.11-.34.18-.51.24s-.37.08-.64.08-.56-.08-.83-.24c-.27-.16-.48-.4-.64-.69s-.23-.62-.25-.98c0-.12.09-.19.14-.19h3.28c.27 0 .5-.02.69-.07 0-.08.01-.17.01-.25 0-1.17-.39-2.24-1.06-3.1-.4-.17-.85-.26-1.36-.26-.51 0-.96.08-1.37.24-.41.13-.74.36-1.02.65zm3.96 1.83c.01.09-.09.18-.19.18h-2.88c-.1 0-.21-.08-.19-.19.07-.55.23-.98.52-1.28.28-.31.66-.47 1.12-.47.46 0 .85.16 1.14.47.27.29.43.73.48 1.29z" style="fill:#000091"/></g></g></g></g></g></g><g style="clip-path:url(#SVGID_00000149360960492277690290000018376753923447453314_)"><path class="st795" d="M72.49 112.83c3.03-3.77 8.24-5.88 12.87-5.3 1.18.15 2.31.45 3.4.85 2.2.81 4.21 2.02 5.89 3.54 1.64 1.48 2.66 3.51 3.88 5.33 1.99 2.99 3.89 6.05 5.61 9.2 3.98 7.3 8.41 14.42 12.3 21.59 2.64 4.85 5.51 9.58 8.81 14.02 2.68 3.61 6.53 8.22 5.47 13.48-.45 2.26-.9 3.27-2.73 4.9-1.46 1.29-3.17 2.44-5.06 2.81-1.09.22-2.2.16-3.26.01-2.75-.38-5.53-1.25-7.26-3.19-2.29-2.56-4.68-5.04-6.93-7.64-4.52-5.23-8.77-10.67-12.86-16.23-3.86-5.24-7.91-10.53-11.31-15.92-4.75-7.46-17.03-17.21-8.82-27.45M182.23 162.31c.1.63.43 1.38.56 1.94.37 1.58.7 3.17 1.01 4.76.53 2.76 1.33 5.76 1.28 8.59-1.33-.62-3.1-3.23-4.02-4.62-2.87-.12-4.97-2.52-5.48-5.26-.81-4.39 3.1-5.67 6.62-5.83-.01.13 0 .27.03.42"/><path class="st795" d="M126.87 186.82c-12.58 1.9-19.37-7.77-13.18-17.57 3.23-5.12 12.66-4.73 18.37-5.24 3.26-.29 6.49-.92 9.71-.94 5.53-.04 11.09-.37 16.64-.66 2.8-.15 5.44-.01 8.21-.01 4.07 0 9.25-2.58 11.5 2.16 2.08 4.36.16 8.48-4.24 9.7-3.75 1.04-7.63 1.73-11.34 2.91-5.63 1.78-11.23 3.66-16.9 5.32-1.55.45-3.67.77-5.23 1.19-3.89 1.04-9.58 2.54-13.54 3.14M93.67 112.48c3.92 2.82 6.3 7.92 5.97 12.59-.08 1.19-.33 2.34-.67 3.45-.69 2.25-1.79 4.32-3.21 6.09-1.39 1.72-3.36 2.85-5.11 4.17-2.87 2.15-5.82 4.22-8.87 6.11-7.06 4.38-13.92 9.2-20.86 13.49-4.7 2.9-9.25 6.03-13.5 9.57-3.46 2.88-7.85 6.98-13.15 6.21-2.27-.33-3.31-.72-5.02-2.47-1.37-1.39-2.6-3.04-3.07-4.91-.27-1.08-.28-2.19-.19-3.26.23-2.77.96-5.6 2.79-7.44 2.43-2.43 4.77-4.96 7.24-7.35 4.97-4.8 10.17-9.36 15.49-13.75 5.01-4.14 10.08-8.49 15.26-12.19 7.2-5.14 16.26-17.97 26.9-10.31"/><path class="st795" d="M23.22 164c5.01-11.69 16.78-12.34 21.84-1.89 2.64 5.46-2.66 13.27-5.23 18.39-1.47 2.93-2.64 6-4.31 8.75-2.88 4.72-5.53 9.61-8.2 14.49-1.35 2.46-2.85 4.63-4.31 6.99-2.61 4.22-4.04 11.42-10.6 8.33-7.88-3.71-1.28-13.72.22-19.62 1.45-5.73 2.81-11.48 4.38-17.19.43-1.56 1.28-3.52 1.74-5.08 1.16-3.85 2.89-9.49 4.47-13.17"/><path class="st622" d="M39.45 78.74c.92 1.68 1.85 3.35 2.84 5.02.52.88 1.04 1.76 1.68 2.55.6.74 1.31 1.4 1.89 2.17 1.3 1.72 1.9 4.02 1.35 6.08-.74 2.79-3.91 5.11-6.78 5.03-8.4-.22-12.41-11.89-14.79-18.11-3.31-8.64-5.52-18.48-7.87-27.9 2.26-1.81 2.99-.76 5.3-2.4 0 0 11.69 18.87 12.55 20.44 1.29 2.38 2.54 4.75 3.83 7.12"/><path class="st622" d="M68.05 85.61c-.31.24-.62.46-.91.68-3.73 2.76-8.38 6.24-12.53 8.35-3.95 2.01-7.4 3.23-11.62 4.6-1.35.44-4.03 1.54-5.42.9-1.63-.75-3.07-4.64-3.7-6.27-.26-.66-.58-1.73-.79-2.88-.35-1.91-1.37-3.02-.19-3.84.52-.36 3.44-2.12 4.04-2.35 4.96-1.89 8.5-4.66 12.41-8.18 2.45-2.21 4.51-4.37 6.56-6.54"/><path class="st804" d="M55.9 70.09c2.38-2.52 4.74-5.05 7.67-7.68 2.23-2 9.19-4.29 11.65-2.49 12.55 9.19.13 20.18-7.17 25.69"/><path class="st622" d="M24.31 49.81c.21-1.26-.54-2.45-1.09-3.53-.47-.92-.95-1.83-1.36-2.77-.21-.48-.31-1.08-.57-1.53-.69.66-.95 2.28-.78 3.06-.27-.52-.69-1.85-1.25-2.09-1-.42-1.05 1.36-1.41 1.83-.22-.45-.79-1.11-1.36-.85-.73.32-.46 1.8-.72 2.36-1.16-1.89-1.07.26-1.34 1.25-.03.11-.23.14-.27.33-.06.28.09.58.19.82.49 1.31 1.19 2.65 1.88 3.84.92 1.58 2.37 2.99 4.42 2.6 2.56-.5 3.29-3.07 3.66-5.32"/><path class="st795" d="M65 74.98c-.17-5.87-2.03-10.47 2.16-15.12 5.08-5.65 11.74-8.02 18.7-7.17 7.18.88 13.41 5.2 15.37 12.99 1.99 7.91 1.66 14.33 1.8 22.05.17 9.32-2.73 18.28-3.19 27.65 0-.05-24.82 3.09-27.55 3.34-.55-2.23-6.97-32.5-7.29-43.74"/><path class="st622" d="M76.01 21.95c.94 3.24.55 5.78.32 9.5-.19 3.05-2.81 11.52-4.08 13.31-2.71 3.81-6.51 5.26-10.67 6.36-4.65 1.23-8.64 1.33-10.29-2.99-.9-2.36-.36-5.65-.63-8.19-.86.27-2.12.02-3.13-.09.16-4.36.38-5.92 1.67-12.88 1.04-5.6 6.05-9.69 11.73-10.78 4.93-.94 13.49.3 15.08 5.76"/><path class="st622" d="M75.94 44.02c1.54 2.94 3.13 5.94 4.8 8.8-1.44 1.24-9.41 7.43-11.77 8.52-1.08-3.79-3.83-9.09-5.73-12.52 2.78-2.55 5.63-11.39 8.1-13.74.85 1 4.01 7.8 4.6 8.94"/><path class="st795" d="M63.18 18.31c-.69 3.53-1.35 10.06 3.36 12.95 1.57.96 2.97-2.32 4.94-2.11 1.7.18 3.04 2.05 3.58 3.74.3.95 1.05 3.62.3 4.37 0 0 4.23-16.45-3.03-19.76-4.12-1.88-9.15.81-9.15.81"/><path class="st795" d="m49.14 24.65.57-8.49c.26-4.12 5.64-5.64 8.06-5.62l13.33-.61c4.77 1.12 5.35 5.53 5.01 12.22l-26.97 2.5z"/><path class="st795" d="M60.17 24.03s-25.53 7.78-27.03.21l16.37-3.46 10.66 3.25z"/><path class="st622" d="M105.92 59.54c.25.11.5.21.73.32 4.26 1.85 9.59 4.14 13.48 6.67 3.71 2.41 6.47 4.78 9.74 7.74.71.64 1.4 1.32 1.94 2.11 1.99 2.93 1.43 7.34-1.24 9.73-.8.71-1.64 1.19-2.52 1.46-2.5.8-5.22 0-7.59-1.32-4.38-2.43-8.76-4.7-13.55-6.26-2.84-.92-5.5-1.59-8.13-2.22"/><path class="st804" d="M98.76 77.77c-3.65-.88-7.27-1.68-11.33-3.01-2.85-.93-8.27-5.8-7.9-8.81 1.93-15.56 18.05-9.97 26.39-6.41"/><path class="st622" d="M130.5 75.74c4.12 3.36 7.17 9.12 9.24 12.78 4.51 7.96 8.04 16.37 11.71 25.26-1.98 2.15-2.99 1.3-5.04 3.3 0 0-14.09-15.79-15.16-17.2-1.62-2.12-3.2-4.25-4.81-6.37-1.15-1.5-2.31-3-3.53-4.48-.64-.78-1.28-1.56-2.03-2.23-.7-.63-1.5-1.17-2.18-1.82-1.53-1.48-2.45-3.64-2.2-5.77.34-2.87 3.15-5.68 6-6.08 3.03-.42 5.68.72 8 2.61"/><path class="st805" d="M152.02 128.24c.01 0 .02-.01.03-.01l-.03.01zM153.06 127.55l-.01-.02.01-.01v.03z"/><path class="st806" d="m162.46 121.46-1.31.83-1.31-2.08c-.2-.32-.52-.54-.89-.62-.37-.08-.75 0-1.06.21l-8.49 5.77c-.01 0-.01.01-.02.01-.3.21-.5.52-.57.88-.07.37.01.74.23 1.05l1.34 1.9-1.27.89-1.34-1.9c-.46-.65-.63-1.43-.49-2.21s.57-1.46 1.24-1.9l8.49-5.77c.66-.45 1.46-.61 2.25-.45.79.16 1.46.63 1.88 1.31l1.32 2.08z"/><path class="st804" d="m149.88 156.84 32.88-22.75-8.65-12.78a6.363 6.363 0 0 0-8.71-1.78l-22.2 14.36c-3.71 2.39-4.76 5.78-2.51 9.57l9.19 13.38z"/><g><defs><path id="SVGID_00000103262232488057857480000013813862798776424839_" d="m174.11 121.3 8.65 12.78-32.88 22.75-9.19-13.38c-2.25-3.79-1.2-7.18 2.51-9.57l22.2-14.36a6.322 6.322 0 0 1 3.44-1.02c2.04.01 4.04.99 5.27 2.8"/></defs><clipPath id="SVGID_00000074407166582581946320000003320183208014227134_"><use xlink:href="#SVGID_00000103262232488057857480000013813862798776424839_" style="overflow:visible"/></clipPath><path style="clip-path:url(#SVGID_00000074407166582581946320000003320183208014227134_);fill:#fff" d="m143.53 132.07.67 1.04c.2-.13 4.84-3 8.49 2.56 3.87 5.9 8.74 13.25 8.79 13.33l1.03-.68c-.05-.07-4.92-7.43-8.79-13.32-4.33-6.62-10.13-2.97-10.19-2.93"/></g><g><path class="st622" d="M145.97 119.63c-.04 1.28.85 2.36 1.54 3.36.58.85 1.18 1.69 1.7 2.58.27.45.45 1.03.77 1.44.6-.75.65-2.39.37-3.14.34.48.92 1.75 1.51 1.91 1.05.29.86-1.49 1.16-2 .28.41.93 1 1.46.67.69-.41.23-1.84.41-2.43 1.39 1.72 1.02-.4 1.17-1.41.02-.12.21-.17.22-.36.02-.28-.17-.56-.29-.79-.65-1.23-1.52-2.48-2.36-3.57-1.12-1.45-2.74-2.66-4.72-2.01-2.47.83-2.87 3.47-2.94 5.75"/><path class="st804" d="M70.51 114.42h31.01l.09 4.52-31.1-.32z"/><path class="st804" d="M83.89 110.38h-3.27c-1.1 0-2 .9-2 2v7.15c0 1.1.9 2 2 2h3.27c1.1 0 2-.9 2-2v-7.15a2 2 0 0 0-2-2M98.01 108.56h-9.13a.77.77 0 0 0-.77.77v13.41c0 .42.34.77.77.77h9.13c.42 0 .77-.34.77-.77v-13.41a.77.77 0 0 0-.77-.77"/></g></g><path class="st8" d="m1.68 31.79 29.26 1.1-.73 15.69-28.49-1.25z" style="clip-path:url(#SVGID_00000149360960492277690290000018376753923447453314_)"/><path class="st806" d="M30.94 32.89 16.19 43.43 1.68 31.79z" style="clip-path:url(#SVGID_00000149360960492277690290000018376753923447453314_)"/><path style="clip-path:url(#SVGID_00000149360960492277690290000018376753923447453314_);fill:#e1000f" d="M23.25 49.86c.95-1.18-.35-2.71-.8-5.64-1.57.02-2.04 4.16-1.27 5.99.77 1.84 2.07-.35 2.07-.35z"/></g></g></svg>
