<svg xmlns="http://www.w3.org/2000/svg" xmlns:xlink="http://www.w3.org/1999/xlink" viewBox="0 0 221.84 256" style="enable-background:new 0 0 221.84 256" xml:space="preserve"><style>.st116{fill:none;stroke:red;stroke-width:.25;stroke-miterlimit:10}.st631{fill-rule:evenodd;clip-rule:evenodd;fill:#e1000f}.st811{display:none}.st812,.st813{display:inline;fill:none;stroke:#00b1ff;stroke-width:.25;stroke-miterlimit:10}.st813{stroke:red}</style><g id="FOND"><path class="st116" d="M221.84 64.01.16 191.99M.16 64.01l221.68 127.98M111 0v256"/></g><g id="ILLU"><defs><path id="SVGID_00000156572996332844075960000008831292902357503628_" d="M221.76 191.99V64.01L110.92 0 .08 64.01v127.98L110.92 256z"/></defs><radialGradient id="SVGID_00000004537378034503324320000004119319418001373065_" cx="216.729" cy="76.203" r="368.525" gradientUnits="userSpaceOnUse"><stop offset=".233" style="stop-color:#9797f7"/><stop offset=".551" style="stop-color:#518fff"/></radialGradient><use xlink:href="#SVGID_00000156572996332844075960000008831292902357503628_" style="overflow:visible;fill:url(#SVGID_00000004537378034503324320000004119319418001373065_)"/><clipPath id="SVGID_00000109031026247236580530000000749321974036653230_"><use xlink:href="#SVGID_00000156572996332844075960000008831292902357503628_" style="overflow:visible"/></clipPath><g style="clip-path:url(#SVGID_00000109031026247236580530000000749321974036653230_)"><path d="M57.64 164.73c.87-2.09 2.42-5.82 4.9-6.4 4.15-.96 3.59 5.56 3.12 7.81-.39 1.88-1.24 5.5-3.1 6.3.01-1.18.01-2.58-.25-3.77-.48 1.36-1.13 3.55-1.68 4.89-1.52-.88-3.36-1.44-4.11-2.87-.91-1.71.46-4.37 1.12-5.96z" style="fill-rule:evenodd;clip-rule:evenodd;fill:#9c6659"/><path d="m63.97 178.29 1.78-3.84c.25-.54.29-1.14.1-1.69-.19-.58-.59-1.03-1.14-1.28l-8.52-3.96c-1.1-.51-2.41 0-2.94 1.13l-1.68 3.61-11.34-5.52-10.55 21.66L63.74 205l10.56-21.67-10.33-5.04zm-8.84-8.78c.05-.11.15-.15.2-.13l8.52 3.96c.03.02.03.03.04.06.01.02.02.09-.02.17l-1.77 3.81-8.67-4.23 1.7-3.64z" style="fill:#00005c"/><path class="st631" d="M76.34 126.58c.73 1.55.67 3.35.46 5.06-1.69 13.91-7.83 16.43-10.1 30.25-.41 1.49-7.55.88-7.44-1.52.07-5.66 1.19-20.77 1.77-24.05.41-2.33.82-4.68 1.66-6.89.81-2.17 2.24-3.84 4.07-5.23.65-.49 1.32-.96 2.08-1.25 2.97-1.18 6.22.9 7.5 3.63z"/><path class="st631" d="M81.45 92.45c2.24-3.64 4.73-7.33 8.42-9.47 3.69-2.14 8.92-2.24 11.82.9 1.53 1.65 2.2 3.97 2.2 6.22-.01 2.25-.64 4.46-1.45 6.55-2.41 6.19-6.38 11.63-10.42 16.91-4.16 5.44-8.44 10.79-12.72 16.15-.44.55-.88 1.1-1.45 1.51-1.26.91-3.38 1.68-4.87 1.24-1.49-.44-3.26-.98-4.55-1.84-1.73-1.15-2.41-3.7-2.9-5.83-.53-2.31 1.13-5 2.12-6.97a627.4 627.4 0 0 1 4.37-8.58c2.96-5.7 6.06-11.33 9.43-16.79z"/><defs><path id="SVGID_00000120554019418975692980000003220264806659070655_" d="M101.51 66.3c-.25 3.74-1.86 10.01-2.29 13.73 8.14 3.31 16.46 4.46 15.93.79-.6-4.41-.57-10.79-.17-15.21 1.4-11.54-9.27-13.81-12.42-8.39-.41 1.41-.95 7.63-1.05 9.08"/></defs><clipPath id="SVGID_00000174595323152424028220000000837871451831551624_"><use xlink:href="#SVGID_00000120554019418975692980000003220264806659070655_" style="overflow:visible"/></clipPath><g style="clip-path:url(#SVGID_00000174595323152424028220000000837871451831551624_)"><defs><path id="SVGID_00000146467483612566586390000012800537865062264760_" d="M-619.43-2218.9h2532.07v7501.25H-619.43z"/></defs><clipPath id="SVGID_00000094618439025541983810000001086160319746768023_"><use xlink:href="#SVGID_00000146467483612566586390000012800537865062264760_" style="overflow:visible"/></clipPath><path style="clip-path:url(#SVGID_00000094618439025541983810000001086160319746768023_);fill:#9f714f" d="M98.08 50.03h20.05v36.21H98.08z"/></g><defs><path id="SVGID_00000009568939602931425360000010752351223076787118_" d="M99.65 39.47c-1.13 3.38-2.76 13.62 3.19 22.84 2.66 4.12 6.73 5.73 11.13 7.01 4.92 1.43 9.19 1.65 11.14-2.84 1.07-2.46.64-5.93 1.04-8.59.93-.01 2.77-.26 3.85-.35-.74-4.78-.72-6.36-2.19-13.89-1.15-5.87-5.57-9.72-11.61-11.03-5.23-1.16-13.87-1.16-16.55 6.85"/></defs><clipPath id="SVGID_00000086665319679999635620000011360429853538485382_"><use xlink:href="#SVGID_00000009568939602931425360000010752351223076787118_" style="overflow:visible"/></clipPath><g style="clip-path:url(#SVGID_00000086665319679999635620000011360429853538485382_)"><defs><path id="SVGID_00000018930830178888675500000010030471632778886528_" d="M-619.43-2218.9h2532.07v7501.25H-619.43z"/></defs><clipPath id="SVGID_00000125572112259415218460000017030505907762678185_"><use xlink:href="#SVGID_00000018930830178888675500000010030471632778886528_" style="overflow:visible"/></clipPath><path style="clip-path:url(#SVGID_00000125572112259415218460000017030505907762678185_);fill:#9f714f" d="M95.14 30.07h36.62v42.66H95.14z"/></g><defs><path id="SVGID_00000082336477406806146120000003088680992571280538_" d="M100.41 58.09c.01-2.52-2.66-11.03 2.71-10.46 2.33.25 3.33 4.24 5.95 2.18 1.85-1.46 2.51-5.53 2.62-7.68.11-2.29-.93-6.77-1.53-8.74 3.42.63 8.66 1.89 12.04 1.42-3.72-3.11-10.13-3.27-14.56-2.77-6.2.7-9.23 7.22-9.88 12.98-.25 2.21-.54 7.24 2.5 12.85"/></defs><clipPath id="SVGID_00000114765167095607230320000014591821670713317302_"><use xlink:href="#SVGID_00000082336477406806146120000003088680992571280538_" style="overflow:visible"/></clipPath><g style="clip-path:url(#SVGID_00000114765167095607230320000014591821670713317302_)"><defs><path id="SVGID_00000049900386967240392170000010450805442133252507_" d="M-619.43-2218.9h2532.07v7501.25H-619.43z"/></defs><clipPath id="SVGID_00000183243805182801128420000010279118083603597958_"><use xlink:href="#SVGID_00000049900386967240392170000010450805442133252507_" style="overflow:visible"/></clipPath><path style="clip-path:url(#SVGID_00000183243805182801128420000010279118083603597958_);fill:#5e3b45" d="M95.44 30.07h28.5v29.78h-28.5z"/></g><defs><path id="SVGID_00000018929114164700706630000015156130685300789691_" d="M112.58 143.22c-5.56-.16-18.78 3.89-17.24 18.96.43 4.25 4.44 15.67 5.93 19.57 3.47 9.04 12.2 27.81 14.79 35.31 2.29 6.65 2.48 16.73 7.89 19.77 2.32 1.3 7.95 2.6 12.5.09 1.13-.62 6.81-4.39 5.82-11.68-.54-3.97-1.06-3.25-1.68-7.21-1.25-7.95-1.95-14.81-3.81-22.63-1.74-7.37-5.13-18.61-7.34-25.69-3.07-9.85-1.77-26.05-16.86-26.49"/></defs><clipPath id="SVGID_00000036971698740136781500000004087143680579914897_"><use xlink:href="#SVGID_00000018929114164700706630000015156130685300789691_" style="overflow:visible"/></clipPath><g style="clip-path:url(#SVGID_00000036971698740136781500000004087143680579914897_)"><defs><path id="SVGID_00000144320784427423465220000005017744942995814799_" d="M-619.43-2218.9h2532.07v7501.25H-619.43z"/></defs><clipPath id="SVGID_00000036220963207354936250000008174452295292164792_"><use xlink:href="#SVGID_00000144320784427423465220000005017744942995814799_" style="overflow:visible"/></clipPath><path style="clip-path:url(#SVGID_00000036220963207354936250000008174452295292164792_);fill:#142018" d="M92.04 141.3h52.97v99.88H92.04z"/></g><defs><path id="SVGID_00000000941849171649550880000001802321042049439905_" d="M143.77 229.33c-3.74-14.33-16.17-17.75-23.23-6.36-2.91 4.69 1.39 9.78 2.56 16.35.68 3.85.84 10.69 3.57 19.11 1.99 6.13 10.75 22.72 12.01 25.69 1.37 3.22 3.04 7 4.34 10.31-.08.85 10.12-.99 10.19-2.22.04-.74-2.12-10.85-2.31-12.71-.69-6.84-4.08-28.38-5.38-35.28-.97-5.2-.57-10.38-1.75-14.89"/></defs><clipPath id="SVGID_00000138534660469619186970000009730927160092655268_"><use xlink:href="#SVGID_00000000941849171649550880000001802321042049439905_" style="overflow:visible"/></clipPath><g style="clip-path:url(#SVGID_00000138534660469619186970000009730927160092655268_)"><defs><path id="SVGID_00000040554237853012187380000001004178980579726247_" d="M-619.43-2218.9h2532.07v7501.25H-619.43z"/></defs><clipPath id="SVGID_00000176734870907144126400000014742512397702979457_"><use xlink:href="#SVGID_00000040554237853012187380000001004178980579726247_" style="overflow:visible"/></clipPath><path style="clip-path:url(#SVGID_00000176734870907144126400000014742512397702979457_);fill:#142018" d="M115.88 209.82h39.13v87.22h-39.13z"/></g><g><defs><path id="SVGID_00000130619922199118694010000008699439174427695039_" d="M146.44 302.33c1.75-.44 1.72-.88 3.1-1.02 1.86-.18 1.96.03 3.8-.27 2.97-.49 3.79-.7 6.51-1.84.48-.2 2.15-2.37 1.09-2.44-2.11-.15-3.57-.18-5.54-.82-2.96-1.43-1.15-.9-5.28-4.4-2.21-1.86-4.44-.35-5.38 1.01-.65.94-.12 2.45-.67 3.69-1.24 2.81-.79 4.46.2 6.36.54.06 1.27-.05 2.17-.27"/></defs><clipPath id="SVGID_00000040553126964180309310000006129205108562698624_"><use xlink:href="#SVGID_00000130619922199118694010000008699439174427695039_" style="overflow:visible"/></clipPath><g style="clip-path:url(#SVGID_00000040553126964180309310000006129205108562698624_)"><defs><path id="SVGID_00000152232739124994624650000009352323677965538447_" d="M-619.43-2218.9h2532.07v7501.25H-619.43z"/></defs><clipPath id="SVGID_00000178915280971715833140000015110980667815348111_"><use xlink:href="#SVGID_00000152232739124994624650000009352323677965538447_" style="overflow:visible"/></clipPath></g></g><g><defs><path id="SVGID_00000098194982730337337420000010706064853839673995_" d="M59.19 294.4c1.47 1.05 2.25.87 3.31 1.77 1.42 1.22 1.33 1.43 2.82 2.55 2.4 1.8 3.13 2.26 5.83 3.43.47.2 3.2-.09 2.53-.9-1.35-1.62-2.35-2.7-3.25-4.57-1.02-3.12-.14-1.45-.48-6.85-.18-2.88-2.82-3.45-4.45-3.19-1.13.18-1.86 1.61-3.13 2.07-2.89 1.05-3.83 2.28-4.51 4.3.43.73 1.19 1.29 1.33 1.39"/></defs><clipPath id="SVGID_00000092414574106463069780000013305634991560776120_"><use xlink:href="#SVGID_00000098194982730337337420000010706064853839673995_" style="overflow:visible"/></clipPath><g style="clip-path:url(#SVGID_00000092414574106463069780000013305634991560776120_)"><defs><path id="SVGID_00000000937299427830569050000012296500326602863493_" d="M-619.43-2218.9h2532.07v7501.25H-619.43z"/></defs><clipPath id="SVGID_00000173851641655570295640000003899490271914530490_"><use xlink:href="#SVGID_00000000937299427830569050000012296500326602863493_" style="overflow:visible"/></clipPath></g></g><g><defs><path id="SVGID_00000149362268695489368360000002253597497147238787_" d="M104.41 238.15c6.29-13.41-1.08-23.98-13.79-19.73-5.23 1.75-5.18 8.41-8.49 14.21-1.94 3.4-6.19 8.75-9.47 16.98-2.39 5.98-6.27 24.34-7.2 27.43-1.01 3.35-2.14 7.33-3.26 10.7-.6.6 8.42 5.71 9.26 4.81.51-.54 5.31-9.69 6.35-11.24 3.85-5.7 15.01-24.43 18.43-30.57 2.57-4.65 6.19-8.37 8.17-12.59"/></defs><clipPath id="SVGID_00000054229614245607124360000005529174204043880116_"><use xlink:href="#SVGID_00000149362268695489368360000002253597497147238787_" style="overflow:visible"/></clipPath><g style="clip-path:url(#SVGID_00000054229614245607124360000005529174204043880116_)"><defs><path id="SVGID_00000159454676764734771100000015520412107671353231_" d="M-619.43-2218.9h2532.07v7501.25H-619.43z"/></defs><clipPath id="SVGID_00000055666914635252798440000015764584837048376974_"><use xlink:href="#SVGID_00000159454676764734771100000015520412107671353231_" style="overflow:visible"/></clipPath><path style="clip-path:url(#SVGID_00000055666914635252798440000015764584837048376974_);fill:#142018" d="M59.84 212.41h52.63v82.79H59.84z"/></g></g><g><defs><path id="SVGID_00000178917109210177160720000000763743916234577571_" d="M109.95 143.4c-5.08-2.26-18.85-3.53-23.15 11-1.21 4.1-1.85 16.18-1.95 20.36-.23 9.68.73 30.36.27 38.27-.4 7.02-4.06 16.42-.21 21.28 1.65 2.08 6.37 5.42 11.53 4.82 1.28-.15 7.97-1.48 9.82-8.6 1.01-3.87.26-3.41 1.18-7.31 1.86-7.83 3.82-14.45 5.07-22.38 1.18-7.48 2.32-19.17 2.97-26.56.9-10.25 8.26-24.74-5.53-30.88"/></defs><clipPath id="SVGID_00000058590433199418051510000011508630657201045129_"><use xlink:href="#SVGID_00000178917109210177160720000000763743916234577571_" style="overflow:visible"/></clipPath><g style="clip-path:url(#SVGID_00000058590433199418051510000011508630657201045129_)"><defs><path id="SVGID_00000040574965906114985330000010490634336860669864_" d="M-619.43-2218.9h2532.07v7501.25H-619.43z"/></defs><clipPath id="SVGID_00000088853302111196542670000011121306033325882807_"><use xlink:href="#SVGID_00000040574965906114985330000010490634336860669864_" style="overflow:visible"/></clipPath><path style="clip-path:url(#SVGID_00000088853302111196542670000011121306033325882807_);fill:#142018" d="M79.3 138.11h46.2v103.38H79.3z"/></g></g><g><defs><path id="SVGID_00000005254010187098063160000001535327950458186632_" d="M124.71 96.88c-1.95-9.62-3.68-13.59-11.06-16.65-7.7-3.19-13.71-2.51-19.96.23-17.66 7.73-13.96 28.25-9.38 43.78 2.14 7.25 3.48 16.92 4.33 24.4.36 3.19 4.92 2.65 5.53 2.74 7.69 1.14 14.53 1.17 21.4-.23 7.47-1.52 5.13-2.59 6.73-8.67 1.92-7.3 2.64-12.77 2.88-22.8.18-6.96.73-16.88-.47-22.8"/></defs><use xlink:href="#SVGID_00000005254010187098063160000001535327950458186632_" style="overflow:visible;fill-rule:evenodd;clip-rule:evenodd;fill:#e1000f"/><clipPath id="SVGID_00000182502301808819010390000013865205489966362528_"><use xlink:href="#SVGID_00000005254010187098063160000001535327950458186632_" style="overflow:visible"/></clipPath><g style="clip-path:url(#SVGID_00000182502301808819010390000013865205489966362528_)"><defs><path id="SVGID_00000142886408938089894590000014008850114504055185_" d="M-619.43-2218.9h2532.07v7501.25H-619.43z"/></defs><clipPath id="SVGID_00000106144309075499132490000005511442101198094465_"><use xlink:href="#SVGID_00000142886408938089894590000014008850114504055185_" style="overflow:visible"/></clipPath><path style="clip-path:url(#SVGID_00000106144309075499132490000005511442101198094465_);fill:#e1000f" d="M74.27 75.28h53.4v79.02h-53.4z"/></g></g><g><defs><path id="SVGID_00000070805823260876223880000002509641084006219143_" d="M150.6 177.16c1.32.93 2.7 1.62 4.02 2.54 2.24 1.57 3.15 3.34 4.43 5.71.16.28.27.72-.02.86-.13.06-.27.03-.41-.01-1.29-.36-2.03-1.29-3.03-2.18 1.06 2.32 1.55 4.95 2.41 7.35.1.3.2.66 0 .91-.26.32-.77.18-1.14.01-3.02-1.44-5.59-3.77-7.4-6.58-1.19-1.85-4.17-7.06-1.97-8.95.69-.6 1.96-.62 2.38.1"/></defs><use xlink:href="#SVGID_00000070805823260876223880000002509641084006219143_" style="overflow:visible;fill-rule:evenodd;clip-rule:evenodd;fill:#9f714f"/><clipPath id="SVGID_00000127011352105379692270000003801584426949300119_"><use xlink:href="#SVGID_00000070805823260876223880000002509641084006219143_" style="overflow:visible"/></clipPath><g style="clip-path:url(#SVGID_00000127011352105379692270000003801584426949300119_)"><defs><path id="SVGID_00000147941624240542929820000006899094786245566898_" d="M-619.43-2218.9h2532.07v7501.25H-619.43z"/></defs><clipPath id="SVGID_00000019677154183119852280000016323353255318172051_"><use xlink:href="#SVGID_00000147941624240542929820000006899094786245566898_" style="overflow:visible"/></clipPath><path style="clip-path:url(#SVGID_00000019677154183119852280000016323353255318172051_);fill:#9c6659" d="M143.53 174.44h17.54v19.98h-17.54z"/></g></g><g><defs><path id="SVGID_00000160889699794921279960000008788902024990696840_" d="M121.66 136.83c1.76.37 3.22 1.56 4.51 2.82 10.54 10.2 15 24.58 25.1 35.21.99 1.29-4.04 6.85-5.97 5.25-4.68-3.64-22.83-21.79-25.2-24.34-1.69-1.82-3.38-3.65-4.7-5.74-1.29-2.05-1.79-4.3-1.79-6.71 0-.85.04-1.71.27-2.53.9-3.23 4.69-4.61 7.78-3.96"/></defs><use xlink:href="#SVGID_00000160889699794921279960000008788902024990696840_" style="overflow:visible;fill-rule:evenodd;clip-rule:evenodd;fill:#e1000f"/><clipPath id="SVGID_00000101093946599294430280000016162731048798482823_"><use xlink:href="#SVGID_00000160889699794921279960000008788902024990696840_" style="overflow:visible"/></clipPath><g style="clip-path:url(#SVGID_00000101093946599294430280000016162731048798482823_)"><defs><path id="SVGID_00000067952362460467819580000014586995432003824265_" d="M-619.43-2218.9h2532.07v7501.25H-619.43z"/></defs><clipPath id="SVGID_00000016796612699560439940000010660489504252358580_"><use xlink:href="#SVGID_00000067952362460467819580000014586995432003824265_" style="overflow:visible"/></clipPath><path style="clip-path:url(#SVGID_00000016796612699560439940000010660489504252358580_);fill:#e1000f" d="M111.84 134.42h42.18v49.05h-42.18z"/></g></g><g><defs><path id="SVGID_00000103266919360787057350000014902488987521165974_" d="M99.67 109.82c-1.29-4.28-2.46-8.8-1.57-13.18.89-4.38 4.45-8.54 8.92-8.63 2.36-.05 4.64 1.03 6.4 2.6 1.76 1.57 3.05 3.6 4.12 5.69 3.18 6.19 4.68 13.08 6.01 19.91 1.37 7.04 2.59 14.11 3.81 21.18.13.72.25 1.46.18 2.18-.17 1.62-1.32 3-2.69 3.87-1.38.86-2.98 1.29-4.55 1.7-2.11.55-4.34.72-6.35-.38-2.18-1.19-3.13-4.36-3.99-6.51-1.25-3.12-2.49-6.25-3.69-9.39-2.41-6.27-4.66-12.6-6.6-19.04"/></defs><clipPath id="SVGID_00000129924304984563205590000000382367611187362187_"><use xlink:href="#SVGID_00000103266919360787057350000014902488987521165974_" style="overflow:visible"/></clipPath><g style="clip-path:url(#SVGID_00000129924304984563205590000000382367611187362187_)"><defs><path id="SVGID_00000112605800876204128320000007745477066251752083_" d="M-619.43-2218.9h2532.07v7501.25H-619.43z"/></defs><clipPath id="SVGID_00000131339125967277059730000011699253395620718488_"><use xlink:href="#SVGID_00000112605800876204128320000007745477066251752083_" style="overflow:visible"/></clipPath><path style="clip-path:url(#SVGID_00000131339125967277059730000011699253395620718488_);fill:#e1000f" d="M95.45 86.21h33.91v61.41H95.45z"/></g></g><g><path d="M65.5 167.34s-.85 3.71-2.53 5.62l-.97-5.49 3.5-.13z" style="fill-rule:evenodd;clip-rule:evenodd;fill:#9f714f"/></g></g></g></svg>
