<svg xmlns="http://www.w3.org/2000/svg" xmlns:xlink="http://www.w3.org/1999/xlink" viewBox="0 0 221.84 256" style="enable-background:new 0 0 221.84 256" xml:space="preserve"><style>.st213,.st4,.st661,.st663,.st664,.st666{fill-rule:evenodd;clip-rule:evenodd;fill:#01015b}.st213,.st661,.st663,.st664,.st666{fill:#d38742}.st661,.st663,.st664,.st666{fill:#37635f}.st663,.st664,.st666{fill:#4598e5}.st664,.st666{fill:#8e4344}.st666{fill:#5e2a2b}.st811{display:none}.st812,.st813{display:inline;fill:none;stroke:#00b1ff;stroke-width:.25;stroke-miterlimit:10}.st813{stroke:red}</style><path style="fill:none;stroke:red;stroke-width:.25;stroke-miterlimit:10" d="M111 0v256" id="FOND"/><g id="ILLU"><defs><path id="SVGID_00000038391664784547789260000018128432118264501947_" d="M-468.43 191.99V64.01L-579.27 0l-110.84 64.01v127.98L-579.27 256z"/></defs><radialGradient id="SVGID_00000012445774461829834200000016319431551905280650_" cx="-473.463" cy="76.203" r="368.525" gradientUnits="userSpaceOnUse"><stop offset=".233" style="stop-color:#9797f7"/><stop offset=".551" style="stop-color:#518fff"/></radialGradient><use xlink:href="#SVGID_00000038391664784547789260000018128432118264501947_" style="overflow:visible;fill:url(#SVGID_00000012445774461829834200000016319431551905280650_)"/><clipPath id="SVGID_00000124855682548616916180000007441798567053340093_"><use xlink:href="#SVGID_00000038391664784547789260000018128432118264501947_" style="overflow:visible"/></clipPath><g style="clip-path:url(#SVGID_00000124855682548616916180000007441798567053340093_)"><defs><path id="SVGID_00000173846671398727820570000000275021507859364026_" d="M-588.68 66.3c-.25 3.74-1.86 10.01-2.29 13.73 8.14 3.31 16.46 4.46 15.93.79-.6-4.41-.57-10.79-.17-15.21 1.4-11.54-9.27-13.81-12.42-8.39-.42 1.41-.95 7.63-1.05 9.08"/></defs><clipPath id="SVGID_00000029736843035874923850000008607386631484993682_"><use xlink:href="#SVGID_00000173846671398727820570000000275021507859364026_" style="overflow:visible"/></clipPath><g style="clip-path:url(#SVGID_00000029736843035874923850000008607386631484993682_)"><defs><path id="SVGID_00000165929805476494599700000000992041617621596050_" d="M-1309.62-2218.9h2532.07v7501.25h-2532.07z"/></defs><clipPath id="SVGID_00000011721282802164833590000011945449471452357520_"><use xlink:href="#SVGID_00000165929805476494599700000000992041617621596050_" style="overflow:visible"/></clipPath></g><defs><path id="SVGID_00000148643018008014485100000004840159692444543369_" d="M-590.54 39.47c-1.13 3.38-2.76 13.62 3.19 22.84 2.66 4.12 6.73 5.73 11.13 7.01 4.92 1.43 9.19 1.65 11.14-2.84 1.07-2.46.64-5.93 1.04-8.59.93-.01 2.77-.26 3.85-.35-.74-4.78-.72-6.36-2.19-13.89-1.15-5.87-5.57-9.72-11.61-11.03-5.23-1.16-13.87-1.16-16.55 6.85"/></defs><clipPath id="SVGID_00000092445558685849495230000011783103876644063106_"><use xlink:href="#SVGID_00000148643018008014485100000004840159692444543369_" style="overflow:visible"/></clipPath><g style="clip-path:url(#SVGID_00000092445558685849495230000011783103876644063106_)"><defs><path id="SVGID_00000036937775699923533880000013033305874411427997_" d="M-1309.62-2218.9h2532.07v7501.25h-2532.07z"/></defs><clipPath id="SVGID_00000052091359038767163000000003054570429364098177_"><use xlink:href="#SVGID_00000036937775699923533880000013033305874411427997_" style="overflow:visible"/></clipPath></g><defs><path id="SVGID_00000110467619028261888560000009332231935113503636_" d="M-589.78 58.09c.01-2.52-2.66-11.03 2.71-10.46 2.33.25 3.33 4.24 5.95 2.18 1.85-1.46 2.51-5.53 2.62-7.68.11-2.29-.93-6.77-1.53-8.74 3.42.63 8.66 1.89 12.04 1.42-3.72-3.11-10.13-3.27-14.56-2.77-6.2.7-9.23 7.22-9.88 12.98-.25 2.21-.54 7.24 2.5 12.85"/></defs><clipPath id="SVGID_00000168081692422240301350000003877520317968047547_"><use xlink:href="#SVGID_00000110467619028261888560000009332231935113503636_" style="overflow:visible"/></clipPath><g style="clip-path:url(#SVGID_00000168081692422240301350000003877520317968047547_)"><defs><path id="SVGID_00000160880426067687571400000012913641548403446207_" d="M-1309.62-2218.9h2532.07v7501.25h-2532.07z"/></defs><clipPath id="SVGID_00000101795609009913273820000006053240023769078194_"><use xlink:href="#SVGID_00000160880426067687571400000012913641548403446207_" style="overflow:visible"/></clipPath></g><defs><path id="SVGID_00000005948798812390598860000004406998007440175773_" d="M-577.62 143.22c-5.56-.16-18.78 3.89-17.24 18.96.43 4.25 4.44 15.67 5.93 19.57 3.47 9.04 12.2 27.81 14.79 35.31 2.29 6.65 2.48 16.73 7.89 19.77 2.32 1.3 7.95 2.6 12.5.09 1.13-.62 6.81-4.39 5.82-11.68-.54-3.97-1.06-3.25-1.68-7.21-1.25-7.95-1.95-14.81-3.81-22.63-1.74-7.37-5.13-18.61-7.34-25.69-3.07-9.85-1.76-26.05-16.86-26.49"/></defs><clipPath id="SVGID_00000057130880136829328990000001156428285686550453_"><use xlink:href="#SVGID_00000005948798812390598860000004406998007440175773_" style="overflow:visible"/></clipPath><g style="clip-path:url(#SVGID_00000057130880136829328990000001156428285686550453_)"><defs><path id="SVGID_00000123441594886477677760000004203149890792367017_" d="M-1309.62-2218.9h2532.07v7501.25h-2532.07z"/></defs><clipPath id="SVGID_00000084492210280276766570000009372804222230880393_"><use xlink:href="#SVGID_00000123441594886477677760000004203149890792367017_" style="overflow:visible"/></clipPath></g><defs><path id="SVGID_00000096754065339253220670000016711732453932656303_" d="M-546.42 229.33c-3.74-14.33-16.17-17.75-23.23-6.36-2.91 4.69 1.39 9.78 2.56 16.35.68 3.85.84 10.69 3.57 19.11 1.99 6.13 10.75 22.72 12.01 25.69 1.37 3.22 3.04 7 4.34 10.31-.08.85 10.12-.99 10.19-2.22.04-.74-2.12-10.85-2.31-12.71-.69-6.84-4.08-28.38-5.38-35.28-.97-5.2-.57-10.38-1.75-14.89"/></defs><clipPath id="SVGID_00000020395544524045269770000016439158605127419826_"><use xlink:href="#SVGID_00000096754065339253220670000016711732453932656303_" style="overflow:visible"/></clipPath><g style="clip-path:url(#SVGID_00000020395544524045269770000016439158605127419826_)"><defs><path id="SVGID_00000124139780206625684980000014656495645543662213_" d="M-1309.62-2218.9h2532.07v7501.25h-2532.07z"/></defs><clipPath id="SVGID_00000123401521348555196330000007253988851411807885_"><use xlink:href="#SVGID_00000124139780206625684980000014656495645543662213_" style="overflow:visible"/></clipPath></g><g><defs><path id="SVGID_00000065794557025561292350000004699263087393895101_" d="M-543.75 302.33c1.75-.44 1.72-.88 3.1-1.02 1.86-.18 1.96.03 3.8-.27 2.97-.49 3.79-.7 6.51-1.84.48-.2 2.15-2.37 1.09-2.44-2.11-.15-3.57-.18-5.54-.82-2.96-1.43-1.15-.9-5.28-4.4-2.21-1.86-4.44-.35-5.38 1.01-.65.94-.12 2.45-.67 3.69-1.24 2.81-.79 4.46.2 6.36.53.06 1.27-.05 2.17-.27"/></defs><clipPath id="SVGID_00000090295429327556604060000002066480010754278586_"><use xlink:href="#SVGID_00000065794557025561292350000004699263087393895101_" style="overflow:visible"/></clipPath><g style="clip-path:url(#SVGID_00000090295429327556604060000002066480010754278586_)"><defs><path id="SVGID_00000116208276115584204060000004968056278978870457_" d="M-1309.62-2218.9h2532.07v7501.25h-2532.07z"/></defs><clipPath id="SVGID_00000180367736816383422320000007012270412658152596_"><use xlink:href="#SVGID_00000116208276115584204060000004968056278978870457_" style="overflow:visible"/></clipPath></g></g><g><defs><path id="SVGID_00000149360536433811866750000008954391496312542137_" d="M-631 294.4c1.47 1.05 2.25.87 3.31 1.77 1.42 1.22 1.33 1.43 2.82 2.55 2.4 1.8 3.13 2.26 5.83 3.43.47.2 3.2-.09 2.53-.9-1.35-1.62-2.35-2.7-3.25-4.57-1.02-3.12-.14-1.45-.48-6.85-.18-2.88-2.82-3.45-4.45-3.19-1.13.18-1.86 1.61-3.13 2.07-2.89 1.05-3.83 2.28-4.51 4.3.43.73 1.19 1.29 1.33 1.39"/></defs><clipPath id="SVGID_00000125593779313568805880000016644332187406563512_"><use xlink:href="#SVGID_00000149360536433811866750000008954391496312542137_" style="overflow:visible"/></clipPath><g style="clip-path:url(#SVGID_00000125593779313568805880000016644332187406563512_)"><defs><path id="SVGID_00000096038909070208330470000017491207886127957903_" d="M-1309.62-2218.9h2532.07v7501.25h-2532.07z"/></defs><clipPath id="SVGID_00000044866028133054307760000016130697535689648274_"><use xlink:href="#SVGID_00000096038909070208330470000017491207886127957903_" style="overflow:visible"/></clipPath></g></g><g><defs><path id="SVGID_00000054987972412654079670000012422146196152317098_" d="M-585.78 238.15c6.29-13.41-1.08-23.98-13.79-19.73-5.23 1.75-5.18 8.41-8.49 14.21-1.94 3.4-6.19 8.75-9.47 16.98-2.39 5.98-6.27 24.34-7.2 27.43-1.01 3.35-2.14 7.33-3.26 10.7-.6.6 8.42 5.71 9.26 4.81.51-.54 5.31-9.69 6.35-11.24 3.85-5.7 15.01-24.43 18.43-30.57 2.57-4.65 6.19-8.37 8.17-12.59"/></defs><clipPath id="SVGID_00000119823630055655949000000007486442269812273313_"><use xlink:href="#SVGID_00000054987972412654079670000012422146196152317098_" style="overflow:visible"/></clipPath><g style="clip-path:url(#SVGID_00000119823630055655949000000007486442269812273313_)"><defs><path id="SVGID_00000132808564177651826600000000551962708156671654_" d="M-1309.62-2218.9h2532.07v7501.25h-2532.07z"/></defs><clipPath id="SVGID_00000072970636020299841330000001396847676123210902_"><use xlink:href="#SVGID_00000132808564177651826600000000551962708156671654_" style="overflow:visible"/></clipPath></g></g><g><defs><path id="SVGID_00000123402315843265062740000008077907660592430210_" d="M-580.25 143.4c-5.08-2.26-18.85-3.53-23.15 11-1.21 4.1-1.85 16.18-1.95 20.36-.23 9.68.73 30.36.27 38.27-.4 7.02-4.06 16.42-.21 21.28 1.65 2.08 6.37 5.42 11.53 4.82 1.28-.15 7.97-1.48 9.82-8.6 1.01-3.87.26-3.41 1.18-7.31 1.86-7.83 3.82-14.45 5.07-22.38 1.18-7.48 2.32-19.17 2.97-26.56.91-10.25 8.26-24.74-5.53-30.88"/></defs><clipPath id="SVGID_00000118364744682890975250000004762246757919549852_"><use xlink:href="#SVGID_00000123402315843265062740000008077907660592430210_" style="overflow:visible"/></clipPath><g style="clip-path:url(#SVGID_00000118364744682890975250000004762246757919549852_)"><defs><path id="SVGID_00000068639028304185816390000004853268327204996528_" d="M-1309.62-2218.9h2532.07v7501.25h-2532.07z"/></defs><clipPath id="SVGID_00000142887391298863634960000002450828832300134066_"><use xlink:href="#SVGID_00000068639028304185816390000004853268327204996528_" style="overflow:visible"/></clipPath></g></g><g><defs><path id="SVGID_00000119078332179812422490000011882999829210428337_" d="M-565.48 96.88c-1.95-9.62-3.68-13.59-11.06-16.65-7.7-3.19-13.71-2.51-19.96.23-17.66 7.73-13.96 28.25-9.38 43.78 2.14 7.25 3.48 16.92 4.33 24.4.36 3.19 4.92 2.65 5.53 2.74 7.69 1.14 14.53 1.17 21.4-.23 7.47-1.52 5.13-2.59 6.73-8.67 1.92-7.3 2.64-12.77 2.88-22.8.18-6.96.73-16.88-.47-22.8"/></defs><use xlink:href="#SVGID_00000119078332179812422490000011882999829210428337_" style="overflow:visible;fill-rule:evenodd;clip-rule:evenodd;fill:#e1000f"/><clipPath id="SVGID_00000176763004591907520800000009112535073264696462_"><use xlink:href="#SVGID_00000119078332179812422490000011882999829210428337_" style="overflow:visible"/></clipPath><g style="clip-path:url(#SVGID_00000176763004591907520800000009112535073264696462_)"><defs><path id="SVGID_00000108988897556981621250000011849949805566378167_" d="M-1309.62-2218.9h2532.07v7501.25h-2532.07z"/></defs><clipPath id="SVGID_00000160875190767956701160000006704416519716180667_"><use xlink:href="#SVGID_00000108988897556981621250000011849949805566378167_" style="overflow:visible"/></clipPath></g></g><g><defs><path id="SVGID_00000052820283204678490430000013020802284447465903_" d="M-539.59 177.16c1.32.93 2.7 1.62 4.02 2.54 2.24 1.57 3.15 3.34 4.43 5.71.16.28.27.72-.02.86-.13.06-.27.03-.41-.01-1.29-.36-2.03-1.29-3.03-2.18 1.06 2.32 1.55 4.95 2.41 7.35.1.3.2.66 0 .91-.26.32-.77.18-1.14.01-3.02-1.44-5.59-3.77-7.4-6.58-1.19-1.85-4.17-7.06-1.97-8.95.69-.6 1.96-.62 2.38.1"/></defs><use xlink:href="#SVGID_00000052820283204678490430000013020802284447465903_" style="overflow:visible;fill-rule:evenodd;clip-rule:evenodd;fill:#9f714f"/><clipPath id="SVGID_00000132790437849945043340000005129461841954879138_"><use xlink:href="#SVGID_00000052820283204678490430000013020802284447465903_" style="overflow:visible"/></clipPath><g style="clip-path:url(#SVGID_00000132790437849945043340000005129461841954879138_)"><defs><path id="SVGID_00000003793406655689828040000005989251964498151053_" d="M-1309.62-2218.9h2532.07v7501.25h-2532.07z"/></defs><clipPath id="SVGID_00000097490805249555510200000007926488352912933808_"><use xlink:href="#SVGID_00000003793406655689828040000005989251964498151053_" style="overflow:visible"/></clipPath></g></g><g><defs><path id="SVGID_00000011721479811751994590000002441138283709423039_" d="M-568.53 136.83c1.76.37 3.22 1.56 4.51 2.82 10.54 10.2 15 24.58 25.1 35.21.99 1.29-4.04 6.85-5.97 5.25-4.68-3.64-22.83-21.79-25.2-24.34-1.69-1.82-3.38-3.65-4.7-5.74-1.29-2.05-1.79-4.3-1.79-6.71 0-.85.04-1.71.27-2.53.9-3.23 4.69-4.61 7.78-3.96"/></defs><use xlink:href="#SVGID_00000011721479811751994590000002441138283709423039_" style="overflow:visible;fill-rule:evenodd;clip-rule:evenodd;fill:#e1000f"/><clipPath id="SVGID_00000003107253898747687100000008072825330461671081_"><use xlink:href="#SVGID_00000011721479811751994590000002441138283709423039_" style="overflow:visible"/></clipPath><g style="clip-path:url(#SVGID_00000003107253898747687100000008072825330461671081_)"><defs><path id="SVGID_00000120520731252871050760000015789017055298155934_" d="M-1309.62-2218.9h2532.07v7501.25h-2532.07z"/></defs><clipPath id="SVGID_00000050648646385927880810000003059891001978655375_"><use xlink:href="#SVGID_00000120520731252871050760000015789017055298155934_" style="overflow:visible"/></clipPath></g></g><g><defs><path id="SVGID_00000044161301117773281850000009804162989117869701_" d="M-590.52 109.82c-1.29-4.28-2.46-8.8-1.57-13.18.89-4.38 4.45-8.54 8.92-8.63 2.36-.05 4.64 1.03 6.4 2.6 1.76 1.57 3.05 3.6 4.12 5.69 3.18 6.19 4.68 13.08 6.01 19.91 1.37 7.04 2.59 14.11 3.81 21.18.13.72.25 1.46.18 2.18-.17 1.62-1.32 3-2.69 3.87-1.38.86-2.98 1.29-4.55 1.7-2.11.55-4.34.72-6.35-.38-2.18-1.19-3.13-4.36-3.99-6.51-1.25-3.12-2.49-6.25-3.69-9.39-2.41-6.27-4.66-12.6-6.6-19.04"/></defs><clipPath id="SVGID_00000078731414744137479730000004769888680584061105_"><use xlink:href="#SVGID_00000044161301117773281850000009804162989117869701_" style="overflow:visible"/></clipPath><g style="clip-path:url(#SVGID_00000078731414744137479730000004769888680584061105_)"><defs><path id="SVGID_00000031203677570877802980000006670337199725554853_" d="M-1309.62-2218.9h2532.07v7501.25h-2532.07z"/></defs><clipPath id="SVGID_00000113318380683681079960000015508805790208441227_"><use xlink:href="#SVGID_00000031203677570877802980000006670337199725554853_" style="overflow:visible"/></clipPath></g></g></g><g><defs><path id="SVGID_00000160885051122671521300000000747447065344098446_" d="M221.84 191.99V64.01L111 0 .16 64.01v127.98L111 256z"/></defs><radialGradient id="SVGID_00000072963618489025500190000006798407638482653321_" cx="111.856" cy="121.309" r="134.904" gradientUnits="userSpaceOnUse"><stop offset="0" style="stop-color:#fae27e"/><stop offset=".309" style="stop-color:#fadf7d"/><stop offset=".51" style="stop-color:#fbd77a"/><stop offset=".681" style="stop-color:#fcc876"/><stop offset=".835" style="stop-color:#fdb36f"/><stop offset=".975" style="stop-color:#ff9867"/><stop offset="1" style="stop-color:#ff9265"/></radialGradient><use xlink:href="#SVGID_00000160885051122671521300000000747447065344098446_" style="overflow:visible;fill:url(#SVGID_00000072963618489025500190000006798407638482653321_)"/><clipPath id="SVGID_00000141431269678641192460000001564341714839508913_"><use xlink:href="#SVGID_00000160885051122671521300000000747447065344098446_" style="overflow:visible"/></clipPath><g style="clip-path:url(#SVGID_00000141431269678641192460000001564341714839508913_)"><path class="st4" d="M85.65 114.28c-3.79-3.31-6.35-8.18-6.23-13.3.14-5.99.23-19.89 2.77-24.75 1.41-2.7 3.31-7.2 3.53-10.27.13-1.75-.79-3.51-1.56-5.02-1.84-3.61-2.45-8.5-.08-12.07 2.45-3.69 8.9-6.85 10.08-1.17.54 4.41 3.6 7.78 7.49 9.65 3.56 1.71 8.28 3.19 9.88 7.29 2.29 5.88-3.36 13.4-.48 18.83 1.67 3.14 5.33 5 6.98 8.27 3.85 7.64.07 17.34-5.59 22.16-2.78 2.37-7.98 4.43-12.01 4.47-3.49.03-7.58.11-10.69-1.4-1.47-.68-2.84-1.6-4.09-2.69z"/><path class="st213" d="M52.19 135.82c-.35-1.86.21-3.26.76-5.09.65-2.15.84-4.44 1.47-6.61 1.33-4.56 2.75-9.07 4.01-13.65 1.45-5.28 3.56-13.16 6.53-17.81 3.12-4.89 11.49-5.36 13.13 1.89.81 3.56-.63 7.99-1.78 11.36-1.27 3.71-3.01 7.24-4.39 10.92-2.22 5.93-4.73 12.08-7.8 17.6-1.39 2.5-3.17 5.79-6.48 5.57-2.24-.15-4.59-1.16-5.27-3.46-.08-.25-.13-.49-.18-.72z"/><path class="st213" d="M57.03 132.04a5.7 5.7 0 0 0-3.42.61c-2.04 1.08-3.21 3.39-4.38 5.28-2.07 3.35-3.61 6.94-5.83 10.16-4.32 6.25-8.94 14.41-14.23 19.87 1.98 1.18 2.41 2.24 4.42 3.18.33.15 8.46-7.29 9.26-7.99a56.19 56.19 0 0 0 7.71-8.25c3.3-4.32 6.66-8.63 9.55-13.25 1.88-3.01 3.15-6.59-.75-8.82-.74-.41-1.53-.68-2.33-.79z"/><path class="st213" d="M22.19 172.9c1.62-1.23 2.78-2.94 4.39-4.18.49-.38 4.22-2.63 4.49-2.42.77.6 1.71 1.13 2.56 1.71 1.06.72 1.88.85 1.81 2.08-.07 1.24-.93 2.8-1.45 3.95-1.16 2.57-2.66 5.09-4.64 7.21-.07-.01-.65-.21-.61-.29.48-.93 1.7-2.75 1.85-3.8-.76.99-2.13 3.29-2.99 4.27-.09-.02-1.36-.28-1.32-.35.79-1.23 2.33-3.45 2.65-4.61-.78 1.1-1.23 1.45-3.4 4.61-.52-.14-.76-.24-1.23-.5.71-1.39 2.3-3.6 2.93-5.12-1.13 1.08-2.52 3.16-3.4 4.4-.3.42-.97-.45-.98-.58-.06-.51 3.64-6.06 4.21-8-1.19 1-2.8 1.91-4.36 2.32-.1-.12-.44-.57-.51-.7zM91.08 217.11c.45 5.53.76 13.83.68 19.3-.06 4.28.59 8.89-3.3 10.66-8.65 3.95-11.72-2.71-14.8-10.1-4.88-11.72-10.84-30.23-13.37-42.57-2.25-10.99-5.09-21.21-5.46-32.24-.3-8.82 3.04-24.59 13.88-20.08 8.7 3.62 12.78 20.94 15.34 29.59 4.68 15.78 5.74 29.51 7.03 45.44z"/><path class="st213" d="M93.32 264.9c-6.48-7.95-19.04-17.51-14.01-24.04 4.87-6.33 11.54-3.61 16.17.12 3.99 3.21 9.03 10.65 11.11 15.78l-13.27 8.14z"/><path class="st213" d="M85.33 256.16c8.72 10.31 35.97 41.1 38.59 50.11 2.44-1.67 5.33-2.95 7.06-5.72-20.38-40.72-30.51-55.99-31.37-55.39-4.98 3.44-9.57 7.16-14.28 11zM76.11 221.27c-1.41 5.34-3.76 13.55-5.64 18.65-1.47 3.99-2.74 6.45-6.98 6.73-9.44.63-9.76-10.15-10.2-18.19-.7-12.73-.36-29.51 1.36-41.98 1.53-11.11 2.25-21.71 5.56-32.19 2.64-8.38 11.01-21.98 19.71-13.91 6.98 6.49 5.07 24.19 4.61 33.21-.85 16.48-4.35 32.27-8.42 47.68z"/><path class="st661" d="M58.03 135.37c-.13-5.75 2.67-12.37 1.08-17.5-1.12-3.59-5.01-7.65-5.46-11.44-.9-7.46 9.67-12.09 15.57-20.82 3.07-4.54 12.24-3.48 16.14-1.17 6.15 3.65 7.84 13.36 5.9 19.81-1.26 4.2-4.26 8.3-6.34 12.33-1.44 2.8-2.56 4.73-3.74 7.63-1.34 3.31-2.8 7.63-3.58 13.7-2.6 1.37-7.73 2.51-10.64 2.08-3.2-.47-8.88-2.28-8.93-4.62z"/><path class="st661" d="M77.28 136.67c10.2 6.71 15.25 16.8 16.81 32.87 2.75 28.21 11.47 31.02 16.11 54.01-12.56 3.43-39.47 7.1-59.86 5.65 1.99-46.6 4.77-93 7.77-93.84 3.67.14 14.63.99 19.17 1.31z"/><g><path class="st213" d="M56.19 263.59c-.69-10.39-5.35-25.83 2.43-27.95 7.54-2.06 11.36 4.25 12.97 10.11 1.38 5.05 1.2 14.14-.05 19.54l-15.35-1.7z"/><path class="st213" d="M54.74 251.63c1.15 13.67 5.54 55.23 2.5 64.07 2.92.17 5.98.93 8.96-.21 6.81-45.27 7.36-63.79 6.33-63.84-5.98-.32-11.81-.18-17.79-.02z"/></g><g><path class="st213" d="M107.71 132.49c-1.73-.71-2.61-1.95-3.84-3.41-1.45-1.72-3.26-3.12-4.72-4.83-3.09-3.6-6.1-7.26-9.24-10.82-3.63-4.1-9.07-10.17-11.36-15.22-2.4-5.31 1.68-12.68 8.61-10.14 3.4 1.25 6.32 4.87 8.52 7.68 2.42 3.09 4.42 6.49 6.75 9.66 3.76 5.11 7.54 10.58 10.5 16.18 1.34 2.54 3.14 5.83 1.18 8.53-1.32 1.82-3.43 3.28-5.71 2.61-.24-.07-.47-.15-.69-.24z"/><path class="st213" d="M107.16 126.32c-.75.9-1.22 2.01-1.32 3.24-.2 2.32 1.11 4.57 2.06 6.59 1.69 3.58 3.86 6.84 5.35 10.47 2.9 7.06 7.23 15.42 8.96 22.89 2.04-1.04 3.16-.83 5.02-2.03.3-.2-1.55-11.16-1.71-12.21-.58-3.86-1.46-7.4-2.75-11.03-1.84-5.16-3.63-10.34-5.93-15.31-1.5-3.23-3.81-6.26-7.76-4.14-.76.39-1.41.91-1.92 1.53z"/><path class="st213" d="M122.58 178.13c-.16-2.05-.96-3.96-1.14-6-.05-.62.07-5.02.39-5.13.92-.33 1.86-.84 2.8-1.25 1.16-.51 1.72-1.14 2.7-.41.99.73 1.84 2.31 2.52 3.37 1.53 2.38 2.81 5.26 3.51 8.09-.05.05-.51.49-.56.41-.52-.91-1.47-3.4-2.18-4.29.42 1.19 1.56 4.25 1.92 5.51-.07.07-.67.74-.71.67-.5-.9-1.07-1.94-3.09-5.58.44 1.22.78 2.74 2.26 6.3-.4.37-.65.38-1.13.64-.77-1.36-1.88-4.48-2.8-5.83.29 1.55 1.63 4.45 2.19 5.88.19.49-.93.06-1.05 0-.46-.23-.79-1.05-1.06-1.49-1.08-1.82-2.15-4.87-3.47-6.41.2 1.56.23 3.92-.26 5.47-.14.01-.7.06-.84.05z"/></g><g><path class="st213" d="M81.29 42.1c.66 1.96.95 4.13.9 6.19-.05 2.23-.77 4.46-.14 6.77 1.38 5.07 1.86 8.38-1.93 12.63-3.05 3.42-9.36 5.64-14.43 3.84-2.61-1.93-2.43-4.42-2.79-7.5-.19-1.57.43-2.31-.82-3.12-2.16-1.4-2.41-1.48-1.31-3.16 2.21-3.37 1.41-5.2 1.26-9.1-.24-5.91 3.06-11.49 8.89-12.98 5.49-1.41 8.87 1.97 10.37 6.43z"/><path class="st213" d="M71.35 72.98c.57 4.45.28 8.63.74 12.21 5.6-.47 9.69-2.09 9.69-2.09l-1.96-12.3s-9.41-5.13-8.47 2.18z"/><path class="st4" d="M76.01 34.4c-2.93.41-6.62 1.27-9.5 1.93-2.02 4.23.53 11.85 5.82 14.83 2.14 1.21 6.8.73 7.87 3.82 1.11 3.21-3.01 5.36-4.34 7.71-1.67 2.94-2.4 8.74-1.42 11.96 1.56 5.14 4.77 8.72 10.28 8.51 4.1-.15 11.52-3.27 12.18-12.52.32-4.52-2.15-16.62-2.09-17.44.63-8.05-1.22-12.98-4.98-16.14-3.54-2.95-8.09-3.46-13.82-2.66z"/></g><g><path class="st663" d="M164.91 266.69c-5.76-7.39-1.93-15.06 6.66-14.48 4.49.31 7.63 6.47 10.02 9.95 1.22 1.78 2.2 3.8 3.37 5.64 2.59 4.09 5.02 8.44 7.56 12.58 1.45 2.35 3.08 4.51 4.49 6.94.89 1.53 1.05 1.72.08 2.99-.81 1.06-1.69 1.99-2.78 2.79-.67.49-1.37.9-2.03 1.36-.39.27-7.39-7.45-8.26-8.26-3.18-2.99-6.42-5.92-9.54-8.98-.85-.83-1.82-2.08-2.66-2.94-2.08-2.14-5.1-5.27-6.91-7.59z"/><path class="st664" d="M161.65 203.02c3.72-1.23 8.3-.6 11.34 1.49.77.53 1.45 1.15 2.05 1.8 1.22 1.33 2.14 2.84 2.69 4.42.54 1.54.42 3.2.51 4.79.16 2.62.23 5.24.12 7.86-.23 6.07-.08 12.18-.32 18.13-.16 4.03-.11 8.06.37 12.08.39 3.27 1.18 7.59-1.77 10.5-1.26 1.24-2 1.72-3.98 2.05-1.58.26-3.27.35-4.76-.13-.86-.27-1.62-.72-2.32-1.21-1.79-1.27-3.39-2.85-3.81-4.71-.55-2.46-1.21-4.91-1.71-7.38-1.01-4.97-1.75-9.97-2.32-14.98-.54-4.72-1.19-9.56-1.35-14.2-.22-6.46-4.84-17.16 5.26-20.51z"/></g><g><path class="st663" d="M147.95 259.83c1.11-8.97 9.51-11.84 15.43-5.78 3.09 3.16.93 9.56.17 13.57-.55 2.89-.75 5.87-1.73 8.65-1.06 2.99-1.73 6.1-2.62 9.14-1.2 4.08-2.97 8.21-3.56 12.43-1.21-.06-2.44-.28-3.65-.39-1.38-.12-2.7-.23-4.06-.01-.38-3.79.13-7.57-.03-11.36-.18-4.19-.44-8.38-.53-12.58-.02-1.15.17-2.66.17-3.81.02-2.85.06-7.03.41-9.86z"/><path class="st664" d="M162.59 201.97c4.03-.31 8.45 1.33 10.97 4 .64.68 1.16 1.42 1.6 2.17.89 1.54 1.42 3.17 1.58 4.79.15 1.58-.38 3.11-.69 4.64-.5 2.51-1.09 5.01-1.85 7.46-1.76 5.68-3.14 11.49-4.87 17.05-1.18 3.77-2.13 7.59-2.66 11.49-.43 3.18-.72 7.44-4.4 9.51-1.58.89-2.43 1.16-4.5 1.02-1.64-.11-3.35-.42-4.73-1.21-.8-.46-1.44-1.05-2.01-1.67-1.47-1.6-2.68-3.47-2.63-5.32.07-2.45.02-4.91.14-7.36.24-4.92.75-9.82 1.44-14.68.65-4.59 1.2-9.3 2.21-13.73 1.4-6.14-.54-17.3 10.4-18.16z"/></g><g><path class="st213" d="M144.6 189.27c.91.95 1.84 1.89 2.79 2.8.5.48 1.01.97 1.59 1.35.54.36 1.14.63 1.67 1.01 1.19.86 1.97 2.36 1.92 4.03-.07 2.25-1.9 4.89-3.91 5.69-5.9 2.36-10.57-4.94-13.24-8.75-3.71-5.29-5.76-10.31-8.93-16.46 1.28-1.99 2.28-1.54 3.62-3.42 0 0 9.6 9.31 10.45 10.2 1.28 1.34 2.75 2.22 4.04 3.55z"/><path class="st213" d="M123.04 170.63c.09-.01 2.23 1.91 2.54 2.15.53.42 1.21 1.06 1.81 1.51.05.02.1.05.15.07.27.13.53.3.81.41.19.07.37.1.55.16 0-.01-.01-.01-.01-.02-.64-1.24-1.46-2.25-2.11-3.5a1.288 1.288 0 0 1-.06-1.03c.08-.19.14-.3.28-.44.5.59 1.29 1.68 1.42 1.81.54.52 1.24.86 1.75 1.43.69.77 1.18 1.87 1.46 2.95.15.57.16 1.17-.13 1.66 0 .01.01.02.01.02-.07.09-.95 1.29-1.37 1.8-.12.15-1.17 1.56-1.3 1.48-.32-.19-.63-.39-.96-.6-.78-.5-1.53-1.06-2.25-1.67-.32-.27-.66-.61-.99-.85-.02-.01-.03-.02-.05-.04-.2-.11-.38-.22-.57-.36-.22-.16-.54-.31-.76-.46-.52-.34-1.46-1.08-1.96-1.46.02-.09.29-.32.42-.38-.05.03 1.39.9 2.46 1.34v-.01c-.87-.56-2.19-1.67-2.97-2.38.09-.26.31-.47.58-.52.51.48 2.1 1.53 2.76 1.72-.2-.06-1.62-1.36-1.83-1.55-.38-.36-.86-.82-1.19-1.25.19-.24.44-.45.77-.4.01 0 1.26 1.02 1.38 1.12.39.3.99.78 1.41 1.03-1.18-1.3-2.87-3.17-2.86-3.18.24-.22.48-.51.81-.56z"/><g><path class="st666" d="M139.83 200.36c-.41-1.97.39-3.78 1.55-5.24 2.14-2.7 4.16-5.43 5.68-8.6 2.15-4.48 3.13-8.46 5.35-13.08.91-1.89 4.95-4.87 7.17-4.01 11.84 4.56 5.78 15.65 2.55 20.83-1.7 2.72-3.8 6.14-5.98 8.47-2.08 2.22-4.05 3.76-6.51 5.55-.53.39-1.09.76-1.72.99-2.34.87-5.59-.39-7.18-2.79-.47-.73-.76-1.43-.91-2.12z"/></g></g><g><path class="st666" d="M151.87 183.16c.31-4.37-.75-10.7 2.87-13.88 4.39-3.87 9.77-5.2 15.13-4.12 5.54 1.12 10.07 4.73 11.02 10.65.96 6 .22 10.75-.25 16.5-.57 6.94-2.51 9.96-3.58 16.89 1.04.37-14.8 6.92-24.04 4.14-.26-1.69-1.74-21.81-1.15-30.18z"/></g><g><path class="st213" d="M176.17 139.14c.24 2.79-.67 4.84-1.01 7.59-.31 2.52-4.4 9.16-5.71 10.41-2.79 2.66-6.09 3.23-9.62 3.45-3.94.24-7.17-.32-7.8-4.11-.35-2.07.62-4.66.81-6.78-.73.08-1.71-.33-2.51-.58.83-3.53 1.26-4.77 3.43-10.24 1.74-4.4 6.44-6.92 11.19-6.88 4.13.02 10.82 2.43 11.22 7.14z"/><path class="st213" d="M170.51 157.71c-.06 2.53-.11 5.11-.06 7.63-1.4.29-8.9 1.46-10.85 1.31.67-2.93.8-7.47.8-10.46 2.76-.66 7.86-5.5 10.34-6.15.2.99-.21 6.69-.23 7.67z"/></g><g><path class="st213" d="M182.48 210.99c-.11-1.49-.23-2.98-.39-4.48-.08-.79-.17-1.58-.37-2.35-.19-.72-.48-1.42-.64-2.14-.37-1.64-.04-3.46 1.03-4.76 1.44-1.74 4.41-2.24 6.5-1.42 8.26 3.25 2.61 30.44 1.21 37.88-2.21.56-2.16.17-4.35.6 0 .01-2.84-21.23-2.99-23.33z"/><path class="st213" d="M183.17 236.84c.14-1.13.64-2.29 1.27-3.23.33-.5.78-.89 1.32-.93 0-.01.01-.02.01-.02.11.01 1.58.07 2.22.14 1.02.11 1.37.05 1.79 1.07.29.71.4 1.47.61 2.21.27.95.3 1.93.15 2.91-.02.11-.52 2.19-.71 1.95-.16-.2-.29-.46-.45-.62-.09.21-.44.78-.74.75-.25-.03-.42-.45-.6-.62-.27.56-.9 1.14-1.02.12-.07.19-.17.64-.41.75-.32.15-.29-.07-.43-.34-.3-.58-.39-1.19-.53-1.82-.1-.43-.4-1.07-.54-1.67-.22.74-.36 1.49-.55 2.24-.15.61-.53 1.56-1.25 1.66-.02-.39.01-.78.03-1.17.07-1.13-.3-2.25-.17-3.38z"/><g><path class="st666" d="M185.7 207.75c-1.93-.69-3.25-2.48-4.12-4.44-1.6-3.61-3.27-7.12-5.53-10.38-3.2-4.6-6.4-7.79-9.7-12.54-1.35-1.94-2.45-7.58-.82-9.29 8.73-9.14 16.36 3 19.76 9.06 1.79 3.19 4.05 7.16 5.29 10.6 1.19 3.28 1.8 6.08 2.46 9.5.14.74.26 1.5.22 2.25-.13 2.79-2.53 5.29-5.32 5.53-.82.05-1.57-.05-2.24-.29z"/></g></g></g></g></g></svg>
