<svg xmlns="http://www.w3.org/2000/svg" xmlns:xlink="http://www.w3.org/1999/xlink" viewBox="0 0 221.84 256" style="enable-background:new 0 0 221.84 256" xml:space="preserve"><style>.st811{display:none}.st812,.st813{display:inline;fill:none;stroke:#00b1ff;stroke-width:.25;stroke-miterlimit:10}.st813{stroke:red}</style><g id="ILLU"><defs><path id="SVGID_00000038391664784547789260000018128432118264501947_" d="M221.76-153.73v-127.98l-110.84-64.01L.08-281.71v127.98l110.84 64.01z"/></defs><radialGradient id="SVGID_00000080189381603286424320000014773210218115096196_" cx="216.731" cy="-269.512" r="368.525" gradientUnits="userSpaceOnUse"><stop offset=".233" style="stop-color:#9797f7"/><stop offset=".551" style="stop-color:#518fff"/></radialGradient><use xlink:href="#SVGID_00000038391664784547789260000018128432118264501947_" style="overflow:visible;fill:url(#SVGID_00000080189381603286424320000014773210218115096196_)"/><clipPath id="SVGID_00000045583075827751416180000008574578789873500594_"><use xlink:href="#SVGID_00000038391664784547789260000018128432118264501947_" style="overflow:visible"/></clipPath><g style="clip-path:url(#SVGID_00000045583075827751416180000008574578789873500594_)"><defs><path id="SVGID_00000173846671398727820570000000275021507859364026_" d="M101.51-279.42c-.25 3.74-1.86 10.01-2.29 13.73 8.14 3.31 16.46 4.46 15.93.79-.6-4.41-.57-10.79-.17-15.21 1.4-11.54-9.27-13.81-12.42-8.39-.41 1.41-.95 7.63-1.05 9.08"/></defs><clipPath id="SVGID_00000033362497109749329940000018401860950824939947_"><use xlink:href="#SVGID_00000173846671398727820570000000275021507859364026_" style="overflow:visible"/></clipPath><g style="clip-path:url(#SVGID_00000033362497109749329940000018401860950824939947_)"><defs><path id="SVGID_00000165929805476494599700000000992041617621596050_" d="M-619.43-2564.61h2532.07v7501.25H-619.43z"/></defs><clipPath id="SVGID_00000098188300146569468570000015265749385588297375_"><use xlink:href="#SVGID_00000165929805476494599700000000992041617621596050_" style="overflow:visible"/></clipPath></g><defs><path id="SVGID_00000148643018008014485100000004840159692444543369_" d="M99.65-306.24c-1.13 3.38-2.76 13.62 3.19 22.84 2.66 4.12 6.73 5.73 11.13 7.01 4.92 1.43 9.19 1.65 11.14-2.84 1.07-2.46.64-5.93 1.04-8.59.93-.01 2.77-.26 3.85-.35-.74-4.78-.72-6.36-2.19-13.89-1.15-5.87-5.57-9.72-11.61-11.03-5.23-1.16-13.87-1.17-16.55 6.85"/></defs><clipPath id="SVGID_00000127727204067180864400000005011424456831181731_"><use xlink:href="#SVGID_00000148643018008014485100000004840159692444543369_" style="overflow:visible"/></clipPath><g style="clip-path:url(#SVGID_00000127727204067180864400000005011424456831181731_)"><defs><path id="SVGID_00000036937775699923533880000013033305874411427997_" d="M-619.43-2564.61h2532.07v7501.25H-619.43z"/></defs><clipPath id="SVGID_00000167371403904011220180000006138266847610136728_"><use xlink:href="#SVGID_00000036937775699923533880000013033305874411427997_" style="overflow:visible"/></clipPath></g><defs><path id="SVGID_00000110467619028261888560000009332231935113503636_" d="M100.41-287.62c.01-2.52-2.66-11.03 2.71-10.46 2.33.25 3.33 4.24 5.95 2.18 1.85-1.46 2.51-5.53 2.62-7.68.11-2.29-.93-6.77-1.53-8.74 3.42.63 8.66 1.89 12.04 1.42-3.72-3.11-10.13-3.27-14.56-2.77-6.2.7-9.23 7.22-9.88 12.98-.25 2.21-.54 7.24 2.5 12.85"/></defs><clipPath id="SVGID_00000061470869388437004210000016798516559871934886_"><use xlink:href="#SVGID_00000110467619028261888560000009332231935113503636_" style="overflow:visible"/></clipPath><g style="clip-path:url(#SVGID_00000061470869388437004210000016798516559871934886_)"><defs><path id="SVGID_00000160880426067687571400000012913641548403446207_" d="M-619.43-2564.61h2532.07v7501.25H-619.43z"/></defs><clipPath id="SVGID_00000069380168871564095880000001162957876859400096_"><use xlink:href="#SVGID_00000160880426067687571400000012913641548403446207_" style="overflow:visible"/></clipPath></g><defs><path id="SVGID_00000005948798812390598860000004406998007440175773_" d="M112.58-202.5c-5.56-.16-18.78 3.89-17.24 18.96.43 4.25 4.44 15.67 5.93 19.57 3.47 9.04 12.2 27.81 14.79 35.31 2.29 6.65 2.48 16.73 7.89 19.77 2.32 1.3 7.95 2.6 12.5.09 1.13-.62 6.81-4.39 5.82-11.68-.54-3.97-1.06-3.25-1.68-7.21-1.25-7.95-1.95-14.81-3.81-22.63-1.74-7.37-5.13-18.61-7.34-25.69-3.07-9.85-1.77-26.05-16.86-26.49"/></defs><clipPath id="SVGID_00000080174879273382583990000013324837307372192387_"><use xlink:href="#SVGID_00000005948798812390598860000004406998007440175773_" style="overflow:visible"/></clipPath><g style="clip-path:url(#SVGID_00000080174879273382583990000013324837307372192387_)"><defs><path id="SVGID_00000123441594886477677760000004203149890792367017_" d="M-619.43-2564.61h2532.07v7501.25H-619.43z"/></defs><clipPath id="SVGID_00000049903230733177784070000017919360547055046584_"><use xlink:href="#SVGID_00000123441594886477677760000004203149890792367017_" style="overflow:visible"/></clipPath></g><defs><path id="SVGID_00000096754065339253220670000016711732453932656303_" d="M143.78-116.39c-3.74-14.33-16.17-17.75-23.23-6.36-2.91 4.69 1.39 9.78 2.56 16.35.68 3.85.84 10.69 3.57 19.11 1.99 6.13 10.75 22.72 12.01 25.69 1.37 3.22 3.04 7 4.34 10.31-.08.85 10.12-.99 10.19-2.22.04-.74-2.12-10.85-2.31-12.71-.69-6.84-4.08-28.38-5.38-35.28-.98-5.2-.58-10.37-1.75-14.89"/></defs><clipPath id="SVGID_00000049207984381100440600000017037780053698451613_"><use xlink:href="#SVGID_00000096754065339253220670000016711732453932656303_" style="overflow:visible"/></clipPath><g style="clip-path:url(#SVGID_00000049207984381100440600000017037780053698451613_)"><defs><path id="SVGID_00000124139780206625684980000014656495645543662213_" d="M-619.43-2564.61h2532.07v7501.25H-619.43z"/></defs><clipPath id="SVGID_00000097461916842529246310000017964729235433935776_"><use xlink:href="#SVGID_00000124139780206625684980000014656495645543662213_" style="overflow:visible"/></clipPath></g><g><defs><path id="SVGID_00000065794557025561292350000004699263087393895101_" d="M146.44-43.39c1.75-.44 1.72-.88 3.1-1.02 1.86-.18 1.96.03 3.8-.27 2.97-.49 3.79-.7 6.51-1.84.48-.2 2.15-2.37 1.09-2.44-2.11-.15-3.57-.18-5.54-.82-2.96-1.43-1.15-.9-5.28-4.4-2.21-1.86-4.44-.35-5.38 1.01-.65.94-.12 2.45-.67 3.69-1.24 2.81-.79 4.46.2 6.36.54.06 1.27-.04 2.17-.27"/></defs><clipPath id="SVGID_00000066510503280778854870000016112318204566719154_"><use xlink:href="#SVGID_00000065794557025561292350000004699263087393895101_" style="overflow:visible"/></clipPath><g style="clip-path:url(#SVGID_00000066510503280778854870000016112318204566719154_)"><defs><path id="SVGID_00000116208276115584204060000004968056278978870457_" d="M-619.43-2564.61h2532.07v7501.25H-619.43z"/></defs><clipPath id="SVGID_00000044160585971508449310000017254282027470401921_"><use xlink:href="#SVGID_00000116208276115584204060000004968056278978870457_" style="overflow:visible"/></clipPath></g></g><g><defs><path id="SVGID_00000149360536433811866750000008954391496312542137_" d="M59.19-51.32c1.47 1.05 2.25.87 3.31 1.77 1.42 1.22 1.33 1.43 2.82 2.55 2.4 1.8 3.13 2.26 5.83 3.43.47.2 3.2-.09 2.53-.9-1.35-1.62-2.35-2.7-3.25-4.57-1.02-3.12-.14-1.45-.48-6.85-.18-2.88-2.82-3.45-4.45-3.19-1.13.18-1.86 1.61-3.13 2.07-2.89 1.05-3.83 2.28-4.51 4.3.43.73 1.19 1.29 1.33 1.39"/></defs><clipPath id="SVGID_00000163776579813906425700000009877869328029217942_"><use xlink:href="#SVGID_00000149360536433811866750000008954391496312542137_" style="overflow:visible"/></clipPath><g style="clip-path:url(#SVGID_00000163776579813906425700000009877869328029217942_)"><defs><path id="SVGID_00000096038909070208330470000017491207886127957903_" d="M-619.43-2564.61h2532.07v7501.25H-619.43z"/></defs><clipPath id="SVGID_00000021113437375866645300000007033490438810443194_"><use xlink:href="#SVGID_00000096038909070208330470000017491207886127957903_" style="overflow:visible"/></clipPath></g></g><g><defs><path id="SVGID_00000054987972412654079670000012422146196152317098_" d="M104.41-107.57c6.29-13.41-1.08-23.98-13.79-19.73-5.23 1.75-5.18 8.41-8.49 14.21-1.94 3.4-6.19 8.75-9.47 16.98-2.39 5.98-6.27 24.34-7.2 27.43-1.01 3.35-2.14 7.33-3.26 10.7-.6.6 8.42 5.71 9.26 4.81.51-.54 5.31-9.69 6.35-11.24 3.85-5.7 15.01-24.43 18.43-30.57 2.57-4.64 6.19-8.37 8.17-12.59"/></defs><clipPath id="SVGID_00000007401667149012919760000007797913198600707251_"><use xlink:href="#SVGID_00000054987972412654079670000012422146196152317098_" style="overflow:visible"/></clipPath><g style="clip-path:url(#SVGID_00000007401667149012919760000007797913198600707251_)"><defs><path id="SVGID_00000132808564177651826600000000551962708156671654_" d="M-619.43-2564.61h2532.07v7501.25H-619.43z"/></defs><clipPath id="SVGID_00000133496471436413540150000002929395124395078079_"><use xlink:href="#SVGID_00000132808564177651826600000000551962708156671654_" style="overflow:visible"/></clipPath></g></g><g><defs><path id="SVGID_00000123402315843265062740000008077907660592430210_" d="M109.95-202.32c-5.08-2.26-18.85-3.53-23.15 11-1.21 4.1-1.85 16.18-1.95 20.36-.23 9.68.73 30.36.27 38.27-.4 7.02-4.06 16.42-.21 21.28 1.65 2.08 6.37 5.42 11.53 4.82 1.28-.15 7.97-1.48 9.82-8.6 1.01-3.87.26-3.41 1.18-7.31 1.86-7.83 3.82-14.45 5.07-22.38 1.18-7.48 2.32-19.17 2.97-26.56.9-10.25 8.26-24.74-5.53-30.88"/></defs><clipPath id="SVGID_00000043448012033776781200000008170792339783029692_"><use xlink:href="#SVGID_00000123402315843265062740000008077907660592430210_" style="overflow:visible"/></clipPath><g style="clip-path:url(#SVGID_00000043448012033776781200000008170792339783029692_)"><defs><path id="SVGID_00000068639028304185816390000004853268327204996528_" d="M-619.43-2564.61h2532.07v7501.25H-619.43z"/></defs><clipPath id="SVGID_00000134954351765174328680000016193465395715770782_"><use xlink:href="#SVGID_00000068639028304185816390000004853268327204996528_" style="overflow:visible"/></clipPath></g></g><g><defs><path id="SVGID_00000119078332179812422490000011882999829210428337_" d="M124.71-248.84c-1.95-9.62-3.68-13.59-11.06-16.65-7.7-3.19-13.71-2.51-19.96.23-17.66 7.73-13.96 28.25-9.38 43.78 2.14 7.25 3.48 16.92 4.33 24.4.36 3.19 4.92 2.65 5.53 2.74 7.69 1.14 14.53 1.17 21.4-.23 7.47-1.52 5.13-2.59 6.73-8.67 1.92-7.3 2.64-12.77 2.88-22.8.18-6.95.74-16.87-.47-22.8"/></defs><use xlink:href="#SVGID_00000119078332179812422490000011882999829210428337_" style="overflow:visible;fill-rule:evenodd;clip-rule:evenodd;fill:#e1000f"/><clipPath id="SVGID_00000131361787097801005340000017565421027890287520_"><use xlink:href="#SVGID_00000119078332179812422490000011882999829210428337_" style="overflow:visible"/></clipPath><g style="clip-path:url(#SVGID_00000131361787097801005340000017565421027890287520_)"><defs><path id="SVGID_00000108988897556981621250000011849949805566378167_" d="M-619.43-2564.61h2532.07v7501.25H-619.43z"/></defs><clipPath id="SVGID_00000003824743072894693400000004172935434306207669_"><use xlink:href="#SVGID_00000108988897556981621250000011849949805566378167_" style="overflow:visible"/></clipPath></g></g><g><defs><path id="SVGID_00000052820283204678490430000013020802284447465903_" d="M150.6-168.55c1.32.93 2.7 1.62 4.02 2.54 2.24 1.57 3.15 3.34 4.43 5.71.16.28.27.72-.02.86-.13.06-.27.03-.41-.01-1.29-.36-2.03-1.29-3.03-2.18 1.06 2.32 1.55 4.95 2.41 7.35.1.3.2.66 0 .91-.26.32-.77.18-1.14.01-3.02-1.44-5.59-3.77-7.4-6.58-1.19-1.85-4.17-7.06-1.97-8.95.69-.6 1.96-.62 2.38.1"/></defs><use xlink:href="#SVGID_00000052820283204678490430000013020802284447465903_" style="overflow:visible;fill-rule:evenodd;clip-rule:evenodd;fill:#9f714f"/><clipPath id="SVGID_00000017499176590963646670000001770393548272447412_"><use xlink:href="#SVGID_00000052820283204678490430000013020802284447465903_" style="overflow:visible"/></clipPath><g style="clip-path:url(#SVGID_00000017499176590963646670000001770393548272447412_)"><defs><path id="SVGID_00000003793406655689828040000005989251964498151053_" d="M-619.43-2564.61h2532.07v7501.25H-619.43z"/></defs><clipPath id="SVGID_00000155110017480415906930000006954479672127901603_"><use xlink:href="#SVGID_00000003793406655689828040000005989251964498151053_" style="overflow:visible"/></clipPath></g></g><g><defs><path id="SVGID_00000011721479811751994590000002441138283709423039_" d="M121.66-208.89c1.76.37 3.22 1.56 4.51 2.82 10.54 10.2 15 24.58 25.1 35.21.99 1.29-4.04 6.85-5.97 5.25-4.68-3.64-22.83-21.79-25.2-24.34-1.69-1.82-3.38-3.65-4.7-5.74-1.29-2.05-1.79-4.3-1.79-6.71 0-.85.04-1.71.27-2.53.91-3.22 4.69-4.61 7.78-3.96"/></defs><use xlink:href="#SVGID_00000011721479811751994590000002441138283709423039_" style="overflow:visible;fill-rule:evenodd;clip-rule:evenodd;fill:#e1000f"/><clipPath id="SVGID_00000167361105649047366000000008989183955432988060_"><use xlink:href="#SVGID_00000011721479811751994590000002441138283709423039_" style="overflow:visible"/></clipPath><g style="clip-path:url(#SVGID_00000167361105649047366000000008989183955432988060_)"><defs><path id="SVGID_00000120520731252871050760000015789017055298155934_" d="M-619.43-2564.61h2532.07v7501.25H-619.43z"/></defs><clipPath id="SVGID_00000002379105870430464740000003476615480354451112_"><use xlink:href="#SVGID_00000120520731252871050760000015789017055298155934_" style="overflow:visible"/></clipPath></g></g><g><defs><path id="SVGID_00000044161301117773281850000009804162989117869701_" d="M99.67-235.89c-1.29-4.28-2.46-8.8-1.57-13.18.89-4.38 4.45-8.54 8.92-8.63 2.36-.05 4.64 1.03 6.4 2.6 1.76 1.57 3.05 3.6 4.12 5.69 3.18 6.19 4.68 13.08 6.01 19.91 1.37 7.04 2.59 14.11 3.81 21.18.13.72.25 1.46.18 2.18-.17 1.62-1.32 3-2.69 3.87-1.38.86-2.98 1.29-4.55 1.7-2.11.55-4.34.72-6.35-.38-2.18-1.19-3.13-4.36-3.99-6.51-1.25-3.12-2.49-6.25-3.69-9.39-2.4-6.27-4.66-12.61-6.6-19.04"/></defs><clipPath id="SVGID_00000097463791066835269960000018188472935866788504_"><use xlink:href="#SVGID_00000044161301117773281850000009804162989117869701_" style="overflow:visible"/></clipPath><g style="clip-path:url(#SVGID_00000097463791066835269960000018188472935866788504_)"><defs><path id="SVGID_00000031203677570877802980000006670337199725554853_" d="M-619.43-2564.61h2532.07v7501.25H-619.43z"/></defs><clipPath id="SVGID_00000175302161550970734330000006716295265749449368_"><use xlink:href="#SVGID_00000031203677570877802980000006670337199725554853_" style="overflow:visible"/></clipPath></g></g></g><g><defs><path id="SVGID_00000142887697941334370130000002031582710899083960_" d="M221.84 191.99V64.01L111 0 .16 64.01v127.98L111 256z"/></defs><radialGradient id="SVGID_00000132775426120867320120000001599528199981011100_" cx="108.791" cy="104.995" r="130.571" gradientUnits="userSpaceOnUse"><stop offset="0" style="stop-color:#94f6b0"/><stop offset=".194" style="stop-color:#91f2b3"/><stop offset=".392" style="stop-color:#89e6bd"/><stop offset=".593" style="stop-color:#7cd1cc"/><stop offset=".794" style="stop-color:#69b5e2"/><stop offset=".995" style="stop-color:#5290fe"/><stop offset="1" style="stop-color:#518fff"/></radialGradient><use xlink:href="#SVGID_00000142887697941334370130000002031582710899083960_" style="overflow:visible;fill:url(#SVGID_00000132775426120867320120000001599528199981011100_)"/><clipPath id="SVGID_00000119110268190588279290000005009544541927597198_"><use xlink:href="#SVGID_00000142887697941334370130000002031582710899083960_" style="overflow:visible"/></clipPath><path style="clip-path:url(#SVGID_00000119110268190588279290000005009544541927597198_);fill:#c3c3fa" d="M39 98.37h144v86.19H39z"/><path style="clip-path:url(#SVGID_00000119110268190588279290000005009544541927597198_);fill:#d38742" d="M53.4 45.45c7.11 4 24.27 8.22 29.95 10.92 5.68 2.7 13.69 9 20.3 16.93 2.19 2.63 11.86 15.78 1.19 13.02.5 2.28 2.49 3.67 4 6.2-.73 2.17-2.24 1.84-6.61-1.11 1.21 2.12 2.03 5.05 3.52 6.58-1.68 4.14-5.99 1.13-10.67-3.42 2.17 4.2 1.14 5.57.12 5.61-10.74.39-6.08-4.01-13.15-3.5-13.29.97-31.85-18.8-37.96-23.86-5.22-4.32-12.36-8.54-12.36-8.54L53.4 45.45z"/><path style="clip-path:url(#SVGID_00000119110268190588279290000005009544541927597198_);fill:#e1000f" d="m26.95 24.56 28.31 18.68c5.58 8.15-4.1 26.75-14.8 29l-42.4-16.32"/><defs><filter id="Adobe_OpacityMaskFilter" filterUnits="userSpaceOnUse" x="79" y="40.56" width="80" height="108.36"><feColorMatrix values="1 0 0 0 0 0 1 0 0 0 0 0 1 0 0 0 0 0 1 0"/></filter></defs><mask maskUnits="userSpaceOnUse" x="79" y="40.56" width="80" height="108.36" id="b_00000115473117941570837250000001773256770062205356_"><g style="filter:url(#Adobe_OpacityMaskFilter)"><path id="a_00000005234470844461617800000000186962163308171424_" style="clip-path:url(#SVGID_00000119110268190588279290000005009544541927597198_);fill-rule:evenodd;clip-rule:evenodd;fill:#fff" d="M-59.97 201.24h342.23V9.6H-59.97v191.64z"/></g></mask><path style="clip-path:url(#SVGID_00000119110268190588279290000005009544541927597198_);mask:url(#b_00000115473117941570837250000001773256770062205356_);fill:#fff" d="M79 40.56v108.36h80l-.01-92.36-15.99-16H79z"/><defs><filter id="Adobe_OpacityMaskFilter_00000061449670366764217100000007361934752528422811_" filterUnits="userSpaceOnUse" x="15" y="195.51" width="192.07" height="5.05"><feColorMatrix values="1 0 0 0 0 0 1 0 0 0 0 0 1 0 0 0 0 0 1 0"/></filter></defs><mask maskUnits="userSpaceOnUse" x="15" y="195.51" width="192.07" height="5.05" id="b_00000100341622461527909620000012750458657066422450_"><g style="filter:url(#Adobe_OpacityMaskFilter_00000061449670366764217100000007361934752528422811_)"><path id="a_00000175315079819435511730000013327963696192499380_" style="clip-path:url(#SVGID_00000119110268190588279290000005009544541927597198_);fill-rule:evenodd;clip-rule:evenodd;fill:#fff" d="M-56.27 201.24h342.23V9.6H-56.27v191.64z"/></g></mask><path style="clip-path:url(#SVGID_00000119110268190588279290000005009544541927597198_);mask:url(#b_00000100341622461527909620000012750458657066422450_);fill-rule:evenodd;clip-rule:evenodd;fill:#3f3f3f" d="M207.07 195.51s-6.84 5.05-30.23 5.05h-64.6.41-65.12c-23.38 0-32.53-4.73-32.53-4.73l192.07-.32z"/><path style="clip-path:url(#SVGID_00000119110268190588279290000005009544541927597198_);fill:#919191" d="M15 191.98h192v4H15z"/><path style="clip-path:url(#SVGID_00000119110268190588279290000005009544541927597198_);fill-rule:evenodd;clip-rule:evenodd;fill:#666" d="M31 184.56h160v7.42H31z"/><g style="clip-path:url(#SVGID_00000119110268190588279290000005009544541927597198_)"><path d="M185 90.37H37c-3.31 0-6 2.69-6 6v89.61c0 3.31 2.69 6 6 6h148c3.31 0 6-2.69 6-6V96.37c0-3.31-2.69-6-6-6zm-2 94.19H39V98.37h144v86.19z" style="fill:#666"/></g><path style="clip-path:url(#SVGID_00000119110268190588279290000005009544541927597198_);fill-rule:evenodd;clip-rule:evenodd;fill:#fff" d="M39 98.37h24v86.19H39z"/><path style="clip-path:url(#SVGID_00000119110268190588279290000005009544541927597198_);fill-rule:evenodd;clip-rule:evenodd;fill:#ddd" d="M95 191.98h32v2H95z"/><path style="clip-path:url(#SVGID_00000119110268190588279290000005009544541927597198_);fill:#000091" d="M57 108.56H45c-1.1 0-2-.9-2-2s.9-2 2-2h12a2 2 0 1 1 0 4zM58.51 121.06H43.5c-.28 0-.5-.22-.5-.5s.22-.5.5-.5h15.01c.28 0 .5.22.5.5s-.22.5-.5.5zM55.19 129.06H43.5c-.28 0-.5-.22-.5-.5s.22-.5.5-.5h11.69c.28 0 .5.22.5.5s-.22.5-.5.5zM55.19 145.06H43.5c-.28 0-.5-.22-.5-.5s.22-.5.5-.5h11.69c.28 0 .5.22.5.5s-.22.5-.5.5zM58.51 137.06H43.5c-.28 0-.5-.22-.5-.5s.22-.5.5-.5h15.01c.28 0 .5.22.5.5s-.22.5-.5.5zM55.19 153.06H43c-.28 0-.5-.22-.5-.5s.22-.5.5-.5h12.19c.28 0 .5.22.5.5s-.22.5-.5.5z"/><path style="clip-path:url(#SVGID_00000119110268190588279290000005009544541927597198_);fill:#f5f5fe" d="M78.86 40.56H143l16.14 16v33.81H78.86z"/><path style="clip-path:url(#SVGID_00000119110268190588279290000005009544541927597198_);fill:#000091" d="M148.33 73.56H95c-.55 0-1-.45-1-1s.45-1 1-1h53.33c.55 0 1 .45 1 1s-.45 1-1 1zM137.66 81.56H95c-.55 0-1-.45-1-1s.45-1 1-1h42.67c.55 0 1 .45 1 1s-.45 1-1.01 1zM127.02 65.56H95c-.55 0-1-.45-1-1s.45-1 1-1h32.02c.55 0 1 .45 1 1s-.45 1-1 1z"/><path style="clip-path:url(#SVGID_00000119110268190588279290000005009544541927597198_);fill:#e1000f" d="M95 48.4h2.83v4H95z"/><path style="clip-path:url(#SVGID_00000119110268190588279290000005009544541927597198_);fill:#fff" d="M97.83 48.4h2.83v4h-2.83z"/><path style="clip-path:url(#SVGID_00000119110268190588279290000005009544541927597198_);fill:#000091" d="M100.66 48.4h2.83v4h-2.83z"/><path style="clip-path:url(#SVGID_00000119110268190588279290000005009544541927597198_);fill:#d38742" d="M75.64 56.56c6.29 1.67 4.68-.63 13.38 6.99s14.19 9.82 14.19 9.82-2.44 8.13-11.19 3.62-8.31-5.56-16.09-3.89c-7.77 1.67-15.03.26-15.03.26l14.74-16.8zM191.71 134.37c-8.13-.71-24.68-6.89-30.89-7.87-6.21-.98-16.38-.29-26.31 2.54-3.29.94-18.69 6.34-8.32 10.08-1.69 1.6-4.12 1.63-6.8 2.86-.62 2.21.81 2.78 6.08 2.81-2.19 1.07-4.52 3.03-6.62 3.45-.94 4.36 4.31 4.31 10.74 3.19-4.16 2.25-4.08 3.96-3.26 4.56 8.65 6.37 7.29.11 12.83 4.52 10.43 8.29 36.9 2.43 44.8 1.7 6.74-.63 15.02-.09 15.02-.09l-7.27-27.75z"/><path style="clip-path:url(#SVGID_00000119110268190588279290000005009544541927597198_);fill:#000091" d="m247.25 135.2-55.84-3.7c-9.21 3.59-12.19 23.85-4.62 31.74l52.06 12.89"/><path style="clip-path:url(#SVGID_00000119110268190588279290000005009544541927597198_);fill:#d4d4d4" d="M143 56.56h15.99l-15.99-16z"/><path style="clip-path:url(#SVGID_00000119110268190588279290000005009544541927597198_);fill:#fff" d="M78.86 98.37h80.13v50.55H78.86z"/><path style="clip-path:url(#SVGID_00000119110268190588279290000005009544541927597198_);fill:#000091" d="M148.33 105.56H95c-.55 0-1-.45-1-1s.45-1 1-1h53.33c.55 0 1 .45 1 1s-.45 1-1 1zM148.33 121.52H95c-.55 0-1-.45-1-1s.45-1 1-1h53.33c.55 0 1 .45 1 1s-.45 1-1 1zM137.66 129.53H95c-.55 0-1-.45-1-1s.45-1 1-1h42.67c.55 0 1 .45 1 1-.01.55-.45 1-1.01 1z"/><path style="clip-path:url(#SVGID_00000119110268190588279290000005009544541927597198_);fill:#d38742" d="M165.94 131.81c-6.44-.96-4.05-2.44-15.05 1.11-11.01 3.55-16.91 3.39-16.91 3.39s-.98 8.43 8.84 7.76c9.82-.67 9.84-1.81 16.31 2.8 6.47 4.62 13.69 6.19 13.69 6.19l-6.88-21.25z"/></g></g></svg>
