<svg xmlns="http://www.w3.org/2000/svg" xmlns:xlink="http://www.w3.org/1999/xlink" viewBox="0 0 221.68 256" style="enable-background:new 0 0 221.68 256" xml:space="preserve"><style>.st286{fill-rule:evenodd;clip-rule:evenodd;fill:#fff}.st811{display:none}.st812,.st813{display:inline;fill:none;stroke:#00b1ff;stroke-width:.25;stroke-miterlimit:10}.st813{stroke:red}</style><g id="FOND"><radialGradient id="SVGID_1_" cx="111.615" cy="94.053" r="202.854" gradientUnits="userSpaceOnUse"><stop offset=".22" style="stop-color:#52cd80"/><stop offset=".223" style="stop-color:#52cc80"/><stop offset=".474" style="stop-color:#4d9d8d"/><stop offset=".696" style="stop-color:#497b96"/><stop offset=".879" style="stop-color:#47679b"/><stop offset="1" style="stop-color:#465f9d"/></radialGradient><path style="fill:url(#SVGID_1_)" d="M221.68 192.02V64.04L110.84.03 0 64.04v127.98l110.84 64.01z"/></g><g id="ILLU"><defs><path id="SVGID_00000038391664784547789260000018128432118264501947_" d="M-469.35-153.73v-127.98l-110.84-64.01-110.84 64.01v127.98l110.84 64.01z"/></defs><radialGradient id="SVGID_00000041993949702807576640000002509176001196096441_" cx="-474.377" cy="-269.512" r="368.525" gradientUnits="userSpaceOnUse"><stop offset=".233" style="stop-color:#9797f7"/><stop offset=".551" style="stop-color:#518fff"/></radialGradient><use xlink:href="#SVGID_00000038391664784547789260000018128432118264501947_" style="overflow:visible;fill:url(#SVGID_00000041993949702807576640000002509176001196096441_)"/><clipPath id="SVGID_00000164476897355262108340000016134717649515775388_"><use xlink:href="#SVGID_00000038391664784547789260000018128432118264501947_" style="overflow:visible"/></clipPath><g style="clip-path:url(#SVGID_00000164476897355262108340000016134717649515775388_)"><defs><path id="SVGID_00000173846671398727820570000000275021507859364026_" d="M-589.6-279.42c-.25 3.74-1.86 10.01-2.29 13.73 8.14 3.31 16.46 4.46 15.93.79-.6-4.41-.57-10.79-.17-15.21 1.4-11.54-9.27-13.81-12.42-8.39-.41 1.41-.95 7.63-1.05 9.08"/></defs><clipPath id="SVGID_00000115474887853133429500000007030572685834999979_"><use xlink:href="#SVGID_00000173846671398727820570000000275021507859364026_" style="overflow:visible"/></clipPath><g style="clip-path:url(#SVGID_00000115474887853133429500000007030572685834999979_)"><defs><path id="SVGID_00000165929805476494599700000000992041617621596050_" d="M-1310.54-2564.61h2532.07v7501.25h-2532.07z"/></defs><clipPath id="SVGID_00000133513247206099334290000017136824329242431361_"><use xlink:href="#SVGID_00000165929805476494599700000000992041617621596050_" style="overflow:visible"/></clipPath></g><defs><path id="SVGID_00000148643018008014485100000004840159692444543369_" d="M-591.45-306.24c-1.13 3.38-2.76 13.62 3.19 22.84 2.66 4.12 6.73 5.73 11.13 7.01 4.92 1.43 9.19 1.65 11.14-2.84 1.07-2.46.64-5.93 1.04-8.59.93-.01 2.77-.26 3.85-.35-.74-4.78-.72-6.36-2.19-13.89-1.15-5.87-5.57-9.72-11.61-11.03-5.23-1.16-13.88-1.17-16.55 6.85"/></defs><clipPath id="SVGID_00000031182902566037503700000015809286659772930699_"><use xlink:href="#SVGID_00000148643018008014485100000004840159692444543369_" style="overflow:visible"/></clipPath><g style="clip-path:url(#SVGID_00000031182902566037503700000015809286659772930699_)"><defs><path id="SVGID_00000036937775699923533880000013033305874411427997_" d="M-1310.54-2564.61h2532.07v7501.25h-2532.07z"/></defs><clipPath id="SVGID_00000114036886069796500710000000029761237540810370_"><use xlink:href="#SVGID_00000036937775699923533880000013033305874411427997_" style="overflow:visible"/></clipPath></g><defs><path id="SVGID_00000110467619028261888560000009332231935113503636_" d="M-590.7-287.62c.01-2.52-2.66-11.03 2.71-10.46 2.33.25 3.33 4.24 5.95 2.18 1.85-1.46 2.51-5.53 2.62-7.68.11-2.29-.93-6.77-1.53-8.74 3.42.63 8.66 1.89 12.04 1.42-3.72-3.11-10.13-3.27-14.56-2.77-6.2.7-9.23 7.22-9.88 12.98-.25 2.21-.54 7.24 2.5 12.85"/></defs><clipPath id="SVGID_00000048485682452404934400000012015854008463295898_"><use xlink:href="#SVGID_00000110467619028261888560000009332231935113503636_" style="overflow:visible"/></clipPath><g style="clip-path:url(#SVGID_00000048485682452404934400000012015854008463295898_)"><defs><path id="SVGID_00000160880426067687571400000012913641548403446207_" d="M-1310.54-2564.61h2532.07v7501.25h-2532.07z"/></defs><clipPath id="SVGID_00000180343939788192979190000003920194243355926438_"><use xlink:href="#SVGID_00000160880426067687571400000012913641548403446207_" style="overflow:visible"/></clipPath></g><defs><path id="SVGID_00000005948798812390598860000004406998007440175773_" d="M-578.53-202.5c-5.56-.16-18.78 3.89-17.24 18.96.43 4.25 4.44 15.67 5.93 19.57 3.47 9.04 12.2 27.81 14.79 35.31 2.29 6.65 2.48 16.73 7.89 19.77 2.32 1.3 7.95 2.6 12.5.09 1.13-.62 6.81-4.39 5.82-11.68-.54-3.97-1.06-3.25-1.68-7.21-1.25-7.95-1.95-14.81-3.81-22.63-1.74-7.37-5.13-18.61-7.34-25.69-3.07-9.85-1.77-26.05-16.86-26.49"/></defs><clipPath id="SVGID_00000104706133728970971530000012645056171165507716_"><use xlink:href="#SVGID_00000005948798812390598860000004406998007440175773_" style="overflow:visible"/></clipPath><g style="clip-path:url(#SVGID_00000104706133728970971530000012645056171165507716_)"><defs><path id="SVGID_00000123441594886477677760000004203149890792367017_" d="M-1310.54-2564.61h2532.07v7501.25h-2532.07z"/></defs><clipPath id="SVGID_00000028287322112305767890000009658453537294839955_"><use xlink:href="#SVGID_00000123441594886477677760000004203149890792367017_" style="overflow:visible"/></clipPath></g><defs><path id="SVGID_00000096754065339253220670000016711732453932656303_" d="M-547.33-116.39c-3.74-14.33-16.17-17.75-23.23-6.36-2.91 4.69 1.39 9.78 2.56 16.35.68 3.85.84 10.69 3.57 19.11 1.99 6.13 10.75 22.72 12.01 25.69 1.37 3.22 3.04 7 4.34 10.31-.08.85 10.12-.99 10.19-2.22.04-.74-2.12-10.85-2.31-12.71-.69-6.84-4.08-28.38-5.38-35.28-.98-5.2-.58-10.37-1.75-14.89"/></defs><clipPath id="SVGID_00000151541623565745335170000003375381006091481785_"><use xlink:href="#SVGID_00000096754065339253220670000016711732453932656303_" style="overflow:visible"/></clipPath><g style="clip-path:url(#SVGID_00000151541623565745335170000003375381006091481785_)"><defs><path id="SVGID_00000124139780206625684980000014656495645543662213_" d="M-1310.54-2564.61h2532.07v7501.25h-2532.07z"/></defs><clipPath id="SVGID_00000096751727107836118280000005749599425074464399_"><use xlink:href="#SVGID_00000124139780206625684980000014656495645543662213_" style="overflow:visible"/></clipPath></g><g><defs><path id="SVGID_00000065794557025561292350000004699263087393895101_" d="M-544.66-43.39c1.75-.44 1.72-.88 3.1-1.02 1.86-.18 1.96.03 3.8-.27 2.97-.49 3.79-.7 6.51-1.84.48-.2 2.15-2.37 1.09-2.44-2.11-.15-3.57-.18-5.54-.82-2.96-1.43-1.15-.9-5.28-4.4-2.21-1.86-4.44-.35-5.38 1.01-.65.94-.12 2.45-.67 3.69-1.24 2.81-.79 4.46.2 6.36.53.06 1.26-.04 2.17-.27"/></defs><clipPath id="SVGID_00000098943491233973124260000004442931241266759058_"><use xlink:href="#SVGID_00000065794557025561292350000004699263087393895101_" style="overflow:visible"/></clipPath><g style="clip-path:url(#SVGID_00000098943491233973124260000004442931241266759058_)"><defs><path id="SVGID_00000116208276115584204060000004968056278978870457_" d="M-1310.54-2564.61h2532.07v7501.25h-2532.07z"/></defs><clipPath id="SVGID_00000070825735714590622170000017183356054082589073_"><use xlink:href="#SVGID_00000116208276115584204060000004968056278978870457_" style="overflow:visible"/></clipPath></g></g><g><defs><path id="SVGID_00000149360536433811866750000008954391496312542137_" d="M-631.91-51.32c1.47 1.05 2.25.87 3.31 1.77 1.42 1.22 1.33 1.43 2.82 2.55 2.4 1.8 3.13 2.26 5.83 3.43.47.2 3.2-.09 2.53-.9-1.35-1.62-2.35-2.7-3.25-4.57-1.02-3.12-.14-1.45-.48-6.85-.18-2.88-2.82-3.45-4.45-3.19-1.13.18-1.86 1.61-3.13 2.07-2.89 1.05-3.83 2.28-4.51 4.3.42.73 1.19 1.29 1.33 1.39"/></defs><clipPath id="SVGID_00000158733166503313843360000003818754631322380457_"><use xlink:href="#SVGID_00000149360536433811866750000008954391496312542137_" style="overflow:visible"/></clipPath><g style="clip-path:url(#SVGID_00000158733166503313843360000003818754631322380457_)"><defs><path id="SVGID_00000096038909070208330470000017491207886127957903_" d="M-1310.54-2564.61h2532.07v7501.25h-2532.07z"/></defs><clipPath id="SVGID_00000125564634794889474590000009756431528825808803_"><use xlink:href="#SVGID_00000096038909070208330470000017491207886127957903_" style="overflow:visible"/></clipPath></g></g><g><defs><path id="SVGID_00000054987972412654079670000012422146196152317098_" d="M-586.69-107.57c6.29-13.41-1.08-23.98-13.79-19.73-5.23 1.75-5.18 8.41-8.49 14.21-1.94 3.4-6.19 8.75-9.47 16.98-2.39 5.98-6.27 24.34-7.2 27.43-1.01 3.35-2.14 7.33-3.26 10.7-.6.6 8.42 5.71 9.26 4.81.51-.54 5.31-9.69 6.35-11.24 3.85-5.7 15.01-24.43 18.43-30.57 2.56-4.64 6.18-8.37 8.17-12.59"/></defs><clipPath id="SVGID_00000109012290209645317190000012451115182343079096_"><use xlink:href="#SVGID_00000054987972412654079670000012422146196152317098_" style="overflow:visible"/></clipPath><g style="clip-path:url(#SVGID_00000109012290209645317190000012451115182343079096_)"><defs><path id="SVGID_00000132808564177651826600000000551962708156671654_" d="M-1310.54-2564.61h2532.07v7501.25h-2532.07z"/></defs><clipPath id="SVGID_00000018217786926392274070000006707474928650483360_"><use xlink:href="#SVGID_00000132808564177651826600000000551962708156671654_" style="overflow:visible"/></clipPath></g></g><g><defs><path id="SVGID_00000123402315843265062740000008077907660592430210_" d="M-581.16-202.32c-5.08-2.26-18.85-3.53-23.15 11-1.21 4.1-1.85 16.18-1.95 20.36-.23 9.68.73 30.36.27 38.27-.4 7.02-4.06 16.42-.21 21.28 1.65 2.08 6.37 5.42 11.53 4.82 1.28-.15 7.97-1.48 9.82-8.6 1.01-3.87.26-3.41 1.18-7.31 1.86-7.83 3.82-14.45 5.07-22.38 1.18-7.48 2.32-19.17 2.97-26.56.9-10.25 8.26-24.74-5.53-30.88"/></defs><clipPath id="SVGID_00000020371741226185128180000011415846696960876178_"><use xlink:href="#SVGID_00000123402315843265062740000008077907660592430210_" style="overflow:visible"/></clipPath><g style="clip-path:url(#SVGID_00000020371741226185128180000011415846696960876178_)"><defs><path id="SVGID_00000068639028304185816390000004853268327204996528_" d="M-1310.54-2564.61h2532.07v7501.25h-2532.07z"/></defs><clipPath id="SVGID_00000036250312462455814980000012591452759712743838_"><use xlink:href="#SVGID_00000068639028304185816390000004853268327204996528_" style="overflow:visible"/></clipPath></g></g><g><defs><path id="SVGID_00000119078332179812422490000011882999829210428337_" d="M-566.39-248.84c-1.95-9.62-3.68-13.59-11.06-16.65-7.7-3.19-13.71-2.51-19.96.23-17.66 7.73-13.96 28.25-9.38 43.78 2.14 7.25 3.48 16.92 4.33 24.4.36 3.19 4.92 2.65 5.53 2.74 7.69 1.14 14.53 1.17 21.4-.23 7.47-1.52 5.13-2.59 6.73-8.67 1.92-7.3 2.64-12.77 2.88-22.8.17-6.95.73-16.87-.47-22.8"/></defs><use xlink:href="#SVGID_00000119078332179812422490000011882999829210428337_" style="overflow:visible;fill-rule:evenodd;clip-rule:evenodd;fill:#e1000f"/><clipPath id="SVGID_00000003064379067394738840000001577674502157586083_"><use xlink:href="#SVGID_00000119078332179812422490000011882999829210428337_" style="overflow:visible"/></clipPath><g style="clip-path:url(#SVGID_00000003064379067394738840000001577674502157586083_)"><defs><path id="SVGID_00000108988897556981621250000011849949805566378167_" d="M-1310.54-2564.61h2532.07v7501.25h-2532.07z"/></defs><clipPath id="SVGID_00000148651537326777691650000008032308834208781968_"><use xlink:href="#SVGID_00000108988897556981621250000011849949805566378167_" style="overflow:visible"/></clipPath></g></g><g><defs><path id="SVGID_00000052820283204678490430000013020802284447465903_" d="M-540.5-168.55c1.32.93 2.7 1.62 4.02 2.54 2.24 1.57 3.15 3.34 4.43 5.71.16.28.27.72-.02.86-.13.06-.27.03-.41-.01-1.29-.36-2.03-1.29-3.03-2.18 1.06 2.32 1.55 4.95 2.41 7.35.1.3.2.66 0 .91-.26.32-.77.18-1.14.01-3.02-1.44-5.59-3.77-7.4-6.58-1.19-1.85-4.17-7.06-1.97-8.95.69-.6 1.96-.62 2.38.1"/></defs><use xlink:href="#SVGID_00000052820283204678490430000013020802284447465903_" style="overflow:visible;fill-rule:evenodd;clip-rule:evenodd;fill:#9f714f"/><clipPath id="SVGID_00000149352186999919415200000007013262508139350958_"><use xlink:href="#SVGID_00000052820283204678490430000013020802284447465903_" style="overflow:visible"/></clipPath><g style="clip-path:url(#SVGID_00000149352186999919415200000007013262508139350958_)"><defs><path id="SVGID_00000003793406655689828040000005989251964498151053_" d="M-1310.54-2564.61h2532.07v7501.25h-2532.07z"/></defs><clipPath id="SVGID_00000062882172203853942310000018152423810681928634_"><use xlink:href="#SVGID_00000003793406655689828040000005989251964498151053_" style="overflow:visible"/></clipPath></g></g><g><defs><path id="SVGID_00000011721479811751994590000002441138283709423039_" d="M-569.45-208.89c1.76.37 3.22 1.56 4.51 2.82 10.54 10.2 15 24.58 25.1 35.21.99 1.29-4.04 6.85-5.97 5.25-4.68-3.64-22.83-21.79-25.2-24.34-1.69-1.82-3.38-3.65-4.7-5.74-1.29-2.05-1.79-4.3-1.79-6.71 0-.85.04-1.71.27-2.53.91-3.22 4.7-4.61 7.78-3.96"/></defs><use xlink:href="#SVGID_00000011721479811751994590000002441138283709423039_" style="overflow:visible;fill-rule:evenodd;clip-rule:evenodd;fill:#e1000f"/><clipPath id="SVGID_00000098184440300373800090000017043172102334170792_"><use xlink:href="#SVGID_00000011721479811751994590000002441138283709423039_" style="overflow:visible"/></clipPath><g style="clip-path:url(#SVGID_00000098184440300373800090000017043172102334170792_)"><defs><path id="SVGID_00000120520731252871050760000015789017055298155934_" d="M-1310.54-2564.61h2532.07v7501.25h-2532.07z"/></defs><clipPath id="SVGID_00000031917439455872217730000005818257801712955055_"><use xlink:href="#SVGID_00000120520731252871050760000015789017055298155934_" style="overflow:visible"/></clipPath></g></g><g><defs><path id="SVGID_00000044161301117773281850000009804162989117869701_" d="M-591.44-235.89c-1.29-4.28-2.46-8.8-1.57-13.18.89-4.38 4.45-8.54 8.92-8.63 2.36-.05 4.64 1.03 6.4 2.6 1.76 1.57 3.05 3.6 4.12 5.69 3.18 6.19 4.68 13.08 6.01 19.91 1.37 7.04 2.59 14.11 3.81 21.18.13.72.25 1.46.18 2.18-.17 1.62-1.32 3-2.69 3.87-1.38.86-2.98 1.29-4.55 1.7-2.11.55-4.34.72-6.35-.38-2.18-1.19-3.13-4.36-3.99-6.51-1.25-3.12-2.49-6.25-3.69-9.39-2.4-6.27-4.65-12.61-6.6-19.04"/></defs><clipPath id="SVGID_00000103955921153936469440000016854692048000675726_"><use xlink:href="#SVGID_00000044161301117773281850000009804162989117869701_" style="overflow:visible"/></clipPath><g style="clip-path:url(#SVGID_00000103955921153936469440000016854692048000675726_)"><defs><path id="SVGID_00000031203677570877802980000006670337199725554853_" d="M-1310.54-2564.61h2532.07v7501.25h-2532.07z"/></defs><clipPath id="SVGID_00000034050026533116583240000013438589311591180473_"><use xlink:href="#SVGID_00000031203677570877802980000006670337199725554853_" style="overflow:visible"/></clipPath></g></g></g><g><defs><path id="SVGID_00000032618569152387808650000017131677986570801582_" d="M221.68 192.02V64.04L110.84.03 0 64.04v127.98l110.84 64.01z"/></defs><clipPath id="SVGID_00000166660942796634228270000004120668477427307438_"><use xlink:href="#SVGID_00000032618569152387808650000017131677986570801582_" style="overflow:visible"/></clipPath><path style="clip-path:url(#SVGID_00000166660942796634228270000004120668477427307438_);fill:#8cf6e0" d="M204.01 94.1c.42 3.75 1.16 11.4 1.13 18.32 0 .98-.78 1.79-1.76 1.84l-18.9.94a2.392 2.392 0 0 1-2.51-2.41l.19-16.03a3.024 3.024 0 0 1 2.7-2.97l16.54-1.77c1.31-.15 2.47.78 2.61 2.08M35.59 196.61l-5.27-5.91c-1.58-1.63-2.87-.17-4.76 1.08l-3.74 2.46c-.74.49-.86 1.53-.25 2.18l6 6.37c.49.52 1.29.6 1.87.19l5.95-4.2c.72-.51.82-1.54.2-2.17M83.22 179.77l7.59-7.04-7.15-5.54-5.57 5.99zM205.05 159.35l-7.2-7.42a4.993 4.993 0 0 0-6.34-.69l-6.92 4.56a2.466 2.466 0 0 0-.44 3.75l8.73 9.28c.84.89 2.22 1.03 3.22.32l8.59-6.06c1.25-.88 1.42-2.65.36-3.74M4.13 170.41l-7.37 4.58s5.16 6.92 6.63 7.65c1.47.73 7.37-4.58 7.37-4.58l-6.63-7.65zM77.6 195.98s-3.32 6.4-5.97 8.44l-7.8-3.62a2.195 2.195 0 0 1-1.01-3.02c1.33-2.47 3.73-6.43 6-7.69l8.78 5.89zM154.47 174.07c-.43-2.33-1.36-7.79-1.67-12.72a1.18 1.18 0 0 1 1.04-1.25l13.16-1.55c.68-.08 1.28.43 1.32 1.11l.67 11.99c.03.6-.39 1.13-.98 1.23l-12.18 2.15c-.63.11-1.25-.32-1.36-.96M142.47 188.38l7.11 1.96c.6.17 1.22-.22 1.33-.84.44-2.53 1.41-8.47 1.02-9.81-.39-1.34-5.72-2.12-8.04-2.4a1.06 1.06 0 0 0-1.18.94l-1.01 9.01c-.06.52.27 1 .77 1.14M123.84 156.3c-1.54-2.66-3.95-7.25-5.1-11.7-.32-1.25.33-2.55 1.51-3.06l7.63-3.27c1.25-.54 2.71-.02 3.35 1.18l5.07 9.53a2.6 2.6 0 0 1-.94 3.44l-7.9 4.8c-1.24.77-2.88.35-3.62-.92M41.39 180.66l.42 4.72c.08.92.9 1.59 1.81 1.49l5.7-.61c.84-.09 1.48-.81 1.47-1.66l-.05-4.14c-.01-.91-.75-1.64-1.66-1.63-1.39.01-3.56.02-6.05.02-.96.02-1.73.85-1.64 1.81M126.98 172.44l.42 4.72c.08.92.9 1.59 1.82 1.49l5.7-.6c.85-.09 1.48-.81 1.47-1.66l-.05-4.14c-.01-.91-.75-1.64-1.66-1.63-1.39.01-3.56.02-6.05.02-.97.01-1.73.84-1.65 1.8M82.51 156.96l7.75-7.19a2.29 2.29 0 0 0-.16-3.48l-7.63-5.84c-.93-.71-2.25-.6-3.05.26l-5.7 6.13c-.77.83-.81 2.1-.1 2.98l5.58 6.9a2.26 2.26 0 0 0 3.31.24M33.62 166.73s.45 6.67-1.65 11.25l-12.1.42 2.42-12.29 11.33.62zM42.1 166.48s-.81-4.44.25-7.67l8.08-1.2-.68 8.42-7.65.45zM202.81 140.72l15.94 4.28c1.39.37 2.83-.37 3.33-1.73 1.36-3.68 3.95-10.83 5.29-15.78.26-.94-.24-1.93-1.15-2.28-3.84-1.46-13.83-5.06-20.08-5.48-.94-.06-1.77.58-1.97 1.51l-3.37 16.17c-.31 1.47.58 2.92 2.01 3.31M154.2 140.06l8.6 3.64c2.41 1.14 1.28 3.13.61 5.72l-1.33 5.11a1.685 1.685 0 0 1-2.34 1.11l-9.39-4.27a1.688 1.688 0 0 1-.92-2.02l2.42-8.24c.3-1 1.41-1.5 2.35-1.05M103.26 162.19l4.97-11.14 7.19 5.48-4.57 8.49zM187.79 50.06l11.03 5.21a5.881 5.881 0 0 1 3.18 6.81l-2.46 9.46c-.45 1.75-2.38 2.66-4.02 1.92l-13.67-6.22c-1.32-.6-2-2.08-1.59-3.47l3.49-11.9a2.907 2.907 0 0 1 4.04-1.81M222.17 81.52l-2.31 9.96s-9.69-3.13-11.06-4.49c-1.37-1.36 2.31-9.96 2.31-9.96l11.06 4.49zM158.25 136.16c2.76-.41 9.21-1.45 14.83-2.98.72-.2 1.16-.92 1-1.64l-3.28-15.28c-.17-.79-.97-1.27-1.74-1.05l-13.63 3.82c-.68.19-1.11.86-1 1.56l2.24 14.4c.12.76.82 1.28 1.58 1.17M133.67 209.59l-4.89-7.19c-.42-.61-.22-1.44.43-1.8 2.66-1.46 8.92-4.8 10.56-4.87 1.64-.07 4.54 5.58 5.73 8.06.3.63.03 1.38-.6 1.67l-9.67 4.55c-.55.27-1.22.09-1.56-.42M189.68 146.16l-5.43 1.33c-1.06.26-2.12-.4-2.36-1.46l-1.49-6.59c-.22-.98.34-1.96 1.29-2.28l4.63-1.52c1.02-.33 2.11.22 2.45 1.23.52 1.56 1.33 3.98 2.28 6.75.38 1.1-.26 2.27-1.37 2.54M59.06 184.19s5.26-.79 8.47-3.2l-1.73-9.48-9.14 3.97 2.4 8.71z"/><path style="clip-path:url(#SVGID_00000166660942796634228270000004120668477427307438_);fill-rule:evenodd;clip-rule:evenodd;fill:#c9f5fb" d="M109 192.85h4.72v1.52H109z"/><path style="clip-path:url(#SVGID_00000166660942796634228270000004120668477427307438_);fill-rule:evenodd;clip-rule:evenodd;fill:none;stroke:#0909b9;stroke-width:2;stroke-miterlimit:10" d="m89.91 159.17 2.35 42.97"/><path style="clip-path:url(#SVGID_00000166660942796634228270000004120668477427307438_);fill-rule:evenodd;clip-rule:evenodd;fill:none;stroke:#0909b9;stroke-miterlimit:10" d="m102.53 159.16 2.36 42.98"/><path style="clip-path:url(#SVGID_00000166660942796634228270000004120668477427307438_);fill-rule:evenodd;clip-rule:evenodd;fill:none;stroke:#0909b9;stroke-width:2;stroke-miterlimit:10" d="m130.4 159.16-2.36 42.98"/><path style="clip-path:url(#SVGID_00000166660942796634228270000004120668477427307438_);fill-rule:evenodd;clip-rule:evenodd;fill:none;stroke:#0909b9;stroke-miterlimit:10" d="m117.54 159.16-2.36 42.98"/><g style="clip-path:url(#SVGID_00000166660942796634228270000004120668477427307438_)"><path d="M106.68 205.4c-.29-.46-.4-.99-.68-1.45-.09-.14-.81-1.04-.91-1.01-.27.09-.58.14-.87.21-.36.09-.59.05-.71.37s-.08.8-.07 1.14c.01.76.12 1.53.4 2.25.02 0 .19 0 .19-.02-.02-.28-.14-.57-.05-.85.09.32.19.74.3 1.07.03 0 .39.05.39.03-.07-.38-.14-.77-.09-1.09.03.38.05.12.26 1.12.15.01.31 0 .46-.03-.03-.42-.17-.81-.16-1.25.17.37.22.76.32 1.16.03.13.34-.17.36-.2.07-.13.02-.36.02-.49-.03-.57-.21-1.25-.13-1.79.2.36.41.74.77.98.02-.03.17-.12.2-.15z" style="fill-rule:evenodd;clip-rule:evenodd;fill:#00a1d9"/></g><path class="st286" d="M122.63 186.18c.06.02.12.03.18.05 1.57.39 3.29-.45 4.75-1.13 1.7-.8 4.03-1.73 4.79-3.5.85-1.98-.81-4.28-2.07-5.78-.56-.67-1.24-1.49-2.02-2.02-.16-.11-.26-.27-.5-.31-.53-.09-1.59.32-2.08.49.66 1.35 1.46 2.69 2.1 4.07.21.45.32.92.49 1.38.14.38.43.68.48 1.08-1.07.24-2.08.8-3.16 1.03-.99.21-2.93.31-3.89.67-1.32.5-.9 1.8-.28 2.96.29.56.64.84 1.21 1.01zM127.31 173.12c.13.05 0-.01-.05-.06-.13-.14-.27-.27-.43-.39-.36-.28-.72-.5-1.12-.73-.12-.07-.27-.21-.4-.26-.06-.02-.51-.03-.47 0-.24-.2-.31-.25-.7-.1-.07-.07-.19-.1-.28-.15-.33.09-.65.22-.96.33.53.5.89.66 1.62 1.05-.53-.15-.93-.19-1.34-.03-.01.04.03.21.05.25.7-.22 2.09.69 2.63.31.1.03.18.08.23.14" style="clip-path:url(#SVGID_00000166660942796634228270000004120668477427307438_)"/><path class="st286" d="M124.36 193.14c.02-2.48-.08-5.55-.55-7.99-.38-1.96-1-3.38-3.61-3.45-4.56-.12-6.56 2.36-6.13 5.87.06.45.1.41.2.86.05.22.06.42.11.63.04.21.1.39.14.59.22 1.24.44 2.48.65 3.72.18 1.09.6 2.37.51 3.46 2.67.16 6.16.89 8.7-.05.06-1.22-.03-2.41-.02-3.64z" style="clip-path:url(#SVGID_00000166660942796634228270000004120668477427307438_)"/><path class="st286" d="M124.38 196.79c-.21 2.84.45 6.35.25 9.25-.24 3.55-.87 7.11-1.59 10.55-.36 1.73-.85 3.39-1.09 5.14-.23 1.67-1.95 6.69-2 7.53-.72-.11-.87-.01-1.61-.13-.46-.07-1.03-.2-1.49-.1.57-7.07 1.44-14.06 1.46-21.15.01-2.36.19-4.7-.01-6.97-.03-.3.04-.46-.06-.74 0 0-.11-1.56 2.76-2.91 2.2-1.04 3.38-.47 3.38-.47zM116.29 172.73c-.15.9.02 1.7.06 2.59.03.82.86 3.06 1.24 3.48.81.9 1.64 1.31 2.74 1.43 1.23.13 2.28-.25 2.58-1.46.16-.66.09-1.46.08-2.14.23.04.54.05.79-.02.04-1.34.02-2.43-.57-3.68-.65-1.38-2.07-2.12-3.57-2.17-1.29-.05-3.1.45-3.35 1.97z" style="clip-path:url(#SVGID_00000166660942796634228270000004120668477427307438_)"/><path class="st286" d="M118.17 179.45c.09.79.18 1.6.23 2.4.49.06 2.31.13 2.97.04-.09-.86-.23-2.36-.31-3.3-.96-.14-2.2-.59-3.06-.73-.04.3.14 1.29.17 1.59zM122.46 196.56c.5 2.05-.76 4.88-1.18 6.9-.35 1.68-.86 3.4-1.33 5.09-.81 2.93-1.81 5.97-3.04 8.76-.6 1.35-1.47 2.62-2.11 3.97-.65 1.38-1.25 2.78-1.87 4.17-.32.73-.69 1.45-1.12 2.12-.37.58-.13.98-.81 1.06-.7.08-1.98-.02-2.68-.15.03-1.48.33-2.63.74-4.06.32-1.11.56-2.19.86-3.32.55-2.06 1.28-3.89 1.97-5.78.76-2.07 1.21-4.03 1.53-6.35.3-2.17.74-4.38 1.06-6.59.16-1.15 1.4-8.55 3.33-7.69M121.33 182.9l2.68 10.62-.55 1.25-1.31-1.36-1.2-10.64zM103.97 173.48c-.27.41-.45.89-.54 1.36-.1.5-.02 1.04-.3 1.53-.61 1.09-.99 2.14-.22 3.26.62.9 2.08 2 3.34 1.46.77-.33 1.27-1.15 1.52-1.82.13-.35.24-.49.54-.73.36-.29.37-.29.2-.67-.37-.86-.11-1.23.13-2.1.36-1.32-.22-2.72-1.66-3.3-1.36-.55-2.4.07-3.01 1.01z" style="clip-path:url(#SVGID_00000166660942796634228270000004120668477427307438_)"/><path class="st286" d="M102.58 179.68c-.01.43-.08.94-.01 1.36.02.12-.01.24-.03.36-.01.1-.02.21 0 .31.01.04.02.07.01.12-.01.13-.03.27-.05.4-.08.6 2.12.46 2.65.65-.4-1.06-.32-2.31-.69-3.36-.57.27-1.25.1-1.88.16z" style="clip-path:url(#SVGID_00000166660942796634228270000004120668477427307438_)"/><path class="st286" d="M102.72 188.73c.24-.12.45-.27.6-.44.46-.57.15-1.62.11-2.28-.09-1.42-.48-2.81-.91-4.17-.52-1.65-.99-3.31-1.2-5.02-.22-1.81 1.17-3.21 2.17-4.79-1.79.55-3.52.91-4.27 2.65-.31.73-.49 1.19-1.2 1.68-.64.43-1.67.72-2.01 1.45-.55 1.19.75 2.72.07 3.82-.4.64-1.26 1.01-1.65 1.67-1.51 2.55 2.67 5.19 5.01 5.72.82.2 2.34.17 3.28-.29z" style="clip-path:url(#SVGID_00000166660942796634228270000004120668477427307438_)"/><path class="st286" d="M108.46 192.78c0-.1 0-.23-.01-.39-.05-.93-.55-1.79-.49-2.74.06-.88.93-1.21 1.27-1.98.44-1.01-1.64-2.63-2.34-3.47-1.83-2.2-6.66-2.16-6.73 1.2-.03 1.51.66 2.31 1.38 3.6.14.25.24.53.38.78.12.21.2.45.31.66.22.44.5.87.68 1.33.09.22.21.44.31.67.09.21.18.4.31.6.03.06.09.12.11.18.02.06 0 .13.02.19.05.13.16.11.28.11.34-.02.67-.03 1.01-.05.25-.01.46-.09.7-.1.29-.02.58-.03.87-.04.38-.02.76-.09 1.14-.12.63-.05.78-.09.8-.43z" style="clip-path:url(#SVGID_00000166660942796634228270000004120668477427307438_)"/><path class="st286" d="M107.11 192.78c-.97-.02-2.21.73-3.16.73-.95 0-1.4 1.52-2.06 3.72-.75 2.52-1.14 5.12-1.94 7.64-.69 2.17-.98 4.43-1.78 6.49.02-.06 3.99.38 4.29.4 1.54.07 3.08.37 4.59.35 1.88-.02 3.75-.22 5.62-.37.29-.88-.08-1.99-.09-2.9-.01-2.46-1.61-7.94-1.76-8.78-.38-2.13-2.16-5.13-2.35-7.29l-1.36.01zM105.72 171.97c.76.15 1.5.43 2.21.7-.24 1.17-.57 2.78-2.09 3.23-.62.18-1.8-.12-2.23.53-.45.68.51 1.33.74 1.92.29.73.1 1.62-.44 2.23-1.18 1.31-2.79.47-3.43-.81-.83-1.66-.32-3.13.52-4.63.71-1.26 1.04-2.76 2.81-3.17.66-.15 1.29-.12 1.91 0z" style="clip-path:url(#SVGID_00000166660942796634228270000004120668477427307438_)"/><path class="st286" d="M104.26 186.8c-.03.12-.06.23-.09.34-.09.37-.15.76-.3 1.11-.15.36-.24.73-.37 1.09-.69 2.02-1.44 4.26-1.8 6.34-.14.8-.21 1.63-.15 2.44.11 1.61.06 3.59.46 5.17-.54-.01-.75.14-1.26.08-.08-.01-.82-2.26-.89-2.47-.27-.79-.45-1.54-.55-2.35-.23-1.86-.45-3.69-.35-5.57.11-2.03.21-4.03.84-5.99.27-.84.91-1.81 1.62-2.41.17-.14.36-.27.56-.38.11-.06.23-.1.33-.17.04-.03.08-.07.13-.1.14-.08.34-.09.48-.11.2-.02.41.02.6.07.19.06.39.15.52.29.09.09.22.14.3.24.08.1.07.2.11.31.03.09.07.18.08.27.01.1 0 .2 0 .3 0 .1.02.21 0 .3-.02.1-.05.2-.08.3-.05.21-.11.42-.14.63a1 1 0 0 1-.05.27zM114.87 183.17c1.46-1.1 3.21-.2 4.01.97.84 1.23.25 2.56.13 3.92-.08.85-.21 1.77-.22 2.67-.02 1.2-.21 2.19.09 3.36s.81 2.17 1.32 3.29c.51 1.14 1.46 2.37 1.68 3.59-.61.3-1.26.76-1.93.99-.51-.7-1.08-1.44-1.61-2.15-.43-.58-.78-1.21-1.17-1.8-2.03-3.07-3.63-5.96-3.48-9.64.04-.97.24-1.89.4-2.87.11-.8.04-1.77.78-2.33z" style="clip-path:url(#SVGID_00000166660942796634228270000004120668477427307438_)"/><g style="clip-path:url(#SVGID_00000166660942796634228270000004120668477427307438_)"><path d="M121.22 204.95c-.06-.42-.27-.77-.44-1.16-.1-.23-.14-.48-.18-.73-.05-.23-.16-.5-.15-.65l1.61-1.14c.4.36.74.77 1.06 1.19.15.2.28.44.46.63.12.13.17.26.27.4.07.1.14.21.22.29-.11.08-.22.14-.34.19-.13-.12-.27-.26-.38-.42-.06-.09-.16-.21-.24-.29.16.44.34.84.28 1.32-.15-.01-.33.05-.47.08-.06.01 0 .2-.1.2-.11.01-.35.08-.46.09 0 0 .04-.01.04-.02-.17.03-.35.03-.51.08-.06-.25-.17-.51-.27-.75.04.21.06.43.01.64-.09.04-.31.07-.41.05z" style="fill-rule:evenodd;clip-rule:evenodd;fill:#f0454d"/></g><path style="clip-path:url(#SVGID_00000166660942796634228270000004120668477427307438_);fill:#ffeb86" d="M174.11 80c0 42.67-42.69 51.58-42.69 80H88.75c0-28.43-42.63-37.41-42.63-80.07C46.12 48.15 78.3 24 110.08 24s64.03 24.22 64.03 56z"/><path style="clip-path:url(#SVGID_00000166660942796634228270000004120668477427307438_);fill:#919191" d="M115.74 232.88h-11.31c-1.57 0-2.84-1.27-2.84-2.84 0-1.57 1.27-2.84 2.84-2.84h11.31c1.57 0 2.84 1.27 2.84 2.84 0 1.57-1.27 2.84-2.84 2.84z"/><path style="clip-path:url(#SVGID_00000166660942796634228270000004120668477427307438_);fill:#cecece" d="m94.08 207.97-3.2-6.41h38.41l-3.2 6.41z"/><path style="clip-path:url(#SVGID_00000166660942796634228270000004120668477427307438_);fill:#919191" d="m90.88 214.38 3.2-6.41h32.01l3.2 6.41z"/><path style="clip-path:url(#SVGID_00000166660942796634228270000004120668477427307438_);fill:#cecece" d="m94.08 220.78-3.2-6.41h38.41l-3.2 6.41z"/><path style="clip-path:url(#SVGID_00000166660942796634228270000004120668477427307438_);fill:#919191" d="m95.68 227.18-1.6-6.4h32.01l-1.6 6.4z"/><path style="clip-path:url(#SVGID_00000166660942796634228270000004120668477427307438_);fill:#cecece" d="m98.77 230.03-2.84-2.83h28.31l-2.83 2.83z"/><circle style="clip-path:url(#SVGID_00000166660942796634228270000004120668477427307438_);fill-rule:evenodd;clip-rule:evenodd;fill:#fff" cx="142.09" cy="64.01" r="11.99"/></g></g></svg>
