<svg xmlns="http://www.w3.org/2000/svg" xmlns:xlink="http://www.w3.org/1999/xlink" viewBox="0 0 221.84 256" style="enable-background:new 0 0 221.84 256" xml:space="preserve"><style>.st6{fill:none}.st8{fill:#fff}.st689{fill:#5f5ff1}.st690{fill:#0909b9}.st696{fill:#f6f6f6}.st699{fill:none;stroke:#fff;stroke-width:2;stroke-linecap:round;stroke-miterlimit:10}.st811{display:none}.st812,.st813{display:inline;fill:none;stroke:#00b1ff;stroke-width:.25;stroke-miterlimit:10}.st813{stroke:red}</style><path style="fill:#faa996" d="M221.84 191.99V64.01L111 0 .16 64.01v127.98L111 256z" id="FOND"/><g id="ILLU"><linearGradient id="SVGID_1_" gradientUnits="userSpaceOnUse" x1="110.998" y1="57.484" x2="110.998" y2="223.73"><stop offset="0" style="stop-color:#faa4a4"/><stop offset=".187" style="stop-color:#f7a2a6"/><stop offset=".347" style="stop-color:#ec9eab"/><stop offset=".498" style="stop-color:#da96b4"/><stop offset=".642" style="stop-color:#c28bc0"/><stop offset=".782" style="stop-color:#a17dd0"/><stop offset=".917" style="stop-color:#7b6be3"/><stop offset="1" style="stop-color:#5f5ff1"/></linearGradient><path style="fill:url(#SVGID_1_)" d="M221.84 191.99V64.01L111 0 .16 64.01v127.98L111 256z"/><path class="st8" d="M89.21 61.61s67.66-.79 84.04 34.39c4.07 8.74-12.99 8.84-12.99 8.84l1.75 4.93c36.25-5.57 23.58-64.71-72.83-65.58l.03 17.42z"/><path class="st6" d="M164.64 85.4s5.87 16.66-8.57 15.16l-1.82 11.66c0 .01 39.42-15.04 10.39-26.82z"/><path class="st8" d="M31.88 106.89s1.28-6.4 4.66-10.98c3.11-2.34 27.26 1.69 32.66 2.44l-3.75 8.69c-.01 0-27.86-10.27-33.57-.15zM187.38 156.34c.76-3.17 2.13-8.52 3.57-12.34 0-11.75-31.73-32.01-31.73-32.01l-.37 15.94s28.47 13.03 28.55 27.39c0 1.23-.4 2.64-.02 1.02zM62.25 176.56s.82-8.83 10.6-9.11l-7.61-10.46s-5.09 1.84-7.62 9.06c-.84 2.4 3.28 6.56 4.63 10.51z"/><defs><path id="SVGID_00000038391664784547789260000018128432118264501947_" d="M-123.4-153.73v-127.98l-110.84-64.01-110.84 64.01v127.98l110.84 64.01z"/></defs><radialGradient id="SVGID_00000176760430323273539190000005707060518933066425_" cx="-128.427" cy="-269.512" r="368.525" gradientUnits="userSpaceOnUse"><stop offset=".233" style="stop-color:#9797f7"/><stop offset=".551" style="stop-color:#518fff"/></radialGradient><use xlink:href="#SVGID_00000038391664784547789260000018128432118264501947_" style="overflow:visible;fill:url(#SVGID_00000176760430323273539190000005707060518933066425_)"/><clipPath id="SVGID_00000092450634577169270040000016199881007020527288_"><use xlink:href="#SVGID_00000038391664784547789260000018128432118264501947_" style="overflow:visible"/></clipPath><g style="clip-path:url(#SVGID_00000092450634577169270040000016199881007020527288_)"><defs><path id="SVGID_00000173846671398727820570000000275021507859364026_" d="M-243.65-279.42c-.25 3.74-1.86 10.01-2.29 13.73 8.14 3.31 16.46 4.46 15.93.79-.6-4.41-.57-10.79-.17-15.21 1.4-11.54-9.27-13.81-12.42-8.39-.41 1.41-.95 7.63-1.05 9.08"/></defs><clipPath id="SVGID_00000164482531736167268620000007578076781882539928_"><use xlink:href="#SVGID_00000173846671398727820570000000275021507859364026_" style="overflow:visible"/></clipPath><g style="clip-path:url(#SVGID_00000164482531736167268620000007578076781882539928_)"><defs><path id="SVGID_00000165929805476494599700000000992041617621596050_" d="M-964.59-2564.61h2532.07v7501.25H-964.59z"/></defs><clipPath id="SVGID_00000071550756608222432890000012366829653535220664_"><use xlink:href="#SVGID_00000165929805476494599700000000992041617621596050_" style="overflow:visible"/></clipPath></g><defs><path id="SVGID_00000148643018008014485100000004840159692444543369_" d="M-245.5-306.24c-1.13 3.38-2.76 13.62 3.19 22.84 2.66 4.12 6.73 5.73 11.13 7.01 4.92 1.43 9.19 1.65 11.14-2.84 1.07-2.46.64-5.93 1.04-8.59.93-.01 2.77-.26 3.85-.35-.74-4.78-.72-6.36-2.19-13.89-1.15-5.87-5.57-9.72-11.61-11.03-5.23-1.16-13.88-1.17-16.55 6.85"/></defs><clipPath id="SVGID_00000143615479279670486370000009055225341455332512_"><use xlink:href="#SVGID_00000148643018008014485100000004840159692444543369_" style="overflow:visible"/></clipPath><g style="clip-path:url(#SVGID_00000143615479279670486370000009055225341455332512_)"><defs><path id="SVGID_00000036937775699923533880000013033305874411427997_" d="M-964.59-2564.61h2532.07v7501.25H-964.59z"/></defs><clipPath id="SVGID_00000094577468795483392580000013569538627382291605_"><use xlink:href="#SVGID_00000036937775699923533880000013033305874411427997_" style="overflow:visible"/></clipPath></g><defs><path id="SVGID_00000110467619028261888560000009332231935113503636_" d="M-244.75-287.62c.01-2.52-2.66-11.03 2.71-10.46 2.33.25 3.33 4.24 5.95 2.18 1.85-1.46 2.51-5.53 2.62-7.68.11-2.29-.93-6.77-1.54-8.74 3.42.63 8.66 1.89 12.04 1.42-3.72-3.11-10.13-3.27-14.56-2.77-6.2.7-9.23 7.22-9.88 12.98-.25 2.21-.54 7.24 2.5 12.85"/></defs><clipPath id="SVGID_00000092443410614812572580000007921007683377633673_"><use xlink:href="#SVGID_00000110467619028261888560000009332231935113503636_" style="overflow:visible"/></clipPath><g style="clip-path:url(#SVGID_00000092443410614812572580000007921007683377633673_)"><defs><path id="SVGID_00000160880426067687571400000012913641548403446207_" d="M-964.59-2564.61h2532.07v7501.25H-964.59z"/></defs><clipPath id="SVGID_00000088120432914103806880000015954939454311001219_"><use xlink:href="#SVGID_00000160880426067687571400000012913641548403446207_" style="overflow:visible"/></clipPath></g><defs><path id="SVGID_00000005948798812390598860000004406998007440175773_" d="M-232.58-202.5c-5.56-.16-18.78 3.89-17.24 18.96.43 4.25 4.44 15.67 5.93 19.57 3.47 9.04 12.2 27.81 14.79 35.31 2.29 6.65 2.48 16.73 7.89 19.77 2.32 1.3 7.95 2.6 12.5.09 1.13-.62 6.81-4.39 5.82-11.68-.54-3.97-1.06-3.25-1.68-7.21-1.25-7.95-1.95-14.81-3.81-22.63-1.74-7.37-5.13-18.61-7.34-25.69-3.07-9.85-1.77-26.05-16.86-26.49"/></defs><clipPath id="SVGID_00000052795825602496625220000007441623503691197850_"><use xlink:href="#SVGID_00000005948798812390598860000004406998007440175773_" style="overflow:visible"/></clipPath><g style="clip-path:url(#SVGID_00000052795825602496625220000007441623503691197850_)"><defs><path id="SVGID_00000123441594886477677760000004203149890792367017_" d="M-964.59-2564.61h2532.07v7501.25H-964.59z"/></defs><clipPath id="SVGID_00000115500959643541709900000009081579189831201196_"><use xlink:href="#SVGID_00000123441594886477677760000004203149890792367017_" style="overflow:visible"/></clipPath></g><defs><path id="SVGID_00000096754065339253220670000016711732453932656303_" d="M-201.38-116.39c-3.74-14.33-16.17-17.75-23.23-6.36-2.91 4.69 1.39 9.78 2.56 16.35.68 3.85.84 10.69 3.57 19.11 1.99 6.13 10.75 22.72 12.01 25.69 1.37 3.22 3.04 7 4.34 10.31-.08.85 10.12-.99 10.19-2.22.04-.74-2.12-10.85-2.31-12.71-.69-6.84-4.08-28.38-5.38-35.28-.98-5.2-.58-10.37-1.75-14.89"/></defs><clipPath id="SVGID_00000095309409695426338930000001530485760771831685_"><use xlink:href="#SVGID_00000096754065339253220670000016711732453932656303_" style="overflow:visible"/></clipPath><g style="clip-path:url(#SVGID_00000095309409695426338930000001530485760771831685_)"><defs><path id="SVGID_00000124139780206625684980000014656495645543662213_" d="M-964.59-2564.61h2532.07v7501.25H-964.59z"/></defs><clipPath id="SVGID_00000061438638808967888660000002207692271040583313_"><use xlink:href="#SVGID_00000124139780206625684980000014656495645543662213_" style="overflow:visible"/></clipPath></g><g><defs><path id="SVGID_00000065794557025561292350000004699263087393895101_" d="M-198.71-43.39c1.75-.44 1.72-.88 3.1-1.02 1.86-.18 1.96.03 3.8-.27 2.97-.49 3.79-.7 6.51-1.84.48-.2 2.15-2.37 1.09-2.44-2.11-.15-3.57-.18-5.54-.82-2.96-1.43-1.15-.9-5.28-4.4-2.21-1.86-4.44-.35-5.38 1.01-.65.94-.12 2.45-.67 3.69-1.24 2.81-.79 4.46.2 6.36.53.06 1.26-.04 2.17-.27"/></defs><clipPath id="SVGID_00000004525370874561156150000007863275129616499858_"><use xlink:href="#SVGID_00000065794557025561292350000004699263087393895101_" style="overflow:visible"/></clipPath><g style="clip-path:url(#SVGID_00000004525370874561156150000007863275129616499858_)"><defs><path id="SVGID_00000116208276115584204060000004968056278978870457_" d="M-964.59-2564.61h2532.07v7501.25H-964.59z"/></defs><clipPath id="SVGID_00000111886874272162717900000017090206924228374948_"><use xlink:href="#SVGID_00000116208276115584204060000004968056278978870457_" style="overflow:visible"/></clipPath></g></g><g><defs><path id="SVGID_00000149360536433811866750000008954391496312542137_" d="M-285.96-51.32c1.47 1.05 2.25.87 3.31 1.77 1.42 1.22 1.33 1.43 2.82 2.55 2.4 1.8 3.13 2.26 5.83 3.43.47.2 3.2-.09 2.53-.9-1.35-1.62-2.35-2.7-3.25-4.57-1.02-3.12-.14-1.45-.48-6.85-.18-2.88-2.82-3.45-4.45-3.19-1.13.18-1.86 1.61-3.13 2.07-2.89 1.05-3.83 2.28-4.51 4.3.42.73 1.19 1.29 1.33 1.39"/></defs><clipPath id="SVGID_00000158732253525429517170000002680898088837035411_"><use xlink:href="#SVGID_00000149360536433811866750000008954391496312542137_" style="overflow:visible"/></clipPath><g style="clip-path:url(#SVGID_00000158732253525429517170000002680898088837035411_)"><defs><path id="SVGID_00000096038909070208330470000017491207886127957903_" d="M-964.59-2564.61h2532.07v7501.25H-964.59z"/></defs><clipPath id="SVGID_00000005233257717921024700000013837784954888715662_"><use xlink:href="#SVGID_00000096038909070208330470000017491207886127957903_" style="overflow:visible"/></clipPath></g></g><g><defs><path id="SVGID_00000054987972412654079670000012422146196152317098_" d="M-240.74-107.57c6.29-13.41-1.08-23.98-13.79-19.73-5.23 1.75-5.18 8.41-8.49 14.21-1.94 3.4-6.19 8.75-9.47 16.98-2.39 5.98-6.27 24.34-7.2 27.43-1.01 3.35-2.14 7.33-3.26 10.7-.6.6 8.42 5.71 9.26 4.81.51-.54 5.31-9.69 6.35-11.24 3.85-5.7 15.01-24.43 18.43-30.57 2.56-4.64 6.19-8.37 8.17-12.59"/></defs><clipPath id="SVGID_00000026163416451884054500000016033227504799071924_"><use xlink:href="#SVGID_00000054987972412654079670000012422146196152317098_" style="overflow:visible"/></clipPath><g style="clip-path:url(#SVGID_00000026163416451884054500000016033227504799071924_)"><defs><path id="SVGID_00000132808564177651826600000000551962708156671654_" d="M-964.59-2564.61h2532.07v7501.25H-964.59z"/></defs><clipPath id="SVGID_00000050663896121284720670000007685352523783209130_"><use xlink:href="#SVGID_00000132808564177651826600000000551962708156671654_" style="overflow:visible"/></clipPath></g></g><g><defs><path id="SVGID_00000123402315843265062740000008077907660592430210_" d="M-235.21-202.32c-5.08-2.26-18.85-3.53-23.15 11-1.21 4.1-1.85 16.18-1.95 20.36-.23 9.68.73 30.36.27 38.27-.4 7.02-4.06 16.42-.21 21.28 1.65 2.08 6.37 5.42 11.53 4.82 1.28-.15 7.97-1.48 9.82-8.6 1.01-3.87.26-3.41 1.18-7.31 1.86-7.83 3.82-14.45 5.07-22.38 1.18-7.48 2.32-19.17 2.97-26.56.91-10.25 8.26-24.74-5.53-30.88"/></defs><clipPath id="SVGID_00000083052277444586266640000004898200647322306473_"><use xlink:href="#SVGID_00000123402315843265062740000008077907660592430210_" style="overflow:visible"/></clipPath><g style="clip-path:url(#SVGID_00000083052277444586266640000004898200647322306473_)"><defs><path id="SVGID_00000068639028304185816390000004853268327204996528_" d="M-964.59-2564.61h2532.07v7501.25H-964.59z"/></defs><clipPath id="SVGID_00000002349821932473878330000011574097846758440605_"><use xlink:href="#SVGID_00000068639028304185816390000004853268327204996528_" style="overflow:visible"/></clipPath></g></g><g><defs><path id="SVGID_00000119078332179812422490000011882999829210428337_" d="M-220.44-248.84c-1.95-9.62-3.68-13.59-11.06-16.65-7.7-3.19-13.71-2.51-19.96.23-17.66 7.73-13.96 28.25-9.38 43.78 2.14 7.25 3.48 16.92 4.33 24.4.36 3.19 4.92 2.65 5.53 2.74 7.69 1.14 14.53 1.17 21.4-.23 7.47-1.52 5.13-2.59 6.73-8.67 1.92-7.3 2.64-12.77 2.88-22.8.17-6.95.73-16.87-.47-22.8"/></defs><use xlink:href="#SVGID_00000119078332179812422490000011882999829210428337_" style="overflow:visible;fill-rule:evenodd;clip-rule:evenodd;fill:#e1000f"/><clipPath id="SVGID_00000041262977697450516080000000358908986926397312_"><use xlink:href="#SVGID_00000119078332179812422490000011882999829210428337_" style="overflow:visible"/></clipPath><g style="clip-path:url(#SVGID_00000041262977697450516080000000358908986926397312_)"><defs><path id="SVGID_00000108988897556981621250000011849949805566378167_" d="M-964.59-2564.61h2532.07v7501.25H-964.59z"/></defs><clipPath id="SVGID_00000060726578614257551780000016042705497896828854_"><use xlink:href="#SVGID_00000108988897556981621250000011849949805566378167_" style="overflow:visible"/></clipPath></g></g><g><defs><path id="SVGID_00000052820283204678490430000013020802284447465903_" d="M-194.55-168.55c1.32.93 2.7 1.62 4.02 2.54 2.24 1.57 3.15 3.34 4.43 5.71.16.28.27.72-.02.86-.13.06-.27.03-.41-.01-1.29-.36-2.03-1.29-3.03-2.18 1.06 2.32 1.55 4.95 2.41 7.35.1.3.2.66 0 .91-.26.32-.77.18-1.14.01-3.02-1.44-5.59-3.77-7.4-6.58-1.19-1.85-4.17-7.06-1.97-8.95.69-.6 1.96-.62 2.38.1"/></defs><use xlink:href="#SVGID_00000052820283204678490430000013020802284447465903_" style="overflow:visible;fill-rule:evenodd;clip-rule:evenodd;fill:#9f714f"/><clipPath id="SVGID_00000044166481355388201740000004519063869977985181_"><use xlink:href="#SVGID_00000052820283204678490430000013020802284447465903_" style="overflow:visible"/></clipPath><g style="clip-path:url(#SVGID_00000044166481355388201740000004519063869977985181_)"><defs><path id="SVGID_00000003793406655689828040000005989251964498151053_" d="M-964.59-2564.61h2532.07v7501.25H-964.59z"/></defs><clipPath id="SVGID_00000024682027323303237970000017398795624293033097_"><use xlink:href="#SVGID_00000003793406655689828040000005989251964498151053_" style="overflow:visible"/></clipPath></g></g><g><defs><path id="SVGID_00000011721479811751994590000002441138283709423039_" d="M-223.5-208.89c1.76.37 3.22 1.56 4.51 2.82 10.54 10.2 15 24.58 25.1 35.21.99 1.29-4.04 6.85-5.97 5.25-4.68-3.64-22.83-21.79-25.2-24.34-1.69-1.82-3.38-3.65-4.7-5.74-1.29-2.05-1.79-4.3-1.79-6.71 0-.85.04-1.71.27-2.53.91-3.22 4.7-4.61 7.78-3.96"/></defs><use xlink:href="#SVGID_00000011721479811751994590000002441138283709423039_" style="overflow:visible;fill-rule:evenodd;clip-rule:evenodd;fill:#e1000f"/><clipPath id="SVGID_00000035492999595829844450000002097949656589308833_"><use xlink:href="#SVGID_00000011721479811751994590000002441138283709423039_" style="overflow:visible"/></clipPath><g style="clip-path:url(#SVGID_00000035492999595829844450000002097949656589308833_)"><defs><path id="SVGID_00000120520731252871050760000015789017055298155934_" d="M-964.59-2564.61h2532.07v7501.25H-964.59z"/></defs><clipPath id="SVGID_00000180345567690208556860000016957357788071549852_"><use xlink:href="#SVGID_00000120520731252871050760000015789017055298155934_" style="overflow:visible"/></clipPath></g></g><g><defs><path id="SVGID_00000044161301117773281850000009804162989117869701_" d="M-245.49-235.89c-1.29-4.28-2.46-8.8-1.57-13.18.89-4.38 4.45-8.54 8.92-8.63 2.36-.05 4.64 1.03 6.4 2.6 1.76 1.57 3.05 3.6 4.12 5.69 3.18 6.19 4.68 13.08 6.01 19.91 1.37 7.04 2.59 14.11 3.81 21.18.13.72.25 1.46.18 2.18-.17 1.62-1.32 3-2.69 3.87-1.38.86-2.98 1.29-4.55 1.7-2.11.55-4.34.72-6.35-.38-2.18-1.19-3.13-4.36-3.99-6.51-1.25-3.12-2.49-6.25-3.69-9.39-2.4-6.27-4.65-12.61-6.6-19.04"/></defs><clipPath id="SVGID_00000016068025441968492560000006438476025392180392_"><use xlink:href="#SVGID_00000044161301117773281850000009804162989117869701_" style="overflow:visible"/></clipPath><g style="clip-path:url(#SVGID_00000016068025441968492560000006438476025392180392_)"><defs><path id="SVGID_00000031203677570877802980000006670337199725554853_" d="M-964.59-2564.61h2532.07v7501.25H-964.59z"/></defs><clipPath id="SVGID_00000077302337889432957830000001971187325556988032_"><use xlink:href="#SVGID_00000031203677570877802980000006670337199725554853_" style="overflow:visible"/></clipPath></g></g></g><path class="st689" d="M86.03 103.14c-1.88 7.46-2.95 15.88-2.96 24.81H111v-20.72c-8.98-.01-17.46-1.49-24.97-4.09z"/><path class="st689" d="M86.03 103.14c-7.02-2.44-13.19-5.86-18.1-10.01a55.228 55.228 0 0 0-12.36 34.82h27.5c.01-8.93 1.08-17.35 2.96-24.81z"/><path class="st690" d="M110.5 72.59c-17.19.15-32.5 8.12-42.56 20.54 4.91 4.15 11.08 7.57 18.1 10.01 4.51-17.9 13.75-30.25 24.46-30.55z"/><path class="st690" d="M111 72.57c-.17 0-.33.01-.5.01-10.71.3-19.94 12.65-24.46 30.55 7.51 2.61 15.98 4.08 24.97 4.08L111 72.57zM83.08 128v-.06h-27.5v.06c0 13.22 4.63 25.35 12.36 34.88 4.92-4.15 11.09-7.58 18.1-10.01-1.89-7.49-2.96-15.93-2.96-24.87z"/><path class="st690" d="M83.08 128c0 8.94 1.07 17.39 2.96 24.87 7.51-2.61 15.98-4.08 24.97-4.08v-20.84H83.08v.05z"/><path class="st689" d="M86.03 152.86c-7.02 2.44-13.19 5.86-18.1 10.01 10.12 12.48 25.54 20.47 42.84 20.54-10.82-.09-20.18-12.5-24.74-30.55z"/><path class="st689" d="M86.03 152.86c4.56 18.05 13.91 30.46 24.74 30.56.08 0 .15.01.23.01h.01v-34.65c-8.99 0-17.47 1.48-24.98 4.08z"/><g><path class="st690" d="M138.72 127.94h27.7c-.01-13.19-4.64-25.3-12.35-34.81-4.96 4.19-11.19 7.63-18.29 10.07 1.88 7.45 2.94 15.85 2.94 24.74z"/><path class="st690" d="M135.79 103.2c-7.46 2.56-15.87 4.02-24.78 4.02v20.72h27.72c-.01-8.89-1.07-17.29-2.94-24.74z"/></g><g><path class="st689" d="M135.79 103.2c7.09-2.44 13.33-5.88 18.29-10.07-10.15-12.53-25.65-20.54-43.03-20.56 10.82.11 20.19 12.55 24.74 30.63z"/><path class="st689" d="M111.04 72.58h-.03v34.65c8.91 0 17.32-1.45 24.78-4.02-4.55-18.09-13.92-30.53-24.75-30.63z"/></g><g><path class="st689" d="M138.72 128v-.06H111v20.84c8.91 0 17.32 1.45 24.78 4.02 1.88-7.47 2.94-15.89 2.94-24.8z"/><path class="st689" d="M166.42 127.94h-27.7v.06c0 8.92-1.06 17.33-2.94 24.8 7.09 2.44 13.33 5.88 18.29 10.07A55.165 55.165 0 0 0 166.42 128v-.06z"/></g><g><path class="st690" d="M135.78 152.79c-7.46-2.56-15.87-4.02-24.78-4.02v34.64c10.85-.07 20.23-12.52 24.78-30.62z"/><path class="st690" d="M111.01 183.42c17.39 0 32.9-8.02 43.06-20.55-4.96-4.19-11.19-7.63-18.29-10.07-4.55 18.09-13.93 30.54-24.77 30.62z"/></g><path class="st6" d="M173.26 43.2h24v24h-24v-24z"/><g><path class="st690" d="m38.87 87.06-8.49-8.49c-4.69-4.69-4.69-12.28 0-16.97s12.28-4.69 16.97 0c4.69 4.69 4.69 12.28 0 16.97l-8.48 8.49z"/></g><path class="st8" d="M47.05 95.48s-20.89-1.81-6.8 12.39c34.08 38.36 76.26 47.09 97.46 48.11 46.04 2.21 53.25-11.98 53.25-11.98-.52 6.49-.54 4.13-3.35 12.7-12.6 10.92-51.04 17.49-83.96 7.02-63.47-20.18-72.84-54.52-72.84-54.52s.6-7.47 3.54-13.17c3.26-1.48 7.14-1.67 12.7-.55zM66.43 184.56s-6.62-5.37-8.82-18.5c4.11 8.98 40.91 31.16 76.86 23.44-25.74 11.89-51.39 7.25-68.04-4.94z"/><g><path class="st696" d="m47.23 46.15 48.46 8-9.71 15.16c.01 0-34.58-21.44-38.75-23.16zM47.23 46.15l35.04-9.73 11.88 11.2z"/><path style="fill:#9e9e9e" d="m94.15 47.62-2.31 3.7 3.57 3.11-48.18-8.28z"/></g><g><path class="st690" d="M194.6 83.55h-23.2a2 2 0 0 1-2-2V62.19a2 2 0 0 1 2-2h23.21a2 2 0 0 1 2 2v19.36c-.01 1.11-.9 2-2.01 2zM189.82 60.16c0-3.76-3.06-6.82-6.82-6.82s-6.82 3.06-6.82 6.82h-1.95c0-4.83 3.93-8.76 8.76-8.76s8.76 3.93 8.76 8.76h-1.93z"/><circle class="st8" cx="183" cy="70.31" r="3.12"/><path class="st8" d="M181.44 70.31h3.12v6.24h-3.12z"/></g><g><path class="st690" d="M183 199.99c-8.83 0-15.99-7.16-15.99-15.99s7.16-15.99 15.99-15.99 15.99 7.16 15.99 15.99-7.16 15.99-15.99 15.99z"/><path class="st8" d="M181 183.5h4v10h-4z"/><circle class="st8" cx="183" cy="177.5" r="3"/></g><g><path class="st690" d="M125 40H97c-2.21 0-4-1.79-4-4V20c0-2.21 1.79-4 4-4h28c2.21 0 4 1.79 4 4v16c0 2.21-1.79 4-4 4z"/><path class="st8" d="M105.2 34c-.28 0-.54-.18-.63-.45l-2.97-8.78-2.93 8.78c-.12.35-.49.54-.85.42a.664.664 0 0 1-.42-.84l3.56-10.66c.09-.27.35-.46.63-.46.29 0 .54.18.63.45l3.61 10.66a.67.67 0 0 1-.42.85.71.71 0 0 1-.21.03z"/><path class="st8" d="M104.18 30.95h-5.12a.67.67 0 0 1 0-1.34h5.12a.67.67 0 0 1 0 1.34z"/><g><path class="st699" d="M124.64 33.36H109.5M124.64 27.99h-15.15M124.63 22.63H109.5"/></g></g><path class="st690" d="M98.88 236.06c0-6.7 5.43-12.13 12.13-12.13s12.13 5.43 12.13 12.13H98.88zm12.13-13.64a9.09 9.09 0 1 1 0-18.18 9.09 9.09 0 0 1 0 18.18z"/><circle class="st8" cx="38.87" cy="70.09" r="4"/><g><path class="st690" d="M22.99 199.19s2.37-6.89 2.24-7.11l-.04-.06a15.838 15.838 0 0 1-2.15-7.98c0-8.81 7.14-15.95 15.94-15.95 8.81 0 15.95 7.14 15.95 15.95 0 8.81-7.14 15.95-15.95 15.95-3.27 0-6.3-.99-8.83-2.67l.01.01-7.17 1.86z"/><circle class="st8" cx="46.44" cy="184.23" r="2"/><circle class="st8" cx="38.87" cy="184.23" r="2"/><circle class="st8" cx="31.37" cy="184.23" r="2"/></g></g></svg>
