<svg xmlns="http://www.w3.org/2000/svg" xmlns:xlink="http://www.w3.org/1999/xlink" viewBox="0 0 191.5 192" style="enable-background:new 0 0 191.5 192" xml:space="preserve"><style>.st128{fill:#000091}.st277,.st795{fill-rule:evenodd;clip-rule:evenodd;fill:#fff}.st795{fill:#0909b9}.st809{display:none}.st1733{fill-rule:evenodd;clip-rule:evenodd;fill:#ff732c}</style><g id="FOND"><linearGradient id="SVGID_1_" gradientUnits="userSpaceOnUse" x1="-43.958" y1="95.999" x2="162.762" y2="95.999"><stop offset="0" style="stop-color:#fff"/><stop offset=".042" style="stop-color:#f2f7ff"/><stop offset=".214" style="stop-color:#c1d7ff"/><stop offset=".384" style="stop-color:#99bdff"/><stop offset=".55" style="stop-color:#7aa9ff"/><stop offset=".711" style="stop-color:#639bff"/><stop offset=".864" style="stop-color:#5692ff"/><stop offset="1" style="stop-color:#518fff"/></linearGradient><path style="fill-rule:evenodd;clip-rule:evenodd;fill:url(#SVGID_1_)" d="M0 0h191.5v192H0z"/></g><g id="ILLU"><defs><path id="SVGID_00000034776031018459179110000010028138494948587929_" d="M238.26-1268.79v-127.97l-110.84-64.02-110.84 64.02v127.97l110.84 64.01z"/></defs><radialGradient id="SVGID_00000117647312959821061430000007489203147273763725_" cx="233.231" cy="-1384.572" r="368.525" gradientUnits="userSpaceOnUse"><stop offset=".233" style="stop-color:#9797f7"/><stop offset=".551" style="stop-color:#518fff"/></radialGradient><use xlink:href="#SVGID_00000034776031018459179110000010028138494948587929_" style="overflow:visible;fill:url(#SVGID_00000117647312959821061430000007489203147273763725_)"/><clipPath id="SVGID_00000041978894203630780530000005236477118765581242_"><use xlink:href="#SVGID_00000034776031018459179110000010028138494948587929_" style="overflow:visible"/></clipPath><g style="clip-path:url(#SVGID_00000041978894203630780530000005236477118765581242_)"><defs><path id="SVGID_00000124863613059387850940000008589964511004699283_" d="M118.01-1394.48c-.25 3.74-1.86 10.01-2.29 13.73 8.14 3.31 16.46 4.46 15.93.79-.6-4.41-.57-10.79-.17-15.21 1.4-11.54-9.27-13.81-12.42-8.39-.41 1.41-.95 7.63-1.05 9.08"/></defs><clipPath id="SVGID_00000177484139057361197190000004531934803087123096_"><use xlink:href="#SVGID_00000124863613059387850940000008589964511004699283_" style="overflow:visible"/></clipPath><g style="clip-path:url(#SVGID_00000177484139057361197190000004531934803087123096_)"><defs><path id="SVGID_00000160903840038410371420000005433553699239615667_" d="M-602.93-3679.67h2532.07v7501.25H-602.93z"/></defs><clipPath id="SVGID_00000018229476708444289760000001532443190204158340_"><use xlink:href="#SVGID_00000160903840038410371420000005433553699239615667_" style="overflow:visible"/></clipPath></g><defs><path id="SVGID_00000096023823438097964750000005847141912078394275_" d="M116.15-1421.3c-1.13 3.38-2.76 13.62 3.19 22.84 2.66 4.12 6.73 5.73 11.13 7.01 4.92 1.43 9.19 1.65 11.14-2.84 1.07-2.46.64-5.93 1.04-8.59.93-.01 2.77-.26 3.85-.35-.74-4.78-.72-6.36-2.19-13.89-1.15-5.87-5.57-9.72-11.61-11.03-5.23-1.16-13.87-1.17-16.55 6.85"/></defs><clipPath id="SVGID_00000142888605808708344180000008634546625455389320_"><use xlink:href="#SVGID_00000096023823438097964750000005847141912078394275_" style="overflow:visible"/></clipPath><g style="clip-path:url(#SVGID_00000142888605808708344180000008634546625455389320_)"><defs><path id="SVGID_00000173849945467266882720000002766142684097988797_" d="M-602.93-3679.67h2532.07v7501.25H-602.93z"/></defs><clipPath id="SVGID_00000014619921338455382000000008573184619850037147_"><use xlink:href="#SVGID_00000173849945467266882720000002766142684097988797_" style="overflow:visible"/></clipPath></g><defs><path id="SVGID_00000101065937572156908480000010559483458287309198_" d="M116.91-1402.68c.01-2.52-2.66-11.03 2.71-10.46 2.33.25 3.33 4.24 5.95 2.18 1.85-1.46 2.51-5.53 2.62-7.68.11-2.29-.93-6.77-1.53-8.74 3.42.63 8.66 1.89 12.04 1.42-3.72-3.11-10.13-3.27-14.56-2.77-6.2.7-9.23 7.22-9.88 12.98-.25 2.21-.54 7.24 2.5 12.85"/></defs><clipPath id="SVGID_00000116213590780181219410000016419512881028229543_"><use xlink:href="#SVGID_00000101065937572156908480000010559483458287309198_" style="overflow:visible"/></clipPath><g style="clip-path:url(#SVGID_00000116213590780181219410000016419512881028229543_)"><defs><path id="SVGID_00000000923459229918519840000009974787307213608625_" d="M-602.93-3679.67h2532.07v7501.25H-602.93z"/></defs><clipPath id="SVGID_00000121239560228438215600000015249910161991625128_"><use xlink:href="#SVGID_00000000923459229918519840000009974787307213608625_" style="overflow:visible"/></clipPath></g><defs><path id="SVGID_00000158011226110318592870000009552020361038537376_" d="M129.08-1317.56c-5.56-.16-18.78 3.89-17.24 18.96.43 4.25 4.44 15.67 5.93 19.57 3.47 9.04 12.2 27.81 14.79 35.31 2.29 6.65 2.48 16.73 7.89 19.77 2.32 1.3 7.95 2.6 12.5.09 1.13-.62 6.81-4.39 5.82-11.68-.54-3.97-1.06-3.25-1.68-7.21-1.25-7.95-1.95-14.81-3.81-22.63-1.74-7.37-5.13-18.61-7.34-25.69-3.07-9.85-1.77-26.05-16.86-26.49"/></defs><clipPath id="SVGID_00000013882720928456084780000001216850113978018972_"><use xlink:href="#SVGID_00000158011226110318592870000009552020361038537376_" style="overflow:visible"/></clipPath><g style="clip-path:url(#SVGID_00000013882720928456084780000001216850113978018972_)"><defs><path id="SVGID_00000008871688347259818470000006692092160440470441_" d="M-602.93-3679.67h2532.07v7501.25H-602.93z"/></defs><clipPath id="SVGID_00000059275503221705746940000015342715355327297212_"><use xlink:href="#SVGID_00000008871688347259818470000006692092160440470441_" style="overflow:visible"/></clipPath></g><defs><path id="SVGID_00000014609316997869651920000012188425387910747544_" d="M160.28-1231.45c-3.74-14.33-16.17-17.75-23.23-6.36-2.91 4.69 1.39 9.78 2.56 16.35.68 3.85.84 10.69 3.57 19.11 1.99 6.13 10.75 22.72 12.01 25.69 1.37 3.22 3.04 7 4.34 10.31-.08.85 10.12-.99 10.19-2.22.04-.74-2.12-10.85-2.31-12.71-.69-6.84-4.08-28.38-5.38-35.28-.98-5.2-.58-10.37-1.75-14.89"/></defs><clipPath id="SVGID_00000162348413018316381530000010173103479174782645_"><use xlink:href="#SVGID_00000014609316997869651920000012188425387910747544_" style="overflow:visible"/></clipPath><g style="clip-path:url(#SVGID_00000162348413018316381530000010173103479174782645_)"><defs><path id="SVGID_00000137838268644190005090000016958643366999457703_" d="M-602.93-3679.67h2532.07v7501.25H-602.93z"/></defs><clipPath id="SVGID_00000060718586242758881320000009813108972181940670_"><use xlink:href="#SVGID_00000137838268644190005090000016958643366999457703_" style="overflow:visible"/></clipPath></g><g><defs><path id="SVGID_00000048470940876083910710000008700290189894154420_" d="M162.94-1158.45c1.75-.44 1.72-.88 3.1-1.02 1.86-.18 1.96.03 3.8-.27 2.97-.49 3.79-.7 6.51-1.84.48-.2 2.15-2.37 1.09-2.44-2.11-.15-3.57-.18-5.54-.82-2.96-1.43-1.15-.9-5.28-4.4-2.21-1.86-4.44-.35-5.38 1.01-.65.94-.12 2.45-.67 3.69-1.24 2.81-.79 4.46.2 6.36.54.06 1.27-.04 2.17-.27"/></defs><clipPath id="SVGID_00000005969612876405755270000000546954774075505801_"><use xlink:href="#SVGID_00000048470940876083910710000008700290189894154420_" style="overflow:visible"/></clipPath><g style="clip-path:url(#SVGID_00000005969612876405755270000000546954774075505801_)"><defs><path id="SVGID_00000044886494789569503490000017527063499719084687_" d="M-602.93-3679.67h2532.07v7501.25H-602.93z"/></defs><clipPath id="SVGID_00000076579882996545546760000000014064879692147605_"><use xlink:href="#SVGID_00000044886494789569503490000017527063499719084687_" style="overflow:visible"/></clipPath></g></g><g><defs><path id="SVGID_00000044152267189899754770000013045393751981605001_" d="M75.69-1166.38c1.47 1.05 2.25.87 3.31 1.77 1.42 1.22 1.33 1.43 2.82 2.55 2.4 1.8 3.13 2.26 5.83 3.43.47.2 3.2-.09 2.53-.9-1.35-1.62-2.35-2.7-3.25-4.57-1.02-3.12-.14-1.45-.48-6.85-.18-2.88-2.82-3.45-4.45-3.19-1.13.18-1.86 1.61-3.13 2.07-2.89 1.05-3.83 2.28-4.51 4.3.43.73 1.19 1.29 1.33 1.39"/></defs><clipPath id="SVGID_00000178165481601321230870000009834026601652239008_"><use xlink:href="#SVGID_00000044152267189899754770000013045393751981605001_" style="overflow:visible"/></clipPath><g style="clip-path:url(#SVGID_00000178165481601321230870000009834026601652239008_)"><defs><path id="SVGID_00000163052815051954576460000011170592055304569492_" d="M-602.93-3679.67h2532.07v7501.25H-602.93z"/></defs><clipPath id="SVGID_00000168079539754031672070000007377481138986119050_"><use xlink:href="#SVGID_00000163052815051954576460000011170592055304569492_" style="overflow:visible"/></clipPath></g></g><g><defs><path id="SVGID_00000054948209818912367680000003620285815676855205_" d="M120.91-1222.63c6.29-13.41-1.08-23.98-13.79-19.73-5.23 1.75-5.18 8.41-8.49 14.21-1.94 3.4-6.19 8.76-9.47 16.98-2.39 5.98-6.27 24.34-7.2 27.43-1.01 3.35-2.14 7.33-3.26 10.7-.6.6 8.42 5.71 9.26 4.81.51-.54 5.31-9.69 6.35-11.24 3.85-5.7 15.01-24.43 18.43-30.57 2.57-4.64 6.19-8.37 8.17-12.59"/></defs><clipPath id="SVGID_00000047045385814935683100000002341756149285466511_"><use xlink:href="#SVGID_00000054948209818912367680000003620285815676855205_" style="overflow:visible"/></clipPath><g style="clip-path:url(#SVGID_00000047045385814935683100000002341756149285466511_)"><defs><path id="SVGID_00000149359773306703664970000005603021039382156982_" d="M-602.93-3679.67h2532.07v7501.25H-602.93z"/></defs><clipPath id="SVGID_00000041985593580716091720000012125883511388531632_"><use xlink:href="#SVGID_00000149359773306703664970000005603021039382156982_" style="overflow:visible"/></clipPath></g></g><g><defs><path id="SVGID_00000091010739738518498150000000160703243503926662_" d="M126.45-1317.38c-5.08-2.26-18.85-3.53-23.15 11-1.21 4.1-1.85 16.18-1.95 20.36-.23 9.68.73 30.36.27 38.27-.4 7.02-4.06 16.42-.21 21.28 1.65 2.08 6.37 5.42 11.53 4.82 1.28-.15 7.97-1.48 9.82-8.6 1.01-3.87.26-3.41 1.18-7.31 1.86-7.83 3.82-14.45 5.07-22.38 1.18-7.48 2.32-19.17 2.97-26.56.9-10.25 8.26-24.74-5.53-30.88"/></defs><clipPath id="SVGID_00000036965935135081004230000015625459894327550652_"><use xlink:href="#SVGID_00000091010739738518498150000000160703243503926662_" style="overflow:visible"/></clipPath><g style="clip-path:url(#SVGID_00000036965935135081004230000015625459894327550652_)"><defs><path id="SVGID_00000021108427504189487340000007254809778821867151_" d="M-602.93-3679.67h2532.07v7501.25H-602.93z"/></defs><clipPath id="SVGID_00000041999109970165620740000018178709276713689524_"><use xlink:href="#SVGID_00000021108427504189487340000007254809778821867151_" style="overflow:visible"/></clipPath></g></g><g><defs><path id="SVGID_00000146478020789918243780000012710052104121682613_" d="M141.21-1363.9c-1.95-9.62-3.68-13.59-11.06-16.65-7.7-3.19-13.71-2.51-19.96.23-17.66 7.73-13.96 28.25-9.38 43.78 2.14 7.25 3.48 16.92 4.33 24.4.36 3.19 4.92 2.65 5.53 2.74 7.69 1.14 14.53 1.17 21.4-.23 7.47-1.52 5.13-2.59 6.73-8.67 1.92-7.3 2.64-12.77 2.88-22.8.18-6.95.74-16.87-.47-22.8"/></defs><use xlink:href="#SVGID_00000146478020789918243780000012710052104121682613_" style="overflow:visible;fill-rule:evenodd;clip-rule:evenodd;fill:#e1000f"/><clipPath id="SVGID_00000078755766410722151510000004252638490482380707_"><use xlink:href="#SVGID_00000146478020789918243780000012710052104121682613_" style="overflow:visible"/></clipPath><g style="clip-path:url(#SVGID_00000078755766410722151510000004252638490482380707_)"><defs><path id="SVGID_00000180362006471948009850000008191471027752836773_" d="M-602.93-3679.67h2532.07v7501.25H-602.93z"/></defs><clipPath id="SVGID_00000069369777622996490650000012728983687364267679_"><use xlink:href="#SVGID_00000180362006471948009850000008191471027752836773_" style="overflow:visible"/></clipPath></g></g><g><defs><path id="SVGID_00000109715991480403162560000016972847843165619634_" d="M167.1-1283.61c1.32.93 2.7 1.62 4.02 2.54 2.24 1.57 3.15 3.34 4.43 5.71.16.28.27.72-.02.86-.13.06-.27.03-.41-.01-1.29-.36-2.03-1.29-3.03-2.18 1.06 2.32 1.55 4.95 2.41 7.35.1.3.2.66 0 .91-.26.32-.77.18-1.14.01-3.02-1.44-5.59-3.77-7.4-6.58-1.19-1.85-4.17-7.06-1.97-8.95.69-.6 1.96-.62 2.38.1"/></defs><use xlink:href="#SVGID_00000109715991480403162560000016972847843165619634_" style="overflow:visible;fill-rule:evenodd;clip-rule:evenodd;fill:#9f714f"/><clipPath id="SVGID_00000129174996647576452480000007444379983865332145_"><use xlink:href="#SVGID_00000109715991480403162560000016972847843165619634_" style="overflow:visible"/></clipPath><g style="clip-path:url(#SVGID_00000129174996647576452480000007444379983865332145_)"><defs><path id="SVGID_00000054975311937008717370000013091139236591778485_" d="M-602.93-3679.67h2532.07v7501.25H-602.93z"/></defs><clipPath id="SVGID_00000177445947579565799260000015715259948678878863_"><use xlink:href="#SVGID_00000054975311937008717370000013091139236591778485_" style="overflow:visible"/></clipPath></g></g><g><defs><path id="SVGID_00000140694021758384628930000001275582797414399895_" d="M138.16-1323.95c1.76.37 3.22 1.56 4.51 2.81 10.54 10.2 15 24.58 25.1 35.21.99 1.29-4.04 6.85-5.97 5.25-4.68-3.64-22.83-21.79-25.2-24.34-1.69-1.82-3.38-3.65-4.7-5.74-1.29-2.05-1.79-4.3-1.79-6.71 0-.85.04-1.71.27-2.53.91-3.21 4.69-4.6 7.78-3.95"/></defs><use xlink:href="#SVGID_00000140694021758384628930000001275582797414399895_" style="overflow:visible;fill-rule:evenodd;clip-rule:evenodd;fill:#e1000f"/><clipPath id="SVGID_00000181776564133307077580000007846247297630469531_"><use xlink:href="#SVGID_00000140694021758384628930000001275582797414399895_" style="overflow:visible"/></clipPath><g style="clip-path:url(#SVGID_00000181776564133307077580000007846247297630469531_)"><defs><path id="SVGID_00000163788065329840612640000006516937494823809461_" d="M-602.93-3679.67h2532.07v7501.25H-602.93z"/></defs><clipPath id="SVGID_00000065051151385568508240000004160657763309533075_"><use xlink:href="#SVGID_00000163788065329840612640000006516937494823809461_" style="overflow:visible"/></clipPath></g></g><g><defs><path id="SVGID_00000063604625004412618720000004424829409099708032_" d="M116.17-1350.95c-1.29-4.28-2.46-8.8-1.57-13.18.89-4.38 4.45-8.54 8.92-8.63 2.36-.05 4.64 1.03 6.4 2.6 1.76 1.57 3.05 3.6 4.12 5.69 3.18 6.19 4.68 13.08 6.01 19.91 1.37 7.04 2.59 14.11 3.81 21.18.13.72.25 1.46.18 2.18-.17 1.62-1.32 3-2.69 3.87-1.38.86-2.98 1.29-4.55 1.7-2.11.55-4.34.72-6.35-.38-2.18-1.19-3.13-4.36-3.99-6.51-1.25-3.12-2.49-6.25-3.69-9.39-2.4-6.27-4.66-12.61-6.6-19.04"/></defs><clipPath id="SVGID_00000010269672559140782670000005990307125504813445_"><use xlink:href="#SVGID_00000063604625004412618720000004424829409099708032_" style="overflow:visible"/></clipPath><g style="clip-path:url(#SVGID_00000010269672559140782670000005990307125504813445_)"><defs><path id="SVGID_00000021116885598672056060000007233272968582907523_" d="M-602.93-3679.67h2532.07v7501.25H-602.93z"/></defs><clipPath id="SVGID_00000134214748690931775450000008476342582034024874_"><use xlink:href="#SVGID_00000021116885598672056060000007233272968582907523_" style="overflow:visible"/></clipPath></g></g></g></g><g id="HEADER__x2B__TYPO"><defs><path id="SVGID_00000176722852710565890820000015834915409524360844_" d="M0 0h191.5v192H0z"/></defs><clipPath id="SVGID_00000133498373438642742430000016231192974077426857_"><use xlink:href="#SVGID_00000176722852710565890820000015834915409524360844_" style="overflow:visible"/></clipPath><g style="clip-path:url(#SVGID_00000133498373438642742430000016231192974077426857_)"><path d="m45.48 153.65.77-6.21c.11-.87-.11-1.73-.62-2.42-.53-.72-1.3-1.19-2.18-1.29l-13.79-1.71c-1.77-.22-3.4 1.09-3.63 2.92l-.72 5.83-18.46-2.64-5.05 35.21 55.47 7.94 5.04-35.23-16.83-2.4zm-16.42-8.34c.02-.18.14-.28.22-.27l13.79 1.71c.05.01.06.03.09.06.02.03.07.12.06.25l-.76 6.15-14.12-2.02.72-5.88z" style="fill:#00005c"/></g><g style="clip-path:url(#SVGID_00000133498373438642742430000016231192974077426857_)"><defs><filter id="Adobe_OpacityMaskFilter" filterUnits="userSpaceOnUse" x="121.9" y="26.92" width="64.13" height="82.6"><feColorMatrix values="1 0 0 0 0 0 1 0 0 0 0 0 1 0 0 0 0 0 1 0"/></filter></defs><mask maskUnits="userSpaceOnUse" x="121.9" y="26.92" width="64.13" height="82.6" id="b_00000021099709612812002780000017013699616814025866_"><g style="filter:url(#Adobe_OpacityMaskFilter)"><path id="a_00000136373637524553260540000002282111252370977457_" class="st277" d="m20.73 125 236.93 32.42 18.16-132.68L38.89-7.68 20.73 125z"/></g></mask><path d="m132.17 26.92-10.27 75.02 55.39 7.58 8.74-63.95-9.55-12.59-44.31-6.06z" style="mask:url(#b_00000021099709612812002780000017013699616814025866_);fill:#fff"/><path class="st128" d="m177.04 56.33-36.92-5.05a.701.701 0 1 1 .19-1.39l36.92 5.05a.701.701 0 1 1-.19 1.39zM175.53 67.4l-36.92-5.05c-.38-.05-.65-.4-.6-.79s.4-.65.79-.6l36.92 5.05a.701.701 0 1 1-.19 1.39zM168.9 60.86l-29.54-4.04a.701.701 0 1 1 .19-1.39l29.54 4.04a.701.701 0 1 1-.19 1.39zM163.05 48.77l-22.17-3.03a.701.701 0 1 1 .19-1.39l22.17 3.03c.38.05.65.4.6.79-.06.39-.41.66-.79.6z"/><path transform="rotate(7.793 143.966 36.716)" style="fill:#e1000f" d="M142.13 34.09h3.73v5.27h-3.73z"/><path transform="rotate(7.793 147.66 37.221)" style="fill:#fff" d="M145.82 34.59h3.73v5.27h-3.73z"/><path transform="rotate(7.793 151.354 37.726)" class="st128" d="M149.52 35.1h3.73v5.27h-3.73z"/><path style="fill:#d4d4d4" d="m174.96 44.06 11.07 1.51-9.55-12.59z"/><path class="st128" d="m174.01 78.48-36.92-5.05a.701.701 0 1 1 .19-1.39l36.92 5.05c.38.05.65.4.6.79-.05.39-.41.66-.79.6zM172.5 89.54l-36.92-5.05a.701.701 0 1 1 .19-1.39l36.92 5.05c.38.05.65.4.6.79-.06.38-.41.65-.79.6zM164.36 94.07l-29.54-4.04a.701.701 0 1 1 .19-1.39l29.54 4.04a.701.701 0 1 1-.19 1.39z"/></g><path class="st1733" d="m37.22 137.52-8.1-.77c.75-11.44 4.03-23.3 10.01-33.57 2.4-4.13 5.24-9.35 8.44-12.88 3.62-3.99 8.64-6.53 12.93-9.74 4.21-3.15 8.2-6.37 13.27-7.9 4.25-1.28 10.54-2.57 12.95 1.47 2.61 4.38-1.12 7.12-4.8 9.73-4.77 3.39-9.89 7.17-14.82 10.11-3.83 2.27-8.16 3.32-10.99 6.92-1.98 2.51-3.76 5.7-5.54 8.4-4.26 6.5-9.95 14.18-11.76 21.67l-1.59 6.56z" style="clip-path:url(#SVGID_00000133498373438642742430000016231192974077426857_)"/><path class="st1733" d="M34.35 134.35c-6.04-.37-6.71 6.25-7.02 10.53-.1 1.3-.38 6.2 2.24 3.91-.26 2.03 1.84 2.61 2.92.8.58.87.74 2.19 1.44 3.03 1.08-.67 1.9-1.91 2.99-2.51.44.99.98 1.94 2.11 2.38 1.21-1.52.44-3.14.83-4.76.82-.16 2.6-.76 3.09-1.54.62-.97-.2-2.7-.56-3.73-.61-1.77-1.76-3.1-2.72-4.45.19.06.36.16.5.29-1.72-2.1-2.73-3.76-5.82-3.95z" style="clip-path:url(#SVGID_00000133498373438642742430000016231192974077426857_)"/><g style="clip-path:url(#SVGID_00000133498373438642742430000016231192974077426857_)"><path d="M68.01 226.91c1.72-16.89 5.7-33.96 8.3-50.66 1.71-10.98 4.22-37.22 17.94-40.73 7.37-1.89 15.95 6.3 18.72 12.35 3.82 8.35 2.37 17.01.56 25.67-2.61 12.48-6.04 23.61-10.6 35.37-4.78 12.31-10.67 29.1-20.32 35.22-3.85 2.44-5.52 2.79-9.53-.42-8-6.42-4.11-12.61-5.07-16.8z" style="fill-rule:evenodd;clip-rule:evenodd;fill:#04518c"/></g><path class="st1733" d="M85.21 42.86c.38 5.63 3.75 12.21 8.29 16.19 3.87 3.39 14.12 5.12 16.88 2.37 2.2-2.22 2.91-5.2 2.27-11.36 1.25-1.26 2.33-1.78 2.8-2.58-2.66-2.77-3.79-5.94-5.04-9.45-1.86-5.19-5.02-9.96-11-10.26-4.78-.25-14.96 3.72-14.2 15.09z" style="clip-path:url(#SVGID_00000133498373438642742430000016231192974077426857_)"/><path class="st1733" d="M94 56.6c-1.87 4.16-6.06 7.77-9.01 11.23.73.74 9.15 4.4 9.01 4.83 1.6-4.6 4.24-7.89 5.88-12.36-.68-.1-6.18-3.03-5.86-3.76 0 .02-.01.04-.02.06z" style="clip-path:url(#SVGID_00000133498373438642742430000016231192974077426857_)"/><path class="st795" d="M104.05 109.65c4.25-3.37 9.39-6.7 7.97-12.83-1.89-8.16-5.54-15.41-9.27-22.28-10.26-4.39-21.01-3.52-32.3 1.22 2.26 19.31 5.63 43.97.19 62.95 6.02-1.11 12.02-1.25 18.02-2.33 8.27-1.48 10.53-1.68 12.43-10.34.72-3.35.1-14.11 2.96-16.39z" style="clip-path:url(#SVGID_00000133498373438642742430000016231192974077426857_)"/><path class="st1733" d="M157.47 219.08c-14.67-8.53-28.59-19.2-42.73-28.45-9.3-6.08-32.16-19.2-29.71-33.14 1.32-7.49 12.32-11.94 18.97-11.96 9.19-.04 16.47 4.85 23.61 10.08 10.29 7.52 19.02 15.24 27.84 24.24 9.24 9.43 22.1 21.72 23.7 33.04.64 4.51.26 6.18-4.32 8.51-9.11 4.62-13.15-1.48-17.36-2.32z" style="clip-path:url(#SVGID_00000133498373438642742430000016231192974077426857_)"/><g style="clip-path:url(#SVGID_00000133498373438642742430000016231192974077426857_)"><path d="M74.47 40.71c3.49-2.17 5.44-5.85 8.6-8.58 2.95-2.54 6.78-4.48 10.6-5.28 3.29-.69 6.18.53 8.96 1.48-3.42 2.28-1.87 6.95-2.31 10.21-.48 3.56-1.11 5.84-4.25 8.04-2.59 1.81-4.05-.3-4.19 5.32-.06 2.72 1.49 5.09.37 7.77-2.26 5.39-6.35 10.36-11.33 13.44-3.58 2.22-7.92 3.05-11.78 4.66-10.55 4.41-20.57 3.52-31.3.63C25.65 75.11 13 60.26 18.87 45.47c1.94-4.89 6.62-9.87 11.34-11.33 2.43-.75 6.4-.74 8.85-.09 4.8 1.29 7.81 5.89 12.29 7.81 7.15 3.07 14.14 2.59 21.24-.21.68-.26 1.3-.58 1.88-.94z" style="fill-rule:evenodd;clip-rule:evenodd;fill:#fae27e"/></g><path class="st795" d="M73.62 135.47c-16.06 19.23 6.53 51.03-8.13 80.14 27.47 1.62 62.34 5.94 65.85-17.42 0 0 22.14 5.54 18.79-23.79l-51.54-45.59c0 .01-8.9-12.57-24.97 6.66z" style="clip-path:url(#SVGID_00000133498373438642742430000016231192974077426857_)"/><path class="st277" d="M30.29 131.92s-6.29-3.36-.67-3.94 10.16 1.54 10.36 2.9c.2 1.36-1.87 2.03-1.87 2.03-.9-.91-8.98-2.93-8.12-.78-.11-.28.48.03.3-.21z" style="clip-path:url(#SVGID_00000133498373438642742430000016231192974077426857_)"/><path class="st795" d="M88.86 63.45s7.45-.17 12.74 2.55c0 0-4.57 9.61-4.69 8.69-.12-.91-11.28-2.92-14.02-2.57l5.97-8.67z" style="clip-path:url(#SVGID_00000133498373438642742430000016231192974077426857_)"/><path class="st1733" d="m141.19 87.54 6.5 4.4c-8.51 15.7-18.88 29.24-32.45 31.21-9.15 1.47-10.05-10.56-.39-12.17 1.49-.25 18.18-13.04 22.24-18.22.01.01 4.1-5.22 4.1-5.22z" style="clip-path:url(#SVGID_00000133498373438642742430000016231192974077426857_)"/><path class="st277" d="m73.78 128.85 26.71 2.88.73-2.04-27.41-3.01z" style="clip-path:url(#SVGID_00000133498373438642742430000016231192974077426857_)"/><path class="st1733" d="M107.94 120.48c-5.44-7.11-7.72-12.85-13.11-24.32-2.17-4.62-4.2-9.37.28-13.49 8.1-7.43 12.54 5.16 15.51 10.39 3.86 6.82 5.05 13.25 8.57 19.39.88 1.53 3.39 7.41-.44 9.74-3.81 2.33-9.42.11-10.81-1.71zM143.88 72.74c-1.15 3-3.32 5.44-4.49 8.42-.36.91-2.05 7.59-1.56 7.94 1.39.98 2.74 2.27 4.13 3.39 1.72 1.39 2.38 2.63 4.33 2.07 1.98-.57 4.06-2.49 5.66-3.72 3.58-2.76 6.88-6.05 9.28-9.94-.06-.1-.68-.94-.79-.84-1.26 1.09-2.21 2.67-3.85 3.3 1.22-1.56 2.87-3.55 4.01-5.26-.08-.14-1.17-2.03-1.26-1.93-1.59 1.69-3.16 3.41-4.88 4.34 1.69-1.49.4-.69 4.41-5.26-.5-.76-1.12-1.44-1.79-2.08-1.88 1.63-3.26 3.71-5.39 5.25 1.16-2.17 2.83-3.8 4.38-5.65.53-.63-2.01-1.02-2.23-.99-.86.1-1.78 1.15-2.41 1.68-2.59 2.16-5.2 5.44-8.06 7.04 1-2.24 2.06-4.61 1.91-7.19-.23-.13-1.15-.5-1.4-.57z" style="clip-path:url(#SVGID_00000133498373438642742430000016231192974077426857_)"/><path class="st795" d="M94.73 103.65s-3.97-7.21-2.16-18.62c0 0 3.01-5.58 6.96-6.06 0 0 8.95-.98 10.3 6.22 1.35 7.2 1.49 7.93 1.49 7.93l1.23 5.17c0 .01-13.16 4.37-17.82 5.36z" style="clip-path:url(#SVGID_00000133498373438642742430000016231192974077426857_)"/></g></svg>
