<svg xmlns="http://www.w3.org/2000/svg" xmlns:xlink="http://www.w3.org/1999/xlink" viewBox="0 0 192 192" style="enable-background:new 0 0 192 192" xml:space="preserve"><style>.st809{display:none}.st1735{display:inline;fill-rule:evenodd;clip-rule:evenodd}</style><g id="FOND"><linearGradient id="SVGID_1_" gradientUnits="userSpaceOnUse" x1="96" y1="8.636" x2="96" y2="196.047"><stop offset="0" style="stop-color:#fae27e"/><stop offset=".205" style="stop-color:#fade7b"/><stop offset=".392" style="stop-color:#fbd373"/><stop offset=".573" style="stop-color:#fbc165"/><stop offset=".748" style="stop-color:#fda752"/><stop offset=".919" style="stop-color:#fe863a"/><stop offset="1" style="stop-color:#ff732c"/></linearGradient><path style="fill:url(#SVGID_1_)" d="M0 0h192v192H0z"/></g><g id="ILLU"><defs><path id="SVGID_00000034776031018459179110000010028138494948587929_" d="M-106.37-1268.79v-127.97l-110.84-64.02-110.84 64.02v127.97l110.84 64.01z"/></defs><radialGradient id="SVGID_00000031198128227749218850000016374788436054334901_" cx="-111.403" cy="-1384.572" r="368.525" gradientUnits="userSpaceOnUse"><stop offset=".233" style="stop-color:#9797f7"/><stop offset=".551" style="stop-color:#518fff"/></radialGradient><use xlink:href="#SVGID_00000034776031018459179110000010028138494948587929_" style="overflow:visible;fill:url(#SVGID_00000031198128227749218850000016374788436054334901_)"/><clipPath id="SVGID_00000142871285755529672150000009947990437967513259_"><use xlink:href="#SVGID_00000034776031018459179110000010028138494948587929_" style="overflow:visible"/></clipPath><g style="clip-path:url(#SVGID_00000142871285755529672150000009947990437967513259_)"><defs><path id="SVGID_00000124863613059387850940000008589964511004699283_" d="M-226.62-1394.48c-.25 3.74-1.86 10.01-2.29 13.73 8.14 3.31 16.46 4.46 15.93.79-.6-4.41-.57-10.79-.17-15.21 1.4-11.54-9.27-13.81-12.42-8.39-.41 1.41-.95 7.63-1.05 9.08"/></defs><clipPath id="SVGID_00000050644078167564879900000001726671559134099355_"><use xlink:href="#SVGID_00000124863613059387850940000008589964511004699283_" style="overflow:visible"/></clipPath><g style="clip-path:url(#SVGID_00000050644078167564879900000001726671559134099355_)"><defs><path id="SVGID_00000160903840038410371420000005433553699239615667_" d="M-947.56-3679.67h2532.07v7501.25H-947.56z"/></defs><clipPath id="SVGID_00000176756738857757107160000005054062459151408564_"><use xlink:href="#SVGID_00000160903840038410371420000005433553699239615667_" style="overflow:visible"/></clipPath></g><defs><path id="SVGID_00000096023823438097964750000005847141912078394275_" d="M-228.48-1421.3c-1.13 3.38-2.76 13.62 3.19 22.84 2.66 4.12 6.73 5.73 11.13 7.01 4.92 1.43 9.19 1.65 11.14-2.84 1.07-2.46.64-5.93 1.04-8.59.93-.01 2.77-.26 3.85-.35-.74-4.78-.72-6.36-2.19-13.89-1.15-5.87-5.57-9.72-11.61-11.03-5.23-1.16-13.87-1.17-16.55 6.85"/></defs><clipPath id="SVGID_00000062193172931677441630000007563832255719207074_"><use xlink:href="#SVGID_00000096023823438097964750000005847141912078394275_" style="overflow:visible"/></clipPath><g style="clip-path:url(#SVGID_00000062193172931677441630000007563832255719207074_)"><defs><path id="SVGID_00000173849945467266882720000002766142684097988797_" d="M-947.56-3679.67h2532.07v7501.25H-947.56z"/></defs><clipPath id="SVGID_00000026841791422409842140000016415818906415246521_"><use xlink:href="#SVGID_00000173849945467266882720000002766142684097988797_" style="overflow:visible"/></clipPath></g><defs><path id="SVGID_00000101065937572156908480000010559483458287309198_" d="M-227.72-1402.68c.01-2.52-2.66-11.03 2.71-10.46 2.33.25 3.33 4.24 5.95 2.18 1.85-1.46 2.51-5.53 2.62-7.68.11-2.29-.93-6.77-1.54-8.74 3.42.63 8.66 1.89 12.04 1.42-3.72-3.11-10.13-3.27-14.56-2.77-6.2.7-9.23 7.22-9.88 12.98-.25 2.21-.54 7.24 2.5 12.85"/></defs><clipPath id="SVGID_00000030477515448764641450000005170287781436037782_"><use xlink:href="#SVGID_00000101065937572156908480000010559483458287309198_" style="overflow:visible"/></clipPath><g style="clip-path:url(#SVGID_00000030477515448764641450000005170287781436037782_)"><defs><path id="SVGID_00000000923459229918519840000009974787307213608625_" d="M-947.56-3679.67h2532.07v7501.25H-947.56z"/></defs><clipPath id="SVGID_00000072280204494585226180000013957913868000629434_"><use xlink:href="#SVGID_00000000923459229918519840000009974787307213608625_" style="overflow:visible"/></clipPath></g><defs><path id="SVGID_00000158011226110318592870000009552020361038537376_" d="M-215.55-1317.56c-5.56-.16-18.78 3.89-17.24 18.96.43 4.25 4.44 15.67 5.93 19.57 3.47 9.04 12.2 27.81 14.79 35.31 2.29 6.65 2.48 16.73 7.89 19.77 2.32 1.3 7.95 2.6 12.5.09 1.13-.62 6.81-4.39 5.82-11.68-.54-3.97-1.06-3.25-1.68-7.21-1.25-7.95-1.95-14.81-3.81-22.63-1.74-7.37-5.13-18.61-7.34-25.69-3.08-9.85-1.77-26.05-16.86-26.49"/></defs><clipPath id="SVGID_00000005263307337848623920000008495223442823084678_"><use xlink:href="#SVGID_00000158011226110318592870000009552020361038537376_" style="overflow:visible"/></clipPath><g style="clip-path:url(#SVGID_00000005263307337848623920000008495223442823084678_)"><defs><path id="SVGID_00000008871688347259818470000006692092160440470441_" d="M-947.56-3679.67h2532.07v7501.25H-947.56z"/></defs><clipPath id="SVGID_00000109007651947572200050000001072143640920196234_"><use xlink:href="#SVGID_00000008871688347259818470000006692092160440470441_" style="overflow:visible"/></clipPath></g><defs><path id="SVGID_00000014609316997869651920000012188425387910747544_" d="M-184.36-1231.45c-3.74-14.33-16.17-17.75-23.23-6.36-2.91 4.69 1.39 9.78 2.56 16.35.68 3.85.84 10.69 3.57 19.11 1.99 6.13 10.75 22.72 12.01 25.69 1.37 3.22 3.04 7 4.34 10.31-.08.85 10.12-.99 10.19-2.22.04-.74-2.12-10.85-2.31-12.71-.69-6.84-4.08-28.38-5.38-35.28-.97-5.2-.57-10.37-1.75-14.89"/></defs><clipPath id="SVGID_00000163069008218363072470000016891629908710590364_"><use xlink:href="#SVGID_00000014609316997869651920000012188425387910747544_" style="overflow:visible"/></clipPath><g style="clip-path:url(#SVGID_00000163069008218363072470000016891629908710590364_)"><defs><path id="SVGID_00000137838268644190005090000016958643366999457703_" d="M-947.56-3679.67h2532.07v7501.25H-947.56z"/></defs><clipPath id="SVGID_00000171705687860069423970000009337626487049537461_"><use xlink:href="#SVGID_00000137838268644190005090000016958643366999457703_" style="overflow:visible"/></clipPath></g><g><defs><path id="SVGID_00000048470940876083910710000008700290189894154420_" d="M-181.69-1158.45c1.75-.44 1.72-.88 3.1-1.02 1.86-.18 1.96.03 3.8-.27 2.97-.49 3.79-.7 6.51-1.84.48-.2 2.15-2.37 1.09-2.44-2.11-.15-3.57-.18-5.54-.82-2.96-1.43-1.15-.9-5.28-4.4-2.21-1.86-4.44-.35-5.38 1.01-.65.94-.12 2.45-.67 3.69-1.24 2.81-.79 4.46.2 6.36.54.06 1.27-.04 2.17-.27"/></defs><clipPath id="SVGID_00000123421705940217998090000002345926287417293458_"><use xlink:href="#SVGID_00000048470940876083910710000008700290189894154420_" style="overflow:visible"/></clipPath><g style="clip-path:url(#SVGID_00000123421705940217998090000002345926287417293458_)"><defs><path id="SVGID_00000044886494789569503490000017527063499719084687_" d="M-947.56-3679.67h2532.07v7501.25H-947.56z"/></defs><clipPath id="SVGID_00000096036567257006668800000010140358044101524368_"><use xlink:href="#SVGID_00000044886494789569503490000017527063499719084687_" style="overflow:visible"/></clipPath></g></g><g><defs><path id="SVGID_00000044152267189899754770000013045393751981605001_" d="M-268.94-1166.38c1.47 1.05 2.25.87 3.31 1.77 1.42 1.22 1.33 1.43 2.82 2.55 2.4 1.8 3.13 2.26 5.83 3.43.47.2 3.2-.09 2.53-.9-1.35-1.62-2.35-2.7-3.25-4.57-1.02-3.12-.14-1.45-.48-6.85-.18-2.88-2.82-3.45-4.45-3.19-1.13.18-1.86 1.61-3.13 2.07-2.89 1.05-3.83 2.28-4.51 4.3.43.73 1.19 1.29 1.33 1.39"/></defs><clipPath id="SVGID_00000049209656858259781790000011353971703450291389_"><use xlink:href="#SVGID_00000044152267189899754770000013045393751981605001_" style="overflow:visible"/></clipPath><g style="clip-path:url(#SVGID_00000049209656858259781790000011353971703450291389_)"><defs><path id="SVGID_00000163052815051954576460000011170592055304569492_" d="M-947.56-3679.67h2532.07v7501.25H-947.56z"/></defs><clipPath id="SVGID_00000083058826139372788110000013931071779564394643_"><use xlink:href="#SVGID_00000163052815051954576460000011170592055304569492_" style="overflow:visible"/></clipPath></g></g><g><defs><path id="SVGID_00000054948209818912367680000003620285815676855205_" d="M-223.72-1222.63c6.29-13.41-1.08-23.98-13.79-19.73-5.23 1.75-5.18 8.41-8.49 14.21-1.94 3.4-6.19 8.76-9.47 16.98-2.39 5.98-6.27 24.34-7.2 27.43-1.01 3.35-2.14 7.33-3.26 10.7-.6.6 8.42 5.71 9.26 4.81.51-.54 5.31-9.69 6.35-11.24 3.85-5.7 15.01-24.43 18.43-30.57 2.57-4.64 6.19-8.37 8.17-12.59"/></defs><clipPath id="SVGID_00000127002042301384040220000001632751129694673056_"><use xlink:href="#SVGID_00000054948209818912367680000003620285815676855205_" style="overflow:visible"/></clipPath><g style="clip-path:url(#SVGID_00000127002042301384040220000001632751129694673056_)"><defs><path id="SVGID_00000149359773306703664970000005603021039382156982_" d="M-947.56-3679.67h2532.07v7501.25H-947.56z"/></defs><clipPath id="SVGID_00000105429222086044246140000003986623445491356052_"><use xlink:href="#SVGID_00000149359773306703664970000005603021039382156982_" style="overflow:visible"/></clipPath></g></g><g><defs><path id="SVGID_00000091010739738518498150000000160703243503926662_" d="M-218.19-1317.38c-5.08-2.26-18.85-3.53-23.15 11-1.21 4.1-1.85 16.18-1.95 20.36-.23 9.68.73 30.36.27 38.27-.4 7.02-4.06 16.42-.21 21.28 1.65 2.08 6.37 5.42 11.53 4.82 1.28-.15 7.97-1.48 9.82-8.6 1.01-3.87.26-3.41 1.18-7.31 1.86-7.83 3.82-14.45 5.07-22.38 1.18-7.48 2.32-19.17 2.97-26.56.91-10.25 8.26-24.74-5.53-30.88"/></defs><clipPath id="SVGID_00000145041161850028617590000006385069328642458011_"><use xlink:href="#SVGID_00000091010739738518498150000000160703243503926662_" style="overflow:visible"/></clipPath><g style="clip-path:url(#SVGID_00000145041161850028617590000006385069328642458011_)"><defs><path id="SVGID_00000021108427504189487340000007254809778821867151_" d="M-947.56-3679.67h2532.07v7501.25H-947.56z"/></defs><clipPath id="SVGID_00000000908092901096178240000011520761251556478388_"><use xlink:href="#SVGID_00000021108427504189487340000007254809778821867151_" style="overflow:visible"/></clipPath></g></g><g><defs><path id="SVGID_00000146478020789918243780000012710052104121682613_" d="M-203.42-1363.9c-1.95-9.62-3.68-13.59-11.06-16.65-7.7-3.19-13.71-2.51-19.96.23-17.66 7.73-13.96 28.25-9.38 43.78 2.14 7.25 3.48 16.92 4.33 24.4.36 3.19 4.92 2.65 5.53 2.74 7.69 1.14 14.53 1.17 21.4-.23 7.47-1.52 5.13-2.59 6.73-8.67 1.92-7.3 2.64-12.77 2.88-22.8.18-6.95.73-16.87-.47-22.8"/></defs><use xlink:href="#SVGID_00000146478020789918243780000012710052104121682613_" style="overflow:visible;fill-rule:evenodd;clip-rule:evenodd;fill:#e1000f"/><clipPath id="SVGID_00000153669943112445856160000006577793517392082361_"><use xlink:href="#SVGID_00000146478020789918243780000012710052104121682613_" style="overflow:visible"/></clipPath><g style="clip-path:url(#SVGID_00000153669943112445856160000006577793517392082361_)"><defs><path id="SVGID_00000180362006471948009850000008191471027752836773_" d="M-947.56-3679.67h2532.07v7501.25H-947.56z"/></defs><clipPath id="SVGID_00000016754836964086096560000000593166890983859636_"><use xlink:href="#SVGID_00000180362006471948009850000008191471027752836773_" style="overflow:visible"/></clipPath></g></g><g><defs><path id="SVGID_00000109715991480403162560000016972847843165619634_" d="M-177.53-1283.61c1.32.93 2.7 1.62 4.02 2.54 2.24 1.57 3.15 3.34 4.43 5.71.16.28.27.72-.02.86-.13.06-.27.03-.41-.01-1.29-.36-2.03-1.29-3.03-2.18 1.06 2.32 1.55 4.95 2.41 7.35.1.3.2.66 0 .91-.26.32-.77.18-1.14.01-3.02-1.44-5.59-3.77-7.4-6.58-1.19-1.85-4.17-7.06-1.97-8.95.69-.6 1.96-.62 2.38.1"/></defs><use xlink:href="#SVGID_00000109715991480403162560000016972847843165619634_" style="overflow:visible;fill-rule:evenodd;clip-rule:evenodd;fill:#9f714f"/><clipPath id="SVGID_00000175318257912298351330000016252066724196331706_"><use xlink:href="#SVGID_00000109715991480403162560000016972847843165619634_" style="overflow:visible"/></clipPath><g style="clip-path:url(#SVGID_00000175318257912298351330000016252066724196331706_)"><defs><path id="SVGID_00000054975311937008717370000013091139236591778485_" d="M-947.56-3679.67h2532.07v7501.25H-947.56z"/></defs><clipPath id="SVGID_00000143579631258963295450000008593606763572013738_"><use xlink:href="#SVGID_00000054975311937008717370000013091139236591778485_" style="overflow:visible"/></clipPath></g></g><g><defs><path id="SVGID_00000140694021758384628930000001275582797414399895_" d="M-206.47-1323.95c1.76.37 3.22 1.56 4.51 2.81 10.54 10.2 15 24.58 25.1 35.21.99 1.29-4.04 6.85-5.97 5.25-4.68-3.64-22.83-21.79-25.2-24.34-1.69-1.82-3.38-3.65-4.7-5.74-1.29-2.05-1.79-4.3-1.79-6.71 0-.85.04-1.71.27-2.53.9-3.21 4.69-4.6 7.78-3.95"/></defs><use xlink:href="#SVGID_00000140694021758384628930000001275582797414399895_" style="overflow:visible;fill-rule:evenodd;clip-rule:evenodd;fill:#e1000f"/><clipPath id="SVGID_00000178163719537242800010000009261119780499041192_"><use xlink:href="#SVGID_00000140694021758384628930000001275582797414399895_" style="overflow:visible"/></clipPath><g style="clip-path:url(#SVGID_00000178163719537242800010000009261119780499041192_)"><defs><path id="SVGID_00000163788065329840612640000006516937494823809461_" d="M-947.56-3679.67h2532.07v7501.25H-947.56z"/></defs><clipPath id="SVGID_00000114778543253667218620000010476319199807786637_"><use xlink:href="#SVGID_00000163788065329840612640000006516937494823809461_" style="overflow:visible"/></clipPath></g></g><g><defs><path id="SVGID_00000063604625004412618720000004424829409099708032_" d="M-228.46-1350.95c-1.29-4.28-2.46-8.8-1.57-13.18.89-4.38 4.45-8.54 8.92-8.63 2.36-.05 4.64 1.03 6.4 2.6 1.76 1.57 3.05 3.6 4.12 5.69 3.18 6.19 4.68 13.08 6.01 19.91 1.37 7.04 2.59 14.11 3.81 21.18.13.72.25 1.46.18 2.18-.17 1.62-1.32 3-2.69 3.87-1.38.86-2.98 1.29-4.55 1.7-2.11.55-4.34.72-6.35-.38-2.18-1.19-3.13-4.36-3.99-6.51-1.25-3.12-2.49-6.25-3.69-9.39-2.41-6.27-4.66-12.61-6.6-19.04"/></defs><clipPath id="SVGID_00000160904486564997392310000004716093281777240469_"><use xlink:href="#SVGID_00000063604625004412618720000004424829409099708032_" style="overflow:visible"/></clipPath><g style="clip-path:url(#SVGID_00000160904486564997392310000004716093281777240469_)"><defs><path id="SVGID_00000021116885598672056060000007233272968582907523_" d="M-947.56-3679.67h2532.07v7501.25H-947.56z"/></defs><clipPath id="SVGID_00000167371604330074370810000011163206811468017329_"><use xlink:href="#SVGID_00000021116885598672056060000007233272968582907523_" style="overflow:visible"/></clipPath></g></g></g></g><g id="HEADER__x2B__TYPO"><defs><path id="SVGID_00000021820380062778787890000004036056270983035814_" d="M0 0h192v192H0z"/></defs><clipPath id="SVGID_00000067214082503406899630000017560681788944306079_"><use xlink:href="#SVGID_00000021820380062778787890000004036056270983035814_" style="overflow:visible"/></clipPath><path style="clip-path:url(#SVGID_00000067214082503406899630000017560681788944306079_);fill:#518fff" d="m96.24 148.94 21.12 31.43 9.57-25.93z"/><path style="clip-path:url(#SVGID_00000067214082503406899630000017560681788944306079_);fill:#73e0cf" d="M256.02 80c-68.69 0-3.18 104.68-144.24 48.03C32.02 96 64.02 192-1 192v-18.23c20.7 0 71.21-80.04 97-80.04 38.35 0 31.51 50.28 96-29.72L256.02 80z"/><path style="clip-path:url(#SVGID_00000067214082503406899630000017560681788944306079_);fill:#fff" d="M103.38 32.45s-44.39 25.93-55.16 47.2C32.73 76.76 4.89 69.4 4.89 69.4s26.79-46.23 49.25-56.73c18.25 3.42 49.24 19.78 49.24 19.78zM129.95 164.63l-37.24-25.15s45.56-43.09 49.89-56.33c14.57 12.59 22.41 18.37 30.73 25.34-.79 15.01-32.92 51.02-43.38 56.14z"/><path style="clip-path:url(#SVGID_00000067214082503406899630000017560681788944306079_);fill:#0909b9" d="m132.91 138.23-15.55 42.14 52.91 2.28 14.83-33.31z"/><path style="clip-path:url(#SVGID_00000067214082503406899630000017560681788944306079_);fill:#73e0cf" d="M.02 144c42.84-27.71 32-80 56-104s55.27 24 104-40c27.97-36.73 85.45 7.59 85.45 7.59C189.59 48 202.06 48 176.02 60.03c-15.17 7.01-32.27-12.03-64-12.03C63.55 48 23.33 165.64-9.44 165.64S.02 144 .02 144z"/><path style="clip-path:url(#SVGID_00000067214082503406899630000017560681788944306079_);fill:#fff" d="m61 144-12.36 1.12L37 162.07l12 4.54z"/><path style="clip-path:url(#SVGID_00000067214082503406899630000017560681788944306079_);fill:#518fff" d="M113.82 67.81c5.55.93 7.96 3.21 19.89-13.57s16.93-23.81 22.11-27.32c-3.7-1.85-5.55-2.78-5.55-2.78l36.82-14.8v31.82l-12.95-5.37s-12.77 13.69-19.8 25.53c-7.03 11.84-14.81 21.65-23.68 21.65s-16.84-15.16-16.84-15.16z"/><path style="clip-path:url(#SVGID_00000067214082503406899630000017560681788944306079_);fill:#0909b9" d="M93.47 56.89c5.6.46 7.35 9.99 12.95 17.58 5.6 7.59 20.17 8.7 24.24 8.51-6.11-2.98-11.55-28.6-26.22-28.73s-10.97 2.64-10.97 2.64z"/><path style="clip-path:url(#SVGID_00000067214082503406899630000017560681788944306079_);fill:#518fff" d="M0 160v16s33.53-25.68 60.91-70.45 37-50.32 47.36-50.51C90.51 51.52 67.75 42.83 44 100.92 21.63 155.66 0 160 0 160z"/><g style="clip-path:url(#SVGID_00000067214082503406899630000017560681788944306079_)"><path d="M72.75 85.51a31.934 31.934 0 0 0-18.21-5.67c-17.72 0-32.08 14.36-32.08 32.08S36.82 144 54.54 144s32.08-14.36 32.08-32.08c0-.57-.02-1.13-.04-1.68l-32.04 1.99 18.21-26.72z" style="fill:#0909b9"/></g><g style="clip-path:url(#SVGID_00000067214082503406899630000017560681788944306079_)"><path d="m93.87 69.61-23.32 34.21 41.03-2.55c-.68-13.13-7.53-24.63-17.71-31.66z" style="fill:#ff732c"/></g></g></svg>
