<?xml version="1.0" encoding="utf-8"?>
<!-- Generator: Adobe Illustrator 16.0.0, SVG Export Plug-In . SVG Version: 6.00 Build 0)  -->
<!DOCTYPE svg PUBLIC "-//W3C//DTD SVG 1.1//EN" "http://www.w3.org/Graphics/SVG/1.1/DTD/svg11.dtd">
<svg version="1.1" id="Слой_1" xmlns="http://www.w3.org/2000/svg" xmlns:xlink="http://www.w3.org/1999/xlink" x="0px" y="0px"
	 width="50px" height="50px" viewBox="0 0 50 50" enable-background="new 0 0 50 50" xml:space="preserve">
<path d="M47.54,10.061h-6.217c0.064-0.206,0.088-0.409,0.088-0.6c0-0.149,0.008-0.365,0.017-0.615
	c0.065-1.996,0.19-5.713-1.675-7.642c-0.735-0.763-1.684-1.147-2.813-1.147c-2.908,0-6.592,2.668-8.041,3.813
	C28.338,4.314,26.167,6.083,25,7.715c-1.168-1.633-3.342-3.399-3.902-3.845c-1.447-1.146-5.131-3.813-8.038-3.813
	c-1.132,0-2.077,0.386-2.813,1.147C8.381,3.133,8.506,6.85,8.571,8.846c0.009,0.25,0.017,0.466,0.017,0.615
	c0,0.189,0.023,0.394,0.088,0.6H2.459c-1.258,0-2.279,1.021-2.279,2.279v9.561c0,1.257,1.021,2.279,2.279,2.279h1.832v24.134
	c0,0.898,0.729,1.629,1.627,1.629h38.164c0.898,0,1.627-0.73,1.627-1.629V24.18h1.832c1.259,0,2.279-1.022,2.279-2.279V12.34
	C49.819,11.083,48.799,10.061,47.54,10.061L47.54,10.061z M27.378,22.227h-4.757V12.072h4.757V22.227z M30.319,5.241
	c2.605-2.021,5.08-3.23,6.621-3.23c0.596,0,1.043,0.177,1.408,0.554c1.289,1.333,1.174,4.755,1.125,6.217
	c-0.008,0.267-0.019,0.494-0.019,0.677C39.4,9.506,28.287,9.92,27.412,9.805c-0.844-0.109-1.125-0.278-1.201-0.338
	C26.405,8.924,27.859,7.154,30.319,5.241L30.319,5.241z M11.65,2.564c0.363-0.377,0.813-0.554,1.409-0.554
	c1.54,0,4.015,1.209,6.618,3.23c2.463,1.912,3.916,3.684,4.108,4.225c-0.075,0.061-0.356,0.229-1.202,0.34
	c-0.875,0.115-11.986-0.299-12.043-0.35c0-0.182-0.008-0.41-0.017-0.676C10.477,7.319,10.361,3.897,11.65,2.564L11.65,2.564z
	 M2.133,21.901V12.34c0-0.178,0.148-0.326,0.326-0.326h18.207v10.213H2.459C2.282,22.227,2.133,22.077,2.133,21.901L2.133,21.901z
	 M6.244,47.988V24.18h14.422v23.808H6.244z M22.62,47.988V24.18h4.758v23.808H22.62z M43.755,47.988H29.333V24.18h14.422V47.988z
	 M47.866,21.901c0,0.177-0.149,0.326-0.326,0.326H29.333V12.014H47.54c0.177,0,0.326,0.148,0.326,0.326V21.901z"/>
</svg>
