<?xml version="1.0" encoding="utf-8"?>
<!-- Generator: Adobe Illustrator 16.0.0, SVG Export Plug-In . SVG Version: 6.00 Build 0)  -->
<!DOCTYPE svg PUBLIC "-//W3C//DTD SVG 1.1//EN" "http://www.w3.org/Graphics/SVG/1.1/DTD/svg11.dtd">
<svg version="1.1" id="Слой_1" xmlns="http://www.w3.org/2000/svg" xmlns:xlink="http://www.w3.org/1999/xlink" x="0px" y="0px"
	 width="50px" height="50px" viewBox="0 0 50 50" enable-background="new 0 0 50 50" xml:space="preserve">
<path d="M25.801,20c-0.219,0.006-0.427,0.098-0.58,0.254l-4.396,4.383l-2.708-2.7c-0.759-0.791-1.984,0.431-1.193,1.187l3.309,3.297
	c0.327,0.329,0.859,0.329,1.191,0l4.99-4.977C26.963,20.908,26.561,20,25.801,20L25.801,20z M0.833,26.667h5
	c0.463,0,0.834,0.371,0.834,0.833s-0.371,0.833-0.834,0.833h-5C0.371,28.333,0,27.962,0,27.5S0.371,26.667,0.833,26.667z M0.833,20
	h5c0.463,0,0.834,0.371,0.834,0.832c0,0.463-0.371,0.834-0.834,0.834h-5C0.371,21.666,0,21.294,0,20.832C0,20.371,0.371,20,0.833,20
	z M0.833,13.332h5c0.463,0,0.834,0.373,0.834,0.834s-0.371,0.832-0.834,0.832h-5C0.371,14.998,0,14.627,0,14.166
	S0.371,13.332,0.833,13.332z M40.832,31.667c-2.291,0-4.166,1.875-4.166,4.166c0,2.292,1.875,4.167,4.166,4.167
	C43.125,40,45,38.125,45,35.833C45,33.542,43.125,31.667,40.832,31.667z M40.832,33.333c1.393,0,2.5,1.109,2.5,2.5
	s-1.107,2.5-2.5,2.5c-1.389,0-2.5-1.109-2.5-2.5S39.443,33.333,40.832,33.333z M19.167,31.667c-2.291,0-4.166,1.875-4.166,4.166
	C15,38.125,16.875,40,19.167,40s4.166-1.875,4.166-4.167C23.333,33.542,21.458,31.667,19.167,31.667z M19.167,33.333
	c1.391,0,2.5,1.109,2.5,2.5s-1.109,2.5-2.5,2.5s-2.5-1.109-2.5-2.5S17.777,33.333,19.167,33.333z M10.833,10
	c-1.369,0-2.5,1.129-2.5,2.5v18.333c0,1.371,1.131,2.5,2.5,2.5h3.334c1.127,0.017,1.127-1.684,0-1.666h-3.334
	c-0.477,0-0.832-0.356-0.832-0.834V12.5c0-0.478,0.355-0.834,0.832-0.834H32.5c0.477,0,0.832,0.356,0.832,0.834v19.167h-9.166
	c-1.101,0-1.08,1.683,0,1.666h11.666c1.102,0,1.092-1.666,0-1.666H35V16.666h7.043l6.289,9.829v4.339
	c0,0.478-0.355,0.834-0.832,0.834h-1.668c-1.09,0-1.09,1.666,0,1.666H47.5c1.369,0,2.5-1.129,2.5-2.5v-4.583
	c0-0.158-0.047-0.315-0.131-0.449l-6.666-10.417c-0.152-0.238-0.418-0.383-0.703-0.383H35v-2.5c0-1.371-1.131-2.5-2.5-2.5H10.833V10
	z"/>
</svg>
