<svg
   xmlns="http://www.w3.org/2000/svg"
   viewBox="0 0 24 24"
   fill="currentColor"
   role="img"
   focusable="false"
   aria-hidden="true"
   class="gnav-header-19yzbvj e18c60hj0">

    <path fill-rule="evenodd"
       d="M 18.115673,5.4109315 V 8.2443827 Q 16.905138,6.8476109 15.774418,6.2489945 14.657,5.650378 13.300136,5.650378 q -2.088506,0 -3.4320672,1.3302588 Q 8.5245074,8.3108956 8.0988246,10.79848 h 7.6755934 l -0.731643,1.636218 H 7.8859832 q -0.026605,0.319262 -0.039908,0.625221 0,0.30596 0,0.771551 0,0.425682 0,0.731642 0.013303,0.305959 0.039908,0.625222 h 5.9329538 l -0.744945,1.636218 H 8.0988246 q 0.4256828,2.487584 1.7692442,3.831145 1.3435612,1.343562 3.4320672,1.343562 1.356864,0 2.474282,-0.598617 1.13072,-0.598616 2.341255,-1.995388 V 22.2121 q -1.18393,0.957786 -2.421071,1.436679 -1.223838,0.478894 -2.500886,0.478894 -3.152714,0 -5.2146147,-1.928876 -2.0485985,-1.928875 -2.580702,-5.374245 H 2.5915532 l 0.7316423,-1.636218 h 1.8490598 q 0,-0.30596 -0.013303,-0.611919 0,-0.319263 0,-0.744945 0,-0.465591 0,-0.771551 0.013303,-0.319262 0.013303,-0.625221 H 2.5915532 L 3.3231955,10.79848 H 5.3983993 Q 5.9305028,7.3797145 7.9924039,5.4508392 10.054305,3.521964 13.193716,3.521964 q 1.303653,0 2.527491,0.4788931 1.237141,0.4655906 2.394466,1.4100744 z"
       clip-rule="evenodd"></path>
</svg>
