<svg
    xmlns="http://www.w3.org/2000/svg"
    viewBox="0 0 24 24"
    fill="currentColor"
    role="img"
    focusable="false"
    aria-hidden="true"
    class="gnav-header-19yzbvj e18c60hj0">
  <path fill-rule="evenodd"
     d="M 14.599227,7.8850748 V 21.496931 H 7.7742592 L 7.823339,7.9341546 c 2.462061,1.4225222 4.152017,1.3147095 6.775888,-0.04908 z m 1.318459,-2.8413329 c 0,0.2135669 -0.129261,0.418591 -0.387782,0.6150725 -0.258522,0.1879386 -0.620452,0.354521 -1.08579,0.4997462 -0.439487,0.1366831 -0.95653,0.247738 -1.551129,0.3331647 -0.568748,0.085427 -1.176273,0.1281398 -1.822577,0.1281398 -0.646303,0 -1.2538291,-0.042711 -1.8225764,-0.1281398 C 8.6790843,6.4062986 8.1749675,6.2952437 7.7354809,6.1585606 7.3218464,6.0133354 6.9857686,5.846753 6.727247,5.6588144 6.4687256,5.4623329 6.3394649,5.2573088 6.3394649,5.0437419 6.3394649,4.8216324 6.4687265,4.6166083 6.727247,4.4286694 6.9857686,4.2321879 7.3218464,4.0613345 7.7354809,3.916109 8.1749675,3.7708836 8.6790843,3.6555575 9.2478316,3.5701307 9.8165789,3.484704 10.424105,3.4419906 11.070408,3.4419906 c 0.646304,0 1.253829,0.042714 1.822577,0.1281401 0.594599,0.085427 1.111642,0.2007529 1.551129,0.3459783 0.465338,0.1452255 0.827268,0.3160789 1.08579,0.5125604 0.258522,0.1879389 0.387782,0.392963 0.387782,0.6150725 z"
    clip-rule="evenodd"></path>

  <path fill-rule="evenodd"
     d="M -8.2453988,9.0306748 12.012472,14.458755"
        clip-rule="evenodd"></path>
  <ellipse
     ry="0.39263803"
     rx="0.46625766"
     cy="5.0552149"
     cx="9.1533747"
     id="path1080"
     style="fill:#ffffff;fill-opacity:1;stroke:none;stroke-width:0.3;stroke-miterlimit:4;stroke-dasharray:none;stroke-opacity:1;paint-order:stroke markers fill" />
  <ellipse
     style="fill:#ffffff;fill-opacity:1;stroke:none;stroke-width:0.3;stroke-miterlimit:4;stroke-dasharray:none;stroke-opacity:1;paint-order:stroke markers fill"
     id="path1080-9"
     cx="12.760736"
     cy="5.006135"
     rx="0.46625766"
     ry="0.39263803" />
</svg>
